<svg width="39" height="46" viewBox="0 0 39 46" fill="none" xmlns="http://www.w3.org/2000/svg">
<path id="Subtract" fill-rule="evenodd" clip-rule="evenodd" d="M6.05801 33.0798L18.1482 45.4301C18.5051 45.7947 18.992 46 19.5 46C20.0079 46 20.4963 45.7932 20.8532 45.4286L32.9419 33.0798C40.35 25.5124 40.35 13.2529 32.9419 5.68551C25.5209 -1.89517 13.4791 -1.89517 6.05801 5.68551C-1.35007 13.2529 -1.35007 25.5124 6.05801 33.0798ZM19.5 11.0638C15.7637 11.0638 12.7349 14.1196 12.7349 17.889C12.7349 21.6584 15.7637 24.7142 19.5 24.7142C23.2363 24.7142 26.2651 21.6584 26.2651 17.889C26.2651 14.1196 23.2363 11.0638 19.5 11.0638Z" fill="#0F0F10"/>
</svg>
