<svg width="120" height="44" viewBox="0 0 120 44" fill="none" xmlns="http://www.w3.org/2000/svg">
    <rect width="120" height="44" rx="16" fill="#BBFF65"/>
    <path d="M28.313 15.219V20.5h2.093v1.625h-2.093v7.344h-2v-14.25h2zM17.655 26.016V16.53h6.672v1.61h-4.687v6.234c2.062-.016 3.765-.125 5.656-.453l.219 1.672c-2.211.375-4.149.43-6.657.422h-1.203zm18.797-7.578c-.008 2.609 1.18 5.226 3.594 6.25l-1.172 1.593c-1.625-.734-2.75-2.156-3.398-3.914-.641 1.922-1.805 3.469-3.54 4.258l-1.203-1.656c2.485-1.047 3.696-3.774 3.703-6.532v-2.125h2.016v2.125zm4.36 11.03v-14.25h2.015v14.25h-2.016zm20.593-5.734v1.625h-5.515v4.094h-1.97V25.36h-5.483v-1.625h12.968zm-12.312-2.328c2.953-.328 4.554-1.718 4.797-2.984h-4.282v-1.563h4.313v-1.625h1.969v1.625h4.328v1.563h-4.266c.219 1.25 1.82 2.656 4.766 2.984L60 22.97c-2.414-.274-4.156-1.266-5.078-2.555-.93 1.305-2.68 2.281-5.11 2.555l-.718-1.563zM67.5 18.563c.008 1.601 1.047 3.234 3.36 3.937l-.954 1.547c-1.594-.461-2.719-1.438-3.36-2.672-.632 1.336-1.757 2.39-3.405 2.906l-.97-1.562c2.313-.696 3.345-2.422 3.345-4.157v-.109h-2.86v-1.562h2.86v-1.578h2.015v1.578h2.844v1.562H67.5v.11zm-2.688 10.625v-4.313h2v2.719h7.782v1.593h-9.781zm5.094-8.204v-1.609h2.36v-4.14h1.984V25.78h-1.984v-4.797h-2.36zm17.469-5.765v3.234h1.922v1.64h-1.922v3.423h-2v-8.297h2zm-10.86 7.594v-6.766H78.5v1.812h2.906v-1.812h2v6.765h-6.89zm1.563 6.437v-5.094h9.375v1.578h-7.39v1.953h7.656v1.563h-9.64zm.422-8h2.906v-1.844H78.5v1.844zm23.375-6.031v14.219h-2.016v-14.22h2.016zM89.969 25.406c3.672-1.734 5.289-3.984 5.61-7.14h-4.845v-1.563h6.875c-.007 4.313-1.515 7.899-6.593 10.297l-1.047-1.594z" fill="#000"/>
</svg>
