<svg width="120" height="44" viewBox="0 0 120 44" fill="none" xmlns="http://www.w3.org/2000/svg">
<rect width="120" height="44" rx="16" fill="#BBFF65"/>
<path d="M33.547 26.1875V27.8594H20.5314V26.1875H26.0001V23.625H21.6095V22.0625H23.5158V18H21.547V16.4062H32.4533V18H30.4533V22.0625H32.3908V23.625H27.9845V26.1875H33.547ZM25.5158 22.0625H28.4845V18H25.5158V22.0625ZM47.1831 26.0938V27.7188H34.1675V26.0938H47.1831ZM34.6988 22.4375C37.8081 21.9609 39.5972 20.0156 39.605 18.0312V18.0156H35.2456V16.4219H46.0425V18.0156H41.6988V18.0312C41.6909 20.0156 43.4878 21.8906 46.6988 22.375L45.9175 23.9531C43.4253 23.5156 41.5816 22.2891 40.6597 20.6172C39.7613 22.3281 37.9409 23.5938 35.48 24.0312L34.6988 22.4375ZM64.2679 23.7344V25.3594H58.7523V29.4531H56.7835V25.3594H51.2991V23.7344H64.2679ZM51.9554 21.4062C54.9085 21.0781 56.5101 19.6875 56.7523 18.4219H52.471V16.8594H56.7835V15.2344H58.7523V16.8594H63.0804V18.4219H58.8148C59.0335 19.6719 60.6351 21.0781 63.5804 21.4062L62.8616 22.9688C60.4476 22.6953 58.7054 21.7031 57.7835 20.4141C56.8538 21.7188 55.1038 22.6953 52.6741 22.9688L51.9554 21.4062ZM70.1696 18.5625C70.1774 20.1641 71.2165 21.7969 73.529 22.5L72.5759 24.0469C70.9821 23.5859 69.8571 22.6094 69.2165 21.375C68.5837 22.7109 67.4587 23.7656 65.8102 24.2812L64.8415 22.7188C67.154 22.0234 68.1852 20.2969 68.1852 18.5625V18.4531H65.3259V16.8906H68.1852V15.3125H70.2009V16.8906H73.0446V18.4531H70.1696V18.5625ZM67.4821 29.1875V24.875H69.4821V27.5938H77.2634V29.1875H67.4821ZM72.5759 20.9844V19.375H74.9352V15.2344H76.9196V25.7812H74.9352V20.9844H72.5759ZM92.8593 28.5938L91.5936 27.3438L94.9686 23.9688H87.0311V22.125H94.9686L91.5936 18.7656L92.8593 17.5156L98.4061 23.0469L92.8593 28.5938Z" fill="black"/>
</svg>
