<svg width="24" height="24" viewBox="0 0 24 24" fill="none" xmlns="http://www.w3.org/2000/svg">
<circle cx="12" cy="12" r="12" fill="#EAEAF2"/>
<path fill-rule="evenodd" clip-rule="evenodd" d="M3 15.5H4.32353L4.32353 13.719C4.56671 13.8193 4.8353 13.875 5.11765 13.875C6.21409 13.875 7.10294 13.0355 7.10294 12C7.10294 10.9645 6.21409 10.125 5.11765 10.125C4.8353 10.125 4.56671 10.1807 4.32353 10.281V10.125H3L3 15.5ZM5.11765 11.3125C5.51968 11.3125 5.84559 11.6203 5.84559 12C5.84559 12.3797 5.51968 12.6875 5.11765 12.6875C4.71562 12.6875 4.38971 12.3797 4.38971 12C4.38971 11.6203 4.71562 11.3125 5.11765 11.3125Z" fill="#D1D1DB"/>
<path fill-rule="evenodd" clip-rule="evenodd" d="M9.61811 13.875C10.7146 13.875 11.6034 13.0355 11.6034 12C11.6034 10.9645 10.7146 10.125 9.61811 10.125C8.52166 10.125 7.63281 10.9645 7.63281 12C7.63281 13.0355 8.52166 13.875 9.61811 13.875ZM9.61811 12.6875C9.21608 12.6875 8.89017 12.3797 8.89017 12C8.89017 11.6203 9.21608 11.3125 9.61811 11.3125C10.0201 11.3125 10.346 11.6203 10.346 12C10.346 12.3797 10.0201 12.6875 9.61811 12.6875Z" fill="#D1D1DB"/>
<path fill-rule="evenodd" clip-rule="evenodd" d="M12.1328 8.5H13.4563V10.281C13.6995 10.1807 13.9681 10.125 14.2505 10.125C15.3469 10.125 16.2358 10.9645 16.2358 12C16.2358 13.0355 15.3469 13.875 14.2505 13.875C13.9681 13.875 13.6995 13.8193 13.4563 13.719V13.875H12.1328V8.5ZM14.2505 12.6875C14.6525 12.6875 14.9784 12.3797 14.9784 12C14.9784 11.6203 14.6525 11.3125 14.2505 11.3125C13.8484 11.3125 13.5225 11.6203 13.5225 12C13.5225 12.3797 13.8484 12.6875 14.2505 12.6875Z" fill="#D1D1DB"/>
<path fill-rule="evenodd" clip-rule="evenodd" d="M20.3712 11.125C20.7184 11.125 20.9999 10.8592 20.9999 10.5312C20.9999 10.2033 20.7184 9.9375 20.3712 9.9375C20.024 9.9375 19.7426 10.2033 19.7426 10.5312C19.7426 10.8592 20.024 11.125 20.3712 11.125ZM18.2779 10.5521C18.2779 10.88 17.9964 11.1458 17.6492 11.1458C17.302 11.1458 17.0205 10.88 17.0205 10.5521C17.0205 10.2242 17.302 9.95834 17.6492 9.95834C17.9964 9.95834 18.2779 10.2242 18.2779 10.5521ZM18.2867 11.625H17.0293V11.875C17.0293 12.9105 17.9182 13.75 19.0146 13.75C20.1111 13.75 20.9999 12.9105 20.9999 11.875L20.9999 11.625H19.7426V11.875C19.7426 12.2547 19.4167 12.5625 19.0146 12.5625C18.6126 12.5625 18.2867 12.2547 18.2867 11.875V11.625Z" fill="#D1D1DB"/>
</svg>
