<svg width="48" height="48" viewBox="0 0 48 48" fill="none" xmlns="http://www.w3.org/2000/svg">
<rect width="8.84699" height="1.86877" transform="matrix(-1 -9.39807e-09 1.01652e-07 1 18.9091 22.6142)" fill="#1F1E1F"/>
<path d="M38 22.6142L29.153 22.6142L29.153 24.483L38 24.483L38 22.6142Z" fill="#1F1E1F"/>
<path fill-rule="evenodd" clip-rule="evenodd" d="M24.0312 29.622C21.2024 29.622 18.9092 27.3212 18.9092 24.4829C18.9092 24.4829 18.9092 24.4829 18.9092 24.4829H10.0622C10.0622 32.2236 16.3163 38.4987 24.0311 38.4987C31.746 38.4987 38.0001 32.2236 38.0001 24.4829L29.1531 24.4829C29.1531 27.3212 26.8599 29.622 24.0312 29.622Z" fill="#1F1E1F"/>
<ellipse cx="14.4235" cy="14.5941" rx="4.4235" ry="4.43833" fill="#1F1E1F"/>
<ellipse cx="33.5765" cy="14.4383" rx="4.42349" ry="4.43833" fill="#1F1E1F"/>
</svg>
