<svg width="24" height="24" viewBox="0 0 24 24" fill="none" xmlns="http://www.w3.org/2000/svg">
<path fill-rule="evenodd" clip-rule="evenodd" d="M21.6236 10.5V20.9998H14.9998V17C14.9998 15.3432 13.6566 14 11.9998 14C10.3429 14 8.99978 15.3432 8.99978 17V20.9998H2.37598V10.5L11.9998 2L21.6236 10.5Z" fill="#D1D1DB"/>
<path d="M21.6236 20.9998V21.9998C22.1759 21.9998 22.6236 21.5521 22.6236 20.9998H21.6236ZM21.6236 10.5H22.6236C22.6236 10.2133 22.5005 9.94031 22.2856 9.75049L21.6236 10.5ZM14.9998 20.9998H13.9998C13.9998 21.5521 14.4475 21.9998 14.9998 21.9998V20.9998ZM8.99978 20.9998V21.9998C9.55206 21.9998 9.99978 21.5521 9.99978 20.9998H8.99978ZM2.37598 20.9998H1.37598C1.37598 21.5521 1.82369 21.9998 2.37598 21.9998V20.9998ZM2.37598 10.5L1.71399 9.75049C1.49907 9.94031 1.37598 10.2133 1.37598 10.5H2.37598ZM11.9998 2L12.6618 1.25049C12.2836 0.916504 11.7159 0.916504 11.3378 1.25049L11.9998 2ZM22.6236 20.9998V10.5H20.6236V20.9998H22.6236ZM14.9998 21.9998H21.6236V19.9998H14.9998V21.9998ZM15.9998 20.9998V17H13.9998V20.9998H15.9998ZM15.9998 17C15.9998 14.7909 14.2089 13 11.9998 13V15C13.1043 15 13.9998 15.8955 13.9998 17H15.9998ZM11.9998 13C9.79064 13 7.99978 14.7909 7.99978 17H9.99978C9.99978 15.8955 10.8952 15 11.9998 15V13ZM7.99978 17V20.9998H9.99978V17H7.99978ZM2.37598 21.9998H8.99978V19.9998H2.37598V21.9998ZM1.37598 10.5V20.9998H3.37598V10.5H1.37598ZM11.3378 1.25049L1.71399 9.75049L3.03797 11.2495L12.6618 2.74951L11.3378 1.25049ZM22.2856 9.75049L12.6618 1.25049L11.3378 2.74951L20.9616 11.2495L22.2856 9.75049Z" fill="#D1D1DB"/>
</svg>
