<svg width="56" height="56" viewBox="0 0 56 56" fill="none" xmlns="http://www.w3.org/2000/svg">
<circle cx="28" cy="28" r="28" fill="#0F0F10"/>
<path d="M20.0981 37.3078C19.9861 37.2482 19.8902 37.1941 19.7889 37.14C17.8328 36.1006 16.1432 34.731 14.8693 32.8795C12.2256 29.0306 12.3961 24.31 15.317 20.6397C17.1879 18.2848 19.6183 16.7528 22.4433 15.8866C27.1977 14.425 31.8401 14.7444 36.296 17.0397C38.1829 18.0087 39.7872 19.3567 41.0344 21.1052C43.7794 24.965 43.6408 29.7776 40.672 33.5021C38.7958 35.857 36.3547 37.3511 33.5404 38.2551C30.902 39.1051 28.205 39.2999 25.4601 38.9372C25.3162 38.921 25.1403 38.9643 25.0177 39.0455C23.2055 40.2852 21.4039 41.5357 19.5917 42.7754C19.4691 42.862 19.3359 42.9432 19.1919 42.9811C18.9361 43.0515 18.7709 42.9216 18.7709 42.6509C18.7709 42.4722 18.7975 42.2882 18.8402 42.1204C19.2293 40.6154 19.6237 39.1105 20.0181 37.6055C20.0501 37.5081 20.0714 37.4161 20.0981 37.3078ZM36.6905 26.8598C36.7917 26.784 36.877 26.7352 36.9463 26.6649C37.5379 26.0694 38.1349 25.4739 38.7105 24.8622C38.8331 24.7323 38.9291 24.5482 38.9664 24.375C39.025 24.0826 38.8491 23.7957 38.5879 23.6658C38.3055 23.5305 38.007 23.5846 37.7618 23.8336C36.9996 24.6023 36.2427 25.3765 35.4805 26.1452C35.4166 26.2101 35.3473 26.2697 35.23 26.3725C35.23 25.6309 35.2354 24.965 35.23 24.2992C35.2247 23.7686 34.8889 23.4222 34.4199 23.4276C33.9561 23.433 33.6523 23.7741 33.647 24.3046C33.6417 24.8622 33.647 25.4252 33.647 25.9828C33.647 27.3794 33.647 28.7761 33.647 30.1728C33.647 30.4435 33.695 30.6979 33.9135 30.8766C34.164 31.0931 34.4518 31.1472 34.7556 31.0065C35.0861 30.8603 35.23 30.5842 35.2353 30.2269C35.2407 29.7506 35.2673 29.2688 35.23 28.7924C35.1927 28.3647 35.4326 28.159 35.7204 27.937C35.7897 28.0237 35.8536 28.0994 35.9123 28.1806C36.5572 29.0414 37.2021 29.9021 37.8524 30.7629C38.1189 31.1148 38.54 31.1797 38.8651 30.9307C39.1902 30.6817 39.2382 30.2594 38.9877 29.8967C38.9184 29.7939 38.8385 29.6964 38.7638 29.5936C38.0816 28.7112 37.41 27.8179 36.6905 26.8598ZM25.0177 29.5286C25.4334 29.5286 25.8545 29.5394 26.2702 29.5232C26.4461 29.5178 26.5421 29.5665 26.5954 29.7506C26.6647 30.0104 26.7659 30.2594 26.8565 30.5139C27.0218 30.9848 27.3949 31.1905 27.8106 31.039C28.1997 30.8982 28.3596 30.4868 28.1997 30.0321C28.0505 29.6098 27.8959 29.1876 27.7413 28.7653C27.1923 27.2333 26.6433 25.7067 26.089 24.1747C25.9078 23.682 25.5453 23.433 25.0337 23.433C24.5113 23.433 24.1595 23.682 23.9836 24.1801C23.8984 24.4074 23.8184 24.6348 23.7331 24.8622C23.1042 26.5837 22.4699 28.3052 21.841 30.0266C21.6757 30.4868 21.8303 30.8928 22.2141 31.039C22.6192 31.196 23.0029 30.9902 23.1682 30.5193C23.2588 30.2594 23.3547 29.9942 23.44 29.7289C23.488 29.5773 23.5679 29.5178 23.7278 29.5232C24.1489 29.534 24.5806 29.5286 25.0177 29.5286ZM19.0214 25.0192C19.0214 25.1762 19.0214 25.279 19.0214 25.3873C19.0214 27.0005 19.0214 28.6191 19.0214 30.2324C19.0214 30.6925 19.2026 30.9632 19.5597 31.0606C20.0501 31.196 20.6204 30.9523 20.6097 30.2486C20.5884 28.5975 20.6044 26.9464 20.5991 25.2953C20.5991 25.0841 20.6577 25.0083 20.8709 25.0138C21.2813 25.0246 21.6864 25.0246 22.0968 24.9921C22.4593 24.9596 22.7151 24.6186 22.7044 24.2559C22.6938 23.8769 22.406 23.5467 22.0382 23.5413C20.5351 23.5305 19.0374 23.5305 17.5343 23.5413C17.1665 23.5413 16.8894 23.8553 16.8734 24.2234C16.8521 24.6835 17.1452 24.9975 17.6249 25.0083C18.0726 25.0246 18.5257 25.0192 19.0214 25.0192ZM30.449 29.7018C30.449 29.0414 30.449 28.4297 30.449 27.8179C30.449 26.6378 30.4543 25.4577 30.449 24.2775C30.449 23.7632 30.0919 23.4168 29.6068 23.4384C29.1698 23.4601 28.866 23.8011 28.866 24.2938C28.866 26.2751 28.866 28.2618 28.8713 30.2432C28.8713 30.8062 29.1058 31.0498 29.6655 31.0498C30.5609 31.0498 31.4564 31.0498 32.3571 31.0498C32.4637 31.0498 32.5703 31.0444 32.6716 31.0173C32.9914 30.9307 33.2046 30.6221 33.1673 30.3081C33.13 29.9779 32.8795 29.7343 32.5437 29.7127C32.3838 29.7018 32.2239 29.7072 32.064 29.7072C31.5363 29.7018 31.014 29.7018 30.449 29.7018Z" fill="white"/>
<path d="M26.041 27.8962C25.3321 27.8962 24.6765 27.8962 23.9729 27.8962C24.314 26.911 24.6392 25.9582 24.9696 25.0054C24.9909 25.0054 25.0176 25 25.0389 25C25.3694 25.9528 25.6998 26.9055 26.041 27.8962Z" fill="white"/>
</svg>
