<svg width="36" height="36" viewBox="0 0 36 36" fill="none" xmlns="http://www.w3.org/2000/svg">
<circle cx="18" cy="18" r="17.5" fill="#0F0F10" stroke="white"/>
<path d="M18 12.3887C16.9528 11.443 15.5804 10.9464 14.1751 11.0046C12.7698 11.0628 11.4425 11.6713 10.476 12.7005C9.50953 13.7296 8.98013 15.0981 9.00057 16.5146C9.02101 17.931 9.58969 19.2834 10.5855 20.2839L16.7281 26.4695C17.0655 26.8092 17.523 27 18 27C18.477 27 18.9345 26.8092 19.2719 26.4695L25.4145 20.2839C26.4103 19.2834 26.979 17.931 26.9994 16.5146C27.0199 15.0981 26.4905 13.7296 25.524 12.7005C24.5575 11.6713 23.2302 11.0628 21.8249 11.0046C20.4196 10.9464 19.0472 11.443 18 12.3887Z" fill="white"/>
</svg>
