<svg width="17" height="18" viewBox="0 0 17 18" fill="none" xmlns="http://www.w3.org/2000/svg">
<path d="M14.0833 12.7229C13.4078 12.7229 12.8033 12.994 12.3411 13.4187L6.00333 9.66867C6.04778 9.46084 6.08333 9.25301 6.08333 9.03614C6.08333 8.81928 6.04778 8.61145 6.00333 8.40361L12.27 4.68976C12.75 5.14157 13.3811 5.42169 14.0833 5.42169C15.5589 5.42169 16.75 4.21084 16.75 2.71084C16.75 1.21084 15.5589 0 14.0833 0C12.6078 0 11.4167 1.21084 11.4167 2.71084C11.4167 2.92771 11.4522 3.13554 11.4967 3.34337L5.23 7.05723C4.75 6.60542 4.11889 6.3253 3.41667 6.3253C1.94111 6.3253 0.75 7.53614 0.75 9.03614C0.75 10.5361 1.94111 11.747 3.41667 11.747C4.11889 11.747 4.75 11.4669 5.23 11.0151L11.5589 14.7741C11.5144 14.9639 11.4878 15.1627 11.4878 15.3614C11.4878 16.8163 12.6522 18 14.0833 18C15.5144 18 16.6789 16.8163 16.6789 15.3614C16.6789 13.9066 15.5144 12.7229 14.0833 12.7229ZM14.0833 1.80723C14.5722 1.80723 14.9722 2.21386 14.9722 2.71084C14.9722 3.20783 14.5722 3.61446 14.0833 3.61446C13.5944 3.61446 13.1944 3.20783 13.1944 2.71084C13.1944 2.21386 13.5944 1.80723 14.0833 1.80723ZM3.41667 9.93976C2.92778 9.93976 2.52778 9.53313 2.52778 9.03614C2.52778 8.53916 2.92778 8.13253 3.41667 8.13253C3.90556 8.13253 4.30556 8.53916 4.30556 9.03614C4.30556 9.53313 3.90556 9.93976 3.41667 9.93976ZM14.0833 16.2831C13.5944 16.2831 13.1944 15.8765 13.1944 15.3795C13.1944 14.8825 13.5944 14.4759 14.0833 14.4759C14.5722 14.4759 14.9722 14.8825 14.9722 15.3795C14.9722 15.8765 14.5722 16.2831 14.0833 16.2831Z" fill="black"/>
</svg>
