<svg width="56" height="56" viewBox="0 0 56 56" fill="none" xmlns="http://www.w3.org/2000/svg">
<circle cx="28" cy="28" r="28" fill="#0F0F10"/>
<g clip-path="url(#clip0_314_2280)">
<path d="M36.25 16C38.3211 16 40 17.6789 40 19.75V30.25C40 32.3211 38.3211 34 36.25 34H34V36.5C34 38.3793 32.5188 39.9127 30.6602 39.9964L30.5 40H19.5C17.6207 40 16.0873 38.5188 16.0036 36.6602L16 36.5V25.5C16 23.6207 17.4812 22.0873 19.3398 22.0036L19.5 22H22V19.75C22 17.6789 23.6789 16 25.75 16H36.25ZM22 23.5H19.5C18.4379 23.5 17.5692 24.3279 17.5039 25.3735L17.5 25.5V36.5C17.5 37.5621 18.3279 38.4308 19.3735 38.4961L19.5 38.5H30.5C31.5621 38.5 32.4308 37.6721 32.4961 36.6265L32.5 36.5V34H25.75C23.6789 34 22 32.3211 22 30.25V23.5ZM36.25 17.5H25.75C24.5517 17.5 23.5723 18.4367 23.5038 19.6178L23.5 19.75V30.25C23.5 31.4483 24.4367 32.4277 25.6178 32.4962L25.75 32.5H36.25C37.4483 32.5 38.4277 31.5633 38.4962 30.3822L38.5 30.25V19.75C38.5 18.5517 37.5633 17.5723 36.3822 17.5038L36.25 17.5Z" fill="white"/>
</g>
<defs>
<clipPath id="clip0_314_2280">
<rect width="24" height="24" fill="white" transform="translate(16 16)"/>
</clipPath>
</defs>
</svg>
