<svg width="108" height="124" viewBox="0 0 108 124" fill="none" xmlns="http://www.w3.org/2000/svg">
<g clip-path="url(#clip0_720_4503)">
<path d="M104.198 63.715C107.598 55.9229 108.729 47.5161 107.341 39.1788C105.259 26.5686 97.7344 15.6437 86.1552 8.40677C74.6157 1.19954 60.4293 -1.47714 46.2032 0.882306C16.7794 5.74991 -3.65261 30.8513 0.640008 56.835C0.977072 58.8574 1.46284 60.8401 2.07749 62.7733C2.01801 62.7733 1.96844 62.7534 1.90896 62.7733C1.90896 62.7733 5.22012 74.6796 18.7919 85.5548C19.7734 86.2686 20.7746 86.9626 21.8255 87.6268C25.9397 90.2043 30.4008 92.1871 35.0801 93.5849C35.3874 96.3012 35.5163 99.0572 35.4766 101.803C35.199 101.764 34.9214 101.734 34.6339 101.724C32.5917 101.635 30.4008 102.17 28.1207 103.32C26.2272 104.282 24.8392 105.382 23.8677 106.691C21.5281 109.843 21.657 114.681 24.1552 118.191C26.2965 121.185 29.9745 123.237 34.2572 123.802C35.199 123.931 36.1309 123.98 37.0529 123.98C40.2153 123.98 43.2093 123.336 45.6183 122.731C47.829 122.166 50.4462 121.264 51.854 119.202C53.222 120.956 55.3336 122.255 57.8616 122.83C59.0314 123.098 60.2112 123.197 61.3612 123.197C63.0068 123.197 64.593 122.989 66.0305 122.751C68.9947 122.265 72.7619 121.413 75.7062 119.063C78.3432 116.951 80.4945 113.105 79.3445 109.248C78.5217 106.463 76.0334 104.173 72.6825 103.102C71.1261 102.606 69.5201 102.438 67.9636 102.547C67.9736 102.487 68.0033 102.428 68.0033 102.358V94.2293C68.0033 94.0806 67.9636 93.9418 67.8942 93.8129C76.0631 91.6022 83.5182 87.7755 89.7737 82.6006C100.907 72.905 104.178 63.7448 104.178 63.7448L104.198 63.715Z" fill="#FFE027"/>
<path d="M51.7247 96.0137C40.9783 96.0137 30.6185 93.1487 21.8053 87.6466C10.2162 80.4096 2.68185 69.465 0.599983 56.8449C-3.70254 30.8315 16.7493 5.70034 46.1929 0.832736C60.4289 -1.52671 74.6352 1.14997 86.1846 8.36711C97.7737 15.6041 105.308 26.5488 107.39 39.1688C109.482 51.7889 105.873 64.5775 97.2284 75.1653C88.6233 85.7134 76.033 92.8215 61.797 95.181C58.4263 95.7362 55.0557 96.0137 51.7247 96.0137ZM56.2652 1.98272C53.0432 1.98272 49.7816 2.25039 46.5101 2.78573C18.1472 7.4848 -1.57111 31.5849 2.55297 56.5177C4.54562 68.5727 11.7628 79.0316 22.8561 85.9712C33.9991 92.9306 47.7097 95.5081 61.4798 93.2379C75.2399 90.9578 87.3941 84.1074 95.7017 73.9261C103.98 63.7844 107.439 51.5609 105.437 39.5059C103.434 27.4509 96.2271 16.992 85.1337 10.0623C76.6377 4.73872 66.6348 1.98272 56.2652 1.98272Z" fill="black"/>
<path d="M61.6287 22.3355C61.3908 22.3355 61.1529 22.2562 60.9645 22.0778C59.4874 20.7394 57.0784 20.5015 55.3633 21.5127C54.8974 21.7903 54.2827 21.6316 54.0051 21.1657C53.7275 20.6898 53.8862 20.0851 54.3521 19.8075C56.8206 18.3403 60.1615 18.6774 62.2929 20.6006C62.6994 20.9674 62.7291 21.592 62.3623 21.9985C62.1641 22.2166 61.8964 22.3256 61.6287 22.3256V22.3355Z" fill="black"/>
<path d="M28.8934 27.9367C28.7942 27.9367 28.6852 27.9169 28.5861 27.8872C28.0705 27.7186 27.783 27.1536 27.9516 26.6381C29.0024 23.4459 32.6606 21.3937 35.942 22.1769C36.4773 22.3058 36.8045 22.8411 36.6756 23.3665C36.5467 23.9019 36.0213 24.229 35.486 24.1002C33.2058 23.5648 30.5688 25.042 29.8352 27.2527C29.6964 27.6691 29.3098 27.9367 28.8934 27.9367Z" fill="black"/>
<path d="M67.0714 103.33C66.5262 103.33 66.0801 102.884 66.0801 102.339V94.2095C66.0801 93.6643 66.5262 93.2181 67.0714 93.2181C67.6167 93.2181 68.0628 93.6643 68.0628 94.2095V102.339C68.0628 102.884 67.6167 103.33 67.0714 103.33Z" fill="black"/>
<path d="M61.3608 123.207C60.2108 123.207 59.0311 123.108 57.8514 122.84C54.7286 122.136 52.2303 120.342 50.9812 117.913C49.8411 115.692 49.8411 113.085 49.8411 110.983L49.8213 96.0435C49.8213 95.4982 50.2674 95.0521 50.8127 95.0521C51.3579 95.0521 51.804 95.4982 51.804 96.0435L51.8238 110.983C51.8238 112.966 51.8238 115.216 52.7458 117.011C53.7074 118.885 55.7794 120.342 58.2876 120.907C60.8155 121.482 63.4625 121.175 65.7228 120.808C68.449 120.362 71.9188 119.588 74.5063 117.516C77.0244 115.504 78.2636 112.322 77.5002 109.774C76.7369 107.216 74.2188 105.59 72.1072 104.916C68.3697 103.717 64.2655 104.698 62.1142 107.286C61.7672 107.702 61.1427 107.771 60.7164 107.414C60.2901 107.067 60.2306 106.443 60.5875 106.017C63.2345 102.815 68.221 101.585 72.7119 103.023C76.0726 104.093 78.5709 106.413 79.4036 109.209C80.5536 113.085 78.3924 116.951 75.7455 119.073C72.8011 121.432 69.0141 122.285 66.0499 122.771C64.6125 123.009 63.0164 123.217 61.3707 123.217L61.3608 123.207Z" fill="black"/>
<path d="M36.4177 104.064H36.3879C35.8427 104.044 35.4065 103.588 35.4263 103.043C35.5255 99.771 35.3867 96.4698 35.0099 93.228C34.9505 92.6828 35.3371 92.1871 35.8823 92.1276C36.4177 92.0681 36.9134 92.4548 36.9828 93C37.3694 96.3409 37.5181 99.7413 37.419 103.112C37.3991 103.647 36.9629 104.074 36.4276 104.074L36.4177 104.064Z" fill="black"/>
<path d="M37.0628 124C36.1408 124 35.2089 123.95 34.2671 123.822C29.9745 123.247 26.2767 121.194 24.1354 118.191C21.6173 114.661 21.4983 109.804 23.8479 106.631C24.8194 105.313 26.2172 104.212 28.1107 103.251C30.4008 102.091 32.5917 101.565 34.6538 101.645C37.1917 101.764 39.5214 102.914 40.8696 104.728C41.1968 105.164 41.1075 105.789 40.6614 106.116C40.2252 106.443 39.6007 106.354 39.2735 105.908C38.2722 104.559 36.5076 103.707 34.5546 103.618C32.8495 103.538 30.9758 104.004 29.003 105.005C27.387 105.828 26.2172 106.74 25.4341 107.801C23.5802 110.299 23.719 114.186 25.7414 117.031C27.5655 119.588 30.7676 121.353 34.5249 121.849C38.3615 122.354 42.2179 121.561 45.1424 120.818C47.2441 120.282 49.7622 119.41 50.6048 117.437C50.8229 116.932 51.3979 116.694 51.9035 116.912C52.4091 117.13 52.6371 117.705 52.4289 118.21C51.2492 120.976 48.176 122.087 45.6282 122.731C43.2192 123.346 40.2252 123.98 37.0529 123.98L37.0628 124Z" fill="black"/>
<path d="M80.1077 45.5829C80.7319 45.5829 81.2379 45.077 81.2379 44.4528C81.2379 43.8286 80.7319 43.3226 80.1077 43.3226C79.4835 43.3226 78.9775 43.8286 78.9775 44.4528C78.9775 45.077 79.4835 45.5829 80.1077 45.5829Z" fill="black"/>
<path d="M77.7386 50.064C78.3627 50.064 78.8687 49.558 78.8687 48.9339C78.8687 48.3097 78.3627 47.8037 77.7386 47.8037C77.1144 47.8037 76.6084 48.3097 76.6084 48.9339C76.6084 49.558 77.1144 50.064 77.7386 50.064Z" fill="black"/>
<path d="M83.5872 48.9438C84.2114 48.9438 84.7173 48.4378 84.7173 47.8136C84.7173 47.1895 84.2114 46.6835 83.5872 46.6835C82.963 46.6835 82.457 47.1895 82.457 47.8136C82.457 48.4378 82.963 48.9438 83.5872 48.9438Z" fill="black"/>
<path d="M23.7981 55.6949C24.4223 55.6949 24.9283 55.1889 24.9283 54.5647C24.9283 53.9406 24.4223 53.4346 23.7981 53.4346C23.174 53.4346 22.668 53.9406 22.668 54.5647C22.668 55.1889 23.174 55.6949 23.7981 55.6949Z" fill="black"/>
<path d="M21.429 60.1758C22.0532 60.1758 22.5591 59.6699 22.5591 59.0457C22.5591 58.4215 22.0532 57.9155 21.429 57.9155C20.8048 57.9155 20.2988 58.4215 20.2988 59.0457C20.2988 59.6699 20.8048 60.1758 21.429 60.1758Z" fill="black"/>
<path d="M27.2776 59.0556C27.9018 59.0556 28.4078 58.5496 28.4078 57.9254C28.4078 57.3013 27.9018 56.7953 27.2776 56.7953C26.6534 56.7953 26.1475 57.3013 26.1475 57.9254C26.1475 58.5496 26.6534 59.0556 27.2776 59.0556Z" fill="black"/>
<path d="M49.3256 58.9268C49.3256 58.9268 49.276 58.9268 49.2463 58.9268C47.9575 58.8971 46.7381 58.1932 46.1334 57.1424C45.4791 55.9924 45.5088 54.4558 45.8162 53.0976C45.6576 53.1075 45.489 53.0679 45.3205 52.9885C44.8347 52.7407 44.6364 52.1459 44.8843 51.6601C45.38 50.6886 46.639 49.9153 48.0269 49.7468C49.2661 49.5882 50.3566 49.955 51.0308 50.7282C52.2105 52.0864 52.5277 54.3963 52.3294 55.9726C52.27 56.4484 52.151 57.073 51.7941 57.6381C51.2786 58.4609 50.3864 58.9169 49.3355 58.9169L49.3256 58.9268ZM48.4036 51.6998C48.4036 51.6998 48.364 51.789 48.3442 51.8286C47.6799 53.1075 47.3131 55.1993 47.8485 56.151C48.1062 56.5971 48.701 56.9243 49.286 56.9342C49.5834 56.9342 49.9204 56.8846 50.1088 56.5773C50.2575 56.3394 50.317 55.9924 50.3467 55.7148C50.4954 54.5351 50.2278 52.8299 49.5239 52.017C49.3157 51.7791 48.8993 51.6502 48.3937 51.6899L48.4036 51.6998Z" fill="black"/>
<path d="M44.9338 77.5248C44.3688 77.5248 43.8533 77.4356 43.4468 77.3761L38.9857 76.6524C38.4404 76.5632 38.0736 76.0576 38.1628 75.5123C38.252 74.977 38.7477 74.6003 39.3029 74.6895L43.764 75.4132C44.5968 75.552 45.4593 75.6511 45.9351 75.2843C46.1433 75.1257 46.2524 74.8679 46.2722 74.5408C46.292 73.9955 46.0442 73.3809 45.6476 73.0141C44.7951 72.2309 43.4567 71.9731 42.1679 71.7253C36.4378 70.6348 30.569 69.0387 26.544 64.7758C26.1673 64.3793 26.1871 63.7547 26.5837 63.378C26.9802 63.0013 27.6048 63.0211 27.9815 63.4177C31.6198 67.2741 37.1318 68.7611 42.5347 69.7822C44.0317 70.0697 45.7269 70.387 46.9959 71.5568C47.8286 72.3201 48.3045 73.4998 48.2549 74.6201C48.2153 75.542 47.8187 76.3252 47.1545 76.8507C46.4804 77.3761 45.6774 77.5248 44.9438 77.5248H44.9338Z" fill="black"/>
<path d="M44.7257 82.5807C43.5757 82.5807 42.4555 82.3428 41.4443 82.1148C40.909 81.9958 40.5719 81.4704 40.6909 80.9351C40.8098 80.3997 41.3353 80.0627 41.8706 80.1816C43.1395 80.4592 44.4481 80.7467 45.6576 80.5187C46.5895 80.3502 47.68 79.7058 47.8882 78.7045C47.9675 78.3079 47.799 77.8123 47.4619 77.4752C47.3231 77.3364 47.0455 77.1183 46.7184 77.1877C46.1731 77.2968 45.6576 76.9597 45.5486 76.4144C45.4395 75.8692 45.7865 75.3537 46.3218 75.2446C47.224 75.0563 48.1559 75.3537 48.8696 76.0675C49.6826 76.8804 50.0593 78.0403 49.8412 79.101C49.4545 81.0144 47.6403 82.1644 46.0244 82.4618C45.5882 82.5411 45.1619 82.5708 44.7356 82.5708L44.7257 82.5807Z" fill="black"/>
<path d="M43.4467 85.9018C43.0204 85.9018 42.6139 85.872 42.267 85.8423C41.0872 85.7332 39.8976 85.5052 38.7575 85.188C38.2321 85.0393 37.9248 84.494 38.0636 83.9686C38.2123 83.4432 38.7575 83.1358 39.283 83.2746C40.314 83.5621 41.3846 83.7604 42.4553 83.8595C43.9225 83.9983 44.904 83.8595 45.6277 83.4134C46.2919 83.007 46.7876 82.0453 46.4307 81.4109C46.163 80.935 46.3316 80.3303 46.8074 80.0626C47.2833 79.7949 47.888 79.9635 48.1557 80.4393C49.0975 82.1048 48.1458 84.1966 46.6686 85.1087C45.6475 85.7332 44.4678 85.8918 43.4467 85.8918V85.9018Z" fill="black"/>
<path d="M39.6598 88.0233C34.6732 88.0233 29.6668 86.1794 25.8798 82.9376C25.4634 82.5807 25.4138 81.9562 25.7707 81.5398C26.1276 81.1234 26.7522 81.0739 27.1685 81.4308C30.7077 84.4544 35.3969 86.1596 40.0662 86.0307C40.6115 86.0208 41.0378 85.8324 41.1071 85.7333C41.0576 85.188 41.4442 84.7518 41.9895 84.7023C42.5248 84.6527 43.0106 85.0988 43.0601 85.6441C43.1097 86.1695 42.9412 86.6652 42.5843 87.0617C41.8209 87.9143 40.4925 88.0134 40.1059 88.0233C39.9572 88.0233 39.8085 88.0233 39.6598 88.0233Z" fill="black"/>
<path d="M58.8329 74.5506C58.0695 74.5506 57.3062 74.392 56.642 73.8864C55.9678 73.3709 55.5812 72.5778 55.5415 71.6558C55.492 70.5257 55.9777 69.3559 56.8006 68.5925C58.0695 67.4227 59.7648 67.0956 61.2617 66.818C66.6647 65.7969 72.1767 64.3098 75.815 60.4534C76.1917 60.0569 76.8163 60.037 77.2128 60.4138C77.6093 60.7905 77.6292 61.415 77.2525 61.8116C73.2275 66.0844 67.3586 67.6805 61.6285 68.7611C60.3298 69.0089 58.9915 69.2567 58.1488 70.0498C57.7523 70.4166 57.4945 71.0313 57.5243 71.5765C57.5342 71.9136 57.6532 72.1614 57.8613 72.3201C58.3372 72.6869 59.1898 72.5877 60.0324 72.4489L64.4936 71.7252C65.0388 71.636 65.5444 72.0028 65.6336 72.5481C65.7229 73.0834 65.3561 73.5989 64.8108 73.6882L60.3497 74.4118C59.8639 74.4912 59.3484 74.5605 58.8428 74.5605L58.8329 74.5506Z" fill="black"/>
<path d="M59.0611 79.6066C58.6348 79.6066 58.2085 79.5768 57.7723 79.4975C56.1564 79.2001 54.3521 78.0501 53.9555 76.1368C53.7374 75.076 54.1141 73.9161 54.9271 73.1032C55.6408 72.3894 56.5727 72.092 57.4749 72.2804C58.0102 72.3894 58.3572 72.9149 58.2481 73.4502C58.1391 73.9855 57.6137 74.3325 57.0783 74.2235C56.7512 74.1541 56.4736 74.3722 56.3348 74.511C55.9977 74.848 55.8292 75.3437 55.9085 75.7403C56.1167 76.7415 57.2072 77.376 58.1391 77.5545C59.3486 77.7726 60.6671 77.495 61.9261 77.2174C62.4614 77.0984 62.9869 77.4355 63.1058 77.9708C63.2248 78.5062 62.8778 79.0316 62.3524 79.1505C61.3412 79.3686 60.221 79.6165 59.071 79.6165L59.0611 79.6066Z" fill="black"/>
<path d="M60.3495 82.9177C59.3284 82.9177 58.1487 82.7591 57.1275 82.1345C55.6504 81.2225 54.6987 79.1307 55.6405 77.4652C55.9082 76.9894 56.5129 76.8208 56.9888 77.0885C57.4646 77.3562 57.6331 77.9609 57.3655 78.4368C57.0086 79.0712 57.5043 80.0328 58.1685 80.4393C58.8922 80.8854 59.8736 81.0242 61.3409 80.8854C62.4115 80.7863 63.4723 80.588 64.5132 80.3005C65.0387 80.1518 65.5839 80.4591 65.7326 80.9945C65.8813 81.5199 65.574 82.0651 65.0486 82.2139C63.9085 82.5311 62.7189 82.7492 61.5391 82.8681C61.1822 82.8979 60.7857 82.9276 60.3594 82.9276L60.3495 82.9177Z" fill="black"/>
<path d="M64.1267 85.0393C63.978 85.0393 63.8292 85.0393 63.6805 85.0393C63.2939 85.0393 61.9655 84.9402 61.2021 84.0777C60.8452 83.6811 60.6767 83.1854 60.7263 82.66C60.7758 82.1148 61.2616 81.7182 61.8069 81.7678C62.3323 81.8174 62.7288 82.2635 62.709 82.7889C62.828 82.888 63.2245 83.0467 63.7301 83.0566C68.3697 83.1656 73.0886 81.4803 76.6278 78.4566C77.0441 78.0997 77.6687 78.1493 78.0256 78.5657C78.3825 78.9821 78.3329 79.6066 77.9165 79.9635C74.1196 83.2053 69.1231 85.0492 64.1366 85.0492L64.1267 85.0393Z" fill="black"/>
<path d="M30.3408 34.4103C34.9408 38.2865 39.6795 42.0041 44.5471 45.5433L30.3408 34.4103Z" fill="white"/>
<path d="M44.5575 46.5347C44.3592 46.5347 44.151 46.4752 43.9726 46.3463C39.105 42.8071 34.3068 39.0499 29.7068 35.1736C29.2904 34.8167 29.231 34.1922 29.5879 33.7758C29.9348 33.3594 30.5693 33.2999 30.9857 33.6568C35.546 37.5033 40.3144 41.2309 45.1424 44.7403C45.5885 45.0575 45.6876 45.6821 45.3605 46.1282C45.1622 46.3959 44.8648 46.5347 44.5575 46.5347Z" fill="black"/>
<path d="M43.8738 32.8241C39.7794 37.9296 35.3679 42.7774 30.6787 47.3278L43.8738 32.8241Z" fill="white"/>
<path d="M30.6687 48.329C30.4109 48.329 30.1532 48.2299 29.9549 48.0316C29.5782 47.6351 29.5782 47.0105 29.9747 46.6338C34.6342 42.1231 39.0457 37.2753 43.0905 32.2193C43.4276 31.7931 44.0521 31.7237 44.4883 32.0607C44.9146 32.4077 44.984 33.0223 44.6469 33.4585C40.5526 38.574 36.0816 43.4912 31.3627 48.0614C31.1743 48.2497 30.9165 48.3389 30.6687 48.3389V48.329Z" fill="black"/>
<path d="M52.5664 31.1984C57.1663 35.0746 61.9051 38.7922 66.7727 42.3314L52.5664 31.1984Z" fill="white"/>
<path d="M66.7831 43.3228C66.5848 43.3228 66.3766 43.2633 66.1982 43.1344C61.3405 39.5952 56.5423 35.8379 51.9324 31.9617C51.516 31.6048 51.4566 30.9803 51.8134 30.5639C52.1604 30.1475 52.7949 30.088 53.2113 30.4449C57.7815 34.2914 62.54 38.0189 67.368 41.5284C67.8141 41.8456 67.9132 42.4702 67.5861 42.9163C67.3878 43.184 67.0904 43.3228 66.7831 43.3228Z" fill="black"/>
<path d="M66.0994 29.6122C62.005 34.7177 57.5935 39.5655 52.9043 44.1159L66.0994 29.6122Z" fill="white"/>
<path d="M52.8943 45.1171C52.6365 45.1171 52.3788 45.018 52.1805 44.8197C51.8038 44.4232 51.8038 43.7986 52.2003 43.4219C56.8498 38.9112 61.2614 34.0634 65.3161 29.0074C65.6532 28.5811 66.2777 28.5117 66.7139 28.8488C67.1402 29.1958 67.2096 29.8104 66.8725 30.2466C62.7683 35.372 58.2972 40.2793 53.5882 44.8495C53.3999 45.0378 53.1421 45.127 52.8943 45.127V45.1171Z" fill="black"/>
<path d="M79.3743 21.4135C79.0472 23.0195 78.7299 24.7147 79.2851 26.2513C79.8403 27.7879 81.6148 29.0172 83.1217 28.3629C84.5691 27.7384 84.9458 25.8845 85.0648 24.3182C85.154 23.2177 84.8665 21.9984 84.3312 21.2251" fill="white"/>
<path d="M82.2493 29.5328C81.7734 29.5328 81.2876 29.4337 80.8118 29.2255C79.7015 28.7496 78.7597 27.7384 78.3433 26.5884C77.6791 24.7445 78.0756 22.7915 78.3929 21.2152C78.5019 20.6799 79.0273 20.3329 79.5627 20.442C80.098 20.551 80.445 21.0764 80.3359 21.6118C80.0484 23.0096 79.7312 24.5958 80.207 25.9242C80.4351 26.5686 80.9803 27.1535 81.595 27.4113C81.8725 27.5302 82.2988 27.6393 82.7152 27.4608C83.4786 27.1337 83.9247 26.0828 84.0635 24.2488C84.1329 23.3863 83.8949 22.3751 83.4984 21.8001C83.1911 21.354 83.3001 20.7295 83.7462 20.4221C84.1923 20.1148 84.8169 20.2239 85.1242 20.67C85.7884 21.6415 86.1453 23.0691 86.0363 24.4074C85.957 25.379 85.729 28.3233 83.4984 29.2849C83.1018 29.4535 82.6756 29.5427 82.2393 29.5427L82.2493 29.5328Z" fill="black"/>
<path d="M87.9095 32.6654C87.5823 34.2714 87.2651 35.9667 87.8203 37.5033C88.3754 39.0399 90.15 40.2692 91.6568 39.6149C93.1042 38.9903 93.481 37.1365 93.5999 35.5701C93.6891 34.4697 93.4016 33.2503 92.8663 32.4771" fill="white"/>
<path d="M90.7844 40.7847C90.3086 40.7847 89.8228 40.6856 89.3469 40.4774C88.2366 40.0016 87.2948 38.9904 86.8784 37.8404C86.2142 35.9964 86.6108 34.0435 86.928 32.4672C87.0371 31.9318 87.5625 31.5849 88.0978 31.6939C88.6332 31.803 88.9801 32.3284 88.8711 32.8637C88.5836 34.2616 88.2663 35.8477 88.7422 37.1762C88.9702 37.8106 89.5155 38.3956 90.1301 38.6632C90.4077 38.7822 90.834 38.8912 91.2504 38.7128C92.0137 38.3856 92.4598 37.3348 92.5986 35.5008C92.668 34.6383 92.4301 33.6271 92.0335 33.0521C91.7262 32.606 91.8353 31.9814 92.2814 31.6741C92.7374 31.3668 93.3521 31.4758 93.6594 31.9219C94.3236 32.8836 94.6805 34.321 94.5714 35.6594C94.4921 36.6309 94.2641 39.5753 92.0335 40.5369C91.637 40.7054 91.2107 40.7947 90.7745 40.7947L90.7844 40.7847Z" fill="black"/>
</g>
<defs>
<clipPath id="clip0_720_4503">
<rect width="107.95" height="124" fill="white" transform="translate(0.0253906)"/>
</clipPath>
</defs>
</svg>
