<svg width="16" height="16" viewBox="0 0 16 16" fill="none" xmlns="http://www.w3.org/2000/svg">
<path d="M8 0.125C8.20886 0.125 8.40916 0.207968 8.55685 0.355653C8.70453 0.503338 8.7875 0.703642 8.7875 0.9125V1.7C8.7875 1.90886 8.70453 2.10916 8.55685 2.25685C8.40916 2.40453 8.20886 2.4875 8 2.4875C7.79114 2.4875 7.59084 2.40453 7.44315 2.25685C7.29547 2.10916 7.2125 1.90886 7.2125 1.7V0.9125C7.2125 0.703642 7.29547 0.503338 7.44315 0.355653C7.59084 0.207968 7.79114 0.125 8 0.125ZM13.5684 2.43159C13.716 2.57927 13.799 2.77953 13.799 2.98835C13.799 3.19717 13.716 3.39743 13.5684 3.54511L13.0117 4.10188C12.939 4.17709 12.8521 4.23708 12.756 4.27835C12.66 4.31963 12.5566 4.34135 12.4521 4.34226C12.3475 4.34317 12.2438 4.32324 12.147 4.28365C12.0502 4.24405 11.9623 4.18558 11.8884 4.11164C11.8144 4.0377 11.756 3.94977 11.7164 3.85299C11.6768 3.75621 11.6568 3.65251 11.6577 3.54795C11.6586 3.44338 11.6804 3.34005 11.7216 3.24397C11.7629 3.14789 11.8229 3.06099 11.8981 2.98835L12.4549 2.43159C12.6026 2.28395 12.8028 2.20102 13.0117 2.20102C13.2205 2.20102 13.4207 2.28395 13.5684 2.43159ZM2.43159 2.43159C2.57927 2.28395 2.77953 2.20102 2.98835 2.20102C3.19717 2.20102 3.39743 2.28395 3.54511 2.43159L4.10188 2.98835C4.24532 3.13687 4.3247 3.3358 4.32291 3.54228C4.32111 3.74876 4.23829 3.94627 4.09228 4.09228C3.94627 4.23829 3.74876 4.32111 3.54228 4.32291C3.3358 4.3247 3.13687 4.24532 2.98835 4.10188L2.43159 3.54511C2.28395 3.39743 2.20102 3.19717 2.20102 2.98835C2.20102 2.77953 2.28395 2.57927 2.43159 2.43159ZM8 4.85C7.16457 4.85 6.36335 5.18187 5.77261 5.77261C5.18187 6.36335 4.85 7.16457 4.85 8C4.85 8.83543 5.18187 9.63665 5.77261 10.2274C6.36335 10.8181 7.16457 11.15 8 11.15C8.83543 11.15 9.63665 10.8181 10.2274 10.2274C10.8181 9.63665 11.15 8.83543 11.15 8C11.15 7.16457 10.8181 6.36335 10.2274 5.77261C9.63665 5.18187 8.83543 4.85 8 4.85ZM3.275 8C3.275 6.74685 3.77281 5.54503 4.65892 4.65892C5.54503 3.77281 6.74685 3.275 8 3.275C9.25315 3.275 10.455 3.77281 11.3411 4.65892C12.2272 5.54503 12.725 6.74685 12.725 8C12.725 9.25315 12.2272 10.455 11.3411 11.3411C10.455 12.2272 9.25315 12.725 8 12.725C6.74685 12.725 5.54503 12.2272 4.65892 11.3411C3.77281 10.455 3.275 9.25315 3.275 8ZM0.125 8C0.125 7.79114 0.207968 7.59084 0.355653 7.44315C0.503338 7.29547 0.703642 7.2125 0.9125 7.2125H1.7C1.90886 7.2125 2.10916 7.29547 2.25685 7.44315C2.40453 7.59084 2.4875 7.79114 2.4875 8C2.4875 8.20886 2.40453 8.40916 2.25685 8.55685C2.10916 8.70453 1.90886 8.7875 1.7 8.7875H0.9125C0.703642 8.7875 0.503338 8.70453 0.355653 8.55685C0.207968 8.40916 0.125 8.20886 0.125 8ZM13.5125 8C13.5125 7.79114 13.5955 7.59084 13.7432 7.44315C13.8908 7.29547 14.0911 7.2125 14.3 7.2125H15.0875C15.2964 7.2125 15.4967 7.29547 15.6443 7.44315C15.792 7.59084 15.875 7.79114 15.875 8C15.875 8.20886 15.792 8.40916 15.6443 8.55685C15.4967 8.70453 15.2964 8.7875 15.0875 8.7875H14.3C14.0911 8.7875 13.8908 8.70453 13.7432 8.55685C13.5955 8.40916 13.5125 8.20886 13.5125 8ZM2.98835 11.8981C3.13687 11.7547 3.3358 11.6753 3.54228 11.6771C3.74876 11.6789 3.94627 11.7617 4.09228 11.9077C4.23829 12.0537 4.32111 12.2512 4.32291 12.4577C4.3247 12.6642 4.24532 12.8631 4.10188 13.0117L3.54511 13.5684C3.39659 13.7119 3.19766 13.7912 2.99118 13.7894C2.7847 13.7876 2.58719 13.7048 2.44118 13.5588C2.29517 13.4128 2.21235 13.2153 2.21056 13.0088C2.20876 12.8023 2.28814 12.6034 2.43159 12.4549L2.98835 11.8981ZM11.8981 13.0117C11.7547 12.8631 11.6753 12.6642 11.6771 12.4577C11.6789 12.2512 11.7617 12.0537 11.9077 11.9077C12.0537 11.7617 12.2512 11.6789 12.4577 11.6771C12.6642 11.6753 12.8631 11.7547 13.0117 11.8981L13.5684 12.4549C13.7119 12.6034 13.7912 12.8023 13.7894 13.0088C13.7876 13.2153 13.7048 13.4128 13.5588 13.5588C13.4128 13.7048 13.2153 13.7876 13.0088 13.7894C12.8023 13.7912 12.6034 13.7119 12.4549 13.5684L11.8981 13.0117ZM8 13.5125C8.20886 13.5125 8.40916 13.5955 8.55685 13.7432C8.70453 13.8908 8.7875 14.0911 8.7875 14.3V15.0875C8.7875 15.2964 8.70453 15.4967 8.55685 15.6443C8.40916 15.792 8.20886 15.875 8 15.875C7.79114 15.875 7.59084 15.792 7.44315 15.6443C7.29547 15.4967 7.2125 15.2964 7.2125 15.0875V14.3C7.2125 14.0911 7.29547 13.8908 7.44315 13.7432C7.59084 13.5955 7.79114 13.5125 8 13.5125Z" fill="white"/>
</svg>
