<svg width="26" height="24" viewBox="0 0 26 24" fill="none" xmlns="http://www.w3.org/2000/svg">
<path d="M6.22662 19.121C6.13068 19.07 6.04845 19.0236 5.96164 18.9772C4.28497 18.0862 2.83672 16.9123 1.74482 15.3254C-0.521203 12.0262 -0.375008 7.98002 2.12859 4.834C3.73217 2.81554 5.81545 1.50238 8.23681 0.759955C12.312 -0.492883 16.2913 -0.219115 20.1106 1.74831C21.7279 2.57889 23.103 3.73429 24.1721 5.23305C26.5249 8.54147 26.4061 12.6666 23.8614 15.859C22.2533 17.8774 20.1609 19.1581 17.7486 19.933C15.4872 20.6615 13.1755 20.8286 10.8226 20.5177C10.6993 20.5038 10.5485 20.5409 10.4434 20.6105C8.89012 21.6731 7.34593 22.745 5.79261 23.8075C5.68753 23.8818 5.57331 23.9514 5.44996 23.9839C5.23067 24.0442 5.08904 23.9328 5.08904 23.7008C5.08904 23.5477 5.11188 23.3899 5.14843 23.2461C5.48194 21.9561 5.82002 20.6662 6.15809 19.3762C6.18551 19.2927 6.20378 19.2138 6.22662 19.121Z" fill="black"/>
</svg>
