<svg width="67" height="28" viewBox="0 0 67 28" fill="none" xmlns="http://www.w3.org/2000/svg">
<rect x="4.92651" y="28" width="4.92647" height="21.5" transform="rotate(180 4.92651 28)" fill="black"/>
<path fill-rule="evenodd" clip-rule="evenodd" d="M7.88238 21.5C3.80116 21.5 0.492675 18.1421 0.492675 14C0.492675 9.85788 3.80116 6.50001 7.88238 6.50001C11.9636 6.50001 15.2721 9.85787 15.2721 14C15.2721 18.1421 11.9636 21.5 7.88238 21.5ZM10.5919 14C10.5919 12.4812 9.37883 11.25 7.88238 11.25C6.38594 11.25 5.17282 12.4812 5.17282 14C5.17282 15.5188 6.38594 16.75 7.88238 16.75C9.37883 16.75 10.5919 15.5188 10.5919 14Z" fill="black"/>
<path fill-rule="evenodd" clip-rule="evenodd" d="M24.6324 21.5C28.7136 21.5 32.0221 18.1421 32.0221 14C32.0221 9.85786 28.7136 6.5 24.6324 6.5C20.5512 6.5 17.2427 9.85786 17.2427 14C17.2427 18.1421 20.5512 21.5 24.6324 21.5ZM24.6324 16.75C23.1359 16.75 21.9228 15.5188 21.9228 14C21.9228 12.4812 23.1359 11.25 24.6324 11.25C26.1288 11.25 27.3419 12.4812 27.3419 14C27.3419 15.5188 26.1288 16.75 24.6324 16.75Z" fill="black"/>
<rect width="4.92647" height="21.5" transform="matrix(-1 9.00509e-08 8.48698e-08 1 38.9192 0)" fill="black"/>
<path fill-rule="evenodd" clip-rule="evenodd" d="M41.8751 21.5C45.9563 21.5 49.2648 18.1421 49.2648 14C49.2648 9.85786 45.9563 6.5 41.8751 6.5C37.7938 6.5 34.4854 9.85786 34.4854 14C34.4854 18.1421 37.7938 21.5 41.8751 21.5ZM44.5846 14C44.5846 15.5188 43.3715 16.75 41.8751 16.75C40.3786 16.75 39.1655 15.5188 39.1655 14C39.1655 12.4812 40.3786 11.25 41.8751 11.25C43.3715 11.25 44.5846 12.4812 44.5846 14Z" fill="black"/>
<rect width="4.68015" height="0.999999" transform="matrix(-1 -9.50644e-09 1.00493e-07 1 56.9008 12.5)" fill="black"/>
<path d="M67 12.5L62.3199 12.5L62.3199 13.5L67 13.5L67 12.5Z" fill="black"/>
<path fill-rule="evenodd" clip-rule="evenodd" d="M59.6103 16.25C58.1138 16.25 56.9007 15.0188 56.9007 13.5H52.2206C52.2206 17.6421 55.5291 21 59.6103 21C63.6915 21 67 17.6421 67 13.5H62.3198C62.3198 15.0188 61.1067 16.25 59.6103 16.25Z" fill="black"/>
<ellipse cx="54.5278" cy="8.20837" rx="2.34007" ry="2.375" fill="black"/>
<ellipse cx="64.6599" cy="8.125" rx="2.34007" ry="2.375" fill="black"/>
</svg>
