<svg width="101" height="100" viewBox="0 0 101 100" fill="none" xmlns="http://www.w3.org/2000/svg">
<path d="M77.8131 82.5942C76.1737 80.8087 72.6497 78.4802 70.53 77.4674C70.0288 77.2272 69.5276 76.987 69.0421 76.7364C68.1336 76.2718 66.1445 74.4445 65.5702 73.0819C64.928 71.5574 64.6409 71.4164 63.6124 71.1449C63.1268 71.0144 63.6959 70.2417 63.2052 70.6124C60.0518 73.0297 49.2081 73.7867 49.0984 73.7919C48.7695 73.8128 48.5085 74.0738 48.4772 74.3975C48.143 78.1095 49.4535 81.9625 51.9751 84.7035C53.5936 86.4577 55.7028 87.7524 57.9895 88.452C57.5928 88.7496 57.2377 89.1307 56.9506 89.5849C56.2406 90.697 55.99 92.1066 56.2771 93.3596C56.7418 95.3592 59.018 97.6355 61.3309 98.6744C62.2654 99.0921 63.2678 99.3792 64.2963 99.5306C66.4734 99.8491 68.7758 99.5567 70.838 98.664C73.7513 97.3953 77.0352 95.5419 78.3874 92.5295C79.9484 89.0472 79.9849 84.9593 77.8131 82.5995V82.5942Z" fill="#FF88BE"/>
<path d="M58.7049 88.5147C58.6527 88.5147 58.5953 88.5095 58.5431 88.4938C55.7082 87.7942 54.4604 87.4026 51.9753 84.7087C49.4484 81.9678 48.1432 78.1148 48.4773 74.4027C48.5086 74.0373 48.8375 73.7658 49.203 73.7971C49.5685 73.8285 49.84 74.1574 49.8086 74.5228C49.5058 77.8642 50.6857 81.336 52.9568 83.8003C55.2696 86.3063 56.319 86.5673 58.8616 87.1938C59.2218 87.2826 59.4411 87.6428 59.3523 88.003C59.2792 88.3059 59.0025 88.5095 58.7049 88.5095V88.5147Z" fill="black"/>
<path d="M67.7366 100.001C65.4603 100.001 63.0953 99.4629 61.3358 98.6693C59.2684 97.74 56.7937 95.5629 56.2821 93.3545C55.9375 91.8718 56.209 90.1384 56.9764 88.9429C57.509 88.1128 58.2451 87.5802 59.1065 87.3975C59.472 87.3192 59.8218 87.5541 59.8949 87.9196C59.968 88.2798 59.7383 88.6348 59.3728 88.7079C58.8664 88.8123 58.4383 89.136 58.0989 89.6633C57.5246 90.5613 57.3158 91.924 57.582 93.0517C57.9788 94.7537 60.1246 96.6593 61.884 97.4476C64.4422 98.5962 68.6085 99.1914 71.292 98.0271C73.8293 96.9255 75.9176 94.7745 77.1706 91.9762C77.1863 91.9448 77.202 91.9083 77.2228 91.8822C77.2542 91.8352 80.2823 87.1834 78.4967 83.5184C78.1939 83.0277 77.4839 82.067 77.0192 81.806C76.9879 81.7903 76.9618 81.7694 76.9357 81.7485C76.2883 81.2526 74.3514 80.0727 73.1506 80.5373C72.806 80.673 72.4197 80.5008 72.2839 80.1562C72.1482 79.8116 72.3205 79.4253 72.6651 79.2895C74.7064 78.496 77.2751 80.3285 77.7136 80.6574C78.622 81.1951 79.5618 82.6987 79.6714 82.871C81.7389 87.1103 78.7369 91.9971 78.3714 92.5661C76.9775 95.6464 74.6542 98.0219 71.8245 99.2488C70.6237 99.7709 69.1984 99.9954 67.7366 99.9954V100.001Z" fill="black"/>
<path d="M59.0748 88.7706C58.8242 88.7706 58.584 88.6297 58.4691 88.3843C58.3125 88.0502 58.4535 87.6534 58.7876 87.4967C60.4948 86.6927 62.1081 86.3952 63.5908 86.6092C63.9563 86.6614 64.2069 87.0008 64.1546 87.3662C64.1024 87.7317 63.7579 87.9823 63.3976 87.9301C62.1864 87.7526 60.8237 88.0136 59.3567 88.7028C59.2627 88.7445 59.1687 88.7654 59.0748 88.7654V88.7706Z" fill="black"/>
<path d="M36.0774 66.8169C34.0778 70.5394 29.755 78.3289 27.7554 82.0513C26.9618 78.8823 23.2864 76.8931 20.0964 77.5979C16.9065 78.308 14.4997 81.3361 14.129 84.5834C13.7583 87.8308 15.2358 91.1356 17.6218 93.3649C20.0077 95.5942 23.2133 96.8263 26.4554 97.2283C28.1887 97.4423 29.9743 97.4371 31.6502 96.9411C36.5421 95.5002 39.3039 90.4725 41.5541 85.8939C43.5589 81.8112 45.642 78.4907 47.6468 74.408" fill="#FF88BE"/>
<path d="M28.5127 98.0428C27.834 98.0428 27.1187 97.9959 26.3669 97.9019C23.7931 97.5782 20.1072 96.6176 17.1574 93.861C14.5 91.3758 13.0851 87.7943 13.4558 84.5157C13.8735 80.8767 16.5987 77.6972 19.9401 76.9506C23.0569 76.2615 26.3983 77.8486 27.834 80.4799C28.7999 78.6996 30.0581 76.4077 31.3215 74.1157C32.9034 71.2391 34.4801 68.3624 35.4825 66.5037C35.66 66.1801 36.062 66.0548 36.3857 66.2323C36.7094 66.4045 36.8347 66.8118 36.6572 67.1355C35.6548 68.9993 34.0729 71.8812 32.491 74.7579C30.9091 77.6346 29.3324 80.5113 28.33 82.3699C28.1995 82.6153 27.9332 82.7562 27.6565 82.7145C27.3798 82.6779 27.1553 82.4795 27.0926 82.2133C26.4087 79.4932 23.13 77.6033 20.2272 78.2506C17.4236 78.8719 15.1317 81.5711 14.7767 84.6618C14.4478 87.5333 15.706 90.6815 18.0606 92.8794C20.7493 95.3907 24.1481 96.273 26.5236 96.5706C28.424 96.8055 30.0372 96.722 31.4468 96.3095C36.0151 94.9626 38.6411 90.2847 40.9383 85.6068C41.9459 83.555 42.9901 81.6651 43.9977 79.8378C45.0001 78.0209 46.0339 76.1466 47.031 74.121C47.1929 73.7868 47.5949 73.6511 47.9238 73.8181C48.2579 73.98 48.3937 74.382 48.2318 74.7109C47.2242 76.7679 46.18 78.6579 45.1672 80.4852C44.1648 82.2968 43.1311 84.1711 42.1391 86.1968C39.8158 90.9216 36.913 96.0903 31.8227 97.5886C30.8047 97.8862 29.7083 98.0376 28.5023 98.0376L28.5127 98.0428Z" fill="black"/>
<path d="M34.6573 71.0824C34.6573 71.0824 48.623 78.0104 60.9129 73.1916C62.5105 72.7478 64.1498 72.2153 65.8414 71.5888C71.7305 69.4012 77.3011 66.4671 82.4332 62.8647L91.554 54.8351C100.889 43.9653 102.988 29.3469 95.8351 18.5085C87.4504 5.80095 68.8486 2.72065 53.2957 11.382C40.8701 -1.36727 22.1638 -3.73231 10.4952 6.04633C0.497321 14.4258 -1.57013 29.2112 4.3242 42.2946L10.9233 52.4492C11.7743 53.4098 12.688 54.3443 13.6121 55.2058C14.604 56.2186 15.4185 57.0226 16.1703 57.6648L17.204 58.5523C21.4903 62.233 25.1919 65.4125 29.6714 68.2788C31.3421 69.349 33.0075 70.2731 34.6625 71.0824C34.5842 71.1398 34.5111 71.2129 34.4641 71.3068" fill="#FF88BE"/>
<path d="M49.6986 74.81C48.3046 74.81 46.942 74.7213 45.6055 74.549C40.4159 73.8755 35.0124 71.7559 29.5409 68.2579C25.0615 65.3917 21.3599 62.2122 17.0736 58.5315L16.0398 57.6439C15.2933 57.0018 14.4788 56.1978 13.4816 55.1849C12.5471 54.3182 11.6282 53.3733 10.7668 52.4022C10.7616 52.3918 10.7511 52.3865 10.7459 52.3761C10.5005 52.0994 10.2604 51.8227 10.0202 51.5408C4.08411 44.4665 0.841967 35.8417 0.894176 27.2638C0.946384 18.6442 4.3086 11.1053 10.3648 6.02546C22.0281 -3.75318 40.7396 -1.38813 53.1652 11.3559C68.7181 2.69456 87.32 5.77486 95.7047 18.4824C104.361 31.6024 99.4741 50.2669 84.5947 61.1053C84.5529 61.1784 84.4955 61.2411 84.4276 61.2933C78.7213 65.6161 72.4249 69.0776 65.7109 71.5731C59.8688 73.745 54.5905 74.8153 49.6986 74.8153V74.81ZM11.7849 51.5408C12.6411 52.4962 13.5077 53.3889 14.4162 54.2295C15.4081 55.2371 16.1965 56.0202 16.9117 56.6311L17.9454 57.5186C22.1952 61.168 25.8602 64.3214 30.2614 67.1354C35.5658 70.529 40.7866 72.5755 45.7778 73.2281C51.5781 73.9852 57.9475 73.0297 65.2463 70.3149C71.7358 67.9029 77.8337 64.572 83.3678 60.4162C83.4148 60.3327 83.4775 60.2648 83.5558 60.2074C98.054 49.8179 102.899 31.8164 94.5874 19.2185C86.5055 6.97565 68.4049 4.14596 53.3741 12.776C53.1078 12.9274 52.7685 12.8804 52.5544 12.6559C40.6196 0.0893643 22.4615 -2.36965 11.221 7.05397C5.47285 11.8728 2.2777 19.0515 2.23071 27.2743C2.18372 35.5337 5.31101 43.8505 11.0435 50.6898C11.2732 50.9665 11.5081 51.2327 11.7483 51.499C11.7587 51.5147 11.7744 51.5303 11.7849 51.546V51.5408Z" fill="black"/>
<path d="M34.7722 47.9437C34.0152 45.9337 32.2401 44.3413 30.1622 43.7984C28.0843 43.2554 25.7558 43.7775 24.1113 45.1558C21.5792 47.2807 20.9579 51.1702 22.1952 54.2348C22.3623 54.6473 22.5659 55.0754 22.5241 55.5191C22.4876 55.9681 22.2109 56.3545 21.9864 56.746C20.4462 59.4243 21.2241 63.2199 23.6727 65.0994C26.1213 66.9789 28.3558 68.117 31.4466 68.117" fill="#FF88BE"/>
<path d="M74.1846 62.2801C76.8837 64.2849 79.3219 67.2503 81.619 69.9025C81.6347 69.9234 81.6608 69.9286 81.6765 69.9443C81.1857 71.2652 81.7496 73.0768 81.8227 73.3013C81.8331 73.3378 81.8488 73.3692 81.8644 73.4005C82.8564 75.327 84.6471 76.6896 86.913 77.2326C87.6178 77.4049 88.3435 77.4884 89.0744 77.4884C90.6511 77.4884 92.2539 77.0968 93.7366 76.3346C95.9085 75.2173 97.5792 73.4318 98.4406 71.3069C99.3125 69.1559 99.2498 66.9214 98.2735 65.0001C98.096 64.5616 96.394 60.6616 92.6037 60.6616C92.5724 60.6616 92.541 60.6616 92.5097 60.6616C92.4001 60.6564 91.5178 60.6355 90.3535 61.2203C87.5969 58.8657 85.3676 57.0279 83.2949 53.7649" fill="#FF88BE"/>
<path d="M90.0613 62.5202C89.9099 62.5202 89.7533 62.468 89.628 62.3583C86.1144 59.3668 84.7413 57.9102 81.9064 54.1668C81.6819 53.8745 81.7393 53.4516 82.0369 53.2323C82.3293 53.0078 82.7521 53.0652 82.9714 53.3628C85.7332 57.0122 87.0698 58.4323 90.4946 61.3455C90.7766 61.5856 90.8079 62.0085 90.573 62.2852C90.4424 62.4419 90.2545 62.5202 90.0613 62.5202Z" fill="black"/>
<path d="M89.0692 77.4882C88.3383 77.4882 87.6126 77.4047 86.9077 77.2324C84.6419 76.6842 82.8512 75.3268 81.8592 73.4003C81.8435 73.369 81.8279 73.3377 81.8174 73.3011C81.7339 73.0505 81.0395 70.8004 81.8957 69.4899C82.0993 69.1819 82.5118 69.0931 82.8198 69.2967C83.1279 69.5004 83.2166 69.9128 83.013 70.2208C82.6371 70.7951 82.8459 72.1056 83.0757 72.8365C83.8901 74.3871 85.3624 75.4834 87.221 75.9324C89.137 76.3971 91.2358 76.1152 93.1205 75.1441C95.0053 74.173 96.4567 72.6329 97.198 70.8056C97.9237 69.0148 97.8767 67.1562 97.0675 65.5847C97.0571 65.5638 97.0466 65.543 97.0414 65.5221C97.0257 65.4855 95.6057 61.951 92.4836 62.0032C92.421 62.0032 91.5439 61.9823 90.4266 62.7237C90.1186 62.9273 89.7061 62.8438 89.5025 62.5358C89.2989 62.2277 89.3824 61.8153 89.6905 61.6064C91.168 60.6249 92.374 60.6563 92.5097 60.6667C92.541 60.6667 92.5724 60.6667 92.6037 60.6667C96.394 60.6667 98.096 64.5614 98.2735 65.0052C99.2498 66.9265 99.3072 69.161 98.4406 71.312C97.5791 73.4369 95.9085 75.2224 93.7366 76.3397C92.2539 77.1019 90.6511 77.4935 89.0744 77.4935L89.0692 77.4882Z" fill="black"/>
<path d="M82.1201 70.1323C81.9322 70.1323 81.7442 70.054 81.6137 69.9026C78.1001 65.846 77.3274 65.0628 73.3439 61.5179C73.0672 61.2725 73.0411 60.8496 73.2865 60.5729C73.5319 60.2962 73.9547 60.2701 74.2315 60.5155C78.2358 64.0761 79.0973 64.9532 82.6266 69.0255C82.8667 69.3022 82.8406 69.7251 82.5587 69.9704C82.4334 70.0801 82.2768 70.1323 82.1201 70.1323Z" fill="black"/>
<path d="M52.4 35.3801C53.0714 30.7779 50.7985 26.6361 47.3233 26.1291C43.8481 25.6222 40.4867 28.942 39.8153 33.5442C39.1439 38.1464 41.4168 42.2882 44.892 42.7952C48.3672 43.3021 51.7286 39.9823 52.4 35.3801Z" fill="white"/>
<path d="M45.5902 43.5215C45.324 43.5215 45.0629 43.5006 44.7967 43.464C40.9594 42.9054 38.4325 38.4155 39.1529 33.4557C39.4975 31.0854 40.526 28.9553 42.0505 27.4517C43.622 25.9011 45.5276 25.2015 47.4228 25.473C49.3179 25.7497 50.9416 26.9662 52.0067 28.9031C53.0352 30.7774 53.4111 33.1163 53.0665 35.4814C52.393 40.0966 49.1352 43.5163 45.5955 43.5163L45.5902 43.5215ZM46.6188 26.7521C45.3501 26.7521 44.0762 27.3264 42.985 28.4019C41.6694 29.7019 40.7766 31.5657 40.4738 33.6489C39.8578 37.8777 41.8834 41.689 44.9846 42.1432C48.0962 42.6026 51.1191 39.5223 51.7352 35.2934C52.038 33.2103 51.7143 31.169 50.8267 29.5505C49.9705 27.9895 48.6914 27.0132 47.2244 26.7991C47.0208 26.7678 46.8171 26.7521 46.6135 26.7521H46.6188Z" fill="black"/>
<path d="M44.927 28.7779C46.4619 29.1382 47.433 30.8297 47.48 32.8763L45.731 33.6803L46.9997 35.6068C46.133 37.8622 44.2744 39.2875 42.5463 38.875C40.625 38.4208 39.5757 35.8835 40.1499 33.1582C40.2596 32.7249 40.3901 32.302 40.5363 31.8948C41.4238 29.7229 43.2407 28.3707 44.9322 28.7727L44.927 28.7779Z" fill="black"/>
<path d="M43.1315 39.6216C42.8809 39.6216 42.6303 39.5955 42.3849 39.5328C40.1034 38.9951 38.8295 36.1393 39.4873 33.0277C39.6074 32.5526 39.7432 32.1088 39.8998 31.6755C40.9544 29.1016 43.0793 27.6554 45.0789 28.1253C46.8644 28.5482 48.0965 30.4486 48.1435 32.8606C48.1487 33.1269 47.9973 33.3722 47.7519 33.4819L46.7078 33.9622L47.5483 35.2413C47.6684 35.4188 47.6893 35.6485 47.6162 35.8469C46.7339 38.1441 44.9327 39.6164 43.1315 39.6164V39.6216ZM44.3271 29.3783C43.121 29.3783 41.8367 30.4694 41.1476 32.1558C41.017 32.5212 40.8917 32.9232 40.7925 33.3305C40.3018 35.659 41.1528 37.8726 42.6929 38.2328C43.9929 38.5409 45.4443 37.4758 46.2431 35.6851L45.1676 34.0509C45.058 33.8891 45.0319 33.6855 45.0841 33.4975C45.1363 33.3096 45.272 33.1582 45.4495 33.0746L46.7861 32.4586C46.6347 30.8767 45.8568 29.6811 44.776 29.4253C44.6299 29.3887 44.4785 29.3731 44.3323 29.3731L44.3271 29.3783Z" fill="black"/>
<path d="M43.7316 27.483C43.528 27.483 43.3244 27.3891 43.1938 27.2115L41.2099 24.5124C40.9906 24.2148 41.0533 23.7971 41.3509 23.5778C41.6485 23.3586 42.0661 23.4212 42.2854 23.7188L44.2693 26.418C44.4886 26.7156 44.426 27.1332 44.1284 27.3525C44.0083 27.4413 43.8726 27.483 43.7316 27.483Z" fill="black"/>
<path d="M46.5511 26.2405C46.1857 26.2405 45.8828 25.9429 45.8828 25.5775L45.8672 23.1654C45.8672 22.7948 46.1648 22.4972 46.5302 22.4919C46.8957 22.4919 47.1985 22.7895 47.1985 23.155L47.2142 25.567C47.2142 25.9377 46.9166 26.2353 46.5511 26.2405Z" fill="black"/>
<path d="M48.9263 27.3318C48.7488 27.3318 48.5713 27.2639 48.4408 27.1229C48.185 26.8567 48.1954 26.4338 48.4669 26.178L50.8894 23.8808C51.1556 23.625 51.5837 23.6406 51.8343 23.9069C52.0902 24.1732 52.0797 24.5961 51.8082 24.8519L49.3858 27.149C49.2552 27.2743 49.0882 27.3318 48.9263 27.3318Z" fill="black"/>
<path d="M65.4576 37.2851C66.129 32.6829 63.8561 28.5411 60.3809 28.0342C56.9057 27.5272 53.5443 30.847 52.8729 35.4492C52.2015 40.0514 54.4744 44.1932 57.9496 44.7002C61.4248 45.2072 64.7863 41.8873 65.4576 37.2851Z" fill="white"/>
<path d="M58.6469 45.4271C58.3858 45.4271 58.1196 45.4062 57.8533 45.3697C54.016 44.8111 51.4891 40.3211 52.2096 35.3613C52.9353 30.4015 56.6473 26.8253 60.4794 27.3839C62.3746 27.6606 63.9982 28.8771 65.0633 30.814C66.0918 32.6883 66.4677 35.0272 66.1231 37.3923C65.4496 42.0075 62.1918 45.4271 58.6469 45.4271ZM59.6754 28.6578C56.7935 28.6578 54.11 31.5971 53.5357 35.5545C52.9196 39.7834 54.9453 43.5946 58.0465 44.0488C61.1581 44.5083 64.181 41.428 64.797 37.1991C65.0998 35.116 64.7762 33.0746 63.8886 31.4562C63.0324 29.8951 61.7533 28.9188 60.2862 28.7048C60.0826 28.6734 59.879 28.6578 59.6754 28.6578Z" fill="black"/>
<path d="M63.6327 30.3861C63.429 30.3861 63.2307 30.2921 63.1001 30.1198C62.8756 29.8275 62.9383 29.4046 63.2307 29.1853L65.9037 27.1648C66.1961 26.9403 66.619 27.003 66.8382 27.2953C67.0627 27.5877 67.0001 28.0106 66.7077 28.2299L64.0347 30.2503C63.9146 30.3391 63.7736 30.3861 63.6327 30.3861Z" fill="black"/>
<path d="M61.2833 28.3916C61.2207 28.3916 61.1528 28.3812 61.0902 28.3603C60.7352 28.2507 60.5368 27.88 60.6464 27.525L61.3512 25.2174C61.4608 24.8623 61.8315 24.664 62.1865 24.7736C62.5416 24.8832 62.74 25.2539 62.6303 25.6089L61.9255 27.9165C61.8367 28.2037 61.5705 28.3916 61.2886 28.3916H61.2833Z" fill="black"/>
<path d="M58.6986 28.7571C58.4689 28.7571 58.2444 28.637 58.1191 28.4229L56.4536 25.5306C56.2709 25.2121 56.3805 24.7997 56.699 24.617C57.0175 24.4342 57.4299 24.5439 57.6127 24.8623L59.2781 27.7547C59.4608 28.0732 59.3512 28.4856 59.0327 28.6683C58.9283 28.731 58.8134 28.7571 58.6986 28.7571Z" fill="black"/>
<path d="M57.8007 30.9237C59.3565 31.1534 60.479 32.751 60.6983 34.7871L59.0224 35.7426L60.4529 37.5542C59.7846 39.8775 58.0618 41.4542 56.2971 41.1983C54.3445 40.9112 53.0758 38.4731 53.4152 35.7112C53.4883 35.2675 53.577 34.8341 53.6919 34.4165C54.3863 32.1767 56.0778 30.6731 57.8007 30.9237Z" fill="black"/>
<path d="M56.6729 41.8927C56.5162 41.8927 56.3596 41.8822 56.203 41.8614C53.8849 41.522 52.3709 38.7863 52.752 35.6329C52.8303 35.1473 52.9295 34.6879 53.0444 34.2494C53.8693 31.5972 55.8532 29.9683 57.8945 30.2659C59.7062 30.5321 61.1001 32.3229 61.3612 34.7192C61.3925 34.9855 61.2568 35.2413 61.027 35.3718L60.0299 35.9409L60.98 37.1417C61.1158 37.3088 61.1576 37.5333 61.1001 37.7421C60.3849 40.2272 58.5732 41.8979 56.6729 41.8979V41.8927ZM57.4299 31.5659C56.1664 31.5659 54.8978 32.798 54.3287 34.62C54.2295 34.9907 54.1407 35.4032 54.0729 35.8208C53.7857 38.1807 54.8247 40.3108 56.3961 40.5405C57.717 40.7389 59.0744 39.5485 59.7114 37.6951L58.5001 36.1602C58.3801 36.0088 58.3331 35.8104 58.3696 35.6172C58.4062 35.4241 58.5263 35.2622 58.6933 35.163L59.9724 34.4321C59.6853 32.8658 58.8082 31.7434 57.7066 31.5867C57.6126 31.5711 57.5239 31.5659 57.4299 31.5659Z" fill="black"/>
<path d="M52.4974 47.7818C52.205 47.7818 51.9388 47.5886 51.8553 47.2963C51.6986 46.7533 51.2183 46.3095 50.5657 46.1164C49.9131 45.9232 49.2709 46.0276 48.8376 46.3931C48.5609 46.6332 48.138 46.6019 47.8926 46.32C47.6525 46.0381 47.6838 45.6152 47.9657 45.375C48.7436 44.7067 49.8609 44.5083 50.9468 44.832C52.038 45.1557 52.8524 45.9389 53.1396 46.9204C53.244 47.2754 53.0352 47.6461 52.6801 47.7453C52.6175 47.7609 52.5548 47.7714 52.4974 47.7714V47.7818Z" fill="black"/>
<path d="M28.9769 86.0348C28.6375 86.0348 28.3452 85.7737 28.3139 85.4292C28.1833 84.0195 27.1914 82.4219 27.1862 82.4063C26.993 82.093 27.087 81.6806 27.4002 81.4874C27.7135 81.2942 28.1259 81.3882 28.3191 81.7015C28.3661 81.7798 29.4833 83.581 29.6452 85.3091C29.6817 85.6745 29.4102 86.0034 29.0396 86.0348C29.0187 86.0348 28.9978 86.0348 28.9769 86.0348Z" fill="black"/>
<path d="M91.3559 19.4065C91.2671 18.3414 90.9695 17.527 90.4422 16.9266C89.7583 16.1486 88.7559 15.825 88.0615 15.6527C86.5945 15.2872 85.023 15.2089 83.5194 15.4282C83.4933 15.4282 83.4724 15.4491 83.4463 15.4543C83.1122 14.4258 82.282 13.6844 81.2065 13.5278C80.4025 13.272 79.5307 13.4704 78.6692 14.0655C77.8861 12.4053 76.5913 11.027 74.9729 10.1499C74.007 9.62782 73.1717 9.49208 72.4303 9.73745C71.5637 10.0246 71.0311 10.7921 70.6239 11.4969C69.0733 14.2013 68.0448 17.2711 67.6532 20.3619C67.5906 20.837 67.5488 21.3852 67.7733 21.9125C68.1753 22.847 69.1777 23.1916 70.0078 23.39C70.9737 23.6197 71.9552 23.8076 72.942 23.9486C73.4536 24.0217 73.9652 24.0791 74.4821 24.1313C74.8632 24.9144 75.5054 25.5044 76.2833 25.7289C76.3929 25.7602 76.5078 25.7863 76.6226 25.802C77.3066 25.9012 78.0479 25.7341 78.711 25.3373C78.9772 26.7574 79.9327 27.9269 80.982 29.0911C81.6921 29.8847 82.5326 30.72 83.6342 30.8766C83.7752 30.8975 83.9162 30.908 84.0676 30.9027C85.2318 30.8766 86.1037 30.104 86.8764 29.2686C90.1499 25.7341 91.6169 22.5076 91.3559 19.4012V19.4065Z" fill="#FF3351"/>
<path d="M77.0088 25.8334C76.7582 25.8334 76.5128 25.8021 76.2779 25.7342C75.192 25.4209 74.3619 24.3976 74.153 23.129C73.9651 21.9804 74.2835 20.884 74.5759 20.0591C75.2285 18.2318 76.257 16.4985 77.557 15.0471C78.7578 13.7054 80.0474 13.1676 81.2012 13.5279C82.5481 13.7158 83.5297 14.8383 83.6027 16.2897C83.6654 17.5218 83.0754 18.6286 82.5951 19.5109L80.9714 22.5338C80.5538 23.3117 80.0787 24.1993 79.3321 24.8727C78.6482 25.494 77.8024 25.8334 77.0036 25.8334H77.0088ZM80.4859 14.7548C79.7028 14.7548 78.8935 15.5535 78.5542 15.9347C77.3743 17.2555 76.4345 18.8375 75.8341 20.5029C75.4739 21.5053 75.3643 22.2467 75.4739 22.9097C75.5783 23.5362 75.9803 24.2567 76.6486 24.4499C77.1863 24.6065 77.8911 24.382 78.4393 23.886C79.0136 23.3639 79.4104 22.6226 79.7968 21.9021L81.4204 18.8792C81.9269 17.9395 82.308 17.1563 82.2662 16.3576C82.2297 15.6736 81.8172 14.9427 80.9767 14.8435C80.9245 14.8383 80.8775 14.8278 80.8305 14.8122C80.7156 14.7704 80.6008 14.7548 80.4859 14.7548Z" fill="black"/>
<path d="M74.8417 24.1731C74.8417 24.1731 74.7999 24.1731 74.7791 24.1731C73.1763 24.0269 71.5682 23.7658 70.002 23.3952C69.4695 23.2699 68.2217 22.9775 67.7675 21.9177C67.543 21.3956 67.5847 20.8422 67.6474 20.3671C68.0389 17.2711 69.0675 14.2065 70.618 11.4969C71.0253 10.7868 71.5578 10.0246 72.4245 9.73221C73.1658 9.48683 73.9959 9.61735 74.967 10.1447C76.7264 11.0949 78.11 12.6402 78.8618 14.4936C79.0027 14.8382 78.8357 15.2245 78.4911 15.3655C78.1517 15.5012 77.7602 15.3394 77.6192 14.9948C76.9927 13.4494 75.7919 12.1129 74.3248 11.3193C73.7036 10.9852 73.2076 10.8808 72.8421 11.0009C72.4036 11.1471 72.0694 11.643 71.7718 12.1599C70.3048 14.7129 69.3389 17.6105 68.9683 20.5289C68.9265 20.8422 68.8952 21.1659 68.9891 21.3799C69.1562 21.7715 69.7775 21.9594 70.3048 22.0847C71.8084 22.4397 73.3538 22.6903 74.8939 22.8313C75.2594 22.8626 75.5309 23.1915 75.4995 23.557C75.4682 23.9068 75.1758 24.1626 74.8365 24.1626L74.8417 24.1731Z" fill="black"/>
<path d="M84.0096 30.9079C82.72 30.9079 81.7698 29.9734 80.9763 29.091C79.7807 27.7597 78.7052 26.4284 78.6373 24.716C78.6217 24.3453 78.9088 24.0373 79.2795 24.0216C79.645 23.9955 79.9582 24.2931 79.9739 24.6638C80.0261 25.9272 80.9502 27.0549 81.9734 28.1931C82.5791 28.8665 83.2943 29.6131 84.0357 29.5661C84.6987 29.5505 85.32 28.9762 85.8943 28.3601C88.8963 25.118 90.2485 22.2204 90.024 19.5108C89.9613 18.7486 89.7629 18.1743 89.434 17.8036C89.0999 17.4277 88.5621 17.151 87.732 16.9474C86.4268 16.6237 85.0329 16.5558 83.7015 16.749C83.3361 16.8012 82.9967 16.5506 82.9445 16.1851C82.8923 15.8197 83.1429 15.4803 83.5084 15.4281C85.012 15.2088 86.5782 15.2871 88.0505 15.6526C88.7449 15.8249 89.7473 16.1486 90.4312 16.9265C90.9585 17.5269 91.2561 18.3413 91.3449 19.4064C91.6007 22.5128 90.1336 25.7445 86.8602 29.2738C86.0875 30.1091 85.2104 30.8818 84.0513 30.9079C84.0357 30.9079 84.0148 30.9079 83.9991 30.9079H84.0096Z" fill="black"/>
<path d="M75.3372 19.0098C75.238 19.0098 75.1336 18.9889 75.0397 18.9419L71.9385 17.3965C71.6096 17.2294 71.4738 16.8327 71.6357 16.4985C71.7975 16.1696 72.1995 16.0339 72.5337 16.1957L75.6348 17.7411C75.9637 17.9082 76.0995 18.3049 75.9376 18.6391C75.8228 18.874 75.5826 19.0098 75.3372 19.0098Z" fill="black"/>
<path d="M85.0485 23.3326C84.9285 23.3326 84.8084 23.3013 84.6988 23.2334C83.7851 22.6748 82.7879 22.278 81.7438 22.043C81.3835 21.9647 81.1538 21.6045 81.2321 21.2442C81.3104 20.884 81.6707 20.6543 82.0309 20.7326C83.2213 20.9936 84.3542 21.4479 85.3931 22.0848C85.7064 22.278 85.8108 22.6904 85.6176 23.0037C85.4923 23.2125 85.273 23.3221 85.0485 23.3221V23.3326Z" fill="black"/>
<path d="M62.8915 51.6817C62.834 51.6817 62.7766 51.6765 62.7192 51.6608C61.2312 51.264 59.8686 49.0139 60.161 47.4319C60.2288 47.0717 60.5838 46.8315 60.9389 46.8994C61.3043 46.9673 61.5393 47.3171 61.4714 47.6773C61.2991 48.5858 62.218 50.1416 63.0585 50.3661C63.4135 50.46 63.6276 50.8255 63.5336 51.1857C63.4553 51.4833 63.1838 51.6817 62.8862 51.6817H62.8915Z" fill="black"/>
<path d="M74.0064 80.4434C73.9751 80.4434 73.9437 80.4434 73.9072 80.4381C72.2209 80.1928 68.9265 77.8329 68.5558 77.5667C67 76.2093 64.6036 73.4474 64.0137 71.4322C63.9093 71.0772 64.1129 70.7065 64.4679 70.6021C64.8229 70.4977 65.1936 70.7013 65.298 71.0563C65.7888 72.7217 67.9867 75.3008 69.3912 76.5225C70.2787 77.1595 72.9466 78.9502 74.1004 79.1173C74.4658 79.1695 74.7164 79.5088 74.6642 79.8743C74.6172 80.2084 74.3301 80.4486 74.0012 80.4486L74.0064 80.4434Z" fill="black"/>
<path d="M51.2491 57.4715C50.5548 57.4715 49.9178 57.4141 49.3957 57.3567C46.5243 57.033 44.6761 56.2133 43.0107 54.527C41.2773 52.7728 39.7894 49.5254 40.4368 46.9567C40.5255 46.5965 40.891 46.3825 41.2512 46.4712C41.6115 46.56 41.8255 46.9254 41.7368 47.2804C41.2773 49.0868 42.2589 51.8591 43.9661 53.5872C45.6367 55.2788 47.4066 55.7852 49.5524 56.0306C50.6122 56.1506 52.1889 56.2603 53.6351 55.827C54.2407 55.6442 54.862 55.3623 55.525 54.9603C57.5925 53.7177 59.2945 51.786 60.3177 49.5306C60.4692 49.1965 60.8659 49.0451 61.2001 49.1965C61.5342 49.3479 61.6856 49.7447 61.5342 50.0788C60.4013 52.5796 58.5166 54.7201 56.2142 56.1037C55.4519 56.5631 54.7367 56.8868 54.0214 57.1008C53.0869 57.3828 52.1262 57.4715 51.2544 57.4715H51.2491Z" fill="black"/>
<path d="M33.3936 60.3119C31.3679 60.3119 29.3788 59.1894 28.1832 57.7641C27.943 57.4822 27.9848 57.0593 28.2667 56.8243C28.5487 56.5894 28.9715 56.626 29.2065 56.9079C30.4856 58.4324 32.835 59.534 34.8502 58.6986C35.7952 58.3071 36.547 57.3308 36.7715 56.2083C36.9542 55.2946 36.7402 54.4593 36.1867 53.9059C35.9936 53.7127 35.9361 53.4256 36.0406 53.175C36.145 52.9244 36.3799 52.7677 36.6618 52.7625C37.8 52.7677 38.8076 52.3657 39.3871 51.687C39.9927 50.9718 40.0606 49.8545 39.5385 49.2385C38.8441 48.424 37.445 48.4919 36.1711 48.6642C35.3932 48.7686 34.5839 49.1027 34.6205 49.5099C34.6518 49.8754 34.3803 50.1991 34.0097 50.2356C33.6285 50.2722 33.3153 49.9955 33.284 49.6248C33.1848 48.4553 34.2185 47.5782 35.9884 47.3381C37.5233 47.1292 39.4289 47.0614 40.5514 48.3666C41.5068 49.4891 41.4441 51.3216 40.4052 52.5485C39.7839 53.2794 38.8859 53.7754 37.8365 53.9842C38.1654 54.7151 38.2542 55.5713 38.0767 56.4641C37.7634 58.0304 36.7245 59.3617 35.3618 59.9255C34.7197 60.1918 34.0566 60.3119 33.3936 60.3119Z" fill="black"/>
<path d="M31.4516 68.1169C27.8962 68.1169 24.6854 66.8431 22.644 64.6399C20.3208 62.1339 19.8039 58.3853 21.4171 55.7331L21.5268 55.5556C21.6886 55.2946 21.8453 55.0492 21.8661 54.8351C21.887 54.6106 21.7669 54.3287 21.6364 54.0311L21.5842 53.9058C20.1694 50.5906 21.0569 46.6593 23.6882 44.5605C25.4998 43.1196 28.0476 42.5714 30.3343 43.1404C32.6211 43.7095 34.5632 45.3645 35.3986 47.4685C35.5291 47.7974 35.3568 48.1629 35.007 48.2882C34.6624 48.4135 34.2761 48.2464 34.1456 47.9175C33.4616 46.1946 31.8693 44.8372 29.995 44.3673C28.1207 43.9027 26.0324 44.3465 24.5444 45.5316C22.3412 47.2858 21.6155 50.6062 22.8216 53.4255L22.8738 53.5404C23.0513 53.9424 23.2497 54.4018 23.2027 54.9343C23.1609 55.4407 22.9051 55.8427 22.6806 56.203L22.5762 56.3648C21.2449 58.5628 21.6939 61.6901 23.6517 63.7993C25.4163 65.7049 28.3348 66.8431 31.4568 66.8483C31.8275 66.8483 32.1251 67.1354 32.1251 67.4852C32.1251 67.835 31.8275 68.1169 31.4568 68.1169H31.4516Z" fill="black"/>
<path d="M36.3904 63.1364C34.9964 63.1364 33.1326 62.7396 32.0362 61.6328C31.4515 61.0428 31.1539 60.3014 31.1695 59.4922C31.1748 59.1215 31.4828 58.8448 31.8535 58.8396C32.2241 58.8448 32.5165 59.1529 32.5113 59.5235C32.5008 59.9725 32.6627 60.3589 32.9968 60.6982C33.6703 61.3769 35.0016 61.8103 36.4374 61.805C36.7924 61.7946 37.1056 62.1026 37.1109 62.4681C37.1109 62.8388 36.8133 63.1364 36.4478 63.1416H36.4008L36.3904 63.1364Z" fill="black"/>
</svg>
