<svg width="24" height="24" viewBox="0 0 24 24" fill="none" xmlns="http://www.w3.org/2000/svg">
<path fill-rule="evenodd" clip-rule="evenodd" d="M11.3168 12.2297C10.5794 12.0794 9.80078 12 9 12C6.90426 12 4.96032 12.5442 3.50949 13.4768C2.06936 14.4026 1 15.8017 1 17.5C1 19.1983 2.06936 20.5974 3.50949 21.5232C4.96032 22.4558 6.90426 23 9 23C11.0062 23 12.8733 22.5013 14.3018 21.6406L11.2531 18.5007L11.2523 18.4999L11.2523 18.4999L11.2522 18.4997C10.4626 17.6884 10.0165 16.5975 10.0004 15.4607C9.9844 14.3239 10.3996 13.2205 11.1654 12.3864C11.2147 12.3328 11.2652 12.2805 11.3168 12.2297Z" fill="black"/>
<path fill-rule="evenodd" clip-rule="evenodd" d="M9 2C7.93913 2 6.92172 2.42143 6.17157 3.17157C5.42143 3.92172 5 4.93913 5 6C5 7.06087 5.42143 8.07828 6.17157 8.82843C6.92172 9.57857 7.93913 10 9 10C10.0609 10 11.0783 9.57857 11.8284 8.82843C12.5786 8.07828 13 7.06087 13 6C13 4.93913 12.5786 3.92172 11.8284 3.17157C11.0783 2.42143 10.0609 2 9 2Z" fill="black"/>
<path fill-rule="evenodd" clip-rule="evenodd" d="M14.2049 13.002C14.7938 12.977 15.3741 13.1893 15.8215 13.6025L16.5 14.2292L17.1785 13.6025C17.6259 13.1893 18.2062 12.977 18.7951 13.002C19.3841 13.0269 19.947 13.2878 20.3614 13.7391C20.7767 14.1914 21.0087 14.7986 20.9998 15.4325C20.9908 16.0663 20.7418 16.6659 20.3145 17.1049L16.5599 20.9718C16.5388 20.9935 16.5166 21 16.5 21C16.4834 21 16.4612 20.9935 16.4401 20.9718L12.6863 17.1058L12.6855 17.1049C12.2582 16.6659 12.0092 16.0663 12.0002 15.4325C11.9913 14.7986 12.2233 14.1914 12.6386 13.7391C13.053 13.2878 13.6159 13.0269 14.2049 13.002Z" fill="black"/>
</svg>
