<svg width="115" height="106" viewBox="0 0 115 106" fill="none" xmlns="http://www.w3.org/2000/svg">
<g filter="url(#filter0_d_513_3472)">
<rect x="8" y="6" width="99" height="90" rx="16" fill="white"/>
</g>
<path d="M39.4074 67.8711V76.7988H37.8761V67.8711H39.4074ZM29.3312 71.7676C29.3312 69.9697 30.7872 68.6846 32.6671 68.6777C34.547 68.6846 35.9962 69.9697 35.9894 71.7676C35.9962 73.5928 34.547 74.8711 32.6671 74.8711C30.7872 74.8711 29.3312 73.5928 29.3312 71.7676ZM30.8214 71.7676C30.8146 72.8613 31.6075 73.5449 32.6671 73.5449C33.6993 73.5449 34.4991 72.8613 34.4991 71.7676C34.4991 70.7012 33.6993 70.0039 32.6671 70.0039C31.6075 70.0039 30.8146 70.7012 30.8214 71.7676ZM31.2316 79.9707V75.8965H32.7628V78.7402H39.7491V79.9707H31.2316ZM51.2393 67.8711V77.2227H49.7081V76.1426H47.2881V75.0762H49.7081V67.8711H51.2393ZM40.8214 73.4219C43.0977 73.4082 46.1671 73.3877 48.7921 73.0527L48.8741 74.1465C47.8555 74.3174 46.8028 74.4268 45.7569 74.502V76.8809H44.2393V74.584C43.084 74.6318 41.9835 74.6387 41.0128 74.6387L40.8214 73.4219ZM41.7647 70.5098C41.7647 69.2041 43.0225 68.3154 44.8546 68.3223C46.6524 68.3154 47.9171 69.2041 47.9307 70.5098C47.9171 71.8359 46.6524 72.6768 44.8546 72.6836C43.0225 72.6768 41.7647 71.8359 41.7647 70.5098ZM42.462 79.9707V76.3203H43.9796V78.7402H51.5264V79.9707H42.462ZM43.2003 70.5098C43.2003 71.1797 43.8633 71.5693 44.8546 71.5762C45.7979 71.5693 46.4747 71.1797 46.4815 70.5098C46.4747 69.8398 45.7979 69.4365 44.8546 69.4434C43.8633 69.4365 43.2003 69.8398 43.2003 70.5098ZM62.9893 67.8574V74.2422H61.4717V72.9023H58.9834V73.8457H53.2002V68.4043H54.7178V69.9629H57.4795V68.4043H58.9834V69.498H61.4717V67.8574H62.9893ZM54.7178 72.6426H57.4795V71.125H54.7178V72.6426ZM54.8408 75.9375V74.748H62.9893V77.9199H56.3721V78.8633H63.3857V80.0664H54.8545V76.7988H61.4717V75.9375H54.8408ZM58.9834 71.7402H61.4717V70.6465H58.9834V71.7402ZM75.6962 77.5098V78.7812H64.4033V77.5098H69.2568V75.0762H65.374V73.873H67.1103V70.1816H65.3329V68.9512H74.7119V70.1816H72.9072V73.873H74.6708V75.0762H70.7607V77.5098H75.6962ZM68.6279 73.873H71.4033V70.1816H68.6279V73.873ZM87.4598 77.4141V78.6719H76.1669V77.4141H87.4598ZM76.6591 74.2832C79.1542 73.8936 80.9999 72.1982 80.993 70.3867V70.1953H77.1102V68.9785H86.4891V70.1953H82.5926V70.3867C82.5926 72.1982 84.4384 73.8457 87.0087 74.2422L86.4071 75.4453C84.3221 75.0693 82.6132 73.9551 81.8065 72.4102C81.0135 73.9756 79.3182 75.124 77.2606 75.5137L76.6591 74.2832Z" fill="#1E1E1F"/>
<path d="M57.2661 32.8241C57.2661 31.5446 56.7579 30.3176 55.8532 29.4129C54.9485 28.5082 53.7215 28 52.4421 28C51.1626 28 49.9356 28.5082 49.0309 29.4129C48.1262 30.3176 47.618 31.5446 47.618 32.8241C47.618 34.1035 48.1262 35.3305 49.0309 36.2352C49.9356 37.1399 51.1626 37.6481 52.4421 37.6481C53.7215 37.6481 54.9485 37.1399 55.8532 36.2352C56.7579 35.3305 57.2661 34.1035 57.2661 32.8241Z" fill="#48CBF4" stroke="#48CBF4" stroke-width="2"/>
<path d="M52.4422 42.2662C57.1046 42.2662 60.8843 45.7927 60.8843 48.7899V50.9999H44.0001V48.7899C44.0001 45.7927 47.7797 42.2662 52.4422 42.2662Z" fill="#48CBF4" stroke="#48CBF4" stroke-width="2" stroke-linejoin="round"/>
<path d="M68.7358 35.1662C68.7358 34.0613 68.2969 33.0016 67.5156 32.2203C66.7343 31.4389 65.6746 31 64.5696 31C63.4647 31 62.405 31.4389 61.6236 32.2203C60.8423 33.0016 60.4034 34.0613 60.4034 35.1662C60.4034 36.2712 60.8423 37.3309 61.6236 38.1122C62.405 38.8935 63.4647 39.3325 64.5696 39.3325C65.6746 39.3325 66.7343 38.8935 67.5156 38.1122C68.2969 37.3309 68.7358 36.2712 68.7358 35.1662Z" fill="#48CBF4" stroke="#48CBF4" stroke-width="2"/>
<path fill-rule="evenodd" clip-rule="evenodd" d="M63.3328 43.5533C63.7349 43.4906 64.1482 43.4572 64.5699 43.4572C68.5966 43.4572 71.8608 46.5027 71.8608 49.0913V50.9999H65V48.5128C65 46.7123 64.3412 45.0128 63.3328 43.5533Z" fill="#48CBF4"/>
<defs>
<filter id="filter0_d_513_3472" x="0" y="0" width="115" height="106" filterUnits="userSpaceOnUse" color-interpolation-filters="sRGB">
<feFlood flood-opacity="0" result="BackgroundImageFix"/>
<feColorMatrix in="SourceAlpha" type="matrix" values="0 0 0 0 0 0 0 0 0 0 0 0 0 0 0 0 0 0 127 0" result="hardAlpha"/>
<feOffset dy="2"/>
<feGaussianBlur stdDeviation="4"/>
<feComposite in2="hardAlpha" operator="out"/>
<feColorMatrix type="matrix" values="0 0 0 0 0 0 0 0 0 0 0 0 0 0 0 0 0 0 0.05 0"/>
<feBlend mode="normal" in2="BackgroundImageFix" result="effect1_dropShadow_513_3472"/>
<feBlend mode="normal" in="SourceGraphic" in2="effect1_dropShadow_513_3472" result="shape"/>
</filter>
</defs>
</svg>
