<svg width="115" height="106" viewBox="0 0 115 106" fill="none" xmlns="http://www.w3.org/2000/svg">
<g filter="url(#filter0_d_545_3167)">
<rect x="8" y="6" width="99" height="90" rx="16" fill="#1F1E1F"/>
</g>
<path d="M52 39.3887C50.9528 38.443 49.5804 37.9464 48.1751 38.0046C46.7698 38.0628 45.4425 38.6713 44.476 39.7005C43.5095 40.7296 42.9801 42.0981 43.0006 43.5146C43.021 44.931 43.5897 46.2834 44.5855 47.2839L50.7281 53.4695C51.0655 53.8092 51.523 54 52 54C52.477 54 52.9345 53.8092 53.2719 53.4695L59.4145 47.2839C60.4103 46.2834 60.979 44.931 60.9994 43.5146C61.0199 42.0981 60.4905 40.7296 59.524 39.7005C58.5575 38.6713 57.2302 38.0628 55.8249 38.0046C54.4196 37.9464 53.0472 38.443 52 39.3887Z" fill="#8EED15"/>
<path d="M67.5 30.8679C66.8601 30.2769 66.0214 29.9665 65.1626 30.0029C64.3038 30.0393 63.4927 30.4196 62.902 31.0628C62.3114 31.706 61.9879 32.5613 62.0003 33.4466C62.0128 34.3319 62.3604 35.1771 62.9689 35.8024L66.7227 39.6684C66.9289 39.8807 67.2085 40 67.5 40C67.7915 40 68.0711 39.8807 68.2773 39.6684L72.0311 35.8024C72.6396 35.1771 72.9872 34.3319 72.9997 33.4466C73.0121 32.5613 72.6886 31.706 72.098 31.0628C71.5073 30.4196 70.6962 30.0393 69.8374 30.0029C68.9786 29.9665 68.1399 30.2769 67.5 30.8679Z" fill="#8EED15"/>
<path d="M56 26.6076C55.5346 26.1938 54.9246 25.9765 54.3 26.002C53.6755 26.0275 53.0856 26.2937 52.656 26.744C52.2265 27.1942 51.9912 27.7929 52.0003 28.4126C52.0093 29.0323 52.2621 29.624 52.7047 30.0617L55.4347 32.7679C55.5847 32.9165 55.788 33 56 33C56.212 33 56.4153 32.9165 56.5653 32.7679L59.2953 30.0617C59.7379 29.624 59.9907 29.0323 59.9997 28.4126C60.0088 27.7929 59.7735 27.1942 59.344 26.744C58.9144 26.2937 58.3245 26.0275 57.7 26.002C57.0754 25.9765 56.4654 26.1938 56 26.6076Z" fill="#8EED15"/>
<path d="M45.003 76.8004H43.4802V67.8715H45.003V76.8004ZM34.9381 71.768C34.9381 71.1782 35.0831 70.6496 35.3732 70.1823C35.6664 69.7118 36.0661 69.3444 36.572 69.0801C37.0813 68.8158 37.6469 68.6837 38.2689 68.6837C38.8909 68.6837 39.4549 68.8158 39.9609 69.0801C40.4668 69.3444 40.8649 69.7118 41.1549 70.1823C41.4482 70.6496 41.5948 71.1782 41.5948 71.768C41.5948 72.3674 41.4482 72.9024 41.1549 73.3729C40.8649 73.8435 40.4668 74.2109 39.9609 74.4751C39.4549 74.7362 38.8909 74.8667 38.2689 74.8667C37.6469 74.8667 37.0813 74.7362 36.572 74.4751C36.0661 74.2109 35.6664 73.8435 35.3732 73.3729C35.0831 72.8992 34.9381 72.3642 34.9381 71.768ZM36.4222 71.768C36.4222 72.1257 36.5011 72.4383 36.6591 72.7058C36.817 72.9733 37.0361 73.1796 37.3165 73.3246C37.5969 73.4696 37.9144 73.5421 38.2689 73.5421C38.6137 73.5421 38.9247 73.4696 39.2019 73.3246C39.479 73.1796 39.6982 72.9733 39.8593 72.7058C40.0205 72.4383 40.1011 72.1257 40.1011 71.768C40.1011 71.4199 40.0205 71.1121 39.8593 70.8446C39.6982 70.5771 39.4774 70.3709 39.197 70.2258C38.9199 70.0808 38.6105 70.0083 38.2689 70.0083C37.9176 70.0083 37.6001 70.0808 37.3165 70.2258C37.0361 70.3709 36.817 70.5771 36.6591 70.8446C36.5011 71.1121 36.4222 71.4199 36.4222 71.768ZM36.8283 75.8916H38.3607V78.7438H45.3511V79.9765H36.8283V75.8916ZM56.7956 80.2086H55.2631V67.8619H56.7956V80.2086ZM46.5615 76.8101C47.6315 76.3009 48.5194 75.7288 49.2252 75.0939C49.9342 74.4558 50.4788 73.7484 50.8591 72.9717C51.2394 72.1918 51.4747 71.3264 51.5649 70.3757H47.1899V69.172H53.1119C53.1087 70.4579 52.9218 71.6407 52.5511 72.7203C52.1837 73.7967 51.5746 74.7845 50.7238 75.6837C49.8762 76.5829 48.7546 77.3644 47.3591 78.0283L46.5615 76.8101ZM69.5406 78.7825H58.2429V77.5062H63.0965V75.0746H59.2049V73.8805H60.9549V70.1775H59.1663V68.9544H68.5544V70.1775H66.7415V73.8805H68.506V75.0746H64.6V77.5062H69.5406V78.7825ZM65.2429 73.8805V70.1775H62.468V73.8805H65.2429ZM81.3042 78.6664H70.0065V77.4192H81.3042V78.6664ZM70.4996 74.2914C71.3182 74.1625 72.0579 73.9047 72.7185 73.518C73.3792 73.128 73.8965 72.6591 74.2703 72.1112C74.6474 71.5601 74.8359 70.9864 74.8359 70.3902V70.1968H70.9444V68.9738H80.3228V70.1968H76.4312V70.3902C76.4312 70.9864 76.6198 71.5552 76.9969 72.0967C77.3739 72.6381 77.8992 73.099 78.5728 73.4793C79.2464 73.8564 80.0054 74.1093 80.8498 74.2383L80.2406 75.4468C79.5477 75.3211 78.9016 75.1181 78.3021 74.8377C77.7059 74.5573 77.1789 74.2109 76.7213 73.7983C76.2669 73.3858 75.9075 72.925 75.6433 72.4157C75.3822 72.9346 75.0261 73.4052 74.5749 73.8273C74.1269 74.2463 73.6064 74.6008 73.0134 74.8909C72.4204 75.1777 71.7839 75.384 71.1039 75.5097L70.4996 74.2914Z" fill="#F7F7F7"/>
<defs>
<filter id="filter0_d_545_3167" x="0" y="0" width="115" height="106" filterUnits="userSpaceOnUse" color-interpolation-filters="sRGB">
<feFlood flood-opacity="0" result="BackgroundImageFix"/>
<feColorMatrix in="SourceAlpha" type="matrix" values="0 0 0 0 0 0 0 0 0 0 0 0 0 0 0 0 0 0 127 0" result="hardAlpha"/>
<feOffset dy="2"/>
<feGaussianBlur stdDeviation="4"/>
<feComposite in2="hardAlpha" operator="out"/>
<feColorMatrix type="matrix" values="0 0 0 0 0 0 0 0 0 0 0 0 0 0 0 0 0 0 0.05 0"/>
<feBlend mode="normal" in2="BackgroundImageFix" result="effect1_dropShadow_545_3167"/>
<feBlend mode="normal" in="SourceGraphic" in2="effect1_dropShadow_545_3167" result="shape"/>
</filter>
</defs>
</svg>
