<svg width="115" height="106" viewBox="0 0 115 106" fill="none" xmlns="http://www.w3.org/2000/svg">
<g filter="url(#filter0_d_545_3156)">
<rect x="8" y="6" width="99" height="90" rx="16" fill="#1F1E1F"/>
</g>
<path d="M39.4005 76.8004H37.8777V67.8715H39.4005V76.8004ZM29.3356 71.768C29.3356 71.1782 29.4806 70.6496 29.7706 70.1823C30.0639 69.7118 30.4636 69.3444 30.9695 69.0801C31.4787 68.8158 32.0444 68.6837 32.6664 68.6837C33.2884 68.6837 33.8524 68.8158 34.3584 69.0801C34.8643 69.3444 35.2624 69.7118 35.5524 70.1823C35.8457 70.6496 35.9923 71.1782 35.9923 71.768C35.9923 72.3674 35.8457 72.9024 35.5524 73.3729C35.2624 73.8435 34.8643 74.2109 34.3584 74.4751C33.8524 74.7362 33.2884 74.8667 32.6664 74.8667C32.0444 74.8667 31.4787 74.7362 30.9695 74.4751C30.4636 74.2109 30.0639 73.8435 29.7706 73.3729C29.4806 72.8992 29.3356 72.3642 29.3356 71.768ZM30.8197 71.768C30.8197 72.1257 30.8986 72.4383 31.0566 72.7058C31.2145 72.9733 31.4336 73.1796 31.714 73.3246C31.9944 73.4696 32.3119 73.5421 32.6664 73.5421C33.0112 73.5421 33.3222 73.4696 33.5994 73.3246C33.8765 73.1796 34.0957 72.9733 34.2568 72.7058C34.418 72.4383 34.4985 72.1257 34.4985 71.768C34.4985 71.4199 34.418 71.1121 34.2568 70.8446C34.0957 70.5771 33.8749 70.3709 33.5945 70.2258C33.3174 70.0808 33.008 70.0083 32.6664 70.0083C32.3151 70.0083 31.9976 70.0808 31.714 70.2258C31.4336 70.3709 31.2145 70.5771 31.0566 70.8446C30.8986 71.1121 30.8197 71.4199 30.8197 71.768ZM31.2258 75.8916H32.7582V78.7438H39.7485V79.9765H31.2258V75.8916ZM51.2414 77.221H49.7138V76.1381H47.2919V75.0843H49.7138V67.8715H51.2414V77.221ZM40.8236 73.4261C42.4479 73.4164 43.8918 73.389 45.1551 73.3439C46.4217 73.2988 47.6319 73.2021 48.7856 73.0539L48.8775 74.1464C47.9654 74.2979 46.9261 74.4171 45.7594 74.5041V76.8778H44.2318V74.5863C43.3874 74.6218 42.3126 74.6395 41.0073 74.6395L40.8236 73.4261ZM41.7615 70.511C41.7615 70.0824 41.8904 69.7021 42.1482 69.3702C42.4093 69.035 42.7734 68.7772 43.2407 68.5967C43.7113 68.413 44.2479 68.3211 44.8506 68.3211C45.4468 68.3211 45.9769 68.413 46.441 68.5967C46.9083 68.7772 47.2725 69.035 47.5336 69.3702C47.7946 69.7021 47.9267 70.0824 47.93 70.511C47.9267 70.9461 47.7946 71.328 47.5336 71.6568C47.2725 71.9823 46.9099 72.2337 46.4459 72.4109C45.9818 72.5882 45.45 72.6768 44.8506 72.6768C44.2447 72.6768 43.7081 72.5882 43.2407 72.4109C42.7734 72.2337 42.4093 71.9823 42.1482 71.6568C41.8904 71.328 41.7615 70.9461 41.7615 70.511ZM42.4624 76.317H43.9852V78.7438H51.5267V79.9765H42.4624V76.317ZM43.2069 70.511C43.2037 70.7302 43.2698 70.9203 43.4051 71.0815C43.5405 71.2394 43.7322 71.3603 43.9804 71.4441C44.2318 71.5279 44.5218 71.5698 44.8506 71.5698C45.1664 71.5698 45.4468 71.5279 45.6917 71.4441C45.9366 71.3603 46.1284 71.2394 46.267 71.0815C46.4056 70.9203 46.4765 70.7302 46.4797 70.511C46.4765 70.2919 46.4056 70.1017 46.267 69.9406C46.1316 69.7795 45.9415 69.657 45.6965 69.5732C45.4548 69.4862 45.1777 69.4427 44.8651 69.4427C44.5331 69.4427 44.2414 69.4846 43.9901 69.5684C43.7387 69.6522 43.5437 69.7746 43.4051 69.9358C43.2698 70.0969 43.2037 70.2887 43.2069 70.511ZM62.9857 74.2479H61.4726V72.8992H58.9878V73.8467H53.1963V68.4033H54.724V69.9599H57.4843V68.4033H58.9878V69.4959H61.4726V67.8619H62.9857V74.2479ZM57.4843 72.643V71.1202H54.724V72.643H57.4843ZM54.84 74.7555H62.9857V77.9268H56.3773V78.8598H63.3821V80.0635H54.8545V76.8004H61.4726V75.9351H54.84V74.7555ZM61.4726 71.7341V70.6464H58.9878V71.7341H61.4726ZM75.7017 78.7825H64.404V77.5062H69.2576V75.0746H65.366V73.8805H67.116V70.1775H65.3274V68.9544H74.7155V70.1775H72.9026V73.8805H74.6671V75.0746H70.7611V77.5062H75.7017V78.7825ZM71.404 73.8805V70.1775H68.6292V73.8805H71.404ZM87.4653 78.6664H76.1676V77.4192H87.4653V78.6664ZM76.6607 74.2914C77.4793 74.1625 78.219 73.9047 78.8796 73.518C79.5403 73.128 80.0576 72.6591 80.4314 72.1112C80.8085 71.5601 80.997 70.9864 80.997 70.3902V70.1968H77.1055V68.9738H86.4839V70.1968H82.5923V70.3902C82.5923 70.9864 82.7809 71.5552 83.158 72.0967C83.535 72.6381 84.0603 73.099 84.7339 73.4793C85.4075 73.8564 86.1665 74.1093 87.0109 74.2383L86.4017 75.4468C85.7088 75.3211 85.0626 75.1181 84.4632 74.8377C83.867 74.5573 83.34 74.2109 82.8824 73.7983C82.428 73.3858 82.0686 72.925 81.8044 72.4157C81.5433 72.9346 81.1872 73.4052 80.736 73.8273C80.288 74.2463 79.7675 74.6008 79.1745 74.8909C78.5815 75.1777 77.945 75.384 77.265 75.5097L76.6607 74.2914Z" fill="#F7F7F7"/>
<path d="M57.2661 32.8241C57.2661 31.5446 56.7579 30.3176 55.8532 29.4129C54.9485 28.5082 53.7215 28 52.4421 28C51.1626 28 49.9356 28.5082 49.0309 29.4129C48.1262 30.3176 47.618 31.5446 47.618 32.8241C47.618 34.1035 48.1262 35.3305 49.0309 36.2352C49.9356 37.1399 51.1626 37.6481 52.4421 37.6481C53.7215 37.6481 54.9485 37.1399 55.8532 36.2352C56.7579 35.3305 57.2661 34.1035 57.2661 32.8241Z" fill="#48CBF4" stroke="#48CBF4" stroke-width="2"/>
<path d="M52.4422 42.2662C57.1046 42.2662 60.8843 45.7927 60.8843 48.7899V50.9999H44.0001V48.7899C44.0001 45.7927 47.7797 42.2662 52.4422 42.2662Z" fill="#48CBF4" stroke="#48CBF4" stroke-width="2" stroke-linejoin="round"/>
<path d="M68.7358 35.1662C68.7358 34.0613 68.2969 33.0016 67.5156 32.2203C66.7343 31.4389 65.6746 31 64.5696 31C63.4647 31 62.405 31.4389 61.6236 32.2203C60.8423 33.0016 60.4034 34.0613 60.4034 35.1662C60.4034 36.2712 60.8423 37.3309 61.6236 38.1122C62.405 38.8935 63.4647 39.3325 64.5696 39.3325C65.6746 39.3325 66.7343 38.8935 67.5156 38.1122C68.2969 37.3309 68.7358 36.2712 68.7358 35.1662Z" fill="#48CBF4" stroke="#48CBF4" stroke-width="2"/>
<path fill-rule="evenodd" clip-rule="evenodd" d="M63.3328 43.5533C63.7349 43.4906 64.1482 43.4572 64.5699 43.4572C68.5966 43.4572 71.8608 46.5027 71.8608 49.0913V50.9999H65V48.5128C65 46.7123 64.3412 45.0128 63.3328 43.5533Z" fill="#48CBF4"/>
<defs>
<filter id="filter0_d_545_3156" x="0" y="0" width="115" height="106" filterUnits="userSpaceOnUse" color-interpolation-filters="sRGB">
<feFlood flood-opacity="0" result="BackgroundImageFix"/>
<feColorMatrix in="SourceAlpha" type="matrix" values="0 0 0 0 0 0 0 0 0 0 0 0 0 0 0 0 0 0 127 0" result="hardAlpha"/>
<feOffset dy="2"/>
<feGaussianBlur stdDeviation="4"/>
<feComposite in2="hardAlpha" operator="out"/>
<feColorMatrix type="matrix" values="0 0 0 0 0 0 0 0 0 0 0 0 0 0 0 0 0 0 0.05 0"/>
<feBlend mode="normal" in2="BackgroundImageFix" result="effect1_dropShadow_545_3156"/>
<feBlend mode="normal" in="SourceGraphic" in2="effect1_dropShadow_545_3156" result="shape"/>
</filter>
</defs>
</svg>
