<svg width="30" height="25" viewBox="0 0 30 25" fill="none" xmlns="http://www.w3.org/2000/svg">
<path d="M14.2661 5.82406C14.2661 4.54464 13.7579 3.31762 12.8532 2.41293C11.9485 1.50825 10.7215 1 9.44205 1C8.16263 1 6.93562 1.50825 6.03093 2.41293C5.12624 3.31762 4.61799 4.54464 4.61799 5.82406C4.61799 7.10348 5.12624 8.3305 6.03093 9.23519C6.93562 10.1399 8.16263 10.6481 9.44205 10.6481C10.7215 10.6481 11.9485 10.1399 12.8532 9.23519C13.7579 8.3305 14.2661 7.10348 14.2661 5.82406Z" fill="#48CBF4" stroke="#48CBF4" stroke-width="2"/>
<path d="M9.44217 15.2662C14.1046 15.2662 17.8843 18.7927 17.8843 21.7899V23.9999H1.00007V21.7899C1.00007 18.7927 4.77973 15.2662 9.44217 15.2662Z" fill="#48CBF4" stroke="#48CBF4" stroke-width="2" stroke-linejoin="round"/>
<path d="M25.7358 8.16623C25.7358 7.06128 25.2969 6.00158 24.5156 5.22026C23.7343 4.43894 22.6746 4 21.5696 4C20.4647 4 19.405 4.43894 18.6236 5.22026C17.8423 6.00158 17.4034 7.06128 17.4034 8.16623C17.4034 9.27118 17.8423 10.3309 18.6236 11.1122C19.405 11.8935 20.4647 12.3325 21.5696 12.3325C22.6746 12.3325 23.7343 11.8935 24.5156 11.1122C25.2969 10.3309 25.7358 9.27118 25.7358 8.16623Z" fill="#48CBF4" stroke="#48CBF4" stroke-width="2"/>
<path fill-rule="evenodd" clip-rule="evenodd" d="M20.3328 16.5533C20.7349 16.4906 21.1482 16.4572 21.5699 16.4572C25.5966 16.4572 28.8608 19.5027 28.8608 22.0913V23.9999H22V21.5128C22 19.7123 21.3412 18.0128 20.3328 16.5533Z" fill="#48CBF4"/>
</svg>
