<svg width="30" height="28" viewBox="0 0 30 28" fill="none" xmlns="http://www.w3.org/2000/svg">
<path d="M9 13.3887C7.95282 12.443 6.58044 11.9464 5.17511 12.0046C3.76978 12.0628 2.44254 12.6713 1.47603 13.7005C0.509527 14.7296 -0.0198727 16.0981 0.000570805 17.5146C0.0210144 18.931 0.589686 20.2834 1.58548 21.2839L7.72812 27.4695C8.06548 27.8092 8.52297 28 9 28C9.47703 28 9.93452 27.8092 10.2719 27.4695L16.4145 21.2839C17.4103 20.2834 17.979 18.931 17.9994 17.5146C18.0199 16.0981 17.4905 14.7296 16.524 13.7005C15.5575 12.6713 14.2302 12.0628 12.8249 12.0046C11.4196 11.9464 10.0472 12.443 9 13.3887Z" fill="#8EED15"/>
<path d="M24.5 4.86795C23.8601 4.27687 23.0214 3.96648 22.1626 4.00287C21.3038 4.03927 20.4927 4.41957 19.902 5.06279C19.3114 5.70601 18.9879 6.56133 19.0003 7.4466C19.0128 8.33187 19.3604 9.17714 19.9689 9.80241L23.7227 13.6684C23.9289 13.8807 24.2085 14 24.5 14C24.7915 14 25.0711 13.8807 25.2773 13.6684L29.0311 9.80241C29.6396 9.17714 29.9872 8.33187 29.9997 7.4466C30.0121 6.56133 29.6886 5.70601 29.098 5.06279C28.5073 4.41957 27.6962 4.03927 26.8374 4.00287C25.9786 3.96648 25.1399 4.27687 24.5 4.86795Z" fill="#8EED15"/>
<path d="M13 0.607562C12.5346 0.19381 11.9246 -0.0234635 11.3 0.00201188C10.6755 0.0274873 10.0856 0.293698 9.65601 0.743954C9.22646 1.19421 8.99117 1.79293 9.00025 2.41262C9.00934 3.03231 9.26208 3.624 9.70466 4.06169L12.4347 6.76791C12.5847 6.91652 12.788 7 13 7C13.212 7 13.4153 6.91652 13.5653 6.76791L16.2953 4.06169C16.7379 3.624 16.9907 3.03231 16.9997 2.41262C17.0088 1.79293 16.7735 1.19421 16.344 0.743954C15.9144 0.293698 15.3245 0.0274873 14.7 0.00201188C14.0754 -0.0234635 13.4654 0.19381 13 0.607562Z" fill="#8EED15"/>
</svg>
