<svg width="33" height="30" viewBox="0 0 33 30" fill="none" xmlns="http://www.w3.org/2000/svg">
<path fill-rule="evenodd" clip-rule="evenodd" d="M5.81592 0C6.73365 0 7.47762 0.726024 7.47762 1.62162V4.05405H9.97015C10.8879 4.05405 11.6318 4.78008 11.6318 5.67568C11.6318 6.57127 10.8879 7.2973 9.97015 7.2973H7.47762V9.72973C7.47762 10.6253 6.73365 11.3514 5.81592 11.3514C4.8982 11.3514 4.15423 10.6253 4.15423 9.72973V7.2973H1.66169C0.743965 7.2973 0 6.57127 0 5.67568C0 4.78008 0.743965 4.05405 1.66169 4.05405H4.15423V1.62162C4.15423 0.726024 4.8982 0 5.81592 0ZM19.9077 1.93343C20.4731 1.785 21.0686 1.78495 21.634 1.93328C22.4059 2.13529 22.9066 2.65317 23.2215 3.10823C23.535 3.56113 23.7748 4.10909 23.9781 4.66893C24.3771 5.76742 24.7746 7.31799 25.2634 9.22492L25.2914 9.33405C25.3867 9.70705 25.4361 9.89637 25.4819 10.0306C25.4829 10.0335 25.4838 10.0362 25.4847 10.0389C25.4877 10.04 25.4909 10.0412 25.4941 10.0423C25.6293 10.0914 25.8219 10.1464 26.1973 10.2509L26.3013 10.2799C27.9778 10.7475 29.3604 11.1332 30.3484 11.5166C30.8554 11.7134 31.3605 11.9469 31.7834 12.2504C32.2151 12.5602 32.6742 13.0251 32.8728 13.7059C33.0424 14.2868 33.0424 14.9024 32.8728 15.4832C32.6742 16.164 32.2151 16.6289 31.7834 16.9388C31.3605 17.2423 30.8554 17.4758 30.3484 17.6726C29.3604 18.056 27.9778 18.4416 26.3014 18.9093L26.198 18.9381C25.8218 19.0429 25.6291 19.0978 25.4943 19.1468C25.4909 19.148 25.4876 19.1492 25.4844 19.1504C25.4836 19.1528 25.4828 19.1552 25.4819 19.1578C25.4362 19.2917 25.3868 19.4812 25.2916 19.8543L25.2634 19.9643C24.7746 21.8712 24.3771 23.4218 23.9781 24.5203C23.7748 25.0801 23.535 25.6281 23.2215 26.081C22.9064 26.5363 22.4054 27.0545 21.6328 27.2562C21.068 27.4045 20.4716 27.4043 19.9069 27.2555M19.9077 1.93343C19.1365 2.13567 18.6356 2.65341 18.3208 3.10823C18.0073 3.56113 17.7676 4.10909 17.5642 4.66893C17.1653 5.76742 16.7677 7.31799 16.2789 9.22492L16.2507 9.33491C16.1555 9.70804 16.1061 9.8975 16.0604 10.0314C16.0596 10.0338 16.0588 10.0362 16.058 10.0385C16.0549 10.0396 16.0516 10.0408 16.0482 10.0421C15.9125 10.0912 15.72 10.146 15.3434 10.2509L15.2291 10.2828C13.5588 10.7491 12.1802 11.134 11.1943 11.5166C10.6872 11.7133 10.1822 11.9467 9.75928 12.2498C9.32746 12.5593 8.86775 13.0238 8.66829 13.7044L8.66784 13.7059C8.49825 14.2868 8.49825 14.9024 8.66784 15.4832L8.66829 15.4848C8.86775 16.1654 9.32746 16.6299 9.75928 16.9394C10.1822 17.2425 10.6872 17.4759 11.1943 17.6726C12.1802 18.0552 13.5588 18.44 15.2291 18.9064L15.3444 18.9386C15.7204 19.043 15.9133 19.0981 16.0485 19.147C16.0514 19.1481 16.0542 19.1491 16.0569 19.1501C16.058 19.1532 16.0591 19.1565 16.0603 19.1599C16.1061 19.2939 16.1561 19.4842 16.2509 19.8551L16.2776 19.9595C16.7671 21.8687 17.1649 23.4205 17.5643 24.5197C17.7676 25.0795 18.0073 25.6273 18.3207 26.0801C18.6356 26.5352 19.1364 27.0527 19.9069 27.2555M6.64677 20.2703C7.5645 20.2703 8.30846 20.9963 8.30846 21.8919V23.5135H9.97015C10.8879 23.5135 11.6318 24.2395 11.6318 25.1351C11.6318 26.0307 10.8879 26.7568 9.97015 26.7568H8.30846V28.3784C8.30846 29.274 7.5645 30 6.64677 30C5.72904 30 4.98508 29.274 4.98508 28.3784V26.7568H3.32339C2.40566 26.7568 1.66169 26.0307 1.66169 25.1351C1.66169 24.2395 2.40566 23.5135 3.32339 23.5135H4.98508V21.8919C4.98508 20.9963 5.72904 20.2703 6.64677 20.2703Z" fill="#FFC701"/>
</svg>
