<svg width="115" height="106" viewBox="0 0 115 106" fill="none" xmlns="http://www.w3.org/2000/svg">
<g filter="url(#filter0_d_513_3473)">
<rect x="8" y="6" width="99" height="90" rx="16" fill="white"/>
</g>
<path fill-rule="evenodd" clip-rule="evenodd" d="M46.8159 25C47.7337 25 48.4776 25.726 48.4776 26.6216V29.0541H50.9702C51.8879 29.0541 52.6318 29.7801 52.6318 30.6757C52.6318 31.5713 51.8879 32.2973 50.9702 32.2973H48.4776V34.7297C48.4776 35.6253 47.7337 36.3514 46.8159 36.3514C45.8982 36.3514 45.1542 35.6253 45.1542 34.7297V32.2973H42.6617C41.744 32.2973 41 31.5713 41 30.6757C41 29.7801 41.744 29.0541 42.6617 29.0541H45.1542V26.6216C45.1542 25.726 45.8982 25 46.8159 25ZM60.9077 26.9334C61.4731 26.785 62.0686 26.7849 62.634 26.9333C63.4059 27.1353 63.9066 27.6532 64.2215 28.1082C64.535 28.5611 64.7748 29.1091 64.9781 29.6689C65.3771 30.7674 65.7746 32.318 66.2634 34.2249L66.2914 34.334C66.3867 34.7071 66.4361 34.8964 66.4819 35.0306C66.4829 35.0335 66.4838 35.0362 66.4847 35.0389C66.4877 35.04 66.4909 35.0412 66.4941 35.0423C66.6293 35.0914 66.8219 35.1464 67.1973 35.2509L67.3013 35.2799C68.9778 35.7475 70.3604 36.1332 71.3484 36.5166C71.8554 36.7134 72.3605 36.9469 72.7834 37.2504C73.2151 37.5602 73.6742 38.0251 73.8728 38.7059C74.0424 39.2868 74.0424 39.9024 73.8728 40.4832C73.6742 41.164 73.2151 41.6289 72.7834 41.9388C72.3605 42.2423 71.8554 42.4758 71.3484 42.6726C70.3604 43.056 68.9778 43.4416 67.3014 43.9093L67.198 43.9381C66.8218 44.0429 66.6291 44.0978 66.4943 44.1468C66.4909 44.148 66.4876 44.1492 66.4844 44.1504C66.4836 44.1528 66.4828 44.1552 66.4819 44.1578C66.4362 44.2917 66.3868 44.4812 66.2916 44.8543L66.2634 44.9643C65.7746 46.8712 65.3771 48.4218 64.9781 49.5203C64.7748 50.0801 64.535 50.6281 64.2215 51.081C63.9064 51.5363 63.4054 52.0545 62.6328 52.2562C62.068 52.4045 61.4716 52.4043 60.9069 52.2555M60.9077 26.9334C60.1365 27.1357 59.6356 27.6534 59.3208 28.1082C59.0073 28.5611 58.7676 29.1091 58.5642 29.6689C58.1653 30.7674 57.7677 32.318 57.2789 34.2249L57.2507 34.3349C57.1555 34.708 57.1061 34.8975 57.0604 35.0314C57.0596 35.0338 57.0588 35.0362 57.058 35.0385C57.0549 35.0396 57.0516 35.0408 57.0482 35.0421C56.9125 35.0912 56.72 35.146 56.3434 35.2509L56.2291 35.2828C54.5588 35.7491 53.1802 36.134 52.1943 36.5166C51.6872 36.7133 51.1822 36.9467 50.7593 37.2498C50.3275 37.5593 49.8677 38.0238 49.6683 38.7044L49.6678 38.7059C49.4983 39.2868 49.4983 39.9024 49.6678 40.4832L49.6683 40.4848C49.8677 41.1654 50.3275 41.6299 50.7593 41.9394C51.1822 42.2425 51.6872 42.4759 52.1943 42.6726C53.1802 43.0552 54.5588 43.44 56.2291 43.9064L56.3444 43.9386C56.7204 44.043 56.9133 44.0981 57.0485 44.147C57.0514 44.1481 57.0542 44.1491 57.0569 44.1501C57.058 44.1532 57.0591 44.1565 57.0603 44.1599C57.1061 44.2939 57.1561 44.4842 57.2509 44.8551L57.2776 44.9595C57.7671 46.8687 58.1649 48.4205 58.5643 49.5197C58.7676 50.0795 59.0073 50.6273 59.3207 51.0801C59.6356 51.5352 60.1364 52.0527 60.9069 52.2555M47.6468 45.2703C48.5645 45.2703 49.3085 45.9963 49.3085 46.8919V48.5135H50.9702C51.8879 48.5135 52.6318 49.2395 52.6318 50.1351C52.6318 51.0307 51.8879 51.7568 50.9702 51.7568H49.3085V53.3784C49.3085 54.274 48.5645 55 47.6468 55C46.729 55 45.9851 54.274 45.9851 53.3784V51.7568H44.3234C43.4057 51.7568 42.6617 51.0307 42.6617 50.1351C42.6617 49.2395 43.4057 48.5135 44.3234 48.5135H45.9851V46.8919C45.9851 45.9963 46.729 45.2703 47.6468 45.2703Z" fill="#FFC701"/>
<path d="M33.8567 70.482H30.6902V72.5994H33.3442V73.7693H30.6902V76.172C31.4476 76.1655 32.1051 76.1413 32.6626 76.0994C33.2202 76.0543 33.7922 75.9802 34.3788 75.8771L34.5141 77.105C33.8599 77.2307 33.2186 77.3112 32.5901 77.3467C31.9649 77.3821 31.1205 77.4015 30.057 77.4047H29.2448V69.2735H33.8567V70.482ZM33.9534 72.4302H35.481V68.1036H36.9023V79.6188H35.481V73.6581H33.9534V72.4302ZM38.0238 67.8619H39.4886V80.2086H38.0238V67.8619ZM46.8869 77.1533H41.0277V69.0608H46.8869V77.1533ZM45.3689 75.9351V70.2548H42.5215V75.9351H45.3689ZM48.7529 67.8619H50.2757V72.6091H52.1804V73.8854H50.2757V80.2086H48.7529V67.8619ZM62.7064 74.2479H61.1933V72.8992H58.7085V73.8467H52.917V68.4033H54.4447V69.9599H57.205V68.4033H58.7085V69.4959H61.1933V67.8619H62.7064V74.2479ZM57.205 72.643V71.1202H54.4447V72.643H57.205ZM54.5607 74.7555H62.7064V77.9268H56.098V78.8598H63.1028V80.0635H54.5752V76.8004H61.1933V75.9351H54.5607V74.7555ZM61.1933 71.7341V70.6464H58.7085V71.7341H61.1933ZM75.4224 78.7825H64.1247V77.5062H68.9783V75.0746H65.0867V73.8805H66.8367V70.1775H65.0481V68.9544H74.4362V70.1775H72.6233V73.8805H74.3878V75.0746H70.4818V77.5062H75.4224V78.7825ZM71.1247 73.8805V70.1775H68.3499V73.8805H71.1247ZM87.186 78.6664H75.8883V77.4192H87.186V78.6664ZM76.3814 74.2914C77.2 74.1625 77.9397 73.9047 78.6003 73.518C79.261 73.128 79.7783 72.6591 80.1521 72.1112C80.5292 71.5601 80.7177 70.9864 80.7177 70.3902V70.1968H76.8262V68.9738H86.2046V70.1968H82.313V70.3902C82.313 70.9864 82.5016 71.5552 82.8787 72.0967C83.2557 72.6381 83.7811 73.099 84.4546 73.4793C85.1282 73.8564 85.8872 74.1093 86.7316 74.2383L86.1224 75.4468C85.4295 75.3211 84.7834 75.1181 84.1839 74.8377C83.5877 74.5573 83.0607 74.2109 82.6031 73.7983C82.1487 73.3858 81.7893 72.925 81.5251 72.4157C81.264 72.9346 80.9079 73.4052 80.4567 73.8273C80.0087 74.2463 79.4882 74.6008 78.8952 74.8909C78.3022 75.1777 77.6657 75.384 76.9857 75.5097L76.3814 74.2914Z" fill="#1E1E1F"/>
<defs>
<filter id="filter0_d_513_3473" x="0" y="0" width="115" height="106" filterUnits="userSpaceOnUse" color-interpolation-filters="sRGB">
<feFlood flood-opacity="0" result="BackgroundImageFix"/>
<feColorMatrix in="SourceAlpha" type="matrix" values="0 0 0 0 0 0 0 0 0 0 0 0 0 0 0 0 0 0 127 0" result="hardAlpha"/>
<feOffset dy="2"/>
<feGaussianBlur stdDeviation="4"/>
<feComposite in2="hardAlpha" operator="out"/>
<feColorMatrix type="matrix" values="0 0 0 0 0 0 0 0 0 0 0 0 0 0 0 0 0 0 0.05 0"/>
<feBlend mode="normal" in2="BackgroundImageFix" result="effect1_dropShadow_513_3473"/>
<feBlend mode="normal" in="SourceGraphic" in2="effect1_dropShadow_513_3473" result="shape"/>
</filter>
</defs>
</svg>
