<svg width="25" height="24" viewBox="0 0 25 24" fill="none" xmlns="http://www.w3.org/2000/svg">
<g clip-path="url(#clip0_1188_5098)">
<path fill-rule="evenodd" clip-rule="evenodd" d="M16.5039 4.22222C16.8666 2.93972 18.0458 2 19.4444 2C21.132 2 22.5 3.36802 22.5 5.05556C22.5 6.74309 21.132 8.11111 19.4444 8.11111C18.0458 8.11111 16.8666 7.17139 16.5039 5.88889H3.33333C2.8731 5.88889 2.5 5.51579 2.5 5.05556C2.5 4.59532 2.8731 4.22222 3.33333 4.22222H16.5039ZM5.11502 11.1667C5.47776 9.88416 6.65691 8.94444 8.05556 8.94444C9.4542 8.94444 10.6334 9.88416 10.9961 11.1667H21.6667C22.1269 11.1667 22.5 11.5398 22.5 12C22.5 12.4602 22.1269 12.8333 21.6667 12.8333H10.9961C10.6334 14.1158 9.4542 15.0556 8.05556 15.0556C6.65691 15.0556 5.47776 14.1158 5.11502 12.8333H3.33333C2.8731 12.8333 2.5 12.4602 2.5 12C2.5 11.5398 2.8731 11.1667 3.33333 11.1667H5.11502ZM11.5039 18.1111C11.8666 16.8286 13.0458 15.8889 14.4444 15.8889C15.8431 15.8889 17.0222 16.8286 17.385 18.1111H21.6667C22.1269 18.1111 22.5 18.4842 22.5 18.9444C22.5 19.4047 22.1269 19.7778 21.6667 19.7778H17.385C17.0222 21.0603 15.8431 22 14.4444 22C13.0458 22 11.8666 21.0603 11.5039 19.7778H3.33333C2.8731 19.7778 2.5 19.4047 2.5 18.9444C2.5 18.4842 2.8731 18.1111 3.33333 18.1111H11.5039Z" fill="#707075"/>
</g>
<defs>
<clipPath id="clip0_1188_5098">
<rect width="24" height="24" fill="white" transform="translate(0.5)"/>
</clipPath>
</defs>
</svg>
