<svg width="25" height="24" viewBox="0 0 25 24" fill="none" xmlns="http://www.w3.org/2000/svg">
<g clip-path="url(#clip0_1188_5103)">
<path d="M5.17523 4.61261C3.64434 4.61261 2.40332 5.85363 2.40332 7.38452V19.075C2.40332 20.6059 3.64434 21.8469 5.17523 21.8469H16.8657C18.3966 21.8469 19.6376 20.6059 19.6376 19.075V15.8017C19.6376 15.5518 19.5339 15.3132 19.3512 15.1427L15.8441 11.8693C15.5385 11.5841 15.0769 11.5464 14.729 11.7783L11.6299 13.8443L8.86453 10.9683C8.53781 10.6285 8.00447 10.5978 7.64093 10.8979L4.20618 13.7329V7.38452C4.20618 6.84932 4.64004 6.41547 5.17523 6.41547H10.319C10.8169 6.41547 11.2205 6.01188 11.2205 5.51404C11.2205 5.01619 10.8169 4.61261 10.319 4.61261H5.17523Z" fill="#707075"/>
<path d="M18.7228 0.58197C19.2351 0.58197 19.6504 0.997286 19.6504 1.5096V4.60187H22.7425C23.2548 4.60187 23.6702 5.01718 23.6702 5.5295C23.6702 6.04182 23.2548 6.45714 22.7425 6.45714H19.6504V9.5491C19.6504 10.0614 19.2351 10.4767 18.7228 10.4767C18.2105 10.4767 17.7951 10.0614 17.7951 9.5491V6.45714H14.703C14.1907 6.45714 13.7754 6.04182 13.7754 5.5295C13.7754 5.01718 14.1907 4.60187 14.703 4.60187H17.7951V1.5096C17.7951 0.997286 18.2105 0.58197 18.7228 0.58197Z" fill="#707075"/>
</g>
<defs>
<clipPath id="clip0_1188_5103">
<rect width="24" height="23.9998" fill="white" transform="translate(0.25 6.10352e-05)"/>
</clipPath>
</defs>
</svg>
