<svg width="25" height="24" viewBox="0 0 25 24" fill="none" xmlns="http://www.w3.org/2000/svg">
<path fill-rule="evenodd" clip-rule="evenodd" d="M16.7733 4.45474C13.5094 1.18187 8.21402 1.18175 4.94995 4.4544C1.68326 7.72419 1.68335 13.0287 4.95023 16.2983C7.02318 18.3748 9.41734 18.98 11.5831 18.7445C13.3051 18.5572 14.8704 17.842 16.0286 16.9501L20.7731 21.7032C21.1682 22.0989 21.8088 22.0989 22.2038 21.7032C22.5987 21.3076 22.5987 20.6664 22.2038 20.2708L17.4606 15.519C20.0178 12.2338 19.7888 7.47599 16.7733 4.45474ZM6.25241 5.75813C8.79726 3.20627 12.926 3.20627 15.4709 5.75813C18.0158 8.30764 18.0161 12.4446 15.4711 14.9941C14.5707 15.8962 13.0664 16.7282 11.3845 16.911C9.73737 17.0901 7.90573 16.6506 6.25185 14.9938C3.70459 12.4443 3.70515 8.30757 6.25241 5.75813Z" fill="#707075"/>
</svg>
