<svg width="25" height="24" viewBox="0 0 25 24" fill="none" xmlns="http://www.w3.org/2000/svg">
<path fill-rule="evenodd" clip-rule="evenodd" d="M6.38209 16.7331L12.1096 22.5323C12.2787 22.7035 12.5094 22.8 12.75 22.8C12.9906 22.8 13.222 22.7028 13.3911 22.5316L19.1179 16.7331C22.6274 13.1797 22.6274 7.42307 19.1179 3.86967C15.6023 0.310045 9.89769 0.310045 6.38209 3.86967C2.87264 7.42307 2.87264 13.1797 6.38209 16.7331ZM12.75 6.39514C10.98 6.39514 9.54517 7.83001 9.54517 9.6C9.54517 11.37 10.98 12.8049 12.75 12.8049C14.52 12.8049 15.9549 11.37 15.9549 9.6C15.9549 7.83001 14.52 6.39514 12.75 6.39514Z" fill="#707075"/>
</svg>
