<svg width="111" height="110" viewBox="0 0 111 110" fill="none" xmlns="http://www.w3.org/2000/svg">
<path d="M37.5154 65.5404L30.1269 54.966C30.0056 54.7912 29.7951 54.6984 29.5775 54.7341C29.3634 54.7698 29.1922 54.9232 29.1315 55.1301C28.7462 56.4394 27.5439 60.6278 26.7804 61.8658C26.3131 62.6257 25.2856 63.9528 23.6873 64.3203C23.3234 64.4059 22.9203 64.4487 22.4957 64.4951C21.3363 64.62 20.0234 64.7627 19.3277 65.8865C18.9781 66.4466 18.9067 67.1351 19.1208 67.8273C19.3919 68.6942 20.0805 69.4577 20.9117 69.818C21.3719 70.0178 22.1426 70.0606 23.0202 69.9857C23.0452 70.1034 23.0987 70.214 23.1986 70.296C24.4116 71.3128 25.9742 71.8159 27.5368 71.8159C27.8721 71.8159 28.2039 71.7873 28.5357 71.7409C28.5857 71.848 28.6641 71.9479 28.7819 72.0049C29.5668 72.4045 30.4551 72.6043 31.3648 72.6043C32.0641 72.6043 32.7776 72.4866 33.4697 72.2475C35.0644 71.6981 36.8982 67.5062 37.5582 66.1041C37.6438 65.9222 37.626 65.7117 37.5118 65.5476L37.5154 65.5404Z" fill="#FFE027"/>
<path d="M22.2672 70.0178C21.7107 70.0178 21.2362 69.9536 20.9151 69.8145C20.0803 69.4541 19.3953 68.6907 19.1242 67.8238C18.9066 67.1352 18.9815 66.4431 19.3311 65.883C20.0268 64.7592 21.3397 64.62 22.4991 64.4916C22.9237 64.4452 23.3233 64.4024 23.6872 64.3168C25.2854 63.9458 26.3129 62.6186 26.7803 61.8623C27.5366 60.6386 27.9719 59.1687 28.3536 57.8701C28.4249 57.3706 28.8459 54.4488 29.0957 53.6461C29.1884 53.3499 29.5024 53.1858 29.7949 53.2786C30.091 53.3714 30.2551 53.6853 30.1624 53.9814C29.9662 54.6093 29.5844 57.1459 29.456 58.0699C29.4524 58.0984 29.4453 58.1234 29.4381 58.1484C29.035 59.5255 28.5748 61.0881 27.7293 62.4545C26.7624 64.0207 25.4139 65.0696 23.9369 65.412C23.5052 65.5119 23.0521 65.5619 22.6169 65.6083C21.5823 65.7189 20.6868 65.8188 20.2801 66.4752C20.0553 66.8355 20.1088 67.2244 20.1909 67.492C20.3657 68.0485 20.8259 68.5587 21.3611 68.7906C22.2994 69.1973 25.9597 68.5658 27.2869 67.4028C27.5188 67.1994 27.872 67.2208 28.0753 67.4527C28.2787 67.6846 28.2573 68.0378 28.0254 68.2412C26.7945 69.3257 24.0867 70.0214 22.2708 70.0214L22.2672 70.0178Z" fill="black"/>
<path d="M27.5403 71.8087C25.9777 71.8087 24.4115 71.3057 23.2021 70.2889C22.9666 70.0892 22.9345 69.736 23.1343 69.5005C23.3341 69.265 23.6873 69.2329 23.9227 69.4291C25.9812 71.1523 29.3919 71.0774 31.3719 69.2686C31.6002 69.0617 31.9534 69.0759 32.1639 69.3043C32.3708 69.5326 32.3566 69.8858 32.1282 70.0963C30.8831 71.2344 29.2135 71.8087 27.5438 71.8087H27.5403Z" fill="black"/>
<path d="M31.3684 72.5973C30.4551 72.5973 29.5667 72.3975 28.7854 71.9979C28.5107 71.8588 28.4001 71.5199 28.5393 71.2452C28.6784 70.9705 29.0138 70.8599 29.292 70.999C30.4087 71.5663 31.8001 71.6305 33.1129 71.181C34.4258 70.7314 35.4818 69.8217 36.0134 68.6908C36.0348 68.6479 36.0598 68.6087 36.0883 68.5695C36.0883 68.5695 36.9838 67.3636 36.5236 64.1349C36.4808 63.8281 36.6913 63.5463 36.9981 63.5035C37.3049 63.4606 37.5867 63.6711 37.6295 63.9779C38.1147 67.3886 37.2442 68.8763 36.9945 69.2188C36.3274 70.5994 35.043 71.6947 33.4697 72.237C32.7776 72.476 32.0641 72.5937 31.3648 72.5937L31.3684 72.5973Z" fill="black"/>
<path d="M28.7426 58.9796C27.8579 59.8608 25.6852 60.3603 25.6852 60.3603C24.8968 60.6386 23.5553 60.7456 23.0452 61.3093C22.535 61.8729 22.3994 62.7863 22.9738 63.5818C23.4126 64.1848 24.2011 64.4238 24.936 64.6236C25.6709 64.8234 26.6984 64.8804 27.4084 64.8876C27.4084 64.8876 30.1875 64.6057 30.4373 63.3892" fill="#FFE027"/>
<path d="M27.4332 65.4441H27.4011C26.7946 65.4369 25.6494 65.3905 24.7896 65.1586C24.1153 64.9767 23.0986 64.702 22.5206 63.9064C21.8463 62.9753 21.8891 61.7516 22.6276 60.931C23.095 60.4137 23.9048 60.2246 24.6897 60.0427C24.993 59.9713 25.2784 59.9071 25.496 59.8286L25.5566 59.8108C26.1168 59.6824 27.7151 59.2079 28.3465 58.58C28.5641 58.3623 28.9209 58.3623 29.1385 58.58C29.3562 58.7976 29.3562 59.1544 29.1385 59.372C28.2003 60.3031 26.1917 60.8097 25.8421 60.8918C25.5709 60.9845 25.2677 61.0559 24.9466 61.1308C24.3865 61.2592 23.6944 61.4234 23.4625 61.6802C23.1378 62.037 23.0022 62.6613 23.4304 63.25C23.7479 63.6888 24.3936 63.8921 25.0857 64.0777C25.8349 64.281 26.9195 64.3167 27.3868 64.3238C28.3786 64.2168 29.7878 63.7958 29.8949 63.2714C29.9555 62.9681 30.2552 62.7755 30.5584 62.8361C30.8617 62.9003 31.0543 63.1965 30.9937 63.4961C30.6762 65.0373 28.004 65.3834 27.4725 65.4369H27.4403L27.4332 65.4441Z" fill="#040000"/>
<path d="M85.3035 55.9685C87.2229 51.566 87.8579 46.8247 87.0802 42.119C85.9029 35.0016 81.6538 28.8296 75.118 24.7483C68.6071 20.6776 60.5942 19.1685 52.5635 20.4957C35.9527 23.2428 24.4186 37.4133 26.8446 52.0833C27.0337 53.2285 27.312 54.3452 27.6545 55.4333C27.6224 55.4333 27.5902 55.4226 27.5581 55.4298C27.5581 55.4298 29.4311 62.1511 37.0908 68.2874C37.6438 68.6906 38.211 69.083 38.8068 69.454C41.1329 70.9061 43.6481 72.0299 46.2881 72.8147C46.4593 74.3488 46.5343 75.9043 46.5129 77.4526C46.3559 77.4312 46.1953 77.4134 46.0348 77.4062C44.8825 77.3563 43.6445 77.656 42.3566 78.3089C41.2899 78.8511 40.505 79.4719 39.9556 80.2104C38.6356 81.9942 38.7069 84.7234 40.1197 86.7034C41.3291 88.3945 43.4055 89.5504 45.8243 89.8715C46.3523 89.9428 46.8803 89.9714 47.4012 89.9714C49.1886 89.9714 50.8796 89.611 52.2353 89.265C53.484 88.9475 54.961 88.4337 55.753 87.2743C56.5271 88.2661 57.7152 88.9974 59.1422 89.3185C59.8022 89.4683 60.4694 89.5254 61.1151 89.5254C62.0462 89.5254 62.9417 89.4077 63.7551 89.2757C65.4248 89.001 67.5582 88.5194 69.2171 87.1922C70.7084 86.0006 71.9214 83.8279 71.2721 81.6553C70.8047 80.0855 69.3991 78.7869 67.5118 78.184C66.6342 77.9021 65.728 77.8058 64.8504 77.87C64.8575 77.8344 64.8718 77.8022 64.8718 77.7666V73.1786C64.8718 73.093 64.8468 73.0145 64.8111 72.9432C69.4205 71.6945 73.6303 69.5325 77.1658 66.6106C83.4483 61.1344 85.2999 55.9649 85.2999 55.9649L85.3035 55.9685Z" fill="#FFE027"/>
<path d="M55.6816 74.2026C49.6166 74.2026 43.7693 72.5865 38.7925 69.4791C32.2495 65.3906 27.9969 59.2151 26.8196 52.087C24.3901 37.4027 35.9348 23.2214 52.5564 20.4708C60.5942 19.1401 68.6142 20.6528 75.1322 24.7234C81.6752 28.8119 85.9278 34.9874 87.1051 42.1155C88.286 49.2436 86.2489 56.4573 81.3684 62.4366C76.5093 68.391 69.4026 72.4045 61.3648 73.7353C59.4632 74.0492 57.5581 74.2062 55.678 74.2062L55.6816 74.2026ZM58.2467 21.1201C56.4272 21.1201 54.5863 21.27 52.7419 21.5768C36.7269 24.2239 25.5923 37.8308 27.922 51.905C29.0458 58.712 33.12 64.6129 39.3847 68.5301C45.6744 72.4581 53.4161 73.9172 61.1864 72.6293C68.9567 71.345 75.8172 67.4705 80.505 61.7267C85.175 56.0007 87.1301 49.1009 86.0027 42.2975C84.8753 35.4905 80.8047 29.5896 74.54 25.6724C69.7415 22.6756 64.1011 21.1165 58.2431 21.1165L58.2467 21.1201Z" fill="black"/>
<path d="M61.2719 32.6079C61.1364 32.6079 61.0044 32.5615 60.8973 32.4652C60.0625 31.7124 58.6997 31.5768 57.7329 32.1477C57.4689 32.3046 57.1228 32.219 56.9658 31.9514C56.8088 31.6839 56.8945 31.3414 57.162 31.1844C58.557 30.3603 60.4407 30.5458 61.6465 31.6339C61.8749 31.8408 61.8927 32.194 61.6858 32.4259C61.5752 32.5472 61.4218 32.6114 61.2719 32.6114V32.6079Z" fill="black"/>
<path d="M42.7954 35.7722C42.7383 35.7722 42.6777 35.7651 42.6206 35.7437C42.328 35.6474 42.1675 35.3298 42.2638 35.0373C42.8596 33.2321 44.9253 32.0797 46.7733 32.5186C47.073 32.5899 47.2585 32.8896 47.1907 33.1928C47.1193 33.4925 46.8197 33.6816 46.5164 33.6067C45.2321 33.3034 43.7408 34.1347 43.327 35.3905C43.2485 35.6259 43.0309 35.7758 42.7954 35.7758V35.7722Z" fill="black"/>
<path d="M64.3438 78.3304C64.0334 78.3304 63.7837 78.0806 63.7837 77.7703V73.1823C63.7837 72.8719 64.0334 72.6222 64.3438 72.6222C64.6542 72.6222 64.9039 72.8719 64.9039 73.1823V77.7703C64.9039 78.0806 64.6542 78.3304 64.3438 78.3304Z" fill="black"/>
<path d="M61.1186 89.554C60.4693 89.554 59.8021 89.4969 59.1386 89.347C57.3762 88.951 55.9634 87.9378 55.2606 86.5679C54.6184 85.3156 54.6148 83.8422 54.6148 82.6578L54.6041 74.2239C54.6041 73.9136 54.8539 73.6638 55.1642 73.6638C55.4746 73.6638 55.7244 73.9136 55.7244 74.2239L55.7351 82.6578C55.7351 83.778 55.7351 85.0445 56.2559 86.0613C56.7982 87.1173 57.9684 87.9414 59.3847 88.2589C60.8118 88.58 62.3066 88.4088 63.5802 88.2018C65.1214 87.9521 67.0765 87.5133 68.5357 86.3431C69.9591 85.205 70.6548 83.407 70.2267 81.9692C69.7986 80.5279 68.3715 79.6075 67.1835 79.2257C65.0751 78.5514 62.7561 79.1009 61.5467 80.5636C61.3505 80.8026 60.9973 80.8347 60.7583 80.6385C60.5192 80.4423 60.4871 80.0891 60.6833 79.8501C62.1782 78.0413 64.9894 77.3492 67.526 78.159C69.4204 78.7655 70.8332 80.0713 71.3041 81.6481C71.9534 83.8351 70.7333 86.0185 69.2385 87.2136C67.576 88.5443 65.439 89.0295 63.7622 89.3007C62.9488 89.4327 62.0533 89.5504 61.1222 89.5504L61.1186 89.554Z" fill="black"/>
<path d="M47.0729 78.2198H47.0551C46.7447 78.2091 46.5021 77.9523 46.5128 77.6419C46.5699 75.7974 46.4557 74.4596 46.2417 72.6258C46.206 72.319 46.4272 72.0407 46.734 72.005C47.0373 71.9694 47.3191 72.187 47.3548 72.4974C47.576 74.3846 47.6901 75.7796 47.6331 77.6775C47.6224 77.9808 47.3762 78.2198 47.0729 78.2198Z" fill="black"/>
<path d="M47.4047 90C46.8838 90 46.3558 89.9679 45.8278 89.9001C43.4018 89.579 41.3184 88.4196 40.1054 86.7214C38.6855 84.7307 38.6177 81.9872 39.9413 80.1962C40.4907 79.4542 41.2791 78.8298 42.3494 78.2875C43.6409 77.6347 44.8788 77.335 46.0419 77.3814C47.4761 77.4456 48.7889 78.0985 49.5524 79.1224C49.7379 79.3721 49.6844 79.7217 49.4383 79.9072C49.1885 80.0928 48.8389 80.0392 48.6534 79.7931C48.0897 79.0332 47.0943 78.5515 45.9919 78.5016C45.0287 78.4552 43.9727 78.7228 42.856 79.2865C41.9427 79.7503 41.2827 80.264 40.8403 80.8634C39.795 82.2761 39.8699 84.4666 41.0151 86.0721C42.0462 87.517 43.8549 88.5088 45.9741 88.7906C48.1361 89.0796 50.3159 88.6301 51.9713 88.2091C53.1593 87.9058 54.5792 87.4171 55.0537 86.304C55.175 86.0186 55.5032 85.8866 55.7886 86.0079C56.074 86.1292 56.206 86.4574 56.0847 86.7428C55.4176 88.3054 53.6837 88.9297 52.2495 89.2936C50.8903 89.6397 49.1957 90 47.4083 90H47.4047Z" fill="black"/>
<path d="M60.7691 38.9118C60.7691 37.7773 60.3731 36.732 59.7166 35.9078C63.0987 36.0256 65.8066 38.7976 65.8066 42.2082C65.8066 45.6938 62.981 48.5229 59.4919 48.5229C56.2275 48.5229 53.5411 46.0434 53.2129 42.8647C53.9906 43.407 54.936 43.7245 55.9564 43.7245C58.6143 43.7245 60.7727 41.5696 60.7727 38.9082L60.7691 38.9118Z" fill="white"/>
<path d="M59.4917 49.0831C55.9562 49.0831 53.02 46.4359 52.6561 42.9254C52.6347 42.7078 52.7418 42.4973 52.9273 42.3867C53.1164 42.2761 53.3518 42.2832 53.5302 42.4081C54.2473 42.904 55.0821 43.168 55.9526 43.168C58.3001 43.168 60.2088 41.2593 60.2088 38.9118C60.2088 37.9379 59.8877 37.021 59.2776 36.2575C59.1421 36.0863 59.1171 35.8508 59.2134 35.6582C59.3133 35.462 59.5167 35.3407 59.7343 35.3514C63.4517 35.4834 66.3629 38.4944 66.3629 42.2119C66.3629 45.9293 63.2805 49.0831 59.4917 49.0831ZM53.994 43.9136C54.7218 46.2861 56.9194 47.9629 59.4917 47.9629C62.6633 47.9629 65.2463 45.3835 65.2463 42.2083C65.2463 39.4827 63.3733 37.2065 60.8153 36.6143C61.1542 37.3243 61.329 38.102 61.329 38.9083C61.329 41.873 58.9173 44.2847 55.9526 44.2847C55.2748 44.2847 54.6112 44.1598 53.9904 43.9136H53.994Z" fill="black"/>
<path d="M59.4918 35.9008C59.5667 35.9008 59.6417 35.9079 59.7166 35.9115C60.373 36.7356 60.769 37.7773 60.769 38.9154C60.769 41.5733 58.6142 43.7317 55.9528 43.7317C54.9324 43.7317 53.9906 43.4141 53.2093 42.8719C53.1879 42.6578 53.1736 42.4366 53.1736 42.2154C53.1736 38.7299 55.9991 35.9008 59.4883 35.9008H59.4918Z" fill="black"/>
<path d="M55.9528 44.2881C54.854 44.2881 53.7979 43.9564 52.8918 43.3285C52.7562 43.2357 52.6706 43.0894 52.6527 42.9253C52.6278 42.6899 52.6171 42.4544 52.6171 42.2118C52.6171 38.423 55.6995 35.3406 59.4883 35.3406C59.5454 35.3406 59.6024 35.3406 59.6595 35.3477H59.7309C59.895 35.3584 60.0448 35.4333 60.1483 35.5618C60.9189 36.525 61.3256 37.6845 61.3256 38.9118C61.3256 41.8764 58.9139 44.2881 55.9492 44.2881H55.9528ZM53.748 42.5507C54.4151 42.9574 55.1715 43.1679 55.9528 43.1679C58.3003 43.1679 60.2089 41.2592 60.2089 38.9118C60.2089 38.0234 59.9378 37.1815 59.4276 36.4572C56.2846 36.4893 53.7373 39.058 53.7373 42.2082C53.7373 42.3224 53.7373 42.433 53.748 42.5472V42.5507Z" fill="black"/>
<path d="M48.4965 40.0748C48.4965 39.165 48.2539 38.3088 47.8329 37.5703C50.9332 37.952 53.3342 40.5921 53.3342 43.7922C53.3342 47.2599 50.5229 50.0677 47.0588 50.0677C43.8015 50.0677 41.1258 47.5846 40.8119 44.4094C41.5754 44.8732 42.4708 45.1408 43.4269 45.1408C46.2275 45.1408 48.4965 42.8718 48.4965 40.0712V40.0748Z" fill="white"/>
<path d="M47.0551 50.6314C43.5196 50.6314 40.5977 47.9806 40.2516 44.4665C40.2302 44.256 40.3301 44.0527 40.5085 43.9385C40.6869 43.8244 40.9152 43.8244 41.0972 43.9314C41.8036 44.3595 42.6063 44.5843 43.4232 44.5843C45.9099 44.5843 47.9363 42.5614 47.9363 40.0748C47.9363 39.2971 47.7329 38.5265 47.3441 37.8486C47.2406 37.6631 47.2477 37.4383 47.3655 37.26C47.4832 37.0851 47.683 36.9888 47.9006 37.0138C51.3148 37.4348 53.8906 40.3495 53.8906 43.7923C53.8906 47.5632 50.8225 50.6278 47.0551 50.6278V50.6314ZM41.561 45.3834C42.2495 47.7951 44.4543 49.5111 47.0551 49.5111C50.2088 49.5111 52.7704 46.946 52.7704 43.7958C52.7704 41.2735 51.115 39.0866 48.7818 38.3481C48.9602 38.9046 49.0565 39.4897 49.0565 40.0748C49.0565 43.1786 46.5306 45.7045 43.4268 45.7045C42.7918 45.7045 42.1603 45.5939 41.561 45.3834Z" fill="black"/>
<path d="M47.0551 37.5168C47.3191 37.5168 47.576 37.5383 47.8328 37.5704C48.2538 38.3089 48.4964 39.1615 48.4964 40.0748C48.4964 42.8754 46.2274 45.1444 43.4268 45.1444C42.4671 45.1444 41.5752 44.8733 40.8118 44.413C40.7904 44.2097 40.7797 44.0028 40.7797 43.7958C40.7797 40.3281 43.5909 37.5204 47.0551 37.5204V37.5168Z" fill="black"/>
<path d="M43.4269 45.7046C42.4065 45.7046 41.404 45.4227 40.5228 44.8912C40.373 44.7984 40.2731 44.6414 40.2553 44.4666C40.2338 44.2454 40.2231 44.0207 40.2231 43.7923C40.2231 40.0214 43.2913 36.9568 47.0587 36.9568C47.3156 36.9568 47.5831 36.9746 47.9042 37.0139C48.079 37.0353 48.236 37.1387 48.3216 37.2921C48.8033 38.1412 49.0601 39.1009 49.0601 40.0749C49.0601 43.1787 46.5343 45.7046 43.4304 45.7046H43.4269ZM41.3469 44.0706C41.9927 44.406 42.7062 44.5843 43.4269 44.5843C45.9135 44.5843 47.9399 42.5615 47.9399 40.0749C47.9399 39.3899 47.7829 38.7121 47.4797 38.0949C47.3263 38.0806 47.1907 38.077 47.0587 38.077C43.9049 38.077 41.3434 40.6421 41.3434 43.7959C41.3434 43.8887 41.3434 43.9814 41.3505 44.0742L41.3469 44.0706Z" fill="black"/>
<path d="M71.7038 45.7295C72.0545 45.7295 72.3388 45.4452 72.3388 45.0945C72.3388 44.7438 72.0545 44.4595 71.7038 44.4595C71.353 44.4595 71.0687 44.7438 71.0687 45.0945C71.0687 45.4452 71.353 45.7295 71.7038 45.7295Z" fill="black"/>
<path d="M70.3659 48.259C70.7166 48.259 71.0009 47.9746 71.0009 47.6239C71.0009 47.2732 70.7166 46.9889 70.3659 46.9889C70.0151 46.9889 69.7308 47.2732 69.7308 47.6239C69.7308 47.9746 70.0151 48.259 70.3659 48.259Z" fill="black"/>
<path d="M73.6695 47.6238C74.0202 47.6238 74.3045 47.3395 74.3045 46.9888C74.3045 46.6381 74.0202 46.3538 73.6695 46.3538C73.3187 46.3538 73.0344 46.6381 73.0344 46.9888C73.0344 47.3395 73.3187 47.6238 73.6695 47.6238Z" fill="black"/>
<path d="M39.9163 51.4377C40.267 51.4377 40.5513 51.1534 40.5513 50.8026C40.5513 50.4519 40.267 50.1676 39.9163 50.1676C39.5656 50.1676 39.2812 50.4519 39.2812 50.8026C39.2812 51.1534 39.5656 51.4377 39.9163 51.4377Z" fill="black"/>
<path d="M38.5784 53.9671C38.9291 53.9671 39.2134 53.6828 39.2134 53.3321C39.2134 52.9813 38.9291 52.697 38.5784 52.697C38.2277 52.697 37.9434 52.9813 37.9434 53.3321C37.9434 53.6828 38.2277 53.9671 38.5784 53.9671Z" fill="black"/>
<path d="M41.882 53.332C42.2327 53.332 42.517 53.0476 42.517 52.6969C42.517 52.3462 42.2327 52.0619 41.882 52.0619C41.5313 52.0619 41.2469 52.3462 41.2469 52.6969C41.2469 53.0476 41.5313 53.332 41.882 53.332Z" fill="black"/>
<path d="M91.1257 44.6235C92.8453 43.5781 93.8871 41.484 93.5695 39.4683C93.4447 38.6727 93.1272 38.0162 92.6562 37.5739C91.8535 36.8175 90.5727 36.632 89.1493 37.0637C88.3608 37.3027 87.6009 37.7558 87.0765 38.348C86.9231 37.8949 86.7197 37.4526 86.4272 37.0459C85.7137 36.0576 84.2723 35.3191 82.9987 35.8899C81.8713 36.3965 81.4254 37.6666 81.486 38.6977C81.5217 39.3291 81.7108 39.9142 81.9534 40.4529C81.7251 40.4137 81.4967 40.3958 81.272 40.4065C79.3562 40.4993 77.6009 42.0762 77.0943 44.1561C76.6912 45.8222 77.0301 47.7772 78.054 49.6574L78.0968 49.7323C78.2431 49.9998 78.3786 50.2496 78.3822 50.4672C78.3822 50.667 78.2716 50.906 78.1539 51.1272C77.394 52.5828 76.3879 53.8707 75.1607 54.9553C75.0322 55.0694 74.9644 55.2335 74.9716 55.4048C74.9823 55.576 75.0679 55.733 75.2106 55.8329L82.0604 60.6313C82.1496 60.6956 82.2638 60.7491 82.4065 60.7669C82.592 60.7919 82.8275 60.7562 83.1093 60.5921C85.282 59.3292 86.866 57.1458 87.4047 54.6984C89.1314 54.388 92.0997 53.6816 92.7561 50.8882C93.4411 47.9734 93.0023 46.1825 91.1293 44.6199L91.1257 44.6235Z" fill="#FFE027"/>
<path d="M75.5282 55.9399C75.3748 55.9399 75.2178 55.8757 75.1108 55.7509C74.9074 55.519 74.9288 55.1658 75.1571 54.9624C76.388 53.8743 77.394 52.5864 78.1504 51.1344C78.2681 50.9096 78.3823 50.6741 78.3787 50.4708C78.3787 50.2532 78.2396 49.9999 78.0933 49.7359L78.054 49.6609C77.0301 47.7808 76.6876 45.8258 77.0943 44.1597C77.6009 42.0798 79.3562 40.5029 81.272 40.4101C82.353 40.3637 83.4839 40.8775 84.2331 41.7622C84.9039 42.5543 85.175 43.5318 84.9752 44.4451C84.8218 45.1479 84.3081 45.8079 83.6695 46.1219C83.1629 46.3716 82.6206 46.3894 82.1497 46.1682C81.8714 46.0362 81.7501 45.7045 81.8785 45.4226C82.0105 45.1443 82.3423 45.023 82.6206 45.1515C82.7811 45.2264 82.9666 45.2157 83.17 45.1158C83.5053 44.9517 83.7943 44.5735 83.8764 44.2025C84.0012 43.6317 83.8157 43.0038 83.3733 42.4793C82.8453 41.855 82.0676 41.4875 81.322 41.5232C79.9163 41.591 78.5642 42.8361 78.1789 44.4201C77.84 45.8151 78.1432 47.4847 79.0351 49.1222L79.0744 49.1936C79.2706 49.5503 79.4954 49.9571 79.4989 50.4565C79.5061 50.9167 79.317 51.3127 79.1422 51.6481C78.3216 53.225 77.2299 54.6199 75.8992 55.7972C75.7922 55.89 75.6602 55.9364 75.5282 55.9364V55.9399Z" fill="black"/>
<path d="M82.0606 61.1986C81.8501 61.1986 81.6503 61.0809 81.554 60.8776C81.422 60.5993 81.5397 60.2639 81.818 60.1319C84.1512 59.0224 85.9386 56.6642 86.3738 54.1205C86.413 53.8886 86.5986 53.7031 86.8305 53.6638C88.9068 53.3071 91.1651 52.747 91.661 50.6349C92.3281 47.7987 91.8608 46.4252 89.7381 44.9767C89.5632 44.859 89.4705 44.6521 89.499 44.4416C89.5276 44.2311 89.6703 44.0563 89.8665 43.9849C91.5789 43.382 92.7456 41.4341 92.4637 39.6396C92.4031 39.2578 92.2568 38.7298 91.8893 38.3873C91.1508 37.6952 89.8522 38.0163 89.4705 38.1305C88.4038 38.4515 87.3513 39.3042 87.5012 40.2496C87.5511 40.5529 87.3442 40.8383 87.0374 40.8882C86.7377 40.9382 86.4487 40.7312 86.3952 40.428C86.2382 39.504 86.0634 38.4587 85.514 37.6952C85.0538 37.0566 84.1583 36.5892 83.4519 36.9068C82.8133 37.1957 82.56 38.002 82.5957 38.6335C82.6421 39.4469 83.0595 40.2389 83.4484 40.9203C83.6018 41.1879 83.509 41.5304 83.2379 41.6838C82.9703 41.8372 82.6278 41.7444 82.4744 41.4733C82.0249 40.6813 81.5397 39.7502 81.479 38.6941C81.4184 37.6631 81.8643 36.393 82.9917 35.8864C84.2653 35.312 85.7102 36.0541 86.4202 37.0423C86.7127 37.449 86.9196 37.8914 87.0695 38.3445C87.5939 37.7487 88.3538 37.2956 89.1423 37.0602C90.5693 36.6285 91.8465 36.8176 92.6492 37.5739C93.1202 38.0163 93.4377 38.6727 93.5625 39.4683C93.8765 41.484 92.8383 43.5782 91.1187 44.6235C92.9917 46.1897 93.4305 47.9771 92.7456 50.8918C92.0891 53.6852 89.1209 54.3916 87.3941 54.702C86.7876 57.4419 84.8219 59.9393 82.2925 61.1416C82.214 61.1772 82.1319 61.1951 82.0534 61.1951L82.0606 61.1986Z" fill="black"/>
<path d="M86.1669 49.4218C86.0385 49.4218 85.9136 49.379 85.8066 49.2898C85.2001 48.7832 84.4473 48.1518 84.1226 47.2349C83.8194 46.3751 83.9621 45.3833 84.4972 44.6484C85.0895 43.8314 86.1312 43.3462 87.2871 43.3462H87.3085C88.1612 43.3498 89.0531 43.5995 90.1198 44.1239C90.3981 44.2595 90.5122 44.5949 90.3731 44.8731C90.2375 45.1514 89.9022 45.2656 89.6239 45.1264C88.7177 44.6769 87.9792 44.47 87.3014 44.4629C86.4987 44.4593 85.7816 44.7804 85.4034 45.3048C85.0859 45.7401 84.9967 46.3537 85.1787 46.8603C85.4034 47.4882 85.9992 47.9877 86.5272 48.43C86.7627 48.6298 86.7948 48.983 86.595 49.2185C86.4844 49.3505 86.3239 49.4183 86.1669 49.4183V49.4218Z" fill="black"/>
<path d="M55.5138 56.543C54.993 56.543 54.4685 56.4431 53.9726 56.2326C52.3351 55.5369 51.2042 53.7281 51.222 51.8302C51.222 51.5233 51.4753 51.2772 51.7821 51.2772H51.7857C52.0961 51.2772 52.3422 51.534 52.3387 51.8409C52.3244 53.2964 53.1771 54.6807 54.4079 55.2051C55.6815 55.7474 57.287 55.2444 57.9149 54.1134C58.4464 53.1537 58.3287 51.7802 57.5973 50.4352C57.4511 50.1641 57.551 49.8252 57.8221 49.6753C58.0932 49.5255 58.4322 49.6289 58.582 49.9001C59.4953 51.5804 59.613 53.3571 58.8959 54.6521C58.2359 55.8437 56.8909 56.543 55.5103 56.543H55.5138Z" fill="black"/>
</svg>
