<svg width="115" height="110" viewBox="0 0 115 110" fill="none" xmlns="http://www.w3.org/2000/svg">
<path d="M87.0478 82.6585C86.3934 83.5802 84.9008 84.7665 84.7597 86.2472C84.6527 87.3567 84.7255 88.0309 85.3114 88.7009C85.8075 89.2727 86.5688 89.6568 87.5738 89.8488C87.8903 89.9085 88.1897 89.9384 88.4634 89.9384C89.0194 89.9384 89.4856 89.8104 89.8705 89.5714C89.8748 89.5714 89.8791 89.5757 89.8834 89.58C89.9261 89.5928 89.9689 89.6013 90.0117 89.6013C90.1785 89.6013 90.3367 89.4946 90.3923 89.3282L93.4545 80.0597C93.493 79.9359 93.4759 79.8036 93.3989 79.697C93.322 79.5946 93.2022 79.5305 93.0739 79.5305C91.453 79.5305 89.7764 79.5305 88.2539 78.963C86.65 78.3656 86.2266 77.2988 86.0342 75.946C85.9358 75.2547 86.1069 74.4738 86.2993 73.8295C88.5789 75.0841 92.0517 76.1765 94.8274 76.1765C102.795 76.1765 109.335 70.4029 109.899 63.1144C110.853 62.6748 111.725 61.9835 112.444 61.0874C113.954 59.2098 114.599 56.6196 114.167 54.1574C113.757 51.8061 112.38 49.5914 110.395 48.0765C110.156 47.893 109.912 47.7906 109.685 47.7607C110.057 47.0182 110.211 46.1989 110.074 45.4052C109.938 44.603 109.531 43.8135 108.83 42.9942C107.992 42.0127 107.008 41.3129 105.986 40.9758C104.763 40.5704 103.437 40.6856 102.449 41.2916C101.615 41.7994 101.05 42.6614 100.901 43.5617C100.379 42.8875 99.7116 42.2688 98.9161 41.714C98.4713 41.4025 97.8725 41.0398 97.1754 40.9118C96.2858 33.9305 89.8962 28.4983 82.1679 28.4983C73.8323 28.4983 67.0492 34.8181 67.0492 42.5845C67.0492 43.5788 67.1647 44.5731 67.3871 45.5503C60.6382 46.9756 55.7839 52.6937 55.7839 59.2952C55.7839 67.0616 62.4473 73.3814 70.6375 73.3814C72.9042 73.3814 75.1068 72.8864 77.0955 71.9732L74.2001 80.8406C73.3533 80.6912 73.627 80.7126 72.8786 80.7211C71.8222 80.7296 70.4664 80.8363 69.3801 81.549C68.3536 82.2232 67.5539 83.6527 68.1013 84.967C68.576 86.1064 69.812 86.6142 70.8385 86.93C73.4003 87.7194 75.2351 88.0437 77.9081 88.0437C78.3316 88.0437 78.755 88.0352 79.1826 88.0139C79.5034 87.9968 79.8156 87.9712 80.115 87.8218C80.5384 87.6085 80.7865 87.2202 80.9918 86.8318C81.6504 85.5858 82.2962 82.7395 82.4502 81.3399C82.4502 81.3399 84.9008 83.593 87.0435 82.6627L87.0478 82.6585Z" fill="#80E02D"/>
<path d="M95.0925 76.4794C89.4342 76.4794 84.3319 73.6502 81.629 69.0544C78.772 71.9775 74.7732 73.646 70.5604 73.646C62.242 73.646 55.4717 67.228 55.4717 59.3378C55.4717 52.6382 60.3943 46.8347 67.2416 45.3796C67.0149 44.3938 66.9037 43.391 66.9037 42.384C66.9037 34.4938 73.7938 28.0758 82.2577 28.0758C90.7216 28.0758 97.6116 34.4938 97.6116 42.384C97.6116 44.3042 97.2096 46.1648 96.4184 47.9186C104.335 48.5459 110.446 54.695 110.446 62.1755C110.446 70.0657 103.556 76.4837 95.0925 76.4837V76.4794ZM81.7188 67.9107C81.7188 67.9107 81.753 67.9107 81.7701 67.9107C81.907 67.9278 82.031 68.0089 82.0951 68.1326C84.5629 72.7541 89.5412 75.626 95.0925 75.626C103.09 75.626 109.591 69.5878 109.591 62.1713C109.591 54.7548 103.509 49.0494 95.7426 48.7294C95.5972 48.7251 95.4646 48.644 95.3919 48.5203C95.3192 48.3965 95.3149 48.2429 95.3791 48.1106C96.2943 46.3098 96.7562 44.3853 96.7562 42.384C96.7562 34.9632 90.2511 28.9293 82.2577 28.9293C74.2642 28.9293 67.7591 34.9674 67.7591 42.384C67.7591 43.4636 67.9002 44.5475 68.1782 45.6015C68.2082 45.7167 68.1911 45.8404 68.1269 45.9386C68.0628 46.0367 67.9601 46.1093 67.8446 46.1306C61.1727 47.3511 56.3313 52.907 56.3313 59.3378C56.3313 66.7586 62.7167 72.7925 70.5647 72.7925C74.7389 72.7925 78.6908 71.0643 81.4023 68.0516C81.4836 67.962 81.599 67.9107 81.7188 67.9107Z" fill="black"/>
<path d="M74.8204 81.4595C74.7776 81.4595 74.7348 81.4552 74.6963 81.4424C74.4696 81.3742 74.3456 81.1352 74.4141 80.909L77.2881 71.5722C77.3565 71.3461 77.596 71.2223 77.8227 71.2906C78.0494 71.3589 78.1734 71.5978 78.105 71.824L75.2309 81.1608C75.1753 81.3443 75.0043 81.4638 74.8204 81.4638V81.4595Z" fill="black"/>
<path d="M77.9551 88.1419C75.5515 88.1419 73.4173 87.7835 70.7015 86.9471C69.658 86.6271 68.3963 86.1065 67.913 84.9458C67.357 83.6016 68.1696 82.1422 69.2175 81.4509C70.3209 80.7254 71.698 80.6188 72.7758 80.6059C75.6713 80.5803 77.536 81.3698 78.9644 83.2559C79.1056 83.4437 79.0714 83.7125 78.8789 83.8533C78.6907 83.9942 78.4213 83.96 78.2801 83.7723C77.0356 82.1294 75.3804 81.4338 72.7844 81.4637C71.8263 81.4722 70.6074 81.5618 69.6879 82.1678C68.9138 82.6756 68.3322 83.7339 68.7 84.6214C69.0464 85.4536 70.0857 85.8675 70.9496 86.1363C74.0631 87.0965 76.2871 87.3994 79.1612 87.2629C79.4007 87.2501 79.6145 87.2373 79.7685 87.1562C79.9866 87.0453 80.1534 86.7764 80.2945 86.5033C81.0473 85.078 81.9026 82.5305 81.9711 81.0156C81.9796 80.7809 82.1806 80.6017 82.4159 80.6102C82.6511 80.623 82.835 80.8193 82.8222 81.0583C82.7452 82.7396 81.8385 85.4024 81.0473 86.9044C80.8377 87.3013 80.5811 87.6981 80.1491 87.92C79.8412 88.0779 79.5204 88.1035 79.1954 88.1163C78.7677 88.1377 78.3528 88.1462 77.9465 88.1462L77.9551 88.1419Z" fill="black"/>
<path d="M85.7564 83.2432C85.3116 83.2432 84.8155 83.1834 84.2466 83.0085C83.0106 82.6287 82.0398 81.6429 81.6506 80.3798C81.471 79.7952 81.4838 79.1807 81.5094 78.6473C81.6249 76.168 82.0954 73.7229 82.9037 71.3759C82.9807 71.154 83.2202 71.0345 83.4469 71.1113C83.6693 71.1881 83.789 71.4314 83.712 71.6533C82.9294 73.9234 82.476 76.2918 82.3648 78.6857C82.3434 79.1679 82.3306 79.6757 82.4717 80.1281C82.7754 81.1223 83.5367 81.8904 84.5032 82.1891C85.5725 82.5177 86.3038 82.3726 87.0822 82.219C87.3944 82.155 87.7194 82.091 88.0659 82.0611L88.3011 82.0398C88.5321 82.0184 88.7416 82.1977 88.763 82.4324C88.7801 82.6671 88.6048 82.8719 88.3695 82.8932L88.1429 82.9146C87.8435 82.9444 87.5526 82.9999 87.249 83.0597C86.7999 83.1493 86.3209 83.2432 85.7606 83.2432H85.7564Z" fill="black"/>
<path d="M87.9931 89.9982C87.7493 89.9982 87.5269 89.9812 87.343 89.947C86.4406 89.7763 85.7563 89.4264 85.3072 88.9101C84.7769 88.3041 84.5417 87.4208 84.6357 86.4265C84.8282 84.4209 86.5475 82.5263 88.7201 81.9203C88.9468 81.8563 89.182 81.9886 89.2462 82.2147C89.3104 82.4409 89.1778 82.6756 88.9511 82.7396C87.1035 83.256 85.6451 84.8391 85.4868 86.5076C85.4441 86.9471 85.4483 87.775 85.953 88.3511C86.2738 88.7181 86.7956 88.9741 87.5055 89.1107C88.1086 89.2259 89.2419 89.0808 89.6226 88.7693C89.8065 88.6199 90.0759 88.6455 90.2256 88.829C90.3753 89.0125 90.3496 89.2813 90.1657 89.4307C89.6739 89.8318 88.7415 90.0025 87.9931 90.0025V89.9982Z" fill="black"/>
<path d="M90.0457 89.5971C90.0029 89.5971 89.9559 89.5886 89.9088 89.5758C89.6865 89.5032 89.5624 89.26 89.6394 89.0381L92.6503 80.0085C91.3758 80 89.9944 79.936 88.7242 79.4581C87.3898 78.9588 85.8672 77.7938 85.6106 76.0101C85.4737 75.0585 85.7346 74.141 86.0041 73.3687C86.0811 73.1468 86.3248 73.0316 86.5472 73.1084C86.7696 73.1852 86.8894 73.4284 86.8081 73.6503C86.5729 74.3245 86.3419 75.1225 86.4531 75.8906C86.6199 77.0556 87.6293 78.1437 89.0193 78.6601C90.3451 79.1551 91.8163 79.1551 93.2405 79.1551C93.3774 79.1551 93.5057 79.2191 93.5869 79.3343C93.6682 79.4453 93.6896 79.5903 93.6468 79.7184L90.4477 89.3069C90.3879 89.4861 90.2211 89.5971 90.0414 89.5971H90.0457Z" fill="black"/>
<path d="M78.0406 46.5745C77.1382 46.5745 76.2871 46.0197 75.9321 45.337C75.4916 44.4835 75.6584 43.5319 75.7867 42.7681C75.8252 42.5376 76.0476 42.3798 76.2785 42.4182C76.5095 42.4566 76.6677 42.6785 76.6292 42.9089C76.4881 43.7197 76.4068 44.3854 76.6934 44.9401C76.9671 45.4735 77.7882 45.8875 78.4725 45.64C79.0328 45.4394 79.3322 44.9145 79.4733 43.8904L79.6316 42.7425C79.6615 42.5078 79.8796 42.3456 80.1149 42.3755C80.3501 42.4054 80.5126 42.623 80.4827 42.8577L80.3244 44.0056C80.2517 44.5433 80.055 45.9771 78.7676 46.4422C78.5281 46.5275 78.2844 46.5659 78.0406 46.5659V46.5745Z" fill="black"/>
<path d="M86.65 46.1136C86.573 46.1136 86.4961 46.0923 86.4233 46.0496L82.7324 43.7496C82.5998 43.6685 82.5229 43.5191 82.5314 43.3655C82.54 43.2119 82.6298 43.0711 82.7709 43.0028L86.4661 41.1807C86.68 41.074 86.9323 41.1636 87.0392 41.3727C87.1461 41.5861 87.0563 41.8378 86.8468 41.9445L83.8401 43.4295L86.881 45.3242C87.082 45.4479 87.1419 45.7125 87.0178 45.9131C86.9366 46.0411 86.7954 46.1136 86.6543 46.1136H86.65Z" fill="black"/>
<path d="M81.9881 50.3339C81.7828 50.3339 81.5775 50.3083 81.3679 50.2614C80.7606 50.1205 80.0464 49.6981 79.8454 48.947C79.7855 48.7209 79.9223 48.4862 80.149 48.4264C80.3757 48.3667 80.6109 48.5032 80.6708 48.7294C80.7734 49.1177 81.214 49.3482 81.5604 49.4335C82.0351 49.5445 82.5098 49.4677 82.8349 49.233C83.1642 48.9897 83.3267 48.5545 83.207 48.2173C83.13 47.9954 83.2455 47.7522 83.4721 47.6754C83.6945 47.5986 83.9383 47.7181 84.0153 47.94C84.2548 48.627 83.9725 49.4591 83.3396 49.92C82.9675 50.1931 82.4842 50.3382 81.9795 50.3382L81.9881 50.3339Z" fill="black"/>
<path d="M114.689 54.2086C114.27 51.8232 112.876 49.5744 110.861 48.0424C110.617 47.8546 110.369 47.7522 110.138 47.7181C110.515 46.9671 110.669 46.1349 110.532 45.3284C110.391 44.5134 109.98 43.7154 109.27 42.8833C108.419 41.8847 107.423 41.1764 106.383 40.835C105.139 40.4211 103.8 40.5406 102.795 41.155C101.948 41.6714 101.379 42.5419 101.225 43.4594C100.695 42.7766 100.019 42.145 99.2111 41.586C98.7363 41.2575 98.0948 40.8649 97.3506 40.7539C96.5252 40.6302 95.734 40.9033 95.2764 41.458C94.7118 42.145 94.7033 43.2161 95.255 44.0653C95.4603 44.3854 95.7211 44.6457 95.9991 44.8633C95.58 44.8633 95.1523 44.9273 94.746 45.0937C94.0831 45.3626 93.5399 45.9941 93.3603 46.7025C93.2192 47.2615 93.3304 47.7949 93.6683 48.196C93.9676 48.5545 94.3868 48.7465 94.7973 48.9001C96.136 49.4037 97.5602 49.6597 98.9887 49.6597C99.0699 49.6597 99.1512 49.6512 99.2325 49.6512C99.0186 49.9115 98.8304 50.2102 98.6893 50.5345C98.2915 51.452 98.2787 52.459 98.6551 53.2997C98.7919 53.6027 98.9801 53.8971 99.2111 54.1787C100.092 55.2456 101.499 55.8686 102.885 55.843C104.1 55.8088 105.301 55.2541 106.131 54.3622C107.106 55.5528 112.555 56.7818 110.617 61.4075C110.421 61.8769 110.754 62.0945 110.904 62.1628C110.964 62.1884 111.028 62.2012 111.096 62.2012C112.093 62.2012 112.914 61.2624 112.936 61.2325C114.467 59.3293 115.121 56.7007 114.685 54.2001L114.689 54.2086Z" fill="#6AD830"/>
<path d="M99.5149 46.5618C99.4422 46.5618 99.3652 46.5405 99.2968 46.5021C98.8862 46.2588 98.4414 46.0753 97.971 45.8876C97.7315 45.7894 97.492 45.6956 97.2567 45.5889C96.658 45.32 95.8026 44.872 95.2808 44.0697C94.7248 43.212 94.7334 42.1281 95.3022 41.4368C95.7641 40.8735 96.5639 40.6004 97.3936 40.7242C98.142 40.8351 98.7878 41.2277 99.2626 41.5606C100.332 42.2988 101.166 43.1565 101.743 44.1081C101.867 44.3087 101.803 44.5733 101.602 44.6927C101.401 44.8165 101.136 44.7525 101.016 44.5477C100.499 43.6985 99.7459 42.9261 98.7793 42.2561C98.3773 41.9788 97.8469 41.6502 97.2696 41.5648C96.7478 41.488 96.2346 41.6459 95.9651 41.9745C95.593 42.4268 95.7042 43.148 95.9993 43.6003C96.303 44.0655 96.8119 44.4495 97.6074 44.808C97.8341 44.9104 98.0608 45 98.2917 45.0939C98.7707 45.2902 99.2669 45.4907 99.733 45.7681C99.934 45.8876 100.002 46.1521 99.8784 46.3527C99.7972 46.485 99.656 46.5618 99.5106 46.5618H99.5149Z" fill="black"/>
<path d="M106.486 50.2956C106.431 50.2956 106.371 50.2956 106.315 50.2871C105.182 50.1975 104.224 49.1264 104.177 47.8931C104.138 46.8647 104.677 45.8107 105.618 45.0725C105.802 44.9274 106.071 44.9573 106.217 45.145C106.362 45.3285 106.332 45.5974 106.144 45.7424C105.43 46.3057 105.002 47.1165 105.028 47.859C105.058 48.657 105.674 49.3782 106.379 49.4336C106.649 49.455 106.952 49.3952 107.333 49.2416C108.74 48.6741 110.027 47.0994 109.745 45.4523C109.63 44.7908 109.279 44.1209 108.672 43.4082C107.919 42.5292 107.051 41.9062 106.157 41.6117C105.143 41.2746 104.066 41.3685 103.27 41.8507C102.427 42.3628 101.931 43.3741 102.085 44.2574C102.124 44.4879 101.97 44.7098 101.739 44.7524C101.508 44.7951 101.286 44.6372 101.243 44.4068C101.025 43.1735 101.675 41.8251 102.825 41.1253C103.835 40.5108 105.182 40.387 106.431 40.8009C107.47 41.1466 108.471 41.855 109.326 42.8578C110.036 43.6899 110.451 44.4921 110.592 45.3114C110.913 47.1976 109.651 49.2288 107.654 50.0353C107.226 50.2103 106.837 50.2956 106.482 50.2956H106.486Z" fill="black"/>
<path d="M99.0316 49.6683C97.6031 49.6683 96.1746 49.4123 94.836 48.9045C94.4254 48.7508 94.002 48.5588 93.6983 48.1918C93.3562 47.7822 93.245 47.2445 93.3861 46.677C93.5657 45.9643 94.1132 45.3285 94.7804 45.0554C95.8923 44.6031 97.1455 44.9103 98.0607 45.1365C98.2917 45.1919 98.4285 45.4224 98.3729 45.6528C98.3173 45.8832 98.0864 46.0198 97.8554 45.9643C96.8161 45.7083 95.8966 45.5248 95.1011 45.8448C94.682 46.0155 94.327 46.4295 94.2115 46.8818C94.1602 47.0909 94.1388 47.3939 94.3484 47.6414C94.5152 47.8419 94.7803 47.9699 95.1311 48.1022C96.8675 48.7551 98.7578 48.9599 100.597 48.6954C100.832 48.6612 101.046 48.8234 101.08 49.0581C101.114 49.2928 100.952 49.5062 100.717 49.5403C100.156 49.6214 99.5875 49.6598 99.023 49.6598L99.0316 49.6683Z" fill="black"/>
<path d="M102.808 55.8515C101.457 55.8515 100.101 55.2157 99.2411 54.1787C99.0101 53.8971 98.822 53.5984 98.6851 53.2954C98.3045 52.4548 98.3173 51.4391 98.7193 50.5131C99.1213 49.5871 99.8527 48.8873 100.729 48.5886C100.952 48.5118 101.196 48.6313 101.273 48.8532C101.35 49.0751 101.23 49.3183 101.007 49.3951C100.357 49.617 99.8099 50.1462 99.5063 50.8503C99.2026 51.5544 99.1855 52.3182 99.4678 52.9412C99.5747 53.1759 99.7201 53.4106 99.904 53.6325C100.623 54.5073 101.794 55.0194 102.906 54.9938C104.04 54.9596 105.16 54.375 105.827 53.4618C105.969 53.2698 106.234 53.2314 106.426 53.3679C106.619 53.5088 106.657 53.7733 106.52 53.9654C105.699 55.0834 104.322 55.8046 102.932 55.843C102.894 55.843 102.851 55.843 102.808 55.843V55.8515Z" fill="black"/>
<path d="M105.07 52.9369C104.964 52.9369 104.852 52.9028 104.767 52.8431C104.557 52.698 104.502 52.4163 104.643 52.203C104.754 52.028 104.925 51.9768 105.011 51.9512C105.443 51.6013 105.721 51.1361 105.776 50.6753C105.836 50.1803 105.618 49.6767 105.242 49.442C104.771 49.1519 104.1 49.2585 103.565 49.3866C103.043 49.5103 102.299 49.8645 102.376 50.3254C102.415 50.5558 102.261 50.7777 102.025 50.8161C101.794 50.8545 101.572 50.7009 101.534 50.4662C101.367 49.489 102.333 48.8019 103.364 48.5544C104.057 48.388 104.951 48.2557 105.686 48.7123C106.345 49.1177 106.717 49.9456 106.619 50.7734C106.533 51.4733 106.127 52.1518 105.498 52.6425L105.485 52.651C105.473 52.6852 105.455 52.715 105.434 52.7449C105.34 52.8729 105.203 52.9241 105.066 52.9241L105.07 52.9369Z" fill="black"/>
<path d="M110.216 63.7929C110.04 63.7929 109.878 63.6862 109.814 63.5113C109.732 63.2894 109.848 63.0461 110.066 62.9651C111.182 62.5554 112.089 61.5441 112.675 60.8144C113.911 59.2782 114.36 56.9184 113.907 54.3367C113.526 52.1561 112.243 50.095 110.395 48.6868C110.25 48.5758 110.113 48.5289 110.053 48.5246C109.903 48.6868 109.655 48.7124 109.48 48.5758C109.292 48.4308 109.258 48.1662 109.403 47.9784C109.728 47.556 110.335 47.5688 110.917 48.0126C112.936 49.5488 114.334 51.8019 114.753 54.1916C115.25 57.0165 114.736 59.6238 113.346 61.352C112.645 62.2268 111.67 63.2894 110.37 63.7673C110.323 63.7844 110.271 63.7929 110.22 63.7929H110.216Z" fill="black"/>
<path d="M108.017 57.5286H107.996C107.761 57.5158 107.577 57.3152 107.589 57.0805C107.692 54.9341 106.358 54.1489 106.302 54.119C106.097 54.0038 106.024 53.7435 106.14 53.5387C106.255 53.3339 106.512 53.2613 106.717 53.3723C106.794 53.4149 108.569 54.4263 108.441 57.1232C108.428 57.3536 108.24 57.5286 108.013 57.5286H108.017Z" fill="black"/>
<path d="M12.6304 46.775C11.5398 46.5317 10.539 45.7892 9.88037 44.7352C9.35004 43.8818 9.04211 42.832 8.98223 41.6799C9.47835 41.5134 9.93169 41.2062 10.2525 40.788C10.4791 40.4936 10.616 40.182 10.6588 39.8705C10.7657 39.0854 10.2354 38.266 9.42702 37.9631C9.14475 37.8607 8.84109 37.818 8.52888 37.835C9.03783 36.8962 8.6914 35.5905 7.73766 34.9504C6.89084 34.3828 5.70188 34.3615 4.70965 34.8949C4.28196 35.1253 3.90987 35.4539 3.61477 35.8422C3.50357 35.7484 3.34533 35.7142 3.19991 35.774C2.23334 36.1793 1.45923 37.0285 1.07004 38.0996C0.907516 38.5519 0.826255 39.0213 0.817701 39.4779C0.770656 39.5078 0.732164 39.5462 0.697949 39.5932C-0.0975469 40.7581 -0.131762 42.4053 0.620966 43.6001C1.36514 44.7822 3.64043 44.9528 4.96626 44.8462C5.23998 46.0026 6.49737 47.765 6.65989 47.9911C7.72911 49.4719 8.99506 50.8203 10.9667 50.8203C11.1121 50.8203 11.2618 50.8118 11.4158 50.799C11.574 50.7819 11.7066 50.6795 11.7579 50.5344L12.9212 47.3169C12.9597 47.206 12.9512 47.0865 12.8956 46.9841C12.84 46.8817 12.7416 46.8091 12.6261 46.7835L12.6304 46.775Z" fill="#11CE11"/>
<path d="M65.1244 63.413C64.9105 61.5525 63.9055 59.7175 62.2931 58.2453C60.9288 56.9993 58.4354 55.9197 56.1772 55.0278C56.019 54.9638 55.835 55.0065 55.7238 55.1388C55.6084 55.2668 55.5913 55.4545 55.6725 55.6039L59.5901 62.7046C59.5901 62.7046 59.6115 62.743 59.6243 62.7601C60.3172 63.6477 60.5524 65.0772 60.1461 65.9435C59.7099 66.8738 58.8716 67.612 57.8965 67.9406C57.8794 67.9278 57.8623 67.9064 57.8452 67.8979C57.5672 67.7528 57.255 67.5864 56.9 67.5053C56.2627 67.3602 55.557 67.5651 55.0182 68.0473C54.4707 68.538 54.1927 69.2208 54.2697 69.8822C54.3467 70.5265 54.7616 71.1282 55.3817 71.4867C55.5699 71.5976 55.7666 71.6787 55.9676 71.7342C55.8906 71.9817 55.8864 72.242 55.9676 72.4767C56.2157 73.2234 56.9855 73.5606 57.6185 73.6331C57.7083 73.6416 57.7981 73.6459 57.8879 73.6459C58.2087 73.6459 58.5337 73.5819 58.846 73.4667C58.8631 73.4795 58.8759 73.4923 58.893 73.5008C59.3207 73.7014 59.7826 73.7953 60.2488 73.7953C61.1768 73.7953 62.1006 73.4112 62.7251 72.7071C63.6147 71.7086 63.7729 70.1937 63.157 69.0202C64.5812 67.5565 65.3553 65.457 65.1201 63.4215L65.1244 63.413Z" fill="#11CE11"/>
<path d="M55.6469 83.2901C54.3382 83.1151 53.0637 82.5475 52.0586 81.6941C51.7721 81.4509 51.5112 81.1906 51.2332 80.9132C51.0151 80.6956 50.7927 80.4737 50.5617 80.2688C50.0057 79.7653 49.3471 79.2874 48.543 78.8009C46.4517 77.5378 44.4415 76.8934 42.5683 76.8934H42.5255C40.8361 76.902 39.2665 77.4652 38.1075 78.4296C39.5189 71.9775 40.648 65.8583 41.6316 59.2781C41.6402 59.2269 41.6359 59.1715 41.6231 59.1202L40.6907 55.3053C40.6522 55.156 40.5368 55.0407 40.3871 55.0066C40.2374 54.9725 40.0791 55.0237 39.9808 55.1432L39.0399 56.2782C39.0099 56.3124 38.9885 56.3508 38.9757 56.3892L37.1238 61.1301C37.1238 61.1301 37.111 61.1728 37.1067 61.1941C36.1359 65.8369 35.5286 70.5565 34.9384 75.1225C34.8186 76.0442 34.6988 76.9702 34.5748 77.8962C32.3124 74.6872 27.5693 73.5479 24.1093 75.434C23.6816 75.6644 23.2582 75.9418 22.8477 76.2064C21.586 77.0214 20.397 77.7895 19.1567 77.4482C18.9985 77.4055 18.8274 77.461 18.729 77.589C18.6264 77.717 18.6136 77.8962 18.6948 78.037C19.6144 79.6671 21.6159 80.7425 24.1863 80.9857C25.1957 81.0796 26.1665 80.8961 27.0989 80.7212C28.1253 80.5291 29.0962 80.3414 30.0841 80.5121C30.9053 80.6529 31.7478 81.054 32.6417 81.4765C33.7194 81.9885 34.8357 82.5177 35.9691 82.5774C36.9356 82.6329 37.8979 82.5006 38.826 82.3769C39.7156 82.2574 40.5496 82.1464 41.4007 82.1763C43.2055 82.2446 44.9462 82.9913 46.6313 83.7082C47.1744 83.9387 47.739 84.1819 48.295 84.3953C49.8304 84.9884 51.246 85.2829 52.5077 85.2829C53.7694 85.2829 54.8856 84.9842 55.8052 84.3867C55.9762 84.2758 56.0275 84.0667 55.9506 83.8875C55.9762 83.8448 55.9933 83.7936 56.0019 83.7424C56.0318 83.5205 55.8736 83.3157 55.6512 83.2858L55.6469 83.2901Z" fill="#11CE11"/>
<path d="M38.7407 56.5599C44.6812 56.5599 49.497 51.755 49.497 45.8278C49.497 39.9005 44.6812 35.0956 38.7407 35.0956C32.8001 35.0956 27.9844 39.9005 27.9844 45.8278C27.9844 51.755 32.8001 56.5599 38.7407 56.5599Z" fill="white"/>
<path d="M28.0055 43.2887C25.4309 43.4936 22.8263 43.3186 20.3029 42.7724C17.4716 42.1579 14.5976 40.9588 12.8997 38.6203C11.2018 36.2819 11.159 32.5864 13.4257 30.7899C14.7644 29.7316 16.5863 29.514 18.2928 29.5695C23.6517 29.7487 28.878 32.3474 32.2525 36.5038" fill="white"/>
<path d="M32.7017 36.6189C29.9559 32.9619 29.3657 27.807 31.2176 23.6251C31.5811 22.81 32.0388 22.0121 32.7145 21.4274C34.3269 20.0235 36.9101 20.1643 38.6807 21.3592C40.4513 22.554 41.4949 24.5938 41.9953 26.6719C42.6839 29.5481 42.4401 32.6376 41.311 35.3686L41.4478 34.8267" fill="white"/>
<path d="M41.5503 34.3871C41.747 32.9021 42.457 31.5323 43.2354 30.2479C44.3901 28.3447 45.7502 26.5268 47.5208 25.1783C49.2914 23.8299 51.5197 22.9764 53.7393 23.1813C55.959 23.3861 58.1189 24.7687 58.9101 26.8468C59.5687 28.5708 59.2351 30.5551 58.3926 32.2023C57.55 33.8494 56.2456 35.2022 54.8941 36.4653C53.1876 38.0612 50.5659 39.5932 48.3163 40.229" fill="white"/>
<path d="M49.0434 40.0454C52.529 38.7781 56.267 38.202 59.975 38.3599C62.199 38.4538 64.4914 38.8421 66.3304 40.0881C68.1738 41.3342 69.4525 43.6044 68.9864 45.7764C68.7682 46.7877 68.1994 47.6967 67.498 48.4562C65.7146 50.3808 63.1057 51.3793 60.4968 51.6994C57.8879 52.0194 55.2491 51.7335 52.6402 51.4433L48.312 50.9611" fill="white"/>
<path d="M28.0098 44.492C26.6583 43.8817 25.14 43.758 23.6559 43.7196C21.402 43.6556 19.0925 43.7623 16.9926 44.573C15.6069 45.1064 14.3366 45.9471 13.2974 47.0096C12.241 48.0935 11.4027 49.4804 11.3599 50.991C11.3001 52.9113 12.5746 54.7035 14.234 55.6765C15.8977 56.6494 17.8864 56.9054 19.8153 56.8628C23.6345 56.7732 27.4153 55.5442 30.5545 53.3721" fill="white"/>
<path d="M29.4212 54.0934C27.3383 55.0322 25.4223 56.7519 24.1777 58.6679C22.9374 60.5839 22.4499 63.0546 23.2026 65.2096C23.9553 67.3646 26.0724 69.0672 28.3605 69.0331C30.1525 69.0075 31.7863 67.9961 33.142 66.8269C36.1059 64.2665 38.2272 60.7503 39.1125 56.9354" fill="white"/>
<path d="M40.5282 56.4958C40.3357 57.8614 41.1312 59.1501 41.901 60.298C43.3038 62.3847 44.7451 64.4842 46.627 66.1612C48.5088 67.8382 50.891 69.0757 53.4101 69.1099C55.9291 69.1483 58.5466 67.7913 59.5431 65.4827C60.8176 62.5297 59.2009 59.0989 57.024 56.7305C54.8 54.311 51.4299 52.0152 48.312 50.9655" fill="white"/>
<path d="M38.7404 56.5599C44.681 56.5599 49.4967 51.755 49.4967 45.8278C49.4967 39.9005 44.681 35.0956 38.7404 35.0956C32.7999 35.0956 27.9841 39.9005 27.9841 45.8278C27.9841 51.755 32.7999 56.5599 38.7404 56.5599Z" fill="#FFE027"/>
<path d="M38.7404 56.9866C32.5732 56.9866 27.5564 51.9811 27.5564 45.8277C27.5564 39.6743 32.5732 34.6688 38.7404 34.6688C44.9076 34.6688 49.9244 39.6743 49.9244 45.8277C49.9244 51.9811 44.9076 56.9866 38.7404 56.9866ZM38.7404 35.5223C33.0436 35.5223 28.4118 40.1437 28.4118 45.8277C28.4118 51.5117 33.0436 56.1332 38.7404 56.1332C44.4372 56.1332 49.069 51.5117 49.069 45.8277C49.069 40.1437 44.4372 35.5223 38.7404 35.5223Z" fill="black"/>
<path d="M25.9057 43.8009C23.9939 43.8009 22.0864 43.596 20.2132 43.1907C16.6505 42.414 14.0716 40.9631 12.5533 38.8722C10.7869 36.4398 10.6116 32.4798 13.1606 30.4571C14.371 29.497 16.0518 29.0703 18.3057 29.1471C23.7929 29.3306 29.1304 31.9848 32.5818 36.2393C32.7315 36.4228 32.7016 36.6916 32.5177 36.841C32.3338 36.9903 32.0643 36.9604 31.9146 36.777C28.6129 32.7102 23.5149 30.1755 18.2715 30.0005C16.2271 29.9323 14.7302 30.2992 13.6867 31.1271C11.5525 32.8169 11.7364 36.3033 13.2376 38.3729C14.6276 40.2889 17.0354 41.6288 20.3842 42.3585C22.8734 42.9005 25.4224 43.0712 27.9585 42.8663C28.2023 42.845 28.3991 43.0242 28.4204 43.2589C28.4418 43.4936 28.2622 43.6985 28.027 43.7198C27.317 43.7753 26.6028 43.8051 25.8885 43.8051L25.9057 43.8009Z" fill="black"/>
<path d="M32.7058 37.0457C32.5775 37.0457 32.4492 36.986 32.3637 36.875C29.5067 33.0686 28.9037 27.8028 30.8283 23.4545C31.2945 22.4005 31.8077 21.6537 32.4364 21.1075C34.0915 19.6694 36.88 19.6267 38.9244 21.0093C41.05 22.4474 41.9952 24.8285 42.4143 26.5739C43.1243 29.5353 42.8762 32.7187 41.7086 35.5308C41.6231 35.7357 41.3921 35.8424 41.1783 35.7741C40.9644 35.7058 40.8447 35.4796 40.896 35.2663L41.0329 34.7243C41.0585 34.6262 41.1141 34.5451 41.1911 34.4854C42.0508 32.0189 42.1919 29.3092 41.5803 26.7701C41.0371 24.5128 39.9209 22.7162 38.4411 21.7134C36.709 20.5399 34.3695 20.557 32.9966 21.7476C32.4663 22.2084 32.0258 22.8613 31.6109 23.7959C29.836 27.8028 30.4134 32.8553 33.048 36.363C33.1891 36.5507 33.1506 36.8196 32.9624 36.9604C32.8855 37.0159 32.7956 37.0457 32.7058 37.0457Z" fill="black"/>
<path d="M48.3121 40.66C48.1239 40.66 47.9528 40.5363 47.9015 40.3485C47.8374 40.1224 47.9699 39.8877 48.1966 39.8194C50.3308 39.2134 52.9054 37.7412 54.5991 36.1538C55.8821 34.9547 57.1823 33.6191 58.0077 32.006C58.8845 30.2949 59.0641 28.4685 58.5039 26.9963C57.8067 25.1656 55.8736 23.8043 53.6967 23.6038C51.7379 23.4245 49.6336 24.103 47.7775 25.5155C46.2891 26.6506 44.9633 28.2252 43.599 30.4655C42.9019 31.6134 42.1662 32.979 41.9695 34.4384C41.9396 34.6731 41.7257 34.8352 41.4905 34.8054C41.2553 34.7755 41.0928 34.5621 41.1227 34.3274C41.3365 32.7144 42.1235 31.2465 42.8676 30.026C44.2876 27.6875 45.6818 26.0404 47.2557 24.837C49.2787 23.2923 51.5967 22.554 53.7694 22.7546C56.2671 22.985 58.4867 24.5682 59.2993 26.6933C59.9452 28.3916 59.7484 30.4655 58.7647 32.3943C57.8794 34.1226 56.5194 35.5223 55.1807 36.7768C53.393 38.4496 50.6815 40.0029 48.4276 40.6387C48.3891 40.6515 48.3506 40.6558 48.3121 40.6558V40.66Z" fill="black"/>
<path d="M58.0463 52.2671C56.2072 52.2671 54.3767 52.0622 52.589 51.8659L48.2608 51.388C48.0256 51.3624 47.8588 51.149 47.8844 50.9186C47.9101 50.6839 48.1282 50.5132 48.3549 50.5431L52.6831 51.021C55.2321 51.3026 57.8709 51.5971 60.4413 51.277C63.2512 50.9314 65.6462 49.8262 67.1816 48.1662C67.9173 47.3725 68.3834 46.5361 68.5673 45.6869C68.9608 43.852 67.9429 41.697 66.0868 40.4425C64.5856 39.4268 62.6353 38.902 59.9495 38.7868C56.3184 38.6289 52.5975 39.2049 49.1846 40.4467C48.9622 40.5278 48.7184 40.4126 48.6372 40.1907C48.5559 39.9688 48.6714 39.7256 48.8938 39.6445C52.4094 38.3643 56.25 37.7711 59.988 37.9333C62.8363 38.0571 64.9277 38.6289 66.5658 39.7341C68.3706 40.9545 69.9488 43.3229 69.4013 45.8619C69.1875 46.8647 68.6486 47.8334 67.8061 48.7423C66.1338 50.5473 63.5549 51.7507 60.5439 52.122C59.71 52.2244 58.876 52.2671 58.042 52.2671H58.0463Z" fill="black"/>
<path d="M19.3963 57.2897C17.2151 57.2897 15.4531 56.88 14.016 56.0436C12.0829 54.9128 10.8683 52.9242 10.9281 50.9784C10.9837 49.1392 12.0786 47.6456 12.9896 46.7111C14.0674 45.6059 15.3975 44.7311 16.8345 44.1763C19.1226 43.293 21.5732 43.2333 23.6646 43.293C25.1744 43.3357 26.7654 43.4637 28.1853 44.1038C28.3991 44.202 28.4975 44.4537 28.3991 44.6671C28.3008 44.8804 28.0484 44.9786 27.8346 44.8804C26.5558 44.3001 25.0632 44.1849 23.6433 44.1422C21.6331 44.0867 19.2937 44.1422 17.1424 44.9658C15.8166 45.4779 14.5934 46.2844 13.6012 47.3C12.7971 48.1236 11.8306 49.4336 11.7835 50.9954C11.7322 52.6341 12.78 54.3239 14.448 55.2968C15.8337 56.1076 17.5915 56.4703 19.8026 56.4234C23.5192 56.3381 27.2529 55.1219 30.3066 53.0096C30.4991 52.873 30.7685 52.9242 30.9011 53.1163C31.0337 53.3083 30.9866 53.5771 30.7942 53.7094C27.6036 55.9199 23.7031 57.183 19.8197 57.2769C19.6743 57.2769 19.5332 57.2811 19.3921 57.2811L19.3963 57.2897Z" fill="black"/>
<path d="M28.3006 69.4557C25.944 69.4557 23.6431 67.7359 22.8048 65.3463C22.0435 63.1742 22.4242 60.5925 23.8227 58.4333C25.1528 56.3807 27.1287 54.6568 29.2457 53.7009C29.4596 53.6028 29.7162 53.7009 29.8103 53.9143C29.9087 54.1276 29.8103 54.3837 29.5965 54.4775C27.6548 55.3523 25.7644 57.0038 24.5369 58.8942C23.2795 60.8315 22.9331 63.1358 23.6088 65.0604C24.3316 67.1172 26.2947 68.5979 28.2963 68.5979C28.3177 68.5979 28.3348 68.5979 28.3562 68.5979C29.7761 68.5766 31.2473 67.8896 32.864 66.4942C35.7637 63.9893 37.8337 60.5584 38.6976 56.8288C38.7489 56.5984 38.9799 56.4576 39.2108 56.5088C39.4418 56.56 39.5829 56.7904 39.5316 57.0208C38.6249 60.9211 36.4565 64.5142 33.4242 67.1385C31.6536 68.6705 29.9985 69.4258 28.369 69.4514C28.3476 69.4514 28.3219 69.4514 28.3006 69.4514V69.4557Z" fill="black"/>
<path d="M53.5127 69.5368C53.4785 69.5368 53.44 69.5368 53.4058 69.5368C51.0235 69.5027 48.5173 68.4145 46.3447 66.4772C44.4971 64.8257 43.0771 62.8073 41.5503 60.5329C40.7035 59.274 39.8951 57.9213 40.109 56.4363C40.1432 56.2016 40.357 56.0394 40.5923 56.0736C40.8275 56.1077 40.99 56.3211 40.9558 56.5558C40.789 57.7463 41.4776 58.89 42.2603 60.0592C43.7572 62.2867 45.1386 64.2582 46.9135 65.8413C48.9322 67.6421 51.2417 68.6535 53.4186 68.6833C55.9206 68.7132 58.2814 67.3349 59.1496 65.3122C60.3685 62.483 58.6877 59.1716 56.7075 57.0166C54.4621 54.5715 51.1134 52.3568 48.1709 51.3668C47.9485 51.29 47.8287 51.051 47.9014 50.8248C47.9784 50.6029 48.2179 50.4834 48.4446 50.556C51.5111 51.5844 55.001 53.893 57.3362 56.4363C59.496 58.7876 61.3137 62.4403 59.9322 65.6451C58.94 67.9451 56.3097 69.5325 53.5084 69.5325L53.5127 69.5368Z" fill="black"/>
<path d="M37.7618 48.2389C39.31 48.133 40.4492 46.3604 40.3063 44.2795C40.1634 42.1987 38.7925 40.5976 37.2442 40.7035C35.696 40.8093 34.5568 42.582 34.6997 44.6628C34.8426 46.7437 36.2135 48.3447 37.7618 48.2389Z" fill="white"/>
<path d="M37.6114 48.6739C36.7902 48.6739 35.999 48.2814 35.3746 47.5516C34.7373 46.8091 34.3439 45.7935 34.2711 44.6968C34.1942 43.6002 34.4465 42.5419 34.9768 41.7183C35.5328 40.852 36.3283 40.3442 37.2136 40.2845C39.0014 40.165 40.571 41.9445 40.7292 44.2573C40.8062 45.354 40.5539 46.4123 40.0235 47.2359C39.4675 48.1021 38.672 48.6099 37.7867 48.6697C37.7269 48.6697 37.667 48.6739 37.6114 48.6739ZM37.389 41.1294C37.3505 41.1294 37.312 41.1294 37.2735 41.1294C36.6619 41.1721 36.1059 41.5433 35.6996 42.1749C35.2677 42.8449 35.0666 43.7196 35.1265 44.6371C35.1907 45.5546 35.5114 46.391 36.0289 46.9969C36.5165 47.5687 37.1281 47.8546 37.7311 47.8162C38.3427 47.7735 38.8987 47.4023 39.305 46.775C39.737 46.105 39.938 45.2303 39.8738 44.3128C39.7498 42.5248 38.6464 41.1294 37.3847 41.1294H37.389Z" fill="black"/>
<path d="M38.6848 46.2459C38.2229 46.2459 37.9577 46.0709 37.8294 45.6655L38.2058 45.2601C38.2913 45.1705 38.3298 45.0468 38.317 44.923C38.3042 44.7993 38.2357 44.6883 38.1331 44.62L37.6028 44.2616C37.5728 43.694 37.6969 43.2161 37.962 42.9003C38.1331 42.6955 38.3555 42.5675 38.5693 42.5547H38.6207C39.1296 42.5547 39.63 43.1137 39.8096 43.8903C39.8396 44.0482 39.8609 44.2275 39.8781 44.4067C39.9208 45.3711 39.4504 46.2075 38.8259 46.2501C38.7832 46.2501 38.7361 46.2544 38.6976 46.2544L38.6848 46.2459Z" fill="black"/>
<path d="M38.6123 42.9772C38.8689 42.9772 39.2324 43.3527 39.3779 43.9672C39.4035 44.1166 39.4249 44.2702 39.4377 44.4196C39.4677 45.2431 39.0742 45.7979 38.7834 45.815C38.7492 45.815 38.7149 45.815 38.6807 45.815C38.5225 45.815 38.4198 45.7979 38.3429 45.7296L38.5139 45.5461C38.685 45.3626 38.762 45.1151 38.7363 44.8676C38.7107 44.6201 38.5738 44.3982 38.3642 44.2574L38.0135 44.0227C38.0221 43.5448 38.1761 43.2845 38.2787 43.165C38.3899 43.0284 38.5139 42.9772 38.5866 42.9687H38.608M38.608 42.1152C38.5824 42.1152 38.5567 42.1152 38.531 42.1152C37.8425 42.1622 37.0085 42.926 37.1838 44.4878L37.8852 44.9615L37.3549 45.5376C37.5089 46.327 37.9879 46.6641 38.685 46.6641C38.7363 46.6641 38.7919 46.6641 38.8432 46.6599C39.7072 46.6001 40.3444 45.576 40.2931 44.3555C40.276 44.1593 40.2503 43.9672 40.2161 43.7795C39.9937 42.8108 39.3436 42.111 38.6123 42.111L38.608 42.1152Z" fill="black"/>
<path d="M46.1432 44.8802C46.445 42.8163 45.4447 40.962 43.9091 40.7385C42.3735 40.515 40.884 42.0069 40.5823 44.0708C40.2805 46.1346 41.2807 47.9889 42.8164 48.2125C44.352 48.436 45.8414 46.9441 46.1432 44.8802Z" fill="white"/>
<path d="M43.1244 48.6612C43.0047 48.6612 42.8849 48.6527 42.7609 48.6356C41.8799 48.5076 41.1271 47.94 40.6396 47.0354C40.1734 46.1734 40.0066 45.098 40.1648 44.0099C40.3231 42.9217 40.7935 41.9403 41.4864 41.2447C42.2135 40.515 43.0988 40.1864 43.9755 40.3144C44.8566 40.4424 45.6093 41.01 46.0969 41.9147C46.563 42.7766 46.7298 43.852 46.5716 44.9401C46.2594 47.0738 44.7539 48.6569 43.1244 48.6569V48.6612ZM43.612 41.1423C43.0859 41.1423 42.5556 41.3855 42.0937 41.8464C41.5292 42.4097 41.1442 43.2204 41.0117 44.1294C40.8791 45.0383 41.0117 45.9259 41.3923 46.6257C41.7473 47.2871 42.2776 47.6968 42.8807 47.7864C44.1808 47.9784 45.4553 46.6428 45.7205 44.8164C45.8531 43.9075 45.7205 43.0199 45.3398 42.32C44.9849 41.6586 44.4545 41.249 43.8515 41.1593C43.7702 41.1465 43.689 41.1423 43.6077 41.1423H43.612Z" fill="black"/>
<path d="M44.3817 46.4849C44.3475 46.4849 44.3133 46.4849 44.2791 46.4764C43.7445 46.3996 43.4836 46.1649 43.4365 45.704L43.8899 45.3882C43.9925 45.3157 44.0567 45.2047 44.0695 45.081C44.0823 44.9572 44.0396 44.8335 43.954 44.7439L43.5092 44.2787C43.6718 43.2674 44.2363 42.8065 44.7239 42.8065C44.7538 42.8065 44.788 42.8065 44.818 42.8151C45.344 42.8919 45.7332 43.549 45.7418 44.3811C45.7375 44.539 45.7204 44.7183 45.699 44.8975C45.5493 45.7808 44.9676 46.4806 44.386 46.4806L44.3817 46.4849Z" fill="black"/>
<path d="M44.7239 43.2375C44.7239 43.2375 44.7453 43.2375 44.7539 43.2375C45.0147 43.2759 45.3013 43.7197 45.3141 44.3683C45.3098 44.5177 45.297 44.6713 45.2756 44.8249C45.1345 45.6186 44.6598 46.0539 44.3818 46.0539C44.3689 46.0539 44.3518 46.0539 44.339 46.0539C44.1209 46.0197 43.9926 45.9728 43.9284 45.8832L44.1337 45.7381C44.339 45.5973 44.4673 45.3711 44.493 45.1236C44.5186 44.8761 44.4331 44.6286 44.262 44.4494L43.9712 44.1464C44.1294 43.485 44.4887 43.2375 44.7239 43.2375ZM44.7239 42.384C44.0567 42.384 43.2056 42.9814 43.0602 44.4323L43.6461 45.0425L43.0046 45.4906C42.9832 46.3569 43.4451 46.7878 44.2192 46.8988C44.2748 46.9073 44.3304 46.9116 44.386 46.9116C45.1858 46.9116 45.93 46.0795 46.1224 44.9529C46.1481 44.7566 46.1652 44.5646 46.1695 44.3768C46.1567 43.3484 45.6349 42.5035 44.8779 42.3926C44.8266 42.384 44.7752 42.3798 44.7239 42.3798V42.384Z" fill="black"/>
<path d="M12.5447 47.5985C12.5148 47.5985 12.4805 47.5985 12.4506 47.59C11.1419 47.2998 9.94864 46.4165 9.17453 45.1747C8.49879 44.0951 8.14381 42.7509 8.13525 41.2915C8.13525 41.0568 8.32344 40.8647 8.56294 40.8647C8.79817 40.8647 8.99063 41.0568 8.99063 41.2915C8.9949 42.593 9.31139 43.7793 9.9016 44.7266C10.556 45.7764 11.5525 46.5146 12.6388 46.7578C12.8697 46.809 13.0152 47.0352 12.9638 47.2656C12.9211 47.4662 12.7414 47.5985 12.549 47.5985H12.5447Z" fill="black"/>
<path d="M8.15249 41.8377C8.12255 41.8377 8.09689 41.8377 8.06695 41.8377C7.83172 41.8292 7.64782 41.6329 7.6521 41.3982C7.66065 41.1635 7.87449 40.98 8.09261 40.9843C8.66144 41.0056 9.23881 40.7325 9.58524 40.2802C9.7221 40.1052 9.80336 39.9217 9.82902 39.7553C9.88462 39.3585 9.57241 38.9061 9.13189 38.744C8.7042 38.5861 8.15249 38.6544 7.6521 38.9317C7.44681 39.047 7.18592 38.9701 7.07044 38.7653C6.95497 38.5605 7.03195 38.3002 7.23724 38.185C7.96431 37.7838 8.7598 37.6985 9.42699 37.9417C10.2482 38.2447 10.7828 39.0726 10.6716 39.8705C10.6288 40.1906 10.4877 40.5021 10.261 40.8008C9.76487 41.4452 8.96081 41.8377 8.14393 41.8377H8.15249Z" fill="black"/>
<path d="M5.48815 40.9075C5.12034 40.9075 4.72687 40.7837 4.35051 40.549C3.38822 39.9431 2.80229 38.761 2.8921 37.6046C2.97764 36.4866 3.6876 35.4155 4.69694 34.8693C5.69772 34.3316 6.89524 34.3529 7.74634 34.9248C8.72574 35.5819 9.07644 36.9432 8.51617 37.8948C8.39642 38.0996 8.13553 38.1679 7.93024 38.0484C7.72495 37.9289 7.6608 37.6686 7.77628 37.4638C8.10559 36.9048 7.86181 36.0343 7.26733 35.6331C6.68568 35.2405 5.8132 35.2363 5.09896 35.6203C4.33768 36.03 3.80307 36.8322 3.73892 37.6686C3.67477 38.5178 4.10245 39.3841 4.80386 39.8236C4.97493 39.9303 5.3128 40.1052 5.63784 40.0327C5.84741 39.9857 6.03132 39.7937 6.02276 39.6273C6.00993 39.3926 6.18956 39.192 6.42479 39.175C6.65146 39.1622 6.86103 39.3414 6.87813 39.5761C6.91235 40.1607 6.44617 40.7282 5.82175 40.8648C5.71483 40.8904 5.60363 40.8989 5.48815 40.8989V40.9075Z" fill="black"/>
<path d="M3.3752 42.7679C3.3752 42.7679 3.34954 42.7679 3.34099 42.7679C2.33592 42.7466 1.57892 41.97 1.20683 41.2573C0.719271 40.3271 0.663671 39.1706 1.05714 38.0953C1.44634 37.0157 2.229 36.1665 3.19557 35.7568C3.40942 35.6672 3.66175 35.7654 3.75584 35.983C3.84566 36.2006 3.74301 36.4524 3.52917 36.542C2.78072 36.8578 2.16913 37.5277 1.86119 38.3812C1.55326 39.2347 1.59175 40.1393 1.96811 40.8605C2.21617 41.3384 2.73367 41.8974 3.36665 41.9145C3.62754 41.9102 3.93547 41.7651 4.1151 41.5262C4.19208 41.4238 4.30756 41.2189 4.23485 40.997C4.16214 40.7751 4.2819 40.5319 4.50857 40.4594C4.73097 40.3868 4.97475 40.5063 5.04745 40.7325C5.18859 41.1635 5.10305 41.6371 4.80367 42.0382C4.4658 42.4948 3.92692 42.7722 3.38803 42.7722L3.3752 42.7679Z" fill="black"/>
<path d="M10.9709 50.8375C8.98643 50.8375 7.72048 49.4847 6.64698 47.9997C6.38182 47.637 5.22279 45.9856 4.95335 44.8676C3.62324 44.97 1.35223 44.795 0.608056 43.6087C-0.148948 42.4096 -0.114734 40.7496 0.68504 39.5804C0.817622 39.3841 1.08706 39.3372 1.27952 39.4695C1.47626 39.6017 1.5233 39.8663 1.39072 40.0626C0.774854 40.963 0.749193 42.2346 1.33085 43.1564C1.83124 43.9544 3.96112 44.172 5.26128 43.9757C5.39386 43.9544 5.52217 43.997 5.61626 44.0866C5.71035 44.1763 5.76167 44.3043 5.74884 44.4323C5.71035 44.8633 6.42459 46.2373 7.33556 47.5005C8.49459 49.1007 9.62368 50.1334 11.3301 49.9669C11.5782 49.9413 11.7749 50.1163 11.7963 50.351C11.8177 50.5857 11.6466 50.7948 11.4114 50.8161C11.2574 50.8332 11.1078 50.8375 10.9623 50.8375H10.9709Z" fill="black"/>
<path d="M61.455 70.245C61.3053 70.245 61.1599 70.1682 61.0829 70.0274C60.9674 69.8225 61.0401 69.5622 61.2454 69.447C63.3111 68.2949 64.5642 65.854 64.2948 63.507C64.1023 61.8427 63.1914 60.1913 61.7287 58.8557C60.2959 57.5456 57.1952 56.3209 55.8694 55.8003C55.6513 55.7149 55.5401 55.4674 55.6299 55.2455C55.7154 55.0279 55.9677 54.9212 56.1859 55.0066C58.4483 55.8984 60.9417 56.9781 62.3061 58.2241C63.9184 59.7006 64.9278 61.5398 65.1416 63.4046C65.4495 66.0844 64.0211 68.8709 61.6602 70.1853C61.5918 70.2237 61.5234 70.2407 61.4507 70.2407L61.455 70.245Z" fill="black"/>
<path d="M57.9565 68.7729C57.7726 68.7729 57.6058 68.6577 57.5502 68.4742C57.4775 68.248 57.6058 68.009 57.8324 67.9408C58.8289 67.6292 59.6929 66.8782 60.1334 65.9309C60.5354 65.0732 60.3002 63.6564 59.6116 62.7731C59.4662 62.5853 59.5004 62.3208 59.6843 62.1757C59.8725 62.0306 60.1377 62.0647 60.2831 62.2525C61.1769 63.4004 61.4464 65.1414 60.9032 66.2979C60.3601 67.4586 59.3037 68.3803 58.0805 68.7601C58.0377 68.7729 57.995 68.7814 57.9522 68.7814L57.9565 68.7729Z" fill="black"/>
<path d="M57.8922 73.6588C57.8024 73.6588 57.7083 73.6546 57.6185 73.646C56.977 73.5778 56.1986 73.2321 55.9462 72.4768C55.8692 72.2464 55.8735 71.9861 55.9462 71.7428C55.7495 71.6874 55.557 71.6063 55.3774 71.4996C54.753 71.1369 54.3339 70.5309 54.2569 69.8823C54.1799 69.2166 54.4622 68.5253 55.0139 68.0303C55.557 67.5438 56.267 67.339 56.9128 67.4841C57.2678 67.5652 57.5843 67.7316 57.8623 67.8767C58.0718 67.9876 58.1531 68.2437 58.0419 68.4528C57.9307 68.6619 57.6741 68.7429 57.4645 68.632C57.2122 68.4997 56.9684 68.3717 56.7246 68.3162C56.3483 68.2309 55.9248 68.3632 55.587 68.6661C55.2405 68.9734 55.0652 69.3916 55.108 69.7842C55.155 70.1682 55.4159 70.5352 55.8094 70.7656C56.0403 70.8979 56.2927 70.9705 56.5322 70.979C56.7759 70.8339 57.0539 70.7955 57.3234 70.8723C57.4987 70.9235 57.6228 71.0771 57.6313 71.2564C57.6399 71.4356 57.5372 71.6063 57.3704 71.6746C57.2079 71.7428 57.0326 71.7898 56.8572 71.8154C56.7674 71.9349 56.7246 72.097 56.7631 72.2122C56.8786 72.5621 57.3234 72.7584 57.7126 72.8011C58.4482 72.8822 59.3806 72.4427 59.5302 71.6831C59.5773 71.4527 59.804 71.3033 60.0306 71.346C60.2616 71.3929 60.4113 71.6148 60.3685 71.8452C60.1376 73.0145 58.9571 73.6631 57.8922 73.6631V73.6588Z" fill="black"/>
<path d="M60.249 73.8039C59.7828 73.8039 59.3166 73.7058 58.8846 73.5095C58.6708 73.4113 58.5767 73.1553 58.6793 72.9419C58.7777 72.7286 59.0343 72.6347 59.2482 72.7371C60.1891 73.1724 61.4165 72.9206 62.1008 72.1482C62.7894 71.3759 62.8921 70.1298 62.3446 69.2508C62.2206 69.0502 62.2805 68.7856 62.4815 68.6619C62.6825 68.5381 62.9434 68.5979 63.0717 68.7984C63.8244 70.0061 63.6833 71.649 62.7424 72.7158C62.1137 73.4241 61.1813 73.8082 60.249 73.8082V73.8039Z" fill="black"/>
<path d="M34.8613 79.2659C34.8613 79.2659 34.8228 79.2659 34.8057 79.2659C34.5705 79.236 34.4079 79.0184 34.4379 78.7879C34.6004 77.5632 34.7586 76.3428 34.9169 75.1266C35.5028 70.5649 36.1101 65.8453 37.0853 61.1983C37.1323 60.9678 37.359 60.8185 37.5899 60.8697C37.8209 60.9166 37.9706 61.1428 37.9192 61.3732C36.9569 65.9861 36.3496 70.6887 35.7637 75.2333C35.6055 76.4495 35.4515 77.6699 35.2847 78.8989C35.2548 79.1123 35.0709 79.2701 34.8613 79.2701V79.2659Z" fill="black"/>
<path d="M37.4829 79.8207C37.453 79.8207 37.423 79.8207 37.3888 79.8122C37.1579 79.761 37.0124 79.5348 37.0638 79.3044C38.5821 72.481 39.771 66.0801 40.806 59.1629C40.8402 58.9282 41.0584 58.7703 41.2936 58.8044C41.5288 58.8386 41.6871 59.0562 41.6528 59.2909C40.6136 66.2295 39.4203 72.6475 37.8978 79.4922C37.855 79.6927 37.6754 79.825 37.4786 79.825L37.4829 79.8207Z" fill="black"/>
<path d="M52.5035 85.3083C51.2376 85.3083 49.8219 85.0139 48.2865 84.4165C47.7263 84.1988 47.166 83.9599 46.6228 83.7294C44.9377 83.0083 43.1971 82.2658 41.3965 82.1975C40.5497 82.1633 39.7114 82.2786 38.8261 82.398C37.898 82.5218 36.9357 82.6541 35.9649 82.5986C34.8272 82.5346 33.711 82.0055 32.6332 81.4934C31.7436 81.0709 30.9011 80.6741 30.0842 80.5333C29.1005 80.3626 28.134 80.5461 27.1075 80.7423C26.1709 80.9216 25.2 81.1008 24.1864 81.0069C21.6075 80.7637 19.5973 79.6883 18.6778 78.0497C18.5923 77.9003 18.6094 77.7126 18.712 77.576C18.819 77.4395 18.9943 77.3797 19.1611 77.4267C20.3928 77.7681 21.5818 77 22.8392 76.1849C23.2498 75.9203 23.6775 75.643 24.1009 75.4125C27.625 73.4965 32.4792 74.6956 34.6989 78.0241C34.8315 78.2204 34.7759 78.485 34.5792 78.6172C34.3824 78.7453 34.1173 78.6941 33.9847 78.4978C31.996 75.5192 27.6549 74.4481 24.5072 76.1593C24.1094 76.3769 23.716 76.6287 23.3011 76.8975C22.2404 77.5846 21.1456 78.2887 19.9566 78.3527C21.2268 79.7139 23.3268 80.0596 24.2634 80.1492C25.1573 80.2345 26.0255 80.0681 26.945 79.8932C27.9971 79.6926 29.0877 79.4878 30.2253 79.6841C31.162 79.8462 32.0943 80.2857 32.9967 80.7167C34.0018 81.1947 35.0411 81.6854 36.0119 81.7409C36.8972 81.7921 37.7783 81.6726 38.7106 81.5446C39.5959 81.4251 40.5112 81.3014 41.4307 81.3355C43.3895 81.4123 45.2072 82.1847 46.9607 82.9357C47.4953 83.1662 48.0513 83.4009 48.5987 83.6142C50.5618 84.3738 53.3289 85.0011 55.3519 83.6868C55.5486 83.5587 55.8138 83.6142 55.9421 83.8105C56.0704 84.0068 56.0148 84.2714 55.8181 84.3994C54.8943 85.0011 53.778 85.2998 52.5078 85.2998L52.5035 85.3083Z" fill="black"/>
<path d="M55.5912 84.1222C55.5912 84.1222 55.5527 84.1222 55.5356 84.1222C54.0729 83.9259 52.6444 83.2901 51.5196 82.3342C51.2117 82.0696 50.9208 81.788 50.6471 81.5106C50.4376 81.3015 50.2237 81.0924 50.0056 80.8919C49.4881 80.4267 48.8722 79.9787 48.1152 79.5221C46.1564 78.3358 44.2917 77.7383 42.5724 77.7383H42.5339C40.481 77.7511 38.5607 78.7241 37.6369 80.2219C37.5129 80.4225 37.252 80.4865 37.0467 80.3627C36.8457 80.239 36.7815 79.9787 36.9056 79.7738C37.9962 78.0029 40.1474 76.8934 42.5254 76.8849H42.5681C44.4457 76.8849 46.4601 77.525 48.5557 78.7924C49.3598 79.2788 50.0184 79.7568 50.5744 80.2603C50.8054 80.4694 51.0278 80.687 51.2459 80.9089C51.5239 81.1863 51.7848 81.4466 52.0713 81.6856C53.0721 82.5347 54.3466 83.1023 55.651 83.2773C55.8863 83.3071 56.0488 83.5248 56.0189 83.7552C55.9889 83.9686 55.805 84.1264 55.5955 84.1264L55.5912 84.1222Z" fill="black"/>
<path d="M39.3179 53.2571C38.625 53.2571 37.9322 53.0053 37.4318 52.5274C36.6363 51.7721 36.3797 50.4919 36.8245 49.4891C36.9186 49.2757 37.1709 49.1776 37.389 49.2715C37.6028 49.3654 37.7012 49.6171 37.6071 49.8348C37.3035 50.5218 37.4788 51.3923 38.022 51.9086C38.5651 52.425 39.4462 52.5573 40.1219 52.2202C40.3315 52.1135 40.5881 52.1988 40.695 52.4079C40.8019 52.617 40.7164 52.8731 40.5026 52.9797C40.139 53.1632 39.7284 53.2528 39.3179 53.2528V53.2571Z" fill="black"/>
</svg>
