<svg width="110" height="110" viewBox="0 0 110 110" fill="none" xmlns="http://www.w3.org/2000/svg">
<path d="M62.249 73.0048C64.3759 81.4259 61.988 82.7108 61.988 82.7108L61.8739 82.7928C60.905 83.5139 60.5299 85.0218 60.2298 86.959C60.0308 88.2342 60.7713 88.6242 61.8282 89.6961C62.7155 90.5943 64.2519 90.8237 65.5503 90.8336C65.7851 90.8336 66.033 90.8336 66.2875 90.8336C67.8761 90.8336 69.8073 90.7877 71.7352 90.555C73.0172 90.4009 74.3644 90.155 75.5192 89.411C76.8404 88.562 77.2514 87.7458 77.1079 86.4084C76.9806 85.225 76.1031 84.1203 74.8799 83.5106C73.9599 83.055 73.2521 82.2552 71.8102 82.2814C71.0958 82.2978 70.3423 82.3863 69.605 82.56H68.8678C68.8678 82.56 70.3553 69.6777 66.144 65.7048C66.144 65.7048 63.0515 68.8549 62.249 73.0015V73.0048Z" fill="#FFB115"/>
<path d="M66.2842 90.8369C66.0297 90.8369 65.7851 90.8369 65.5502 90.8369C64.2975 90.8271 63.4168 90.7746 62.6241 90.5353C61.3617 90.1551 60.5527 89.4536 60.1547 88.3883C59.5251 86.7034 59.8611 85.2841 61.4334 82.9666C61.5313 82.819 61.6455 82.6715 61.7596 82.5208C61.9847 82.2257 62.2196 81.9209 62.3272 81.6324C62.3631 81.5374 62.4023 81.462 62.4447 81.3997C62.4447 81.3505 62.4512 81.3046 62.4675 81.2587C62.4806 81.2227 63.6549 77.2629 60.383 69.6384C60.2819 69.4024 60.3895 69.1336 60.6212 69.032C60.8528 68.9304 61.1235 69.0386 61.2246 69.2713C64.3921 76.6467 63.5603 80.7179 63.3711 81.4325C63.3939 81.6259 63.3939 81.7767 63.2504 81.9242C63.2276 81.9471 63.2015 81.9701 63.1721 81.9897C63.0123 82.3929 62.7448 82.7437 62.4838 83.0846C62.3794 83.219 62.2783 83.3534 62.187 83.4845C60.6146 85.802 60.5559 86.8444 61.0093 88.0638C61.3062 88.8603 61.8836 89.3487 62.8818 89.6503C63.5701 89.8568 64.3824 89.9027 65.5502 89.9125C67.2269 89.9256 69.4321 89.906 71.6177 89.6437C71.97 89.6011 72.3419 89.5815 72.7007 89.5618C73.6304 89.5126 74.5927 89.4634 75.2647 89.0275C75.8421 88.6571 76.7914 87.8277 76.6446 86.4641C76.5435 85.5266 75.5192 84.3531 74.6677 83.9303C73.6239 83.4124 72.7431 83.1829 71.8199 83.2091C69.4419 83.2583 67.9837 83.3665 65.71 85.0022C65.5013 85.1497 65.2175 85.1038 65.0674 84.894C64.9206 84.6875 64.9663 84.399 65.175 84.2482C67.6673 82.4585 69.3146 82.3339 71.8004 82.2847C72.8801 82.2651 73.8946 82.5142 75.0755 83.101C76.1585 83.6385 77.4144 85.0382 77.558 86.3625C77.7048 87.7196 77.0491 88.975 75.7605 89.8011C74.8798 90.3649 73.7968 90.4239 72.7496 90.4796C72.3875 90.4993 72.0483 90.5157 71.7286 90.555C69.8007 90.7877 67.8663 90.8336 66.2809 90.8336L66.2842 90.8369Z" fill="black"/>
<path d="M68.8678 83.0289C68.8482 83.0289 68.8286 83.0289 68.809 83.0256C68.5579 82.9928 68.3817 82.7601 68.4143 82.5077C70.1922 68.8091 65.1751 65.4099 65.1261 65.3771C64.9141 65.2394 64.8489 64.9542 64.9859 64.7412C65.1229 64.5281 65.4067 64.4626 65.6187 64.6002C65.8471 64.7477 71.1773 68.3535 69.3245 82.6257C69.2951 82.8584 69.0961 83.0289 68.871 83.0289H68.8678Z" fill="black"/>
<path d="M47.4356 88.1097C47.0181 87.182 45.8241 86.3494 45.8241 86.3494C45.1652 85.861 43.8767 84.953 43.0122 84.6318C40.7744 83.7959 38.5529 83.8451 36.6511 85.2939C36.152 85.6742 35.8095 86.0806 35.5355 86.6477C34.8961 87.9786 35.144 89.3848 36.1488 90.4698C37.1535 91.5515 38.5562 92.158 39.9491 92.6431C43.2438 93.7936 46.7114 94.4361 50.1986 94.541C50.1986 94.541 51.5361 94.2624 51.9732 93.2888C52.8507 91.3352 52.8279 89.9945 52.1004 87.6541C51.8264 86.7723 51.249 85.4972 51.2033 84.5728C51.1609 83.7336 51.6437 82.2487 51.8982 81.4489C53.2193 77.2466 54.7068 71.9101 56.3542 67.8257L49.6604 66.5441C47.4128 71.9265 45.8372 79.3543 44.1311 84.9366" fill="#FFB115"/>
<path d="M50.1955 94.9998H50.1824C46.6365 94.8917 43.1428 94.2459 39.7959 93.0757C38.4389 92.6004 36.9057 91.9579 35.8096 90.7811C34.6646 89.5486 34.4069 87.926 35.1213 86.4444C35.4182 85.8249 35.8031 85.3561 36.374 84.9234C38.2529 83.4877 40.6049 83.2386 43.1722 84.1957C43.3614 84.2678 43.5702 84.3629 43.7855 84.4743C44.327 82.6747 44.8522 80.7145 45.4067 78.6429C46.5517 74.3651 47.7359 69.9432 49.2332 66.3571C49.318 66.1572 49.5268 66.0424 49.7421 66.0818L56.4359 67.3635C56.5696 67.3897 56.6871 67.4749 56.7523 67.5962C56.8175 67.7175 56.8273 67.8617 56.7751 67.9895C55.5486 71.0249 54.3873 74.8503 53.363 78.2233C53.0074 79.387 52.6649 80.5179 52.3322 81.5766L52.2963 81.6848C52.0614 82.4322 51.621 83.8188 51.6569 84.5399C51.6863 85.1299 51.9799 85.9363 52.2376 86.6476C52.3485 86.9557 52.4561 87.2475 52.5344 87.5064C53.314 90.0272 53.2782 91.476 52.3843 93.469C51.8559 94.6458 50.3488 94.9703 50.2836 94.9834C50.2542 94.99 50.2216 94.9933 50.1922 94.9933L50.1955 94.9998ZM40.2167 84.5432C39.0032 84.5432 37.9039 84.9169 36.9285 85.661C36.4751 86.0051 36.1848 86.3592 35.9499 86.8476C35.4019 87.9916 35.5943 89.1946 36.4849 90.1517C37.4374 91.181 38.7847 91.7448 40.0993 92.2037C43.3386 93.3346 46.7181 93.964 50.1498 94.0754C50.3618 94.0197 51.2589 93.7542 51.5525 93.0953C52.3583 91.3023 52.3811 90.1124 51.6602 87.7883C51.5851 87.5425 51.484 87.2639 51.3764 86.9721C51.0958 86.1985 50.7794 85.3201 50.7403 84.5923C50.6978 83.7073 51.1513 82.2716 51.422 81.4127L51.4579 81.3046C51.7906 80.2491 52.1332 79.1215 52.4855 77.9578C53.4576 74.7552 54.5536 71.1495 55.7182 68.1698L49.9378 67.0652C48.5318 70.5332 47.3933 74.7782 46.294 78.8887C45.7166 81.0456 45.1719 83.0845 44.601 84.9529C45.2143 85.3364 45.7851 85.7495 46.095 85.9822C46.1374 86.0117 47.3868 86.8902 47.8533 87.9227C47.9577 88.1555 47.8533 88.4275 47.625 88.5324C47.3933 88.6406 47.1226 88.5324 47.0182 88.303C46.6561 87.5064 45.5731 86.7394 45.56 86.7296C45.1392 86.4149 43.73 85.3922 42.8492 85.0644C41.9228 84.7169 41.042 84.5432 40.2135 84.5432H40.2167Z" fill="black"/>
<path d="M90.6553 51.7671C84.7216 53.4847 80.0568 58.9753 79.3 65.1313C76.1097 62.8793 71.6863 62.5286 68.186 64.2561C64.6858 65.9835 62.2555 69.7138 62.0794 73.6277L61.6586 73.4048C59.5904 70.3268 56.0054 68.3371 52.3094 68.2158C48.6167 68.0945 44.9077 69.8482 42.6471 72.7853C42.3763 68.619 40.1059 64.633 36.6677 62.2893C33.2294 59.9456 28.7016 59.2998 24.7512 60.5848C26.2844 58.6934 27.3935 56.4545 27.9644 54.0813C28.3167 52.6161 28.4668 51.0656 28.0753 49.6102C27.3022 46.7289 24.6501 44.8309 22.1807 43.1789C21.3423 42.6183 20.455 42.0381 19.4503 41.9759C23.404 41.5137 27.0575 38.9601 28.868 35.397C30.6752 31.8306 30.5839 27.3628 28.6299 23.875C32.2671 26.6613 37.3592 28.1298 41.5445 26.2745C45.7265 24.4192 48.7211 20.0464 48.8255 15.454C49.4518 18.4271 52.0582 20.5872 54.7821 21.9083C56.4979 22.7376 59.0848 22.7343 60.9898 22.7507C64.4085 22.7835 67.9479 20.0759 70.3716 17.6502C68.9657 21.174 69.9639 26.8121 73.1477 28.8608C76.3315 30.9095 80.308 31.2406 84.0822 31.0898C80.9278 33.5351 79.6262 38.1243 81.0256 41.871C81.6422 43.5198 82.6991 44.9555 83.7886 46.3355C85.6285 48.6629 87.863 51.0394 90.7956 51.4196C90.9816 51.4426 91.2099 51.4917 91.2588 51.6753C91.3078 51.8589 90.9163 51.9211 90.9816 51.7441L90.6521 51.7671H90.6553Z" fill="#FF4A0B"/>
<path d="M62.0827 74.0932C62.0077 74.0932 61.9359 74.0736 61.8674 74.0408L61.4498 73.8179C61.3846 73.7818 61.3259 73.7294 61.2835 73.6671C59.2969 70.7071 55.8553 68.7961 52.3029 68.6814C48.7472 68.5699 45.1915 70.2482 43.019 73.0738C42.9016 73.2246 42.6993 73.2869 42.5199 73.2311C42.3372 73.1754 42.2067 73.0115 42.1969 72.8214C41.936 68.8158 39.7243 64.9314 36.4198 62.6762C33.1153 60.4242 28.7049 59.7916 24.9046 61.0306C24.7121 61.0929 24.5001 61.0208 24.3826 60.8536C24.2685 60.6864 24.2782 60.4603 24.4055 60.3029C25.893 58.4673 26.9727 56.2809 27.5273 53.983C27.9253 52.331 27.9644 50.9444 27.6415 49.7414C26.9336 47.0993 24.5392 45.3161 21.9361 43.5723C21.1858 43.0708 20.3376 42.5037 19.4308 42.4447C19.1926 42.4283 19.0067 42.2349 19.0002 41.9956C18.9937 41.7563 19.1698 41.5531 19.4079 41.5268C23.1854 41.0876 26.7411 38.5996 28.4668 35.1971C30.1924 31.7913 30.1044 27.4415 28.2384 24.1111C28.1308 23.921 28.1732 23.6817 28.3363 23.5375C28.4994 23.3932 28.7441 23.3867 28.9169 23.5178C32.8673 26.5433 37.754 27.4644 41.3651 25.8615C45.3905 24.075 48.271 19.794 48.3721 15.4508C48.3786 15.218 48.558 15.0246 48.7896 15.0017C49.018 14.982 49.2333 15.1361 49.2822 15.3655C49.9705 18.6304 53.1543 20.6103 54.9909 21.4986C56.5567 22.2558 59.0163 22.2787 60.8105 22.2951H61.0029C61.0225 22.2951 61.0388 22.2951 61.0584 22.2951C64.5717 22.2951 68.2024 19.1876 70.0585 17.329C70.2118 17.175 70.4532 17.152 70.6359 17.27C70.8186 17.3913 70.8903 17.624 70.8088 17.8273C69.517 21.0626 70.388 26.5335 73.4054 28.4773C76.7915 30.6572 81.117 30.7489 84.0757 30.6309C84.291 30.6277 84.4574 30.7457 84.5259 30.9358C84.5944 31.1259 84.5324 31.3357 84.3758 31.4603C81.3975 33.7679 80.1482 38.1768 81.4693 41.7137C82.0761 43.3428 83.1787 44.8081 84.1605 46.0537C85.9221 48.2827 88.0946 50.61 90.8674 50.9673C91.3437 51.0296 91.6275 51.2296 91.7156 51.5639C91.7775 51.8098 91.6797 52.0589 91.4611 52.2031C91.2817 52.3211 90.9946 52.3736 90.7696 52.2293H90.7467C85.0087 53.9109 80.4972 59.2343 79.7665 65.1969C79.7469 65.3575 79.6458 65.4952 79.4957 65.564C79.349 65.6296 79.1761 65.6132 79.0456 65.5214C76.0086 63.3744 71.732 63.04 68.3981 64.6823C65.0675 66.3278 62.7155 69.9368 62.5492 73.6606C62.5426 73.8179 62.4546 73.9621 62.3176 74.0408C62.2458 74.0801 62.1675 74.1031 62.0892 74.1031L62.0827 74.0932ZM51.9571 67.7504C52.0811 67.7504 52.2051 67.7504 52.329 67.757C55.976 67.875 59.5187 69.7467 61.7043 72.6739C62.2034 68.9633 64.6402 65.4952 67.9838 63.8431C71.3894 62.1648 75.7019 62.3844 78.951 64.3512C79.9361 58.6377 84.1703 53.5897 89.5952 51.6262C87.0573 50.846 85.0707 48.6924 83.4331 46.6208C82.4055 45.3194 81.254 43.7853 80.6016 42.0316C79.2707 38.4718 80.2232 34.2727 82.8459 31.5783C79.8774 31.5979 76.0444 31.2669 72.9031 29.2444C69.9574 27.3497 68.8222 22.7016 69.4811 19.1286C67.1715 21.1937 64.128 23.2097 61.0551 23.2097C61.0323 23.2097 61.0127 23.2097 60.9899 23.2097H60.7974C58.9152 23.19 56.3381 23.1703 54.5864 22.3213C52.9716 21.5412 50.3978 19.9711 49.0734 17.4536C48.2971 21.4461 45.5243 25.0158 41.737 26.6941C38.2498 28.2413 33.7057 27.6447 29.7781 25.219C31.0699 28.5527 30.9134 32.3945 29.2856 35.6069C27.6708 38.7898 24.7088 41.1597 21.3032 42.0874C21.7175 42.3103 22.0992 42.5659 22.4449 42.7954C25.1982 44.6376 27.7361 46.5388 28.5288 49.4923C28.8909 50.846 28.855 52.3834 28.4178 54.1895C27.9351 56.1825 27.0804 58.0969 25.9223 59.7916C29.664 58.9819 33.7709 59.7489 36.9319 61.9058C40.1679 64.1119 42.4253 67.7799 42.9962 71.6676C45.2829 69.2091 48.6037 67.7471 51.9571 67.7471V67.7504Z" fill="black"/>
<path d="M55.1342 64.2263C67.0879 64.2263 76.7783 55.7789 76.7783 45.3585C76.7783 34.938 67.0879 26.4906 55.1342 26.4906C43.1806 26.4906 33.4902 34.938 33.4902 45.3585C33.4902 55.7789 43.1806 64.2263 55.1342 64.2263Z" fill="#FFB115"/>
<path d="M55.1344 64.6886C42.9472 64.6886 33.0304 56.0184 33.0304 45.3618C33.0304 34.7052 42.9472 26.0317 55.1344 26.0317C67.3215 26.0317 77.2383 34.7019 77.2383 45.3618C77.2383 56.0217 67.3215 64.6886 55.1344 64.6886ZM55.1344 26.9561C43.4528 26.9561 33.947 35.2133 33.947 45.3618C33.947 55.5103 43.4495 63.7675 55.1344 63.7675C66.8192 63.7675 76.3217 55.5103 76.3217 45.3618C76.3217 35.2133 66.8192 26.9561 55.1344 26.9561Z" fill="black"/>
<path d="M57.5384 45.411C59.2477 47.3778 62.3565 47.7056 64.6954 46.5747C67.0343 45.4438 68.6426 43.123 69.4483 40.6416C70.2051 38.3143 70.2573 35.5313 68.698 33.6498C68.3979 33.2892 68.0195 32.9581 67.5595 32.8696C66.7766 32.7221 66.059 33.3056 65.4783 33.8563C63.159 36.0459 60.9212 38.3208 58.7682 40.6744C58.1321 41.3693 57.4699 42.097 56.6022 42.4609C55.1375 43.0739 53.4771 42.5264 51.9863 41.9758C48.3882 40.6482 45.2501 38.1537 41.652 36.8294C41.652 36.8294 41.254 36.8654 40.905 37.2981C40.1416 38.2356 40.2036 39.8058 40.4026 41.0022C40.5983 42.1855 41.2442 43.5623 42.0369 44.4637C44.4215 47.1746 47.8956 49.1184 51.4872 48.8889C52.2375 48.8398 52.9845 48.6988 53.6761 48.4071C54.9222 47.8793 55.9497 46.8435 56.4717 45.5913L57.5319 45.4143L57.5384 45.411Z" fill="#FFE027"/>
<path d="M50.9294 49.3642C47.6641 49.3642 44.2519 47.6761 41.6944 44.7653C40.8496 43.8048 40.1645 42.356 39.9525 41.0743C39.6458 39.2354 39.8481 37.8652 40.5527 36.9998C41.0127 36.436 41.5542 36.3704 41.6129 36.3672L41.7173 36.3573L41.8151 36.3934C43.6484 37.0686 45.3773 38.0488 47.0475 38.9994C48.6884 39.9303 50.3814 40.8907 52.1462 41.543C53.6729 42.1069 55.1506 42.569 56.4261 42.0347C57.1959 41.7135 57.8157 41.035 58.4159 40.3794C60.582 38.0127 62.8491 35.7116 65.1652 33.5219C65.6154 33.0958 66.5516 32.2107 67.6477 32.4172C68.15 32.5123 68.6067 32.8172 69.0536 33.3547C70.5151 35.1183 70.825 37.8947 69.8855 40.7858C68.9558 43.6475 67.1355 45.9093 64.8945 46.991C62.3337 48.2268 59.1499 47.7548 57.3688 45.906L56.7947 46.0011C56.1977 47.2598 55.1408 48.2825 53.8588 48.8266C53.1803 49.1151 52.3908 49.2888 51.5199 49.3446C51.3241 49.3577 51.1284 49.3642 50.9294 49.3642ZM41.6292 37.3079C41.5476 37.3407 41.4041 37.4161 41.2638 37.5866C40.6049 38.3962 40.6799 39.8483 40.8593 40.9235C41.042 42.0282 41.6553 43.3263 42.3827 44.1556C44.9109 47.0303 48.2937 48.6234 51.4612 48.4267C52.231 48.3776 52.916 48.2268 53.5 47.9777C54.6417 47.4925 55.5714 46.555 56.0509 45.4077L56.1488 45.1717L57.7113 44.9128L57.881 45.1062C59.3619 46.8107 62.2032 47.2631 64.4932 46.1584C66.5092 45.1848 68.1566 43.123 69.008 40.5007C69.8496 37.9144 69.6017 35.4625 68.3425 33.948C68.0391 33.5842 67.7553 33.381 67.4748 33.3252C66.917 33.2236 66.3363 33.6793 65.7915 34.1939C63.4918 36.3672 61.2409 38.6519 59.1042 40.9858C58.4225 41.7299 57.7309 42.4838 56.7784 42.8837C55.1963 43.5459 53.4673 43.0116 51.8298 42.4084C49.9965 41.7332 48.2676 40.7531 46.5974 39.8025C44.9989 38.8945 43.3451 37.957 41.6292 37.3079Z" fill="black"/>
<path d="M67.5401 35.4231C67.3802 35.3641 67.2008 35.4002 67.0736 35.5182C66.705 35.8591 66.3527 36.2131 66.0101 36.577L58.9249 43.4246C58.7618 43.5721 58.7357 43.8081 58.8401 43.9917V43.9982C58.8498 44.0605 58.8661 44.1228 58.889 44.1818C58.9216 44.267 58.9705 44.3424 59.039 44.4014C59.039 44.4014 59.0423 44.4014 59.0456 44.4047C59.0717 44.4342 59.1043 44.4637 59.1369 44.4899C59.1728 44.5588 59.2282 44.6178 59.2967 44.6604C60.0992 45.1586 61.0713 45.3619 62.0043 45.2471C62.2979 45.2111 62.5882 45.1357 62.8687 45.0341C64.4085 44.7161 66.2287 42.8215 67.0573 41.2775C68.075 39.3731 68.0457 37.2457 67.8434 35.7968C67.8206 35.6264 67.7032 35.4854 67.5433 35.4264L67.5401 35.4231Z" fill="black"/>
<path d="M42.435 40.1827C42.6633 41.6283 43.1526 43.0706 44.6826 44.5883C45.9254 45.8208 48.4862 46.8534 50.052 46.7058C50.3488 46.719 50.9588 46.7058 51.2492 46.6567C52.1756 46.4895 52.8411 46.6108 53.4609 45.8962C53.513 45.8372 53.5489 45.7618 53.562 45.6864C53.5881 45.6536 53.6076 45.6176 53.624 45.5782C53.624 45.5782 53.6272 45.575 53.6272 45.5717C53.6762 45.4963 53.7022 45.4111 53.7088 45.3193C53.7088 45.257 53.7088 45.1914 53.699 45.1292V45.1226C53.7414 44.9161 53.6501 44.6997 53.4511 44.608L44.4085 40.3925C43.9747 40.1467 43.5343 39.9107 43.0809 39.6943C42.9275 39.6222 42.7449 39.6386 42.6079 39.7402C42.4708 39.8418 42.4023 40.0123 42.4284 40.1827H42.435Z" fill="black"/>
<path d="M84.3402 42.743C84.151 40.7402 83.3159 40.1108 82.6504 39.9371C81.8773 39.7305 80.9802 40.1141 80.4713 40.8647C79.9951 41.5662 79.9103 42.4086 79.8874 42.9823C79.8646 43.5428 79.8972 44.1099 79.9788 44.6671C79.7928 44.6212 79.6036 44.595 79.4079 44.6147C79.3524 44.6212 79.3002 44.6344 79.2513 44.6573L78.7424 44.9032C78.3412 45.0736 78.1357 45.4375 78.0182 45.7587C77.8845 44.9654 77.7116 44.1787 77.493 43.4084C77.3365 42.8512 77.1342 42.2152 76.7069 41.694C76.198 41.0745 75.4347 40.7697 74.7594 40.9172C73.5426 41.1794 73.099 42.5791 73.2001 43.8509C73.2849 44.913 73.5753 45.9521 74.0515 46.9027C72.6814 47.755 71.9964 49.6234 72.4922 51.2591C72.9653 52.8227 74.4365 54.0716 76.1752 54.3764C76.2632 54.3928 76.41 54.4158 76.4394 54.4387C76.4557 54.4682 76.4687 54.5764 76.472 54.6124C76.7884 57.4544 75.7902 60.3718 73.8003 62.4172C73.6666 62.5549 73.3078 62.9253 73.4578 63.4006C73.5426 63.6628 73.7449 63.8104 73.9113 63.9087C74.5669 64.2955 75.2813 64.4659 75.9925 64.4659C77.493 64.4659 78.9838 63.7186 79.9298 62.7122C81.1857 61.3716 81.9295 59.4769 82.2002 56.9234C82.3014 55.9531 82.3894 54.5075 81.9621 53.1439C81.9425 53.0784 81.9034 53.0193 81.861 52.9735C82.5721 52.4424 83.1821 51.7016 83.6029 50.8035C84.2945 49.3284 84.425 47.6632 84.4641 46.3782C84.4968 45.1752 84.4576 43.9558 84.3434 42.7528L84.3402 42.743Z" fill="#FFB115"/>
<path d="M74.9287 47.9679C74.7787 47.9679 74.6351 47.8958 74.5471 47.7614C73.7772 46.5977 73.3107 45.2439 73.1998 43.8475C73.0987 42.579 73.5423 41.1793 74.7591 40.9138C75.4343 40.7663 76.1977 41.0711 76.7066 41.6906C77.1339 42.2086 77.3362 42.8478 77.496 43.405C77.7994 44.4835 78.0212 45.5914 78.1582 46.7026C78.1908 46.955 78.0114 47.1845 77.7602 47.2173C77.5123 47.2533 77.2807 47.0698 77.2481 46.8174C77.1176 45.7553 76.9023 44.6932 76.612 43.6574C76.4815 43.1919 76.3151 42.6609 75.9987 42.2807C75.7573 41.9889 75.343 41.7333 74.9516 41.8185C74.2372 41.9725 74.061 43.0739 74.1165 43.7754C74.2143 45.0145 74.6286 46.2142 75.3137 47.25C75.4539 47.4631 75.3952 47.7483 75.1864 47.8892C75.1081 47.9417 75.0201 47.9679 74.932 47.9679H74.9287Z" fill="black"/>
<path d="M80.0111 53.7863C79.7958 53.7863 79.6033 53.6355 79.5609 53.4159C79.512 53.1667 79.6718 52.9242 79.923 52.8717C81.0908 52.639 82.1543 51.7146 82.7708 50.4002C83.3906 49.0791 83.5081 47.5385 83.5439 46.3421C83.5766 45.1751 83.5374 43.995 83.4298 42.8314C83.3515 42.0184 83.1133 41.0121 82.4218 40.8285C81.9716 40.7105 81.4823 41.0187 81.2344 41.3858C80.9734 41.7693 80.8364 42.2872 80.807 43.0182C80.7548 44.2933 81.006 45.5849 81.5345 46.7485C81.6389 46.9813 81.5345 47.2533 81.3061 47.3582C81.0745 47.4631 80.8038 47.3582 80.6994 47.1288C80.1122 45.834 79.8317 44.4015 79.8904 42.9789C79.9132 42.4052 79.998 41.5595 80.4743 40.8613C80.9865 40.1107 81.8835 39.7304 82.6534 39.9337C83.3189 40.1107 84.154 40.74 84.3432 42.7396C84.4573 43.9426 84.4965 45.162 84.4639 46.365C84.428 47.65 84.2975 49.3152 83.6027 50.7902C82.8622 52.3669 81.5541 53.4814 80.1024 53.7732C80.0731 53.7797 80.0404 53.783 80.0111 53.783V53.7863Z" fill="black"/>
<path d="M75.9889 64.4592C75.2778 64.4592 74.5667 64.292 73.9077 63.9019C73.8001 63.8364 73.5489 63.6889 73.4543 63.3939C73.301 62.9186 73.6598 62.5514 73.7968 62.4105C75.7834 60.365 76.7849 57.4477 76.4685 54.6057C76.4652 54.5696 76.4522 54.4615 76.4358 54.432C76.4065 54.4123 76.2597 54.3861 76.1749 54.373C74.4329 54.0681 72.9617 52.8192 72.4887 51.2556C71.97 49.5478 72.7366 47.5843 74.2274 46.7911C74.4492 46.6731 74.7298 46.7583 74.8472 46.9845C74.9646 47.2106 74.8798 47.4893 74.6547 47.6073C73.5554 48.194 72.978 49.7084 73.363 50.9868C73.7381 52.2226 74.919 53.2158 76.2988 53.4584C76.5631 53.5043 76.9219 53.5666 77.1568 53.8649C77.3166 54.0714 77.3558 54.3008 77.3786 54.5008C77.7244 57.6148 76.6283 60.8108 74.4492 63.053C74.4264 63.0759 74.4068 63.0989 74.3905 63.1152C75.9628 64.0265 78.093 63.3021 79.251 62.0663C80.3667 60.8797 81.0289 59.162 81.2768 56.8117C81.3714 55.9234 81.4497 54.6057 81.0745 53.406C80.9995 53.1634 81.1333 52.9044 81.3747 52.8258C81.6193 52.7471 81.8738 52.8848 81.9521 53.1273C82.3794 54.491 82.2913 55.9365 82.1902 56.9068C81.9194 59.4636 81.1789 61.3583 79.9198 62.6957C78.977 63.702 77.483 64.4494 75.9824 64.4494L75.9889 64.4592Z" fill="black"/>
<path d="M79.4501 45.0702C80.5103 44.9685 81.2149 46.2437 81.1692 47.3123C81.1464 47.8761 80.9898 48.4497 80.6212 48.8726C80.2526 49.2954 79.6393 49.5282 79.1076 49.3446C78.5596 49.1545 78.2236 48.5776 78.1453 48.0006C78.067 47.4237 78.0963 46.7845 78.2301 46.2207C78.3214 45.8438 78.7977 45.2931 79.1533 45.1423L79.4469 45.0669L79.4501 45.0702Z" fill="#FFB115"/>
<path d="M79.4924 49.8724C79.3097 49.8724 79.1303 49.8429 78.9574 49.7839C78.2952 49.5544 77.7994 48.8792 77.6917 48.063C77.6069 47.4172 77.6395 46.7223 77.7863 46.1126C77.9103 45.5947 78.4779 44.9293 78.977 44.7195C78.9966 44.7096 79.0194 44.7031 79.0422 44.6965L79.3358 44.6211C79.3587 44.6146 79.3815 44.6113 79.4043 44.608C79.91 44.5588 80.3862 44.7326 80.7809 45.1095C81.329 45.6307 81.6617 46.5027 81.6258 47.3287C81.5965 48.0761 81.3648 48.7153 80.9636 49.1742C80.5722 49.62 80.0274 49.8658 79.4924 49.8658V49.8724ZM79.3065 45.5816C79.0781 45.6963 78.7323 46.106 78.6769 46.3322C78.5562 46.8272 78.5301 47.4139 78.5986 47.9417C78.6508 48.3285 78.8726 48.7776 79.2543 48.912C79.574 49.0201 80.0046 48.8792 80.272 48.5711C80.6048 48.1941 80.6929 47.6696 80.7059 47.2959C80.7287 46.742 80.4971 46.1191 80.1481 45.7848C79.9556 45.6012 79.7468 45.5193 79.5218 45.5291L79.3032 45.5848L79.3065 45.5816Z" fill="black"/>
<path d="M74.7787 47.7941C75.6888 47.5777 76.6544 47.3614 77.5515 47.6335C78.4485 47.9055 79.2086 48.8594 78.9215 49.7543C78.7323 50.341 78.1517 50.7311 77.5515 50.8655C76.9512 50.9999 76.3249 50.9212 75.7149 50.8426" fill="#FFB115"/>
<path d="M76.8306 51.3999C76.4228 51.3999 76.0249 51.3474 75.6562 51.3016C75.4051 51.2688 75.2256 51.0393 75.2583 50.7869C75.2909 50.5345 75.5225 50.3608 75.7704 50.387C76.3348 50.4591 76.9219 50.5345 77.4471 50.4165C77.956 50.3051 78.3605 49.9904 78.478 49.6167C78.5693 49.3282 78.478 49.0594 78.3899 48.8824C78.2007 48.5186 77.8158 48.2039 77.4113 48.0793C76.6088 47.8335 75.6889 48.0531 74.8799 48.2465C74.6319 48.3055 74.384 48.1514 74.3286 47.9023C74.2698 47.6532 74.4232 47.4041 74.6711 47.3484C75.5486 47.1386 76.6414 46.8796 77.682 47.1976C78.3279 47.3942 78.8988 47.8663 79.2087 48.4563C79.4533 48.925 79.5055 49.4397 79.3587 49.9019C79.1369 50.5935 78.4845 51.1377 77.6526 51.3212C77.3786 51.3835 77.1046 51.4032 76.8339 51.4032L76.8306 51.3999Z" fill="black"/>
<path d="M33.4546 39.3502C32.4564 40.1533 31.2103 41.2612 30.4568 42.7035C29.9968 43.582 29.775 44.5162 29.7815 45.4078C29.7163 45.4012 29.651 45.4078 29.5825 45.4307C28.2418 45.9093 27.1457 46.8501 26.4346 47.5155C24.5654 49.2725 23.5085 51.0065 23.2019 52.8225C22.9703 54.1861 23.2736 55.835 24.1772 57.038C24.6046 57.6083 25.1657 58.0771 25.8703 58.3721C26.0464 58.4475 26.2846 58.5196 26.5455 58.4311C27.0153 58.2672 27.0903 57.7558 27.1196 57.5657C27.547 54.7368 29.2661 52.18 31.7127 50.7214C31.742 50.7017 31.8366 50.6492 31.8693 50.6427C31.9019 50.6525 32.0128 50.7574 32.078 50.8164C33.3666 52.0293 35.2455 52.4554 36.7722 51.8949C38.3706 51.3081 39.4438 49.6364 39.2971 48.0236C40.3377 47.8335 41.3391 47.4434 42.2329 46.8698C43.3029 46.1847 44.1478 44.9882 43.6259 43.8541C43.3355 43.2247 42.6342 42.7953 41.835 42.7592C41.163 42.7297 40.5366 42.9493 39.9984 43.1591C39.2546 43.4509 38.5239 43.7819 37.8161 44.1523C38.002 43.8639 38.1651 43.4836 38.0607 43.0575L37.9498 42.5003C37.94 42.4478 37.9204 42.3954 37.8911 42.3495C37.79 42.1823 37.6562 42.0446 37.5062 41.9233C37.9987 41.6546 38.4652 41.3399 38.8991 40.9826C39.3427 40.6187 39.9625 40.0418 40.23 39.2354C40.5171 38.3733 40.2855 37.4227 39.6559 36.9278C39.1144 36.4983 38.1129 36.2099 36.4068 37.2621C35.3825 37.8947 34.3909 38.5962 33.4546 39.3502Z" fill="#FFB115"/>
<path d="M38.2855 48.1449C38.0441 48.1449 37.8419 47.9548 37.8288 47.7122C37.8125 47.4566 38.0083 47.2402 38.2594 47.2238C39.4925 47.1517 40.6962 46.7584 41.7401 46.0929C42.3305 45.716 43.1004 44.9096 42.7937 44.2442C42.6274 43.8803 42.1707 43.7 41.7955 43.6836C41.303 43.6607 40.7843 43.8475 40.3341 44.0213C39.3392 44.4081 38.3671 44.8768 37.4406 45.4144C37.2221 45.5422 36.9383 45.4668 36.8143 45.2439C36.6904 45.021 36.7621 44.7424 36.984 44.6146C37.9495 44.0573 38.964 43.5689 40.0014 43.1625C40.5396 42.9527 41.1725 42.7363 41.838 42.7625C42.6339 42.7986 43.3385 43.228 43.6288 43.8574C44.1508 44.9915 43.3059 46.1913 42.2359 46.8731C41.0616 47.6237 39.7045 48.0663 38.3182 48.1482C38.3084 48.1482 38.2986 48.1482 38.2888 48.1482L38.2855 48.1449Z" fill="black"/>
<path d="M30.6065 47.568C30.4368 47.568 30.2705 47.4729 30.1922 47.3057C29.5496 45.9683 29.6474 44.2474 30.4564 42.7035C31.21 41.2612 32.4561 40.1533 33.4543 39.3502C34.3905 38.5962 35.3854 37.8947 36.4065 37.2621C38.1126 36.2099 39.114 36.4983 39.6555 36.9278C40.2819 37.4227 40.52 38.3733 40.2297 39.2354C39.9589 40.0418 39.3424 40.6187 38.8987 40.9793C37.8059 41.8807 36.4946 42.5199 35.1147 42.8281C34.8668 42.8805 34.6221 42.7264 34.5667 42.4773C34.5112 42.2282 34.6678 41.9824 34.9157 41.9266C36.1586 41.648 37.3329 41.0744 38.3181 40.2647C38.8824 39.8025 39.2119 39.3797 39.3587 38.9404C39.499 38.5176 39.45 37.9406 39.0879 37.6522C38.5236 37.2064 37.5808 37.6194 36.8893 38.0488C35.9009 38.6585 34.9385 39.3403 34.0284 40.0713C33.0987 40.8187 31.9439 41.8414 31.2687 43.1362C30.5967 44.4211 30.5021 45.8307 31.0208 46.9091C31.1317 47.1386 31.0371 47.4139 30.8055 47.5254C30.7402 47.5549 30.6717 47.5712 30.6065 47.5712V47.568Z" fill="black"/>
<path d="M26.2974 58.4738C26.1343 58.4738 25.9907 58.4246 25.87 58.3755C23.6812 57.4642 22.8591 54.8353 23.2016 52.8259C23.5083 51.0099 24.5652 49.2759 26.4344 47.5189C27.1422 46.8535 28.2383 45.9127 29.579 45.4341C29.8172 45.3489 30.0814 45.4735 30.1662 45.716C30.251 45.9586 30.1271 46.2208 29.8857 46.3061C28.7048 46.7289 27.7066 47.5878 27.0574 48.1942C25.3416 49.8069 24.3727 51.3738 24.102 52.98C23.8182 54.6517 24.526 56.7988 26.193 57.5101C26.1995 57.4872 26.2028 57.4577 26.2093 57.4249C26.679 54.3272 28.558 51.5246 31.2427 49.9249C31.3667 49.8495 31.5852 49.7217 31.8821 49.7184C32.2637 49.725 32.528 49.9774 32.7041 50.1413C33.748 51.1214 35.2486 51.4721 36.4555 51.0263C37.7049 50.5674 38.5628 49.1907 38.3639 47.9549C38.3247 47.7025 38.4943 47.4665 38.7455 47.4271C38.9967 47.3878 39.2316 47.5583 39.2707 47.8107C39.5382 49.4857 38.4389 51.282 36.7687 51.895C35.242 52.4555 33.3631 52.0294 32.0908 50.8329C32.006 50.7543 31.8984 50.6526 31.8527 50.6395C31.8299 50.6461 31.7385 50.6985 31.7092 50.7182C29.2626 52.1769 27.5435 54.7337 27.1161 57.5625C27.0868 57.7559 27.0085 58.2673 26.542 58.4279C26.4572 58.4574 26.3724 58.4705 26.2941 58.4705L26.2974 58.4738Z" fill="black"/>
<path d="M37.4993 42.5921C36.9415 41.6776 35.5062 41.8841 34.6809 42.5626C34.247 42.9199 33.8849 43.392 33.7708 43.9426C33.6566 44.4933 33.8425 45.126 34.3058 45.4407C34.7853 45.7652 35.4475 45.6898 35.9531 45.4013C36.4587 45.1129 36.9481 44.7097 37.3167 44.2606C37.5613 43.9623 37.7114 43.2477 37.6168 42.8708L37.4993 42.5889V42.5921Z" fill="#FFB115"/>
<path d="M35.0463 46.1159C34.6809 46.1159 34.3351 46.0176 34.0481 45.8242C33.4544 45.421 33.1608 44.6277 33.3206 43.8508C33.4772 43.0936 33.9861 42.5396 34.3873 42.2086C35.0234 41.6841 35.914 41.4219 36.661 41.5497C37.1992 41.6415 37.6233 41.9168 37.8875 42.3528C37.9006 42.3725 37.9104 42.3954 37.9202 42.4151L38.0376 42.697C38.0474 42.7167 38.0539 42.7396 38.0604 42.7625C38.1942 43.2903 38.005 44.1458 37.669 44.5589C37.2743 45.044 36.7425 45.4865 36.1782 45.8078C35.8161 46.0143 35.4214 46.1159 35.0463 46.1159ZM36.2793 42.4413C35.8422 42.4413 35.3333 42.6216 34.9712 42.9199C34.6842 43.1559 34.3221 43.5427 34.2209 44.0377C34.1394 44.4409 34.2829 44.8703 34.5635 45.0604C34.8995 45.2898 35.3888 45.1948 35.728 45.0047C36.1913 44.7424 36.6414 44.3655 36.9611 43.9721C37.1079 43.7951 37.2221 43.2674 37.1764 43.015L37.0883 42.8084C36.9644 42.6216 36.7686 42.5036 36.5077 42.461C36.4326 42.4479 36.3576 42.4413 36.2761 42.4413H36.2793Z" fill="black"/>
<path d="M38.1485 47.9777C37.7734 47.1156 37.3624 46.2142 36.6056 45.6569C35.8487 45.103 34.632 45.0669 34.0937 45.834C33.7414 46.3388 33.7806 47.0402 34.035 47.6008C34.2895 48.1613 34.7266 48.6169 35.1572 49.0595" fill="#FFB115"/>
<path d="M35.1605 49.5216C35.0398 49.5216 34.9224 49.4758 34.831 49.384C34.4004 48.9382 33.9111 48.4366 33.6208 47.7942C33.2685 47.014 33.3076 46.1617 33.7219 45.5684C33.9992 45.1718 34.4396 44.9063 34.9615 44.8178C35.6139 44.7096 36.3348 44.8833 36.8796 45.2833C37.7571 45.9257 38.2073 46.9616 38.5694 47.7909C38.6705 48.0236 38.5661 48.2957 38.3345 48.4006C38.1029 48.5022 37.8321 48.3973 37.7278 48.1646C37.3918 47.3975 37.0134 46.5289 36.3348 46.0339C35.9891 45.7815 35.5193 45.6668 35.1083 45.7323C34.9126 45.7651 34.6451 45.8536 34.4722 46.1027C34.2471 46.424 34.2406 46.9386 34.4559 47.4139C34.681 47.9089 35.092 48.3317 35.49 48.7415C35.6661 48.9251 35.6629 49.2168 35.4834 49.3938C35.3954 49.4823 35.2779 49.5249 35.1638 49.5249L35.1605 49.5216Z" fill="black"/>
<path d="M48.8646 51.849C48.7797 51.849 48.6917 51.8424 48.6069 51.8326C48.3557 51.7998 48.1795 51.5671 48.2121 51.3147C48.2448 51.0623 48.4764 50.882 48.7276 50.918C49.0668 50.9639 49.442 50.8328 49.7323 50.5673C50.0259 50.3018 50.1922 49.9412 50.1824 49.6003C50.1759 49.3446 50.3749 49.1348 50.6294 49.125C50.8642 49.1316 51.0926 49.3184 51.1024 49.5741C51.1187 50.1903 50.8447 50.8033 50.3456 51.2524C49.9182 51.6392 49.3898 51.849 48.8613 51.849H48.8646Z" fill="black"/>
<path d="M56.4718 52.9176C54.3318 52.9176 52.1886 52.3571 50.3716 51.2524C50.1531 51.1213 50.0846 50.8361 50.2151 50.6198C50.3455 50.4002 50.6261 50.3313 50.8446 50.4624C53.9012 52.3178 57.956 52.5046 61.1692 50.9345C61.4008 50.823 61.6715 50.9181 61.7825 51.1475C61.8934 51.377 61.7988 51.6523 61.5704 51.7638C59.9948 52.5341 58.2333 52.9144 56.4685 52.9144L56.4718 52.9176Z" fill="black"/>
<path d="M62.9829 52.6357C62.9209 52.6357 62.8589 52.6226 62.7969 52.5964C61.4138 51.9801 60.5461 50.4395 60.732 48.9284C60.7646 48.676 60.993 48.4924 61.2442 48.5285C61.4954 48.558 61.6748 48.7907 61.6421 49.0431C61.5084 50.1412 62.1641 51.3049 63.1688 51.754C63.4004 51.8556 63.5048 52.1309 63.4037 52.3637C63.3287 52.5374 63.159 52.639 62.9829 52.639V52.6357Z" fill="black"/>
<path d="M48.2122 92.2202C46.4833 91.2433 44.6336 90.4533 42.7318 89.8404C41.7597 89.5257 40.7681 89.2602 39.7666 89.0438C38.9119 88.8603 37.8713 88.5325 36.9938 88.6996C36.1946 88.8504 35.6792 89.6437 36.2109 90.3288C36.3479 90.5058 36.5306 90.6533 36.7394 90.7844C36.7557 90.7975 36.772 90.8074 36.785 90.8172C36.7981 90.8631 36.8144 90.9123 36.8405 90.9549C37.2515 91.6629 38.0605 91.9579 38.8336 92.171C39.9101 92.4693 40.9997 92.7381 42.0827 93.0134C43.1788 93.292 44.2748 93.5641 45.3741 93.8296C45.7689 93.9247 46.2973 94.1181 46.816 94.2131C46.8453 94.223 46.8747 94.2328 46.9073 94.2394C47.6119 94.3738 48.8874 94.7573 49.4028 94.0755C50.0422 93.2265 48.832 92.5676 48.2089 92.2169L48.2122 92.2202Z" fill="black"/>
</svg>
