<svg width="114" height="110" viewBox="0 0 114 110" fill="none" xmlns="http://www.w3.org/2000/svg">
<path d="M99.6498 75.785C98.6542 74.7044 96.5213 73.2919 95.2383 72.6808C94.9348 72.5351 94.6312 72.3894 94.3358 72.2396C93.7853 71.9563 92.5833 70.8514 92.2312 70.0258C91.8427 69.103 91.6686 69.018 91.0453 68.8521C90.7499 68.7711 91.0939 68.3057 90.7985 68.5323C88.8881 69.9974 82.3235 70.4548 82.2547 70.4588C82.0564 70.471 81.8985 70.6288 81.8783 70.8271C81.6759 73.0734 82.4692 75.4086 83.9991 77.068C84.9785 78.1324 86.2574 78.9136 87.6416 79.3385C87.4028 79.5206 87.1883 79.7513 87.0143 80.0225C86.5853 80.6944 86.4315 81.5524 86.6095 82.3092C86.8929 83.5193 88.2689 84.8995 89.6693 85.5268C90.2359 85.7818 90.843 85.9558 91.4663 86.0448C92.7857 86.2351 94.1779 86.061 95.4285 85.5187C97.1931 84.7497 99.1803 83.6286 99.9979 81.8033C100.945 79.6947 100.965 77.2178 99.6498 75.7891V75.785Z" fill="#FF88BE"/>
<path d="M88.0746 79.3709C88.0423 79.3709 88.0099 79.3709 87.9775 79.3588C86.2615 78.9379 85.5046 78.6991 83.9991 77.0681C82.4692 75.4087 81.6759 73.0734 81.8783 70.8272C81.8985 70.6046 82.0968 70.4427 82.3194 70.4589C82.542 70.4791 82.708 70.6774 82.6877 70.9C82.5056 72.9237 83.2179 75.0242 84.594 76.5217C85.9944 78.0394 86.6298 78.1972 88.1718 78.5777C88.3903 78.6303 88.5198 78.8488 88.4672 79.0674C88.4227 79.2536 88.2568 79.375 88.0746 79.375V79.3709Z" fill="black"/>
<path d="M93.5422 86.3282C92.1661 86.3282 90.7334 86.0003 89.6649 85.5228C88.4143 84.9602 86.9168 83.6408 86.6051 82.3052C86.3947 81.4067 86.5606 80.3585 87.0261 79.634C87.3498 79.1321 87.795 78.8084 88.3171 78.6991C88.5357 78.6546 88.7502 78.7962 88.7947 79.0148C88.8392 79.2333 88.6976 79.4478 88.479 79.4924C88.1714 79.5571 87.9124 79.7514 87.706 80.0711C87.3579 80.6134 87.2325 81.4391 87.3944 82.1231C87.6332 83.1511 88.9323 84.3086 89.9968 84.7862C91.5469 85.4823 94.0683 85.8425 95.6953 85.1342C97.2292 84.4664 98.496 83.1632 99.2569 81.4674C99.265 81.4472 99.2771 81.4269 99.2893 81.4108C99.3095 81.3824 101.143 78.5655 100.062 76.3476C99.8761 76.0522 99.4471 75.4694 99.1679 75.3115C99.1517 75.3034 99.1314 75.2913 99.1152 75.2792C98.7227 74.9797 97.5489 74.2633 96.8204 74.5466C96.61 74.6275 96.3793 74.5223 96.2983 74.3159C96.2174 74.1095 96.3226 73.8748 96.529 73.7938C97.7675 73.3122 99.3216 74.4211 99.5847 74.6235C100.135 74.9473 100.706 75.8579 100.771 75.9631C102.021 78.5291 100.204 81.4877 99.9813 81.8357C99.1355 83.7015 97.7311 85.1383 96.0191 85.883C95.2906 86.1987 94.4285 86.3322 93.5422 86.3322V86.3282Z" fill="black"/>
<path d="M88.3013 79.5247C88.1475 79.5247 88.0018 79.4397 87.933 79.294C87.8358 79.0917 87.9249 78.8488 88.1272 78.7557C89.1593 78.2701 90.1387 78.0879 91.0332 78.2174C91.2558 78.2498 91.4055 78.4562 91.3731 78.6748C91.3408 78.8974 91.1344 79.0471 90.9158 79.0188C90.1832 78.9095 89.3576 79.0674 88.4713 79.4883C88.4146 79.5126 88.3579 79.5288 88.3013 79.5288V79.5247Z" fill="black"/>
<path d="M74.3705 66.2295C73.1604 68.4838 70.5418 73.2029 69.3276 75.4572C68.846 73.5388 66.62 72.3328 64.6895 72.7618C62.7589 73.1908 61.3019 75.0282 61.0753 76.9952C60.8486 78.9622 61.7431 80.9615 63.1879 82.3133C64.6328 83.6651 66.5755 84.4098 68.5384 84.6526C69.5867 84.7821 70.6713 84.7781 71.6831 84.4786C74.6457 83.6084 76.3213 80.5608 77.6812 77.7885C78.8954 75.3156 80.1581 73.3041 81.3723 70.8312" fill="#FF88BE"/>
<path d="M69.7889 85.1384C69.3761 85.1384 68.9471 85.1101 68.4897 85.0534C66.9315 84.8591 64.6975 84.2763 62.9126 82.6048C61.3018 81.0992 60.4438 78.9299 60.6704 76.9427C60.9214 74.7369 62.5767 72.8104 64.6003 72.3612C66.4863 71.9403 68.51 72.9076 69.3842 74.4981C69.971 73.4216 70.7319 72.0334 71.4928 70.6451C72.448 68.9048 73.4072 67.1605 74.0102 66.0353C74.1154 65.837 74.3583 65.7641 74.5566 65.8694C74.7549 65.9746 74.8277 66.2215 74.7225 66.4158C74.1154 67.5449 73.1562 69.2893 72.2011 71.0337C71.2459 72.774 70.2867 74.5184 69.6837 75.6435C69.6027 75.7892 69.4449 75.8742 69.279 75.854C69.113 75.8337 68.9754 75.7123 68.9349 75.5504C68.5221 73.9032 66.539 72.7578 64.7744 73.1504C63.0745 73.5268 61.6903 75.1619 61.4758 77.0317C61.2775 78.768 62.0384 80.6783 63.463 82.0099C65.09 83.5316 67.1501 84.0659 68.5869 84.2439C69.7363 84.3856 70.7157 84.337 71.5697 84.0861C74.338 83.2726 75.9286 80.4395 77.3168 77.6064C77.928 76.3639 78.5593 75.2186 79.1705 74.1137C79.7776 73.0168 80.4049 71.8796 81.0079 70.6492C81.105 70.4468 81.3479 70.3659 81.5503 70.463C81.7526 70.5602 81.8336 70.803 81.7364 71.0054C81.1253 72.2519 80.4939 73.3973 79.8828 74.5022C79.2757 75.599 78.6524 76.7322 78.0494 77.9585C76.645 80.82 74.8844 83.9525 71.8044 84.8591C71.1893 85.0413 70.5215 85.1303 69.793 85.1303L69.7889 85.1384Z" fill="black"/>
<path d="M73.5123 68.8116C73.5123 68.8116 81.9711 73.0087 89.414 70.0906C90.3813 69.8194 91.3769 69.4997 92.3968 69.1192C95.9624 67.7917 99.3378 66.019 102.442 63.8335L107.967 58.9687C113.621 52.3879 114.891 43.5325 110.561 36.9678C105.482 29.2739 94.214 27.4082 84.8001 32.6534C77.2762 24.9353 65.9439 23.5026 58.8774 29.4277C52.8227 34.503 51.568 43.4556 55.1418 51.3801L59.1364 57.5319C59.6545 58.1147 60.2049 58.6814 60.7634 59.1994C61.3624 59.8105 61.8562 60.3003 62.3095 60.6888L62.9368 61.2271C65.5311 63.4571 67.7733 65.3836 70.489 67.1158C71.5008 67.7634 72.5086 68.3219 73.5123 68.8116C73.4637 68.8481 73.4192 68.8885 73.3909 68.9452Z" fill="#FF88BE"/>
<path d="M82.6189 71.07C81.773 71.07 80.9474 71.0173 80.1379 70.9121C76.9973 70.5033 73.723 69.2204 70.4083 67.1036C67.6967 65.3674 65.4545 63.4449 62.8561 61.2108L62.2288 60.6725C61.7755 60.284 61.2818 59.7943 60.6828 59.1831C60.1161 58.657 59.5576 58.0863 59.0396 57.4995L59.0274 57.4833C58.8777 57.3174 58.732 57.1474 58.5863 56.9774C51.1515 48.1058 51.2445 35.7414 58.7927 29.4115C65.8592 23.4904 77.1875 24.919 84.7154 32.6372C94.1334 27.3919 105.401 29.2577 110.476 36.9515C115.721 44.8963 112.759 56.2003 103.746 62.765C103.721 62.8054 103.685 62.8459 103.644 62.8783C100.188 65.4969 96.3756 67.5934 92.3081 69.103C88.7708 70.4183 85.5734 71.0659 82.6108 71.0659L82.6189 71.07ZM59.6548 56.9733C60.1728 57.5521 60.699 58.0904 61.2494 58.6044C61.8484 59.2155 62.33 59.6891 62.759 60.0614L63.3863 60.5997C65.9604 62.8095 68.1823 64.7198 70.8454 66.4237C74.059 68.4757 77.2199 69.7182 80.2432 70.1108C83.7562 70.5681 87.6132 69.9934 92.0328 68.3461C95.9627 66.8851 99.6538 64.8696 103.009 62.3522C103.037 62.3036 103.078 62.2591 103.122 62.2267C111.901 55.9332 114.835 45.0299 109.804 37.4048C104.911 29.9903 93.9472 28.2742 84.8449 33.5033C84.683 33.5964 84.4766 33.568 84.3511 33.4304C77.1227 25.8216 66.1263 24.3281 59.3188 30.0388C52.1107 36.0814 52.0621 47.9358 59.2136 56.4634C59.3512 56.6293 59.4969 56.7912 59.6386 56.9531C59.6467 56.9612 59.6548 56.9693 59.6588 56.9774L59.6548 56.9733Z" fill="black"/>
<path d="M97.4521 63.4814C99.0872 64.6956 100.564 66.4926 101.953 68.0993C101.961 68.1115 101.977 68.1155 101.989 68.1277C101.694 68.925 102.034 70.0258 102.078 70.1594C102.086 70.1796 102.094 70.1999 102.102 70.2201C102.701 71.3857 103.786 72.2113 105.158 72.5392C105.587 72.6404 106.024 72.693 106.465 72.693C107.421 72.693 108.392 72.4582 109.29 71.9928C110.606 71.3169 111.618 70.2363 112.14 68.9493C112.666 67.6501 112.629 66.2943 112.038 65.1286C111.929 64.8615 110.901 62.502 108.606 62.502C108.59 62.502 108.57 62.502 108.55 62.502C108.485 62.502 107.947 62.4858 107.247 62.8419C105.579 61.4133 104.227 60.3043 102.973 58.3252" fill="#FF88BE"/>
<path d="M107.064 63.6271C106.971 63.6271 106.878 63.5947 106.801 63.53C104.672 61.7168 103.842 60.8386 102.126 58.568C101.993 58.39 102.025 58.135 102.203 58.0014C102.381 57.8679 102.636 57.9002 102.77 58.0783C104.441 60.2881 105.251 61.1461 107.323 62.9108C107.493 63.0565 107.513 63.3114 107.368 63.4814C107.287 63.5745 107.173 63.6231 107.06 63.6231L107.064 63.6271Z" fill="black"/>
<path d="M106.465 72.6929C106.024 72.6929 105.583 72.6403 105.154 72.5391C103.782 72.2073 102.697 71.3857 102.098 70.22C102.09 70.1998 102.082 70.1796 102.074 70.1593C102.025 70.0055 101.6 68.6457 102.118 67.8524C102.24 67.6662 102.491 67.6136 102.677 67.735C102.863 67.8564 102.916 68.1074 102.794 68.2936C102.568 68.6416 102.693 69.4349 102.831 69.876C103.324 70.815 104.215 71.4787 105.344 71.7499C106.506 72.0292 107.772 71.8592 108.918 71.2723C110.063 70.6855 110.937 69.7506 111.387 68.6457C111.828 67.561 111.799 66.4359 111.306 65.4848C111.298 65.4726 111.293 65.4605 111.289 65.4483C111.281 65.4281 110.427 63.3154 108.57 63.3154C108.553 63.3154 108.553 63.3154 108.513 63.3154C108.408 63.3154 107.91 63.3357 107.287 63.7525C107.101 63.8739 106.85 63.8254 106.724 63.6392C106.599 63.453 106.651 63.2021 106.837 63.0766C107.732 62.4817 108.464 62.5019 108.545 62.506C108.566 62.506 108.582 62.506 108.602 62.506C110.897 62.506 111.925 64.8655 112.034 65.1326C112.625 66.2942 112.661 67.65 112.135 68.9533C111.613 70.2403 110.601 71.3209 109.286 71.9968C108.388 72.4582 107.416 72.697 106.461 72.697L106.465 72.6929Z" fill="black"/>
<path d="M102.256 68.237C102.143 68.237 102.029 68.1884 101.949 68.0953C99.8197 65.6386 99.3542 65.1651 96.938 63.016C96.7721 62.8662 96.7559 62.6113 96.9056 62.4453C97.0554 62.2794 97.3104 62.2632 97.4763 62.413C99.9006 64.5701 100.423 65.1003 102.56 67.5651C102.705 67.7351 102.689 67.9901 102.519 68.1358C102.442 68.2005 102.349 68.2329 102.256 68.2329V68.237Z" fill="black"/>
<path d="M84.2523 47.193C84.6589 44.4061 83.2815 41.8978 81.1758 41.5906C79.0701 41.2835 77.0336 43.2937 76.627 46.0806C76.2205 48.8675 77.5978 51.3757 79.7035 51.6829C81.8092 51.9901 83.8457 49.9799 84.2523 47.193Z" fill="white"/>
<path d="M80.1421 52.1207C79.9802 52.1207 79.8143 52.1086 79.6524 52.0843C78.507 51.9184 77.5195 51.1777 76.876 50.0081C76.2527 48.8748 76.026 47.4583 76.2365 46.0215C76.4469 44.5888 77.0702 43.2977 77.9889 42.3871C78.9401 41.4481 80.0935 41.0232 81.2429 41.1891C82.3883 41.355 83.3759 42.0957 84.0194 43.2653C84.6426 44.3986 84.8693 45.8151 84.6588 47.2519C84.4484 48.6846 83.8251 49.9757 82.9064 50.8863C82.0888 51.6917 81.1256 52.1207 80.1421 52.1207ZM80.7573 41.9662C79.9883 41.9662 79.2193 42.3142 78.5596 42.9658C77.7623 43.751 77.224 44.8802 77.0378 46.1429C76.8557 47.4057 77.05 48.6401 77.5883 49.6195C78.1063 50.5626 78.8834 51.1535 79.7697 51.287C80.6601 51.4165 81.5708 51.0725 82.3357 50.3157C83.133 49.5305 83.6713 48.4013 83.8575 47.1386C84.0396 45.8758 83.8453 44.6414 83.3071 43.662C82.789 42.719 82.0119 42.1281 81.1256 41.9945C81.0042 41.9783 80.8787 41.9662 80.7573 41.9662Z" fill="black"/>
<path d="M79.7292 43.1926C80.6561 43.4111 81.247 44.4351 81.2753 45.6776L80.2149 46.1633L80.9839 47.3329C80.4577 48.7009 79.3366 49.563 78.2844 49.3121C77.1187 49.0368 76.4833 47.4989 76.8314 45.8476C76.8962 45.5845 76.9771 45.3295 77.0661 45.0827C77.6044 43.7673 78.7012 42.9498 79.7292 43.1885V43.1926Z" fill="black"/>
<path d="M78.6444 49.7613C78.4946 49.7613 78.3408 49.7451 78.1911 49.7087C76.811 49.3808 76.0379 47.6526 76.4386 45.7666C76.5115 45.4793 76.5924 45.2081 76.6895 44.9491C77.325 43.3909 78.616 42.5167 79.8262 42.8C80.9068 43.055 81.6515 44.2084 81.6839 45.6695C81.6839 45.8314 81.5948 45.9771 81.4491 46.0459L80.8177 46.3373L81.3277 47.1103C81.4005 47.2196 81.4127 47.3572 81.3682 47.4786C80.8339 48.8668 79.7412 49.7613 78.6525 49.7613H78.6444ZM79.3688 43.5568C78.6363 43.5568 77.8592 44.2206 77.4423 45.2405C77.3614 45.459 77.2885 45.7059 77.2278 45.9528C76.9324 47.3612 77.4464 48.7009 78.3813 48.9235C79.1665 49.1097 80.0488 48.4661 80.5304 47.3815L79.8788 46.3939C79.814 46.2968 79.7938 46.1754 79.8302 46.0621C79.8626 45.9487 79.9435 45.8557 80.0488 45.8071L80.8582 45.4347C80.7692 44.4755 80.2956 43.7511 79.64 43.5973C79.5509 43.5771 79.4619 43.5649 79.3688 43.5649V43.5568Z" fill="black"/>
<path d="M79.0047 42.4073C78.8792 42.4073 78.7578 42.3506 78.6769 42.2413L77.4748 40.6063C77.3413 40.4282 77.3817 40.1732 77.5598 40.0396C77.7419 39.9061 77.9929 39.9466 78.1264 40.1246L79.3285 41.7597C79.462 41.9378 79.4215 42.1928 79.2435 42.3263C79.1706 42.379 79.0856 42.4032 79.0047 42.4032V42.4073Z" fill="black"/>
<path d="M80.7126 41.6545C80.49 41.6545 80.3079 41.4765 80.3079 41.2539L80.2998 39.7928C80.2998 39.5702 80.4779 39.3881 80.7005 39.384C80.9231 39.384 81.1052 39.5621 81.1052 39.7847L81.1133 41.2458C81.1133 41.4684 80.9352 41.6505 80.7126 41.6545Z" fill="black"/>
<path d="M82.1532 42.3142C82.048 42.3142 81.9387 42.2737 81.8578 42.1887C81.704 42.0269 81.7121 41.7719 81.874 41.6181L83.3391 40.2258C83.501 40.072 83.76 40.0801 83.9097 40.242C84.0635 40.4039 84.0554 40.6589 83.8936 40.8127L82.4284 42.2049C82.3515 42.2778 82.2504 42.3142 82.1492 42.3142H82.1532Z" fill="black"/>
<path d="M92.161 48.3448C92.5675 45.5579 91.1902 43.0497 89.0845 42.7425C86.9788 42.4353 84.9423 44.4455 84.5357 47.2324C84.1291 50.0193 85.5065 52.5276 87.6122 52.8348C89.7179 53.142 91.7544 51.1317 92.161 48.3448Z" fill="white"/>
<path d="M88.0381 53.2742C87.8803 53.2742 87.7184 53.262 87.5565 53.2378C85.2333 52.8978 83.6994 50.178 84.1406 47.175C84.351 45.7422 84.9743 44.4512 85.893 43.5405C86.8442 42.6016 88.0017 42.1766 89.147 42.3425C90.2924 42.5085 91.28 43.2491 91.9235 44.4188C92.5467 45.552 92.7734 46.9686 92.5629 48.4053C92.1542 51.202 90.1791 53.2742 88.0381 53.2742ZM88.6614 43.1196C87.8924 43.1196 87.1234 43.4677 86.4637 44.1193C85.6664 44.9045 85.1281 46.0336 84.9419 47.2964C84.5696 49.8583 85.7959 52.1652 87.6738 52.4405C89.5558 52.7197 91.3892 50.8539 91.7616 48.292C91.9437 47.0293 91.7494 45.7949 91.2112 44.8154C90.6931 43.8724 89.916 43.2815 89.0297 43.1479C88.9083 43.1318 88.7828 43.1196 88.6614 43.1196Z" fill="black"/>
<path d="M91.0613 44.1679C90.9398 44.1679 90.8184 44.1112 90.7375 44.006C90.6039 43.8279 90.6363 43.5729 90.8184 43.4394L92.4373 42.2171C92.6154 42.0835 92.8704 42.1159 93.0039 42.298C93.1375 42.4761 93.1051 42.7311 92.923 42.8647L91.3041 44.0869C91.2312 44.1436 91.1462 44.1679 91.0613 44.1679Z" fill="black"/>
<path d="M89.6367 42.9577C89.5962 42.9577 89.5598 42.9537 89.5193 42.9415C89.3048 42.8768 89.1834 42.6501 89.2522 42.4356L89.6772 41.0393C89.7419 40.8248 89.9686 40.7034 90.1831 40.7722C90.3976 40.837 90.519 41.0636 90.4502 41.2781L90.0252 42.6744C89.9726 42.8485 89.8107 42.9618 89.6367 42.9618V42.9577Z" fill="black"/>
<path d="M88.0704 43.1803C87.9287 43.1803 87.7952 43.1074 87.7183 42.9779L86.7105 41.2254C86.5972 41.0312 86.666 40.7843 86.8602 40.671C87.0545 40.5617 87.3014 40.6265 87.4147 40.8207L88.4225 42.5732C88.5358 42.7675 88.467 43.0143 88.2727 43.1277C88.208 43.1641 88.1392 43.1803 88.0704 43.1803Z" fill="black"/>
<path d="M87.5279 44.4917C88.4709 44.6293 89.1509 45.5966 89.2844 46.831L88.2726 47.4098L89.1387 48.5066C88.734 49.915 87.6898 50.8702 86.6213 50.7123C85.4395 50.5383 84.6706 49.0651 84.877 47.3895C84.9215 47.1224 84.9741 46.8593 85.0429 46.6084C85.4638 45.2526 86.4878 44.3379 87.532 44.4917H87.5279Z" fill="black"/>
<path d="M86.8441 51.1332C86.751 51.1332 86.6538 51.1251 86.5607 51.1129C85.1563 50.9065 84.2376 49.2512 84.4724 47.3409C84.5169 47.0495 84.5776 46.7702 84.6504 46.5031C85.1523 44.8963 86.3584 43.9128 87.5887 44.0909C88.6856 44.2528 89.5314 45.3334 89.6893 46.7864C89.7055 46.9483 89.6286 47.1021 89.4869 47.183L88.8839 47.527L89.4586 48.2555C89.5395 48.3567 89.5638 48.4943 89.5314 48.6198C89.0984 50.1254 88.0016 51.1372 86.8521 51.1372L86.8441 51.1332ZM87.3014 44.8761C86.5365 44.8761 85.7675 45.6208 85.4235 46.7257C85.3628 46.9523 85.3101 47.2033 85.2697 47.4542C85.0956 48.8869 85.723 50.174 86.6741 50.3116C87.4754 50.433 88.297 49.7126 88.6815 48.5874L87.949 47.6566C87.8761 47.5635 87.8478 47.4461 87.868 47.3287C87.8882 47.2114 87.9611 47.1142 88.0663 47.0535L88.8393 46.6124C88.6653 45.6653 88.1351 44.9854 87.4673 44.8882C87.4107 44.8801 87.354 44.8761 87.3014 44.8761Z" fill="black"/>
<path d="M84.3147 54.7029C84.1407 54.7029 83.9788 54.5855 83.9262 54.4115C83.8331 54.0837 83.5377 53.8165 83.1451 53.6951C82.7525 53.5778 82.3599 53.6385 82.1009 53.8651C81.9309 54.0108 81.6759 53.9906 81.5302 53.8206C81.3845 53.6506 81.4048 53.3956 81.5747 53.2499C82.0442 52.8452 82.7201 52.7238 83.3798 52.9221C84.0395 53.1204 84.5333 53.594 84.7073 54.1889C84.768 54.4034 84.6466 54.626 84.4321 54.6908C84.3957 54.7029 84.3552 54.7069 84.3188 54.7069L84.3147 54.7029Z" fill="black"/>
<path d="M70.0723 77.8695C69.8659 77.8695 69.6879 77.7116 69.6676 77.5012C69.5867 76.6472 68.9877 75.6799 68.9836 75.6718C68.8663 75.4816 68.9229 75.2347 69.1131 75.1133C69.3034 74.9959 69.5502 75.0526 69.6717 75.2428C69.7 75.2873 70.3799 76.3801 70.4771 77.4283C70.4973 77.6509 70.3354 77.8492 70.1128 77.8695C70.1007 77.8695 70.0885 77.8695 70.0764 77.8695H70.0723Z" fill="black"/>
<path d="M107.849 37.5141C107.797 36.8666 107.615 36.3768 107.295 36.0126C106.882 35.5391 106.271 35.3448 105.854 35.2396C104.964 35.017 104.013 34.9684 103.102 35.1019C103.086 35.1019 103.074 35.1141 103.057 35.1181C102.855 34.4949 102.353 34.0456 101.702 33.9525C101.216 33.7987 100.686 33.9161 100.164 34.2763C99.6902 33.2726 98.905 32.4348 97.9256 31.9046C97.3387 31.5889 96.8369 31.508 96.3876 31.6577C95.8615 31.8318 95.5417 32.2972 95.2948 32.7262C94.3559 34.3653 93.7326 36.223 93.4938 38.0969C93.4574 38.3843 93.4291 38.7162 93.5667 39.0359C93.8095 39.6025 94.4166 39.813 94.9185 39.9303C95.5053 40.0679 96.1003 40.1813 96.6952 40.2703C97.0068 40.3148 97.3185 40.3512 97.6261 40.3796C97.8568 40.8531 98.2453 41.2093 98.7148 41.3469C98.7836 41.3671 98.8524 41.3792 98.9212 41.3914C99.334 41.4521 99.7833 41.3509 100.188 41.1081C100.35 41.9661 100.929 42.6744 101.564 43.3786C101.993 43.8562 102.503 44.3661 103.171 44.4633C103.256 44.4754 103.345 44.4795 103.434 44.4795C104.138 44.4633 104.668 43.9938 105.138 43.4919C107.121 41.3509 108.007 39.3961 107.853 37.5141H107.849Z" fill="#FF3351"/>
<path d="M99.1599 41.4076C99.0061 41.4076 98.8604 41.3874 98.7147 41.3469C98.0591 41.1567 97.5532 40.5375 97.4277 39.7685C97.3144 39.0724 97.5046 38.4086 97.6827 37.9108C98.0793 36.8019 98.7026 35.7536 99.4878 34.8754C100.216 34.0619 100.997 33.7381 101.694 33.9566C102.507 34.07 103.106 34.7499 103.151 35.6281C103.187 36.3769 102.831 37.0447 102.543 37.5789L101.56 39.4083C101.305 39.8818 101.018 40.4161 100.568 40.8248C100.156 41.2012 99.6416 41.4076 99.1559 41.4076H99.1599ZM101.265 34.6973C100.791 34.6973 100.301 35.1829 100.095 35.4136C99.3785 36.215 98.8119 37.1702 98.4476 38.1779C98.2291 38.785 98.1643 39.2343 98.2291 39.6349C98.2898 40.0154 98.5367 40.4484 98.9414 40.5658C99.2652 40.6589 99.6942 40.5253 100.026 40.2218C100.374 39.9061 100.617 39.4569 100.848 39.0198L101.831 37.1904C102.139 36.6197 102.369 36.1462 102.345 35.6646C102.325 35.2518 102.074 34.8066 101.564 34.7499C101.536 34.7499 101.503 34.7418 101.475 34.7297C101.406 34.7054 101.337 34.6932 101.265 34.6932V34.6973Z" fill="black"/>
<path d="M97.8487 40.404C97.8487 40.404 97.8244 40.404 97.8122 40.404C96.8409 40.3149 95.8696 40.1571 94.9185 39.9345C94.4166 39.8171 93.8095 39.6067 93.5667 39.04C93.4291 38.7203 93.4574 38.3884 93.4938 38.1011C93.7326 36.2272 94.3559 34.3695 95.2948 32.7304C95.5417 32.3013 95.8615 31.84 96.3876 31.6619C96.8369 31.5121 97.3387 31.5931 97.9256 31.9088C98.99 32.4835 99.8278 33.4184 100.285 34.5435C100.37 34.7499 100.269 34.9847 100.063 35.0697C99.8561 35.1547 99.6214 35.0535 99.5364 34.8471C99.1559 33.9122 98.4315 33.1027 97.5451 32.6211C97.1728 32.4187 96.8692 32.354 96.6466 32.4268C96.3795 32.5159 96.1772 32.8153 95.9991 33.127C95.1127 34.673 94.5259 36.4255 94.2992 38.1982C94.2749 38.3884 94.2547 38.5827 94.3114 38.7163C94.4125 38.951 94.7889 39.0684 95.1087 39.1453C96.0193 39.3598 96.9583 39.5136 97.8891 39.5986C98.1117 39.6188 98.2777 39.8171 98.2574 40.0397C98.2372 40.2502 98.0632 40.408 97.8527 40.408L97.8487 40.404Z" fill="black"/>
<path d="M103.398 44.4836C102.616 44.4836 102.042 43.917 101.56 43.3827C100.836 42.5773 100.184 41.7679 100.144 40.7358C100.135 40.5132 100.31 40.323 100.532 40.3149C100.751 40.3028 100.945 40.4809 100.953 40.7035C100.981 41.4684 101.544 42.1524 102.163 42.8404C102.527 43.2492 102.94 43.6863 103.414 43.6701C103.814 43.662 104.191 43.3139 104.539 42.9416C106.36 40.9787 107.178 39.2222 107.04 37.583C107.004 37.1216 106.882 36.7736 106.684 36.5469C106.482 36.3162 106.158 36.1543 105.656 36.0289C104.867 35.8346 104.021 35.7901 103.215 35.9074C102.993 35.9398 102.79 35.786 102.758 35.5634C102.726 35.3408 102.88 35.1385 103.102 35.1061C104.009 34.9725 104.964 35.0211 105.854 35.2437C106.275 35.3489 106.882 35.5432 107.295 36.0127C107.615 36.3769 107.797 36.8666 107.85 37.5142C108.003 39.3962 107.117 41.351 105.134 43.492C104.664 43.9979 104.134 44.4674 103.434 44.4795C103.422 44.4795 103.414 44.4795 103.402 44.4795L103.398 44.4836Z" fill="black"/>
<path d="M98.1482 37.2754C98.0874 37.2754 98.0267 37.2633 97.9701 37.2349L96.0921 36.3C95.8898 36.1988 95.8088 35.956 95.91 35.7577C96.0112 35.5594 96.254 35.4744 96.4523 35.5755L98.3303 36.5105C98.5286 36.6116 98.6136 36.8545 98.5124 37.0528C98.4436 37.1945 98.2979 37.2754 98.1482 37.2754Z" fill="black"/>
<path d="M104.029 39.8941C103.956 39.8941 103.883 39.8738 103.818 39.8333C103.264 39.4974 102.661 39.2546 102.029 39.1129C101.811 39.0644 101.673 38.8499 101.722 38.6313C101.77 38.4128 101.985 38.2751 102.203 38.3237C102.924 38.4816 103.612 38.7568 104.239 39.1413C104.429 39.2586 104.49 39.5055 104.373 39.6957C104.296 39.8212 104.162 39.89 104.029 39.89V39.8941Z" fill="black"/>
<path d="M90.608 57.0625C90.5757 57.0625 90.5392 57.0585 90.5028 57.0504C89.5841 56.8076 88.7706 55.4679 88.9527 54.4925C88.9932 54.274 89.2077 54.1283 89.4262 54.1687C89.6448 54.2092 89.7905 54.4197 89.75 54.6423C89.6488 55.1927 90.2033 56.1357 90.7092 56.2693C90.9237 56.3259 91.0532 56.5485 90.9966 56.763C90.948 56.9452 90.7861 57.0625 90.604 57.0625H90.608Z" fill="black"/>
<path d="M97.3429 74.4819C97.3429 74.4819 97.3024 74.4819 97.2822 74.4778C96.2623 74.3281 94.267 72.8994 94.0444 72.7375C93.1013 71.9159 91.6524 70.2444 91.2922 69.0221C91.2275 68.8076 91.3529 68.581 91.5674 68.5202C91.7819 68.4555 92.0086 68.581 92.0693 68.7955C92.3647 69.8032 93.6963 71.3655 94.5462 72.1061C95.0805 72.4906 96.6994 73.5753 97.3995 73.6765C97.6221 73.7088 97.7719 73.9152 97.7395 74.1338C97.7112 74.3362 97.5371 74.4819 97.3388 74.4819H97.3429Z" fill="black"/>
<path d="M83.5616 60.5674C83.1407 60.5674 82.7562 60.535 82.4405 60.4986C80.7043 60.3003 79.5832 59.8065 78.5714 58.7826C77.5231 57.7222 76.6206 55.7512 77.0132 54.197C77.0698 53.9785 77.2884 53.849 77.5029 53.9056C77.7214 53.9623 77.8509 54.1808 77.7943 54.3954C77.5191 55.4922 78.11 57.1677 79.142 58.2119C80.1538 59.2359 81.2264 59.5435 82.5255 59.6932C83.165 59.7661 84.1201 59.8308 84.9984 59.5677C85.3667 59.4585 85.739 59.2844 86.1438 59.0457C87.3984 58.2929 88.4264 57.1232 89.0457 55.7552C89.1387 55.5529 89.3775 55.4598 89.5799 55.5529C89.7823 55.646 89.8754 55.8847 89.7823 56.0871C89.0983 57.6008 87.9529 58.9 86.5606 59.7377C86.0993 60.0129 85.6662 60.2113 85.2331 60.3408C84.6665 60.5108 84.0878 60.5634 83.5576 60.5634L83.5616 60.5674Z" fill="black"/>
<path d="M34.2055 80.0184C33.5094 79.3021 32.6635 78.7395 31.7407 78.3388C31.7812 78.3024 31.8257 78.2619 31.8662 78.2215C32.1859 77.8936 32.5016 77.3796 32.4328 76.9101C32.3316 76.2181 31.846 75.7122 31.3846 75.3034C30.0409 74.1256 28.426 73.2312 26.714 72.7253C26.2729 72.5958 25.7953 72.4905 25.3218 72.612C24.4921 72.8265 24.0226 73.6359 23.9255 74.3442C23.8769 74.6842 23.8972 75.0241 23.9579 75.352C22.9015 75.4046 21.8897 75.9267 21.2381 76.7685C21.0762 76.979 20.9427 77.2137 20.8293 77.4525C20.7484 77.5294 20.7079 77.6346 20.712 77.7439C20.4287 78.525 20.4084 79.3952 20.6877 80.1884C20.9629 80.9817 21.4971 81.6212 21.9302 82.0866C22.5939 82.807 23.371 83.495 24.4435 84.3207C25.4837 85.118 26.7221 85.9841 28.1346 86.5062C28.3168 86.575 28.5029 86.6357 28.6891 86.6883C30.482 87.2104 32.2628 87.0121 33.5823 86.15C35.1445 85.1301 35.869 83.1632 35.2659 81.5766C35.0676 81.0464 34.7195 80.5365 34.2096 80.0144L34.2055 80.0184ZM32.6514 85.7858C31.587 86.2796 30.2514 86.3484 28.8955 85.9517C27.3697 85.5106 26.022 84.5716 24.9009 83.7136C23.8648 82.9163 23.1201 82.2566 22.4847 81.5685C22.1042 81.1557 21.6347 80.5932 21.404 79.9375C21.2705 79.553 21.23 79.1321 21.2705 78.7233C23.1767 81.5281 25.9289 84.0536 28.9886 85.1787C28.9886 85.1787 30.9596 86.057 32.6473 85.7858H32.6514Z" fill="white"/>
<path d="M58.7925 74.7207C57.6916 73.4458 55.9189 72.7618 54.0572 72.8913C52.5516 72.9925 51.0177 73.6158 49.6012 74.6762C49.4352 74.2067 49.0669 73.7939 48.6096 73.5753C47.5573 73.0775 46.3593 73.4013 45.3151 73.7493C44.6878 73.9598 43.9026 74.2188 43.2389 74.66C42.478 75.1699 41.9721 75.858 41.8183 76.6067C41.6281 77.5295 42.0409 78.4927 42.7977 78.8934C42.8058 78.8975 42.8139 78.8974 42.822 78.9015C42.4618 79.4114 42.2918 80.0509 42.3363 80.7511C42.3566 81.0789 42.4294 81.3987 42.5347 81.7103C42.7856 82.455 43.2591 83.1309 43.8743 83.5842C45.4932 84.77 47.6302 84.7093 49.0953 84.5636C50.0261 84.4705 50.9246 84.3208 51.7826 84.1184C54.1705 83.5518 56.267 82.5724 57.9507 81.2246C58.2178 81.0101 58.5213 80.743 58.8087 80.4273C58.8208 80.4152 58.833 80.399 58.8451 80.3868C59.0232 80.1885 59.1932 79.9781 59.3389 79.7352C60.2374 78.2458 60.0026 76.1372 58.7804 74.7247L58.7925 74.7207ZM49.0265 83.7987C46.8936 84.0132 45.4042 83.7461 44.3357 82.9649C44.1333 82.8152 43.9512 82.6331 43.7893 82.4267C46.5374 83.483 49.9088 83.3737 53.0656 82.625C53.9115 82.4267 54.7372 82.1757 55.5345 81.8965C53.6727 82.9042 51.467 83.5558 49.0224 83.7987H49.0265Z" fill="white"/>
<path d="M34.2055 80.0184C33.5094 79.3021 32.6635 78.7395 31.7407 78.3388C31.7812 78.3024 31.8257 78.2619 31.8662 78.2215C32.1859 77.8936 32.5016 77.3796 32.4328 76.9101C32.3316 76.2181 31.846 75.7122 31.3846 75.3034C30.0409 74.1256 28.426 73.2312 26.714 72.7253C26.2729 72.5958 25.7953 72.4905 25.3218 72.612C24.4921 72.8265 24.0226 73.6359 23.9255 74.3442C23.8769 74.6842 23.8972 75.0241 23.9579 75.352C22.9015 75.4046 21.8897 75.9267 21.2381 76.7685C21.0762 76.979 20.9427 77.2137 20.8293 77.4525C20.7484 77.5294 20.7079 77.6346 20.712 77.7439C20.4287 78.525 20.4084 79.3952 20.6877 80.1884C20.9629 80.9817 21.4971 81.6212 21.9302 82.0866C22.5939 82.807 23.371 83.495 24.4435 84.3207C25.4837 85.118 26.7221 85.9841 28.1346 86.5062C28.3168 86.575 28.5029 86.6357 28.6891 86.6883C30.482 87.2104 32.2628 87.0121 33.5823 86.15C35.1445 85.1301 35.869 83.1632 35.2659 81.5766C35.0676 81.0464 34.7195 80.5365 34.2096 80.0144L34.2055 80.0184Z" fill="white"/>
<path d="M58.7925 74.7207C57.6916 73.4458 55.9189 72.7618 54.0572 72.8913C52.5516 72.9925 51.0177 73.6158 49.6012 74.6762C49.4352 74.2067 49.0669 73.7939 48.6096 73.5753C47.5573 73.0775 46.3593 73.4013 45.3151 73.7493C44.6878 73.9598 43.9026 74.2188 43.2389 74.66C42.478 75.1699 41.9721 75.858 41.8183 76.6067C41.6281 77.5295 42.0409 78.4927 42.7977 78.8934C42.8058 78.8975 42.8139 78.8974 42.822 78.9015C42.4618 79.4114 42.2918 80.0509 42.3363 80.7511C42.3566 81.0789 42.4294 81.3987 42.5347 81.7103C42.7856 82.455 43.2591 83.1309 43.8743 83.5842C45.4932 84.77 47.6302 84.7093 49.0953 84.5636C50.0261 84.4705 50.9246 84.3208 51.7826 84.1184C54.1705 83.5518 56.267 82.5724 57.9507 81.2246C58.2178 81.0101 58.5213 80.743 58.8087 80.4273C58.8208 80.4152 58.833 80.399 58.8451 80.3868C59.0232 80.1885 59.1932 79.9781 59.3389 79.7352C60.2374 78.2458 60.0026 76.1372 58.7804 74.7247L58.7925 74.7207Z" fill="white"/>
<path d="M11.5812 63.9751C11.5084 63.9346 11.4193 63.8941 11.3303 63.8537C11.4153 63.6756 11.4679 63.4813 11.472 63.279C11.4841 62.7852 11.2534 62.2671 10.8406 61.8584C10.4925 61.5144 10.0757 61.2877 9.67498 61.0853C8.52555 60.5025 6.99974 59.8388 5.38488 59.9116C5.18656 59.9197 4.58352 59.9481 4.26783 60.4014C4.07357 60.6766 4.06142 60.9923 4.07357 61.2675C4.07761 61.3848 4.08571 61.5063 4.1019 61.6236C3.57171 61.7086 3.01723 61.996 2.49109 62.4736C1.52379 63.3559 0.940986 64.5012 0.884324 65.6102C0.819568 66.9458 1.55617 68.2045 2.67321 68.678C2.75011 68.7104 2.82701 68.7387 2.90391 68.767C2.90795 68.8885 2.91605 69.0139 2.93629 69.1353C3.1346 70.3414 4.11809 71.3532 5.27156 71.5435C5.39702 71.5637 5.51844 71.5758 5.63176 71.5758C5.82603 71.5758 6.00411 71.5475 6.17005 71.4908C6.4655 71.3897 6.82975 71.1347 7.08878 70.815C7.34375 70.9971 7.67158 71.1509 8.06416 71.2804C8.35152 71.3735 8.64697 71.418 8.93837 71.418C9.22978 71.418 9.51308 71.3694 9.77211 71.2763C10.3671 71.0618 10.8406 70.6005 11.0389 70.046C11.132 69.7789 11.1725 69.4834 11.1563 69.1434C11.1522 69.018 11.1725 68.8723 11.1967 68.7104C11.2129 68.5971 11.2291 68.4797 11.2413 68.3583C11.2575 68.3583 11.2736 68.3704 11.2898 68.3704C11.4436 68.4028 11.5974 68.419 11.7472 68.419C12.2531 68.419 12.7226 68.2409 13.0342 67.9212C13.2568 67.6905 13.4146 67.3748 13.4996 66.9903C13.6089 66.4965 13.5806 66.0149 13.4146 65.6021C13.0706 64.7481 12.1802 64.2827 11.5893 63.9791L11.5812 63.9751Z" fill="white"/>
<path d="M30.7977 78.7881C30.7613 78.7881 30.7249 78.7881 30.6925 78.78C30.4699 78.7517 30.312 78.5534 30.3404 78.3308C30.3687 78.1082 30.5711 77.9503 30.7896 77.9787C30.8746 77.9868 31.081 77.8977 31.3036 77.6711C31.5667 77.3999 31.6679 77.1247 31.6517 77.0235C31.5869 76.5864 31.2146 76.21 30.8625 75.8984C29.6038 74.7935 28.0941 73.9598 26.4874 73.4822C26.1029 73.3689 25.7872 73.3081 25.516 73.3769C25.0425 73.4984 24.7673 74.0205 24.7066 74.4495C24.6378 74.9635 24.7632 75.4937 24.9777 76.1291C25.0506 76.3395 24.9332 76.5702 24.7228 76.6431C24.5123 76.7159 24.2816 76.5986 24.2088 76.3881C23.9902 75.7405 23.804 75.0485 23.9012 74.3402C23.9983 73.6238 24.4718 72.8063 25.3096 72.5918C25.7872 72.4704 26.2688 72.5715 26.714 72.7051C28.4301 73.2151 30.049 74.1055 31.3926 75.2873C31.8581 75.696 32.3478 76.21 32.449 76.9062C32.5178 77.3837 32.2021 77.9058 31.8783 78.2337C31.5303 78.5898 31.1417 78.7841 30.7937 78.7841L30.7977 78.7881Z" fill="black"/>
<path d="M30.6356 87C30.0002 87 29.3405 86.9069 28.6768 86.7126C27.0255 86.231 25.6008 85.2435 24.4231 84.3409C23.3506 83.5153 22.5735 82.8273 21.9057 82.1069C21.4726 81.6374 20.9384 80.9939 20.6591 80.2006C20.2544 79.0471 20.4689 77.7277 21.2136 76.7604C21.9583 75.7931 23.1725 75.2468 24.3948 75.3398C24.6174 75.356 24.7833 75.5503 24.7671 75.7729C24.7509 75.9955 24.5607 76.1614 24.334 76.1452C23.3991 76.0724 22.4278 76.5095 21.8571 77.2501C21.2865 77.9948 21.1165 79.0431 21.4241 79.9294C21.6507 80.581 22.1202 81.1396 22.5006 81.5524C23.132 82.2404 23.8767 82.9001 24.9128 83.6934C26.0299 84.5514 27.3776 85.4863 28.8994 85.9315C30.4697 86.3889 32.0158 86.227 33.1409 85.4904C34.3794 84.6809 34.9824 83.0863 34.521 81.8559C34.3591 81.431 34.0718 81.01 33.6387 80.5648C32.1453 79.035 29.899 78.2498 27.7783 78.5169C27.5557 78.5453 27.3533 78.3874 27.325 78.1648C27.2966 77.9422 27.4545 77.7399 27.6771 77.7115C30.0407 77.412 32.55 78.2862 34.2175 79.9942C34.7315 80.5203 35.0755 81.0343 35.2778 81.5645C35.8809 83.1591 35.1524 85.1383 33.5861 86.1622C32.7483 86.7086 31.7284 86.9879 30.6356 86.9879V87Z" fill="black"/>
<path d="M32.3072 85.8143C27.6691 85.8143 23.2697 82.0544 20.7442 77.9384C20.6268 77.7481 20.6876 77.4972 20.8778 77.3798C21.068 77.2625 21.3189 77.3232 21.4363 77.5134C24.1237 81.8966 29.0087 85.8629 33.8654 84.843C34.084 84.7944 34.2985 84.9361 34.343 85.1546C34.3875 85.3732 34.2499 85.5877 34.0314 85.6322C33.4567 85.7536 32.8779 85.8103 32.3072 85.8103V85.8143Z" fill="black"/>
<path d="M42.9797 78.9541C42.915 78.9541 42.8502 78.9379 42.7895 78.9055C42.0246 78.5008 41.6077 77.5295 41.7979 76.5986C41.9517 75.8458 42.4617 75.1537 43.2266 74.6397C43.8944 74.1945 44.6796 73.9355 45.3069 73.725C46.3511 73.377 47.5572 73.0492 48.6176 73.551C49.1154 73.7898 49.5161 74.2593 49.6577 74.7854C49.767 75.1942 49.7103 75.5949 49.4918 75.9187C49.3663 76.1048 49.1154 76.1534 48.9292 76.0279C48.743 75.9025 48.6945 75.6515 48.8199 75.4654C48.9049 75.3399 48.9252 75.1821 48.8766 74.9999C48.7957 74.7085 48.5528 74.4212 48.2695 74.2876C47.4843 73.9153 46.5009 74.1864 45.5619 74.4981C44.9467 74.7004 44.2546 74.9311 43.6759 75.3156C43.3359 75.5423 42.741 76.032 42.5912 76.7645C42.4738 77.3433 42.7207 77.9544 43.1659 78.1932C43.3642 78.2985 43.4411 78.5413 43.3359 78.7396C43.2631 78.8772 43.1214 78.9541 42.9797 78.9541Z" fill="black"/>
<path d="M47.6991 84.6608C46.4485 84.6608 45.028 84.4463 43.8704 83.6004C42.9881 82.9569 42.3972 81.8641 42.3244 80.7552C42.2637 79.8648 42.551 79.0715 43.1298 78.513C43.2917 78.3592 43.5467 78.3632 43.7005 78.5251C43.8543 78.687 43.8502 78.942 43.6883 79.0958C43.2836 79.4843 43.0853 80.051 43.1298 80.6985C43.1865 81.5646 43.664 82.4469 44.348 82.9447C45.4124 83.7259 46.8978 83.9889 49.0226 83.7744C52.3778 83.4385 55.2959 82.3417 57.4652 80.6054C57.8537 80.2938 58.3475 79.8648 58.6713 79.3224C59.3998 78.1164 59.1974 76.3963 58.1937 75.2347C57.2669 74.1622 55.7046 73.5672 54.11 73.6765C52.313 73.802 50.8155 74.7126 49.8725 75.4533C49.5002 75.7487 49.0024 76.3437 49.2533 76.6877C49.3869 76.8698 49.3464 77.1207 49.1643 77.2543C48.9821 77.3879 48.7312 77.3474 48.5976 77.1653C48.0391 76.4003 48.5815 75.4371 49.3666 74.8178C50.8479 73.6522 52.4668 72.9763 54.0493 72.8671C55.9272 72.7376 57.6959 73.4256 58.8008 74.7045C60.0271 76.1251 60.2618 78.2418 59.3593 79.7393C58.9667 80.3869 58.4082 80.8806 57.9671 81.2368C55.6763 83.0743 52.6085 84.2318 49.0995 84.5798C48.6786 84.6203 48.197 84.6567 47.6911 84.6567L47.6991 84.6608Z" fill="black"/>
<path d="M48.391 83.2198C46.3431 83.2198 44.3761 82.8475 42.7167 81.9571C42.5184 81.8519 42.4455 81.605 42.5508 81.4107C42.656 81.2124 42.9029 81.1395 43.0972 81.2448C47.4156 83.5598 54.0329 82.119 58.3513 79.804C58.5496 79.6987 58.7924 79.7716 58.8977 79.9699C59.0029 80.1682 58.93 80.411 58.7317 80.5163C55.8582 82.0583 51.9971 83.2158 48.3869 83.2158L48.391 83.2198Z" fill="black"/>
<path d="M6.29544 62.3765C6.29544 62.3765 6.26307 62.3765 6.24688 62.3765C5.24316 62.3482 4.44989 61.5144 4.47418 60.5067C4.70487 51.8657 12.3744 47.5311 12.7023 47.349C13.5846 46.8633 14.6895 47.1831 15.1792 48.0613C15.6649 48.9396 15.3492 50.0445 14.4709 50.5342C14.39 50.5787 8.29479 54.0877 8.12076 60.6038C8.09648 61.5913 7.28298 62.3765 6.29949 62.3765H6.29544Z" fill="black"/>
<path d="M11.7391 68.4352C11.5894 68.4352 11.4356 68.419 11.2777 68.3866C10.7192 68.2692 10.2336 67.9778 9.80454 67.7188C9.61432 67.6055 9.54957 67.3546 9.66694 67.1643C9.78431 66.9741 10.0312 66.9094 10.2214 67.0267C10.614 67.2615 11.0187 67.5043 11.4437 67.5934C11.7634 67.6581 12.1965 67.6338 12.4555 67.3667C12.5769 67.2412 12.666 67.0551 12.7226 66.8082C12.7752 66.5734 12.8117 66.2213 12.6741 65.8895C12.4555 65.3512 11.8606 65.0072 11.217 64.6712C11.0147 64.566 10.8528 64.4851 10.7152 64.4931C10.4926 64.5093 10.3024 64.3353 10.2862 64.1127C10.274 63.8901 10.444 63.6958 10.6666 63.6837C11.0309 63.6635 11.3587 63.8294 11.5934 63.9508C12.1843 64.2584 13.0788 64.7238 13.4268 65.5859C13.5968 66.0028 13.6252 66.4884 13.5118 66.9863C13.4228 67.3748 13.265 67.6945 13.0383 67.9293C12.7226 68.2571 12.2491 68.4352 11.7391 68.4352Z" fill="black"/>
<path d="M8.93432 71.4342C8.64292 71.4342 8.34747 71.3856 8.05607 71.2925C6.93902 70.9323 6.36836 70.3576 6.36027 69.5805C6.35217 68.9613 6.42097 68.678 6.51811 68.5323C6.58691 68.3542 6.75285 68.0021 7.13329 67.7107C7.31137 67.5731 7.5623 67.6055 7.69991 67.7835C7.83752 67.9616 7.80514 68.2126 7.62706 68.3502C7.3397 68.5728 7.26685 68.8358 7.2628 68.848C7.25066 68.8925 7.23043 68.937 7.2021 68.9775C7.18186 69.0827 7.16567 69.3498 7.16567 69.5765C7.16567 69.965 7.55016 70.2847 8.2989 70.5235C8.71577 70.6571 9.14073 70.6571 9.49689 70.5316C9.86519 70.3981 10.1687 70.1107 10.2861 69.7788C10.3468 69.6089 10.3711 69.4105 10.359 69.1718C10.3509 68.9734 10.3792 68.7792 10.4075 68.593C10.444 68.3461 10.4763 68.1114 10.4075 67.9778C10.3063 67.7795 10.3832 67.5367 10.5775 67.4314C10.7758 67.3262 11.0187 67.4071 11.1239 67.6055C11.3141 67.9738 11.2575 68.3663 11.2089 68.7104C11.1846 68.8682 11.1644 69.0139 11.1684 69.1394C11.1846 69.4834 11.1441 69.7829 11.047 70.05C10.8487 70.6126 10.3711 71.078 9.76806 71.2925C9.50499 71.3856 9.21763 71.4342 8.92623 71.4342H8.93432Z" fill="black"/>
<path d="M5.6278 71.5921C5.51043 71.5921 5.38901 71.5799 5.26354 71.5597C4.10198 71.3695 3.11445 70.3496 2.91209 69.1354C2.72591 68.0102 3.19539 66.7799 4.11412 65.9947C4.28411 65.849 4.53908 65.8692 4.68479 66.0392C4.83049 66.2092 4.81025 66.4642 4.64027 66.6099C3.93604 67.2129 3.57179 68.1559 3.71344 69.0059C3.85914 69.8882 4.56742 70.6248 5.3971 70.7624C5.59947 70.7948 5.76945 70.7867 5.90706 70.7421C6.23489 70.6288 6.62342 70.2322 6.61533 70.0177C6.60724 69.7951 6.77722 69.6049 7.00387 69.5968C7.22242 69.5887 7.41669 69.7587 7.42478 69.9853C7.45311 70.6774 6.70437 71.3249 6.17013 71.5071C6.00419 71.5637 5.82207 71.5921 5.6278 71.5921Z" fill="black"/>
<path d="M2.95249 68.8116C2.85131 68.7752 2.75418 68.7428 2.66109 68.7023C1.53595 68.2247 0.795303 66.9539 0.856011 65.6142C0.908626 64.5012 1.49953 63.3518 2.46682 62.4655C3.23175 61.7653 4.05335 61.4658 4.7859 61.6155C5.00445 61.6601 5.14611 61.8746 5.10159 62.0931C5.05707 62.3117 4.83852 62.4533 4.62401 62.4088C3.98859 62.2793 3.34508 62.7609 3.01725 63.0604C2.20375 63.8051 1.70998 64.7481 1.66546 65.6507C1.6169 66.6422 2.16732 67.6136 2.97273 67.9536C3.04963 67.9859 3.13057 68.0143 3.21152 68.0426L2.94845 68.8075L2.95249 68.8116Z" fill="black"/>
<path d="M10.3711 64.6268C10.3145 64.6268 10.2578 64.6146 10.2052 64.5904L8.64699 63.8983C8.44463 63.8092 8.35154 63.5664 8.44058 63.364C8.53367 63.1617 8.77246 63.0686 8.97482 63.1576L10.3873 63.785C10.5533 63.6919 10.6787 63.4774 10.6828 63.2588C10.6909 62.9796 10.5452 62.676 10.2861 62.421C10.019 62.158 9.66285 61.9637 9.31884 61.7897C8.25845 61.2473 6.85001 60.6362 5.42132 60.7009C5.08135 60.7171 4.95589 60.794 4.91542 60.8547C4.85875 60.9397 4.85875 61.1097 4.8628 61.2352C4.87899 61.6278 4.94779 62.0204 5.06112 62.3927C5.12587 62.6072 5.0085 62.8339 4.794 62.8986C4.57949 62.9674 4.35285 62.846 4.28809 62.6315C4.15048 62.1903 4.07359 61.729 4.05335 61.2676C4.04121 61.0045 4.05335 60.6686 4.25167 60.3893C4.57545 59.9279 5.18254 59.8996 5.3849 59.8915C7.0038 59.8186 8.53367 60.4824 9.68309 61.0652C10.0838 61.2676 10.5047 61.4983 10.8527 61.8423C11.2696 62.2551 11.5044 62.7772 11.4922 63.279C11.476 63.9145 11.0308 64.4892 10.4561 64.6187C10.4278 64.6268 10.3995 64.6268 10.3671 64.6268H10.3711Z" fill="black"/>
<path d="M28.4382 77.1287C27.7906 77.1287 27.1633 76.7807 26.8354 76.1736C26.3579 75.2872 26.6897 74.1823 27.572 73.7048C31.7488 71.4504 30.308 67.1927 30.1299 66.7151C29.7818 65.7762 30.2513 64.7279 31.1903 64.3718C32.1293 64.0156 33.1735 64.477 33.5337 65.4119C34.5536 68.0507 34.9826 73.8464 29.3043 76.9102C29.0291 77.0599 28.7336 77.1287 28.4422 77.1287H28.4382Z" fill="black"/>
<path d="M45.6148 78.1486C44.8499 78.1486 44.1376 77.663 43.8866 76.898L40.2805 66.0109C39.9648 65.0558 40.4829 64.0237 41.438 63.708C42.3891 63.3923 43.4212 63.9104 43.7409 64.8655L47.347 75.7527C47.6627 76.7078 47.1447 77.7399 46.1895 78.0556C45.9993 78.1203 45.805 78.1486 45.6148 78.1486Z" fill="black"/>
<path d="M18.6558 27.3514L14.4142 27.7966C14.4142 27.7966 10.541 27.9181 10.112 31.3825C10.112 31.3825 9.41992 42.472 10.6665 50.1213C10.6665 50.1213 11.3586 58.5518 13.8233 61.8301C13.8233 61.8301 15.3856 65.1124 20.813 65.2621C20.813 65.2621 34.9622 66.966 54.9435 63.534C54.9435 63.534 60.8039 62.7447 61.2532 57.4469C61.2532 57.4469 64.4101 47.7375 60.2414 29.282C60.2414 29.282 59.5372 25.344 54.4295 25.344C54.4295 25.344 35.6705 25.7528 26.3132 26.6836C26.3132 26.6836 22.5857 27.1612 18.6477 27.3595L18.6558 27.3514Z" fill="#4AD0FF"/>
<path d="M30.312 66.0757C24.3666 66.0757 20.8373 65.6669 20.7685 65.6588C15.4504 65.5131 13.6899 62.4413 13.4835 62.0365C10.9984 58.6854 10.2983 50.4978 10.2699 50.1497C9.03148 42.5773 9.70737 31.4676 9.71547 31.3542C10.1809 27.566 14.3658 27.392 14.4062 27.392L18.6154 26.9508C18.6154 26.9508 18.6316 26.9508 18.6356 26.9508C22.5089 26.7566 26.2283 26.283 26.2688 26.279C35.5491 25.3562 54.2394 24.9434 54.4296 24.9393C59.8206 24.9393 60.6381 29.1687 60.6462 29.2092C64.6854 47.1021 61.913 56.7022 61.658 57.5279C61.1562 63.0443 55.065 63.9266 55.0003 63.9347C44.9954 65.6548 36.391 66.0838 30.316 66.0838L30.312 66.0757ZM18.6842 27.7562L14.4548 28.1974C14.2808 28.2055 10.8892 28.3552 10.5128 31.4271C10.5087 31.5121 9.83688 42.5328 11.0673 50.0485C11.0794 50.1619 11.7836 58.4304 14.1472 61.5792C14.1634 61.5994 14.1755 61.6237 14.1877 61.648C14.2484 61.7694 15.7337 64.7077 20.8212 64.8494C20.9992 64.8696 35.1849 66.5088 54.8708 63.1252C55.1096 63.0929 60.4277 62.3077 60.8486 57.4024C60.8486 57.37 60.8567 57.3417 60.8648 57.3134C60.8971 57.2162 63.9326 47.4704 59.8448 29.3589C59.8125 29.1971 59.1163 25.7366 54.4296 25.7366C54.2515 25.7366 35.5896 26.1535 26.3538 27.0722C26.3295 27.0722 22.5858 27.5539 18.6801 27.7481L18.6842 27.7562Z" fill="black"/>
<path d="M18.7207 23.7413C18.7207 23.7413 17.4984 24.0489 17.7251 25.6556L17.7372 28.0314C17.7372 28.0314 17.6401 29.2698 19.6677 29.2698C19.6677 29.2698 22.772 29.3953 24.9089 28.6587C24.9089 28.6587 26.2445 28.3633 25.9086 26.1737L25.6415 24.4941C25.6415 24.4941 25.4553 23.3811 23.8526 23.4256C23.8526 23.4256 21.6873 23.2961 18.7166 23.7413H18.7207Z" fill="#4AD0FF"/>
<path d="M20.226 29.6827C19.8941 29.6827 19.6837 29.6746 19.6513 29.6746C18.7811 29.6746 18.1255 29.456 17.7248 29.0189C17.3039 28.5656 17.3322 28.0557 17.3363 27.999L17.3241 25.684C17.1218 24.1501 18.085 23.4863 18.6233 23.3487C18.6354 23.3487 18.6476 23.3447 18.6638 23.3406C21.6385 22.8914 23.7876 23.0128 23.8807 23.0209C25.3741 22.9683 25.961 23.9194 26.046 24.4253L26.3131 26.109C26.6652 28.4118 25.3094 28.9582 25.0423 29.0392C23.395 29.6058 21.2419 29.6786 20.226 29.6786V29.6827ZM18.8095 24.1379C18.6678 24.1825 17.9676 24.4658 18.1295 25.599C18.1295 25.6152 18.1295 25.6354 18.1295 25.6516L18.1417 28.0274C18.1417 28.0597 18.1376 28.2823 18.3278 28.4807C18.5707 28.7316 19.0361 28.8651 19.6675 28.8651C19.712 28.8651 22.7394 28.9785 24.7792 28.2783C24.7954 28.2742 24.8075 28.2702 24.8237 28.2661C24.8561 28.2581 25.7829 27.995 25.5117 26.2385L25.2446 24.5629C25.2284 24.4941 25.0423 23.8061 23.8645 23.8344C23.8078 23.8344 21.679 23.713 18.8054 24.142L18.8095 24.1379Z" fill="black"/>
<path d="M39.657 55.6499C43.524 55.6499 46.6588 52.8956 46.6588 49.498C46.6588 46.1005 43.524 43.3462 39.657 43.3462C35.7901 43.3462 32.6553 46.1005 32.6553 49.498C32.6553 52.8956 35.7901 55.6499 39.657 55.6499Z" fill="white"/>
<path d="M39.657 56.0547C35.5733 56.0547 32.2505 53.1123 32.2505 49.4981C32.2505 45.8839 35.5733 42.9415 39.657 42.9415C43.7407 42.9415 47.0635 45.8839 47.0635 49.4981C47.0635 53.1123 43.7407 56.0547 39.657 56.0547ZM39.657 43.755C36.0185 43.755 33.0599 46.3331 33.0599 49.5021C33.0599 52.6711 36.0185 55.2493 39.657 55.2493C43.2955 55.2493 46.254 52.6711 46.254 49.5021C46.254 46.3331 43.2955 43.755 39.657 43.755Z" fill="black"/>
<path d="M39.657 53.8732C42.4086 53.8732 44.6392 51.9144 44.6392 49.4981C44.6392 47.0818 42.4086 45.123 39.657 45.123C36.9054 45.123 34.6748 47.0818 34.6748 49.4981C34.6748 51.9144 36.9054 53.8732 39.657 53.8732Z" fill="black"/>
<path d="M39.6569 54.2779C36.6862 54.2779 34.27 52.1328 34.27 49.4981C34.27 46.8633 36.6862 44.7183 39.6569 44.7183C42.6276 44.7183 45.0438 46.8633 45.0438 49.4981C45.0438 52.1328 42.6276 54.2779 39.6569 54.2779ZM39.6569 45.5277C37.1355 45.5277 35.0795 47.3085 35.0795 49.4981C35.0795 51.6876 37.1314 53.4684 39.6569 53.4684C42.1824 53.4684 44.2344 51.6876 44.2344 49.4981C44.2344 47.3085 42.1824 45.5277 39.6569 45.5277Z" fill="black"/>
<path d="M27.4265 51.2708C27.2687 51.2708 27.1189 51.1777 27.0542 51.0198C26.9692 50.8134 27.0663 50.5746 27.2727 50.4896C28.236 50.089 29.0616 48.7453 29.0697 48.7291C29.1871 48.5389 29.434 48.4782 29.6242 48.5955C29.8144 48.7129 29.8751 48.9598 29.7578 49.15C29.7173 49.2148 28.7864 50.7325 27.5803 51.2343C27.5277 51.2546 27.4751 51.2667 27.4265 51.2667V51.2708Z" fill="black"/>
<path d="M46.6589 57.5887C46.5779 57.5887 46.497 57.5644 46.4282 57.5158C45.0319 56.5404 45.5054 54.6868 45.5297 54.6058C45.5864 54.3913 45.809 54.2618 46.0235 54.3185C46.238 54.3752 46.3675 54.5978 46.3108 54.8123C46.2946 54.8689 45.9628 56.2005 46.8936 56.848C47.0758 56.9775 47.1203 57.2285 46.9948 57.4106C46.9179 57.5239 46.7925 57.5846 46.6629 57.5846L46.6589 57.5887Z" fill="black"/>
<path d="M39.1473 58.2847C37.5608 58.2847 36.4356 58.0419 36.3344 58.0176C29.1303 55.9859 28.2885 50.0162 28.2804 49.9555C28.2521 49.7329 28.4099 49.5305 28.6325 49.5022C28.8551 49.4739 29.0575 49.6317 29.0858 49.8543C29.1182 50.089 29.8912 55.3626 36.5328 57.2365C36.5651 57.2446 41.7659 58.3616 45.6027 55.6176C45.7848 55.4881 46.0398 55.5286 46.1652 55.7107C46.2947 55.8928 46.2543 56.1437 46.0721 56.2773C43.7814 57.9124 41.1143 58.2888 39.1473 58.2888V58.2847Z" fill="black"/>
<path d="M37.8884 36.7087C37.8035 37.0528 37.7549 37.4089 37.7549 37.7772C37.7549 40.238 39.7502 42.2292 42.2069 42.2292C44.6636 42.2292 46.6589 40.2339 46.6589 37.7772C46.6589 37.5141 46.6305 37.2551 46.586 37.0042L37.8844 36.7087H37.8884Z" fill="white"/>
<path d="M42.2068 42.6379C39.5275 42.6379 37.3501 40.4605 37.3501 37.7812C37.3501 37.4007 37.3987 37.0082 37.4958 36.6115C37.5403 36.4253 37.6901 36.2999 37.9005 36.3039L46.6021 36.5994C46.7924 36.6075 46.9543 36.7451 46.9866 36.9353C47.0392 37.2308 47.0635 37.51 47.0635 37.7771C47.0635 40.4564 44.8861 42.6338 42.2068 42.6338V42.6379ZM38.2162 37.1255C38.1798 37.3481 38.1595 37.5667 38.1595 37.7812C38.1595 40.0153 39.9768 41.8284 42.2068 41.8284C44.4369 41.8284 46.2541 40.0112 46.2541 37.7812C46.2541 37.6557 46.246 37.5302 46.2338 37.4007L38.2122 37.1255H38.2162Z" fill="black"/>
<path d="M46.5861 37.413H46.5739L37.8723 37.1175C37.7509 37.1135 37.6376 37.0528 37.5647 36.9556C37.4919 36.8585 37.4636 36.733 37.4959 36.6157C38.0342 34.4423 39.9688 32.9246 42.207 32.9246C44.5706 32.9246 46.578 34.6123 46.9868 36.9394C47.007 37.0609 46.9746 37.1823 46.8937 37.2754C46.8168 37.3644 46.7035 37.413 46.5901 37.413H46.5861ZM38.4309 36.3243L46.0721 36.5833C45.5581 34.9037 44.0039 33.73 42.207 33.73C40.5152 33.73 39.0258 34.7742 38.4349 36.3202L38.4309 36.3243Z" fill="black"/>
<path d="M41.9882 48.207C42.5023 48.207 42.9191 47.7902 42.9191 47.2761C42.9191 46.762 42.5023 46.3452 41.9882 46.3452C41.4741 46.3452 41.0574 46.762 41.0574 47.2761C41.0574 47.7902 41.4741 48.207 41.9882 48.207Z" fill="white"/>
<path d="M41.9882 48.6158C41.2516 48.6158 40.6526 48.0168 40.6526 47.2802C40.6526 46.5436 41.2516 45.9446 41.9882 45.9446C42.7248 45.9446 43.3238 46.5436 43.3238 47.2802C43.3238 48.0168 42.7248 48.6158 41.9882 48.6158ZM41.9882 46.754C41.6968 46.754 41.462 46.9888 41.462 47.2802C41.462 47.5716 41.6968 47.8063 41.9882 47.8063C42.2796 47.8063 42.5143 47.5716 42.5143 47.2802C42.5143 46.9888 42.2796 46.754 41.9882 46.754Z" fill="black"/>
<path d="M29.4335 38.4167C29.3323 38.4167 29.2311 38.3763 29.1542 38.3075C29.0652 38.2225 29.0207 38.1051 29.0288 37.9837C29.2271 35.3894 31.4207 33.3577 34.0231 33.3577C36.156 33.3577 38.0582 34.7135 38.7543 36.729C38.7948 36.8424 38.7786 36.9719 38.7139 37.0731C38.6491 37.1783 38.5439 37.2471 38.4225 37.2592L29.4821 38.4127C29.4821 38.4127 29.4456 38.4127 29.4294 38.4127L29.4335 38.4167ZM34.0231 34.1631C32.0116 34.1631 30.2915 35.612 29.907 37.5425L37.7992 36.5267C37.1031 35.0939 35.642 34.1631 34.0271 34.1631H34.0231Z" fill="black"/>
<path d="M29.4337 38.012C29.4256 38.1294 29.4175 38.2467 29.4175 38.3641C29.4175 40.9098 31.4816 42.9699 34.0233 42.9699C36.5649 42.9699 38.629 40.9058 38.629 38.3641C38.629 37.8339 38.536 37.3321 38.37 36.8585L29.4296 38.012H29.4337Z" fill="white"/>
<path d="M34.0232 43.3787C31.2589 43.3787 29.0127 41.1324 29.0127 38.3681C29.0127 38.2386 29.0208 38.1091 29.0329 37.9837C29.0491 37.7934 29.1948 37.6396 29.385 37.6154L38.3254 36.4619C38.5116 36.4376 38.6978 36.5509 38.7585 36.729C38.9447 37.2632 39.0378 37.8137 39.0378 38.3681C39.0378 41.1324 36.7915 43.3787 34.0273 43.3787H34.0232ZM29.8221 38.3722C29.8221 40.6872 31.7082 42.5692 34.0232 42.5692C36.3382 42.5692 38.2243 40.6832 38.2243 38.3681C38.2243 38.012 38.1757 37.6558 38.0867 37.3078L29.8221 38.3722Z" fill="black"/>
<path d="M38.3698 36.8585L33.5212 37.4818C33.4929 37.6518 33.4727 37.8299 33.4727 38.0079C33.4727 39.7159 34.8568 41.1001 36.5648 41.1001C37.0585 41.1001 37.528 40.9786 37.9408 40.7722C38.3739 40.072 38.6248 39.2464 38.6248 38.3641C38.6248 37.8339 38.5317 37.3321 38.3658 36.8585H38.3698Z" fill="black"/>
<path d="M36.5652 41.5047C34.6387 41.5047 33.0684 39.9384 33.0684 38.0078C33.0684 37.8176 33.0846 37.6233 33.121 37.4129C33.1493 37.2389 33.291 37.1012 33.469 37.081L38.3177 36.4577C38.5038 36.4335 38.69 36.5468 38.7507 36.7249C38.9369 37.2591 39.03 37.8095 39.03 38.364C39.03 39.2868 38.771 40.1934 38.2853 40.9866C38.2448 41.0514 38.1881 41.104 38.1234 41.1364C37.6337 41.3833 37.1075 41.5047 36.5652 41.5047ZM33.8859 37.8419C33.8859 37.8986 33.8819 37.9552 33.8819 38.0078C33.8819 39.4891 35.0879 40.6952 36.5692 40.6952C36.9497 40.6952 37.3139 40.6143 37.662 40.4605C38.0344 39.821 38.2286 39.0965 38.2286 38.364C38.2286 38.0078 38.1801 37.6517 38.091 37.3036L33.89 37.8459L33.8859 37.8419Z" fill="black"/>
<path d="M46.6021 37.1297C46.5778 37.0892 46.5495 37.0447 46.5211 37.0042L42.3484 36.8625C41.9882 37.3077 41.7737 37.8744 41.7737 38.4936C41.7737 39.9344 42.9433 41.1041 44.3842 41.1041C44.7363 41.1041 45.0722 41.0353 45.3757 40.9058C46.169 40.1004 46.6587 38.9995 46.6587 37.7813C46.6587 37.5587 46.6344 37.3442 46.6021 37.1297Z" fill="black"/>
<path d="M44.3841 41.5047C42.7207 41.5047 41.3689 40.1529 41.3689 38.4936C41.3689 37.8096 41.6036 37.1418 42.0326 36.6075C42.1136 36.5064 42.2391 36.4497 42.3605 36.4578L46.5332 36.5994C46.6587 36.6035 46.776 36.6683 46.8489 36.7694C46.8772 36.814 46.9056 36.8585 46.9339 36.903C46.9622 36.9475 46.9865 37.0123 46.9946 37.0649C47.0351 37.332 47.0553 37.5586 47.0553 37.7772C47.0553 39.0602 46.5575 40.2703 45.6549 41.185C45.6185 41.2255 45.57 41.2538 45.5214 41.274C45.1571 41.4238 44.7686 41.5007 44.376 41.5007L44.3841 41.5047ZM42.5507 37.2713C42.3079 37.6315 42.1824 38.0524 42.1824 38.4895C42.1824 39.7037 43.1699 40.6912 44.3882 40.6912C44.6512 40.6912 44.9062 40.6467 45.149 40.5536C45.8654 39.7968 46.258 38.8133 46.258 37.7732C46.258 37.6558 46.2499 37.5303 46.2337 37.3927L42.5507 37.2672V37.2713Z" fill="black"/>
</svg>
