<svg width="111" height="110" viewBox="0 0 111 110" fill="none" xmlns="http://www.w3.org/2000/svg">
<path d="M69.3804 68.1151C71.9431 71.4017 74.642 74.5124 76.7075 78.0189C76.9358 76.6009 78.7915 74.8569 80.1686 74.4245C80.1686 74.4245 84.1156 72.9003 86.3837 75.8205C86.3837 75.8205 88.2026 77.8174 87.4957 80.6606C87.1201 82.1628 86.1334 83.4416 85.0545 84.5591C83.4823 86.1896 81.5898 87.5782 79.4211 88.2414C77.2488 88.9046 74.7745 88.78 72.8452 87.5855C71.8142 86.948 70.9784 86.0393 70.1794 85.127C66.9062 81.3824 62.0681 75.0437 59.5607 70.7532" fill="#FF88BE"/>
<path d="M76.7847 89.106C75.2604 89.106 73.795 88.725 72.5947 87.9812C71.5048 87.307 70.6285 86.3507 69.8221 85.431C66.5636 81.7011 61.7145 75.3734 59.1518 70.9839C59.0193 70.7604 59.0966 70.471 59.3212 70.3427C59.5458 70.2145 59.833 70.2878 59.9655 70.5113C62.4987 74.8494 67.3 81.1185 70.5328 84.8155C71.2912 85.6802 72.1086 86.5779 73.0917 87.1824C74.7817 88.2303 77.094 88.4538 79.2811 87.787C81.1626 87.2117 82.9925 86.0136 84.7157 84.2292C85.5294 83.3865 86.6561 82.0858 87.039 80.5433C87.676 77.9895 86.1038 76.2051 86.0338 76.1318C83.983 73.4938 80.3746 74.8458 80.3378 74.8604C79.0933 75.2525 77.3702 76.8463 77.1713 78.0921C77.1382 78.2863 76.9872 78.4438 76.7921 78.4805C76.5933 78.5171 76.3981 78.4292 76.2987 78.257C74.7155 75.5712 72.7935 73.164 70.7574 70.6175C70.1719 69.8847 69.5828 69.1483 69.0011 68.4008C68.8427 68.1956 68.8796 67.9025 69.0857 67.7413C69.2919 67.5801 69.5865 67.6204 69.7485 67.8256C70.3266 68.5694 70.912 69.3022 71.4974 70.0313C73.2611 72.237 75.0763 74.5124 76.5969 76.9343C77.3002 75.6152 78.8282 74.3475 80.0248 73.9737C80.0396 73.9664 84.2996 72.3689 86.7555 75.5273C86.8144 75.5896 88.7106 77.7183 87.9521 80.7668C87.5139 82.5292 86.2805 83.9544 85.3931 84.8778C83.5595 86.7794 81.5934 88.0618 79.5572 88.6847C78.6404 88.9668 77.7015 89.1024 76.7847 89.1024V89.106Z" fill="black"/>
<path d="M49.8365 69.9546L49.8954 78.8544C48.3306 77.169 45.385 77.1763 43.6508 78.6859C41.9166 80.1954 41.449 82.8701 42.318 84.9953C43.1869 87.1204 45.2157 88.6592 47.4469 89.2308C49.6782 89.8024 52.0788 89.4836 54.2217 88.6409C55.3668 88.1903 56.4714 87.5857 57.3404 86.7173C59.8809 84.1855 59.892 80.1588 59.7373 76.5827C59.5974 73.3951 59.7005 73.9337 59.5643 70.7423" fill="#FF88BE"/>
<path d="M49.807 89.9965C49.008 89.9965 48.1759 89.9085 47.3254 89.6887C44.84 89.0512 42.7524 87.3218 41.8761 85.1747C40.904 82.7931 41.5189 79.9168 43.3378 78.334C45.0315 76.8611 47.6346 76.7182 49.4167 77.8504L49.3652 69.9581C49.3652 69.698 49.575 69.4891 49.8328 69.4855C50.0905 69.4855 50.3041 69.6943 50.3041 69.9508L50.363 78.8506C50.363 79.0448 50.2451 79.2207 50.0647 79.2903C49.8843 79.3599 49.6781 79.316 49.5456 79.1731C48.2017 77.7258 45.5396 77.6635 43.9564 79.0412C42.432 80.3675 41.9239 82.8004 42.7487 84.8229C43.5145 86.7026 45.3592 88.2194 47.5573 88.7837C50.0684 89.4286 52.469 88.8277 54.0412 88.2121C55.3005 87.7175 56.2688 87.1239 57.0015 86.3948C59.3764 84.0278 59.4206 80.2649 59.2623 76.6119C59.1923 75.0108 59.1849 74.3329 59.1739 73.6771C59.1665 73.0286 59.1555 72.358 59.0855 70.7715C59.0745 70.5114 59.277 70.2952 59.5347 70.2842C59.8035 70.2842 60.0134 70.4747 60.0244 70.7312C60.0944 72.3324 60.1017 73.0102 60.1128 73.6661C60.1202 74.3146 60.1312 74.9851 60.2012 76.5716C60.3632 80.2649 60.3116 84.4236 57.6643 87.058C56.8395 87.8787 55.7644 88.5419 54.3837 89.0841C53.2054 89.5458 51.5927 90.0001 49.7996 90.0001L49.807 89.9965Z" fill="black"/>
<path d="M51.5412 70.5297C51.5412 70.5297 62.2226 73.1201 69.9326 67.9246C70.9635 67.375 72.0092 66.7558 73.0733 66.067C76.7847 63.6597 80.1648 60.7945 83.1361 57.5335L88.1656 50.6269C92.9043 41.7454 92.0833 31.413 85.4852 25.0962C77.7494 17.6913 64.4723 18.4461 55.1164 26.7743C44.5897 19.9667 31.353 21.2344 24.8397 29.7275C19.2615 37.0042 20.1268 47.4466 26.2093 55.4963L32.3214 61.432C33.0578 61.9596 33.8273 62.4579 34.5968 62.9049C35.4363 63.4435 36.1212 63.8722 36.7361 64.1947L37.5866 64.6453C41.1065 66.5066 44.1442 68.1115 47.6715 69.3829C48.9859 69.8555 50.2746 70.2329 51.5375 70.5334C51.4897 70.5847 51.4528 70.6433 51.4344 70.7166" fill="#FF88BE"/>
<path d="M57.6202 71.3066C54.4905 71.3066 51.1252 70.6617 47.5795 69.3866C44.0521 68.1152 41.0108 66.5068 37.4909 64.6454L36.6477 64.1984C35.9702 63.8394 35.186 63.3447 34.5085 62.9087C33.7316 62.458 32.951 61.9524 32.211 61.4248C32.2036 61.4211 32.1999 61.4175 32.1926 61.4101C31.9827 61.2599 31.7728 61.106 31.5629 60.9485C26.3824 57.017 22.8146 51.6126 21.5222 45.7356C20.2225 39.8256 21.3676 34.1464 24.7476 29.735C31.261 21.2418 44.4977 19.9778 55.0207 26.7855C64.3765 18.4572 77.6537 17.6988 85.3895 25.1074C93.3793 32.7541 92.908 46.2852 84.3475 56.0021C84.3291 56.0571 84.2996 56.1084 84.2591 56.156C81.0006 59.9958 77.2045 63.3337 72.9739 66.0781C68.2389 69.1448 63.8648 70.8303 59.601 71.2186C58.9493 71.2773 58.2866 71.3102 57.6128 71.3102L57.6202 71.3066ZM32.7743 60.6773C33.5107 61.2013 34.2471 61.674 34.9982 62.1136C35.6794 62.5496 36.4415 63.0333 37.0859 63.374L37.9327 63.821C41.4232 65.6677 44.4351 67.2579 47.8998 68.5073C52.0751 70.0132 55.9854 70.6068 59.52 70.2843C63.6291 69.9069 67.8634 68.2728 72.4621 65.2903C76.5528 62.6376 80.2311 59.4206 83.3975 55.72C83.416 55.6577 83.4491 55.5991 83.497 55.5478C91.8624 46.2009 92.4073 33.1278 84.7378 25.7852C77.2818 18.6441 64.3876 19.4978 55.3852 27.7234C55.2232 27.87 54.9839 27.8883 54.8035 27.7674C44.6449 21.0037 31.7691 22.1175 25.4951 30.3029C22.2881 34.4908 21.2019 39.8989 22.4427 45.5341C23.6909 51.1986 27.1299 56.4088 32.1336 60.2047C32.3362 60.3586 32.5387 60.5051 32.7412 60.6517C32.7522 60.659 32.7633 60.67 32.7743 60.6773Z" fill="black"/>
<path d="M54.2045 49.5846C56.674 49.396 58.4725 46.6048 58.2214 43.3503C57.9703 40.0959 55.7648 37.6106 53.2953 37.7993C50.8258 37.9879 49.0274 40.7791 49.2785 44.0335C49.5295 47.288 51.735 49.7733 54.2045 49.5846Z" fill="white"/>
<path d="M53.9419 50.0663C51.3388 50.0663 49.067 47.4502 48.8056 44.072C48.6767 42.3975 49.0523 40.7781 49.866 39.5176C50.7055 38.2133 51.9095 37.4402 53.2571 37.3376C55.9744 37.1287 58.4192 39.8144 58.688 43.3209C58.8168 44.9953 58.4413 46.6148 57.6276 47.8752C56.7881 49.1796 55.5841 49.9527 54.2365 50.0553C54.1371 50.0626 54.0377 50.0663 53.9382 50.0663H53.9419ZM53.559 38.2609C53.4817 38.2609 53.408 38.2609 53.3307 38.2682C52.2887 38.3488 51.3388 38.9717 50.6613 40.0196C49.958 41.1115 49.6304 42.5258 49.7445 43.9987C49.9765 46.9922 51.9647 49.2785 54.1665 49.1173C55.2085 49.0367 56.1585 48.4138 56.8359 47.3659C57.5392 46.274 57.8669 44.8597 57.7528 43.3868C57.5282 40.4996 55.6724 38.2572 53.559 38.2572V38.2609Z" fill="black"/>
<path d="M55.1349 39.9355C54.0266 40.0198 53.1651 41.086 52.911 42.5003L54.0414 43.2478L52.9478 44.4459C53.305 46.1057 54.4427 47.2928 55.6946 47.1975C57.0827 47.0913 58.0915 45.4461 57.9884 43.4932C57.959 43.1781 57.9148 42.874 57.8559 42.5736C57.473 40.9724 56.3573 39.8366 55.1349 39.9318V39.9355Z" fill="black"/>
<path d="M55.5583 47.6738C54.1592 47.6738 52.8852 46.3914 52.4875 44.5447C52.4544 44.3982 52.4986 44.2443 52.598 44.1307L53.3233 43.3356L52.6495 42.8886C52.4949 42.786 52.4139 42.5991 52.447 42.416C52.7453 40.7488 53.813 39.5617 55.1017 39.4628C56.5524 39.3492 57.8706 40.5876 58.3198 42.4672C58.386 42.8007 58.4339 43.1268 58.4634 43.4492C58.5812 45.6952 57.3845 47.5382 55.735 47.6628C55.6761 47.6664 55.6172 47.6701 55.562 47.6701L55.5583 47.6738ZM53.4633 44.5777C53.8241 45.9077 54.7188 46.8017 55.6577 46.7321C56.7733 46.6479 57.6055 45.2042 57.5171 43.5188C57.4913 43.244 57.4508 42.9509 57.3956 42.6651C57.0679 41.2874 56.1437 40.3311 55.1717 40.4008C54.3874 40.4594 53.7136 41.2032 53.4375 42.284L54.3027 42.8556C54.4169 42.9326 54.4942 43.0535 54.5089 43.1891C54.5273 43.3246 54.4832 43.4602 54.3911 43.5628L53.4633 44.5777Z" fill="black"/>
<path d="M50.9231 39.2909C50.8126 39.2909 50.7021 39.2542 50.6137 39.1773L48.8277 37.6345C48.6325 37.4659 48.6104 37.1691 48.7798 36.9712C48.9492 36.777 49.2475 36.755 49.4464 36.9235L51.2324 38.4663C51.4276 38.6349 51.4497 38.9317 51.2803 39.1296C51.1882 39.2359 51.0556 39.2909 50.9231 39.2909Z" fill="black"/>
<path d="M52.6717 38.0085C52.4581 38.0085 52.2629 37.8619 52.2114 37.6457L51.8247 35.9966C51.7658 35.7438 51.9241 35.4909 52.1782 35.4323C52.4286 35.3737 52.6864 35.5312 52.7453 35.7841L53.132 37.4332C53.1909 37.686 53.0326 37.9389 52.7785 37.9975C52.7416 38.0048 52.7085 38.0085 52.6717 38.0085Z" fill="black"/>
<path d="M54.4759 38.3861C54.3838 38.3861 54.2954 38.3604 54.2144 38.3054C53.9971 38.1625 53.9382 37.8694 54.0855 37.6532L55.3965 35.7073C55.5401 35.491 55.8347 35.4361 56.052 35.579C56.2693 35.7219 56.3282 36.0151 56.1809 36.2313L54.8699 38.1772C54.7778 38.3128 54.6305 38.3861 54.4759 38.3861Z" fill="black"/>
<path d="M63.4825 48.8762C65.952 48.6876 67.7504 45.8964 67.4993 42.642C67.2483 39.3875 65.0428 36.9022 62.5733 37.0909C60.1038 37.2796 58.3053 40.0707 58.5564 43.3252C58.8075 46.5796 61.013 49.0649 63.4825 48.8762Z" fill="white"/>
<path d="M63.213 49.359C61.9759 49.359 60.7829 48.7801 59.833 47.7065C58.8352 46.5817 58.2129 45.0392 58.0841 43.3647C57.8153 39.8583 59.8109 36.8355 62.5356 36.6266C65.2602 36.4141 67.6977 39.1035 67.9664 42.6099C68.0953 44.2844 67.7198 45.9039 66.9024 47.1643C66.0629 48.4687 64.8589 49.2418 63.5113 49.3443C63.4082 49.3517 63.3088 49.3553 63.2094 49.3553L63.213 49.359ZM62.8375 37.5536C62.7602 37.5536 62.6865 37.5536 62.6092 37.561C60.4037 37.7295 58.7947 40.3016 59.0267 43.2914C59.1408 44.7644 59.6784 46.1127 60.5399 47.0837C61.3721 48.018 62.4067 48.487 63.445 48.41C64.4907 48.3294 65.4369 47.7065 66.1144 46.6586C66.8177 45.5668 67.1454 44.1525 67.0312 42.6796C66.8066 39.7923 64.9509 37.55 62.8375 37.55V37.5536Z" fill="black"/>
<path d="M65.0689 38.2137C64.9621 38.2137 64.8516 38.1771 64.7632 38.1038C64.5643 37.9352 64.5386 37.6384 64.708 37.4442L66.2362 35.6485C66.4056 35.4506 66.7002 35.425 66.8991 35.5935C67.098 35.7621 67.1237 36.0589 66.9543 36.2532L65.4261 38.0488C65.334 38.1587 65.2014 38.2137 65.0652 38.2137H65.0689Z" fill="black"/>
<path d="M63.1431 37.2098C63.1431 37.2098 63.1173 37.2098 63.1063 37.2098C62.8448 37.1915 62.6533 36.9642 62.6718 36.7077L62.8006 35.0183C62.8191 34.7582 63.0474 34.5639 63.3052 34.5859C63.5666 34.6042 63.7581 34.8315 63.7397 35.088L63.6108 36.7774C63.5924 37.0229 63.3862 37.2098 63.1394 37.2098H63.1431Z" fill="black"/>
<path d="M61.4203 37.8583C61.2914 37.8583 61.1662 37.807 61.0741 37.708L59.4796 35.982C59.3028 35.7914 59.3175 35.4946 59.509 35.3187C59.7005 35.1428 59.9988 35.1575 60.1756 35.348L61.7701 37.074C61.9469 37.2646 61.9322 37.5614 61.7407 37.7373C61.6486 37.8216 61.5344 37.8619 61.4203 37.8619V37.8583Z" fill="black"/>
<path d="M62.3299 40.0636L59.196 42.9513C60.2861 43.8968 61.4498 44.7103 62.6613 45.3773" fill="white"/>
<path d="M62.6607 45.849C62.5834 45.849 62.5061 45.8307 62.4325 45.7904C61.1916 45.1089 59.9987 44.2735 58.8867 43.3062C58.7873 43.2183 58.7284 43.0937 58.7247 42.9581C58.7247 42.8262 58.7763 42.698 58.8757 42.6064L62.009 39.7192C62.2005 39.5433 62.4987 39.5543 62.6755 39.7448C62.8522 39.9353 62.8412 40.2321 62.6497 40.408L59.9066 42.9361C60.8529 43.7166 61.8544 44.3981 62.889 44.966C63.1173 45.0906 63.1983 45.3764 63.0731 45.6035C62.9884 45.7574 62.8264 45.8453 62.6607 45.8453V45.849Z" fill="black"/>
<path d="M59.8882 43.3907C59.6452 43.3907 59.439 43.2038 59.4169 42.9582C59.3985 42.6981 59.59 42.4745 59.8514 42.4562L62.4955 42.2546C62.7496 42.2363 62.9816 42.4269 63 42.6871C63.0184 42.9472 62.8269 43.1708 62.5655 43.1891L59.9214 43.3907C59.9214 43.3907 59.8956 43.3907 59.8846 43.3907H59.8882Z" fill="black"/>
<path d="M60.1024 51.84C59.9367 51.84 59.7746 51.752 59.6899 51.5981C59.4984 51.25 59.097 51.0228 58.6183 50.9898C58.1469 50.9568 57.7124 51.1254 57.473 51.4442C57.3184 51.6531 57.0238 51.6934 56.8139 51.5395C56.6039 51.3856 56.5634 51.0924 56.7181 50.8835C57.149 50.3082 57.8781 49.9967 58.6846 50.0516C59.4837 50.1066 60.1687 50.517 60.5148 51.1474C60.64 51.3746 60.5553 51.6604 60.327 51.785C60.2534 51.8253 60.176 51.8436 60.1024 51.8436V51.84Z" fill="black"/>
<path d="M76.3098 81.5993C76.0594 81.5993 75.8531 81.4051 75.8384 81.1559C75.8347 81.0716 75.7316 79.122 76.2729 77.8394C76.3761 77.6012 76.6523 77.4876 76.8916 77.5902C77.131 77.6892 77.2451 77.9677 77.142 78.2059C76.6854 79.2869 76.7775 81.0899 76.7775 81.1082C76.7922 81.3684 76.5933 81.5883 76.3319 81.6029C76.3245 81.6029 76.3135 81.6029 76.3061 81.6029L76.3098 81.5993Z" fill="black"/>
<path d="M51.7772 80.9541C51.6262 80.9541 51.4752 80.8808 51.3868 80.7452C50.8271 79.917 49.6781 79.2684 49.667 79.2647C49.4387 79.1364 49.3577 78.8506 49.4866 78.627C49.6155 78.3998 49.9027 78.3192 50.1274 78.4475C50.1826 78.4768 51.4862 79.2134 52.1675 80.2248C52.3148 80.441 52.2559 80.7305 52.0386 80.8771C51.9576 80.9321 51.8655 80.9577 51.7772 80.9577V80.9541Z" fill="black"/>
<path d="M82.5433 26.4079C82.315 25.6934 81.9837 25.1841 81.5308 24.8507C80.938 24.422 80.1979 24.3561 79.6935 24.3451C78.6257 24.3194 77.5322 24.51 76.5344 24.891C76.516 24.8984 76.5049 24.913 76.4865 24.9203C76.0962 24.2681 75.4114 23.8871 74.6455 23.9457C74.0527 23.8944 73.4857 24.1656 72.9813 24.7042C72.186 23.6892 71.0814 22.9454 69.8332 22.5937C69.0858 22.3849 68.493 22.4215 68.0217 22.7036C67.4694 23.037 67.2227 23.6416 67.0533 24.1875C66.4053 26.2797 66.1733 28.5367 66.3832 30.7168C66.4164 31.0502 66.4679 31.4349 66.7072 31.761C67.1307 32.3399 67.8744 32.4205 68.4746 32.4278C69.1741 32.4352 69.8811 32.4132 70.5807 32.3582C70.9452 32.3289 71.306 32.2886 71.6668 32.2446C72.0498 32.721 72.5836 33.0251 73.1507 33.0617C73.2317 33.0654 73.3127 33.0654 73.3973 33.0617C73.8834 33.0251 74.3694 32.7942 74.7634 32.4205C75.1684 33.3512 76.0042 34.0034 76.9063 34.6409C77.5175 35.0732 78.2244 35.5166 79.0087 35.458C79.1081 35.4506 79.2075 35.436 79.3106 35.4103C80.1059 35.2161 80.5882 34.5493 80.9895 33.8605C82.6943 30.9366 83.2024 28.5001 82.5433 26.4116V26.4079Z" fill="#FF3351"/>
<path d="M73.2574 33.069C73.2206 33.069 73.1875 33.069 73.1507 33.069C72.3554 33.0214 71.6227 32.4498 71.2839 31.6107C70.9783 30.856 71.0225 30.0535 71.0998 29.4417C71.2655 28.086 71.7073 26.7413 72.3738 25.5505C72.9923 24.444 73.8024 23.8797 74.6455 23.9493C75.6029 23.8724 76.4534 24.4879 76.7259 25.4699C76.9615 26.3053 76.7259 27.1517 76.5344 27.8332L75.8864 30.1525C75.717 30.7497 75.5292 31.4275 75.1205 32.0064C74.6529 32.6696 73.946 33.0727 73.2538 33.0727L73.2574 33.069ZM74.513 24.88C73.9018 24.88 73.3937 25.6604 73.1985 26.0048C72.591 27.0894 72.1897 28.3168 72.035 29.5516C71.943 30.2954 71.9835 30.8193 72.1602 31.2553C72.3259 31.6694 72.7162 32.098 73.2096 32.1274C73.6109 32.153 74.0528 31.8892 74.3547 31.4642C74.6676 31.0172 74.8296 30.4493 74.9843 29.896L75.6323 27.5767C75.8017 26.9795 75.9895 26.3016 75.8238 25.719C75.6949 25.2574 75.2973 24.8177 74.7008 24.8837C74.664 24.8873 74.6308 24.8873 74.594 24.8837C74.5682 24.8837 74.5388 24.88 74.513 24.88Z" fill="black"/>
<path d="M68.7212 32.4315C68.6365 32.4315 68.5518 32.4315 68.4708 32.4315C68.0842 32.4278 67.1821 32.4169 66.7034 31.7647C66.4641 31.4386 66.4126 31.0539 66.3794 30.7204C66.1696 28.5404 66.4015 26.2833 67.0496 24.1912C67.2189 23.6416 67.4693 23.037 68.0179 22.7073C68.4892 22.4252 69.082 22.3885 69.8294 22.5974C71.1881 22.9784 72.3773 23.8211 73.1837 24.9753C73.331 25.1878 73.2794 25.4809 73.0659 25.6275C72.8523 25.774 72.5578 25.7227 72.4105 25.5102C71.7404 24.5503 70.7057 23.8175 69.5754 23.5024C69.1004 23.3705 68.7396 23.3705 68.5076 23.5134C68.2278 23.6819 68.0768 24.074 67.9516 24.4733C67.3404 26.4482 67.1232 28.5807 67.3183 30.6362C67.3404 30.856 67.3699 31.0832 67.4656 31.2187C67.6423 31.4606 68.0989 31.4935 68.4782 31.4972C69.5717 31.5082 70.6726 31.4422 71.7514 31.2993C72.0128 31.2627 72.2448 31.4459 72.2816 31.7024C72.3148 31.9589 72.1343 32.1934 71.8766 32.23C70.8346 32.3656 69.7742 32.4352 68.7212 32.4352V32.4315Z" fill="black"/>
<path d="M78.8612 35.4615C78.1359 35.4615 77.4768 35.0475 76.9024 34.6408C75.8752 33.9153 74.9252 33.1679 74.6159 32.0064C74.5497 31.7572 74.697 31.5008 74.951 31.4311C75.2014 31.3652 75.4628 31.5118 75.5291 31.7646C75.7574 32.6219 76.5711 33.2522 77.4511 33.875C77.9702 34.2414 78.5667 34.6225 79.0822 34.4979C79.535 34.388 79.8738 33.897 80.172 33.3877C81.7369 30.702 82.2192 28.5146 81.6448 26.6899C81.4828 26.1807 81.2582 25.8179 80.9747 25.6127C80.6875 25.4039 80.2751 25.3013 79.6713 25.2866C78.725 25.2683 77.753 25.4332 76.8693 25.7703C76.6263 25.8619 76.3538 25.741 76.2618 25.4992C76.1697 25.2573 76.2912 24.9862 76.5343 24.8946C77.5321 24.5135 78.6219 24.3267 79.6934 24.3487C80.1978 24.3597 80.9379 24.4256 81.5307 24.8543C81.9872 25.1841 82.3186 25.6933 82.5432 26.4115C83.2023 28.5 82.6942 30.9365 80.9894 33.8604C80.5881 34.5492 80.1057 35.216 79.3104 35.4102C79.1595 35.4469 79.0122 35.4652 78.8649 35.4652L78.8612 35.4615Z" fill="black"/>
<path d="M71.3617 28.6174C71.3249 28.6174 71.288 28.6137 71.2475 28.6027L68.8723 28.0237C68.6182 27.9614 68.4635 27.7086 68.5261 27.4557C68.5887 27.2029 68.8465 27.0489 69.0969 27.1112L71.4722 27.6903C71.7263 27.7526 71.8809 28.0054 71.8183 28.2583C71.7668 28.4708 71.5716 28.6174 71.3617 28.6174Z" fill="black"/>
<path d="M78.7108 30.0794C78.6593 30.0794 78.6114 30.0721 78.5599 30.0537C77.8454 29.8119 77.0868 29.6946 76.343 29.6946C76.0852 29.6946 75.8716 29.4857 75.8716 29.2292C75.8716 28.969 76.0815 28.7601 76.3393 28.7565C77.2084 28.7565 78.048 28.8884 78.8618 29.1632C79.1086 29.2475 79.2411 29.5114 79.1564 29.7569C79.0901 29.9511 78.906 30.0757 78.7108 30.0757V30.0794Z" fill="black"/>
<path d="M50.3262 56.1784C50.2121 56.1784 50.0979 56.1674 49.9838 56.1381C49.7297 56.0794 49.5713 55.8266 49.6302 55.5737C49.6891 55.3209 49.9432 55.1633 50.1973 55.2219C50.5693 55.3062 50.9854 54.9727 51.1585 54.6136C51.3868 54.1409 51.3831 53.5619 51.3794 52.9975C51.3794 52.7373 51.5894 52.5284 51.8508 52.5248C52.1123 52.5248 52.3222 52.7337 52.3222 52.9938C52.3222 53.6315 52.3259 54.3534 52.0092 55.0167C51.7146 55.6324 51.0701 56.1711 50.3299 56.1711L50.3262 56.1784Z" fill="black"/>
<path d="M56.8323 55.7055C56.8176 56.2002 56.8912 56.6986 57.0459 57.1713C57.1453 57.4791 57.2816 57.7796 57.4657 58.0471C57.9444 58.7507 58.7583 59.2271 59.6126 59.2748C60.467 59.3224 61.3398 58.9266 61.8443 58.2414C62.2346 57.71 62.4003 57.0357 62.4187 56.3761C62.4372 55.7165 62.323 55.0605 62.2015 54.4119" fill="#FF4A4A"/>
<path d="M59.752 59.7502C59.6967 59.7502 59.6415 59.7502 59.5863 59.7465C58.5995 59.6915 57.6385 59.1419 57.0752 58.3139C56.8801 58.0281 56.718 57.6947 56.5965 57.3209C56.4235 56.7933 56.3462 56.2474 56.3609 55.6978C56.3683 55.4376 56.6076 55.2251 56.8469 55.2435C57.1083 55.2508 57.3108 55.467 57.3072 55.7271C57.2961 56.1704 57.3587 56.6138 57.4986 57.0351C57.5944 57.3246 57.7159 57.5811 57.8595 57.7936C58.2608 58.3872 58.9456 58.7792 59.6415 58.8158C60.3411 58.8525 61.0628 58.5227 61.4678 57.9731C61.8433 57.4638 61.9391 56.8226 61.9538 56.372C61.9722 55.7821 61.8691 55.1775 61.7439 54.507C61.6961 54.2505 61.8654 54.0087 62.1232 53.9611C62.3772 53.9134 62.6239 54.082 62.6718 54.3384C62.808 55.0639 62.9185 55.7198 62.8964 56.4013C62.8706 57.233 62.6386 57.9695 62.2299 58.5264C61.6629 59.2958 60.7277 59.7538 59.7593 59.7538L59.752 59.7502Z" fill="black"/>
<path d="M56.4051 55.9982C55.8712 55.9982 55.3299 55.9689 54.7887 55.9066C53.8977 55.804 52.5942 55.5768 51.567 54.7854C51.3608 54.6278 51.324 54.3311 51.4823 54.1259C51.6406 53.9207 51.9388 53.8841 52.145 54.0416C52.7857 54.5362 53.6583 54.8294 54.8991 54.9723C59.0855 55.4522 63.1246 53.9244 65.9782 50.7843C66.1512 50.5938 66.4494 50.5791 66.6446 50.7513C66.8397 50.9236 66.8545 51.2203 66.6777 51.4145C63.9862 54.375 60.3116 55.9982 56.4087 55.9982H56.4051Z" fill="black"/>
<path d="M67.9301 52.0049C66.8216 52.0049 65.507 50.7479 65.4186 49.6009C65.4002 49.3407 65.5917 49.1172 65.8531 49.0989C66.1183 49.0769 66.3392 49.2711 66.3613 49.5313C66.4129 50.1763 67.3188 51.0668 67.9301 51.0668C68.1916 51.0668 68.4015 51.2756 68.4015 51.5358C68.4015 51.796 68.1916 52.0049 67.9301 52.0049Z" fill="black"/>
<path d="M59.7484 57.4789C59.5238 57.4789 59.3249 57.3213 59.2844 57.0941L58.9825 55.4524C58.9346 55.1959 59.104 54.954 59.3618 54.9064C59.6195 54.8587 59.8626 55.0273 59.9105 55.2838L60.2124 56.9256C60.2603 57.1821 60.0909 57.4239 59.8331 57.4716C59.8037 57.4753 59.7742 57.4789 59.7484 57.4789Z" fill="black"/>
<path d="M91.4021 50.3081C91.7924 49.0404 91.855 47.6737 91.5236 46.3913C91.2474 45.3251 90.7614 44.552 90.0729 44.0977C89.2518 43.5554 87.93 43.5187 87.2304 44.4054C87.1973 44.4457 87.1789 44.4934 87.1641 44.5373C86.807 44.2772 86.3872 44.1086 85.9049 44.0977C85.0102 44.072 84.1228 44.6473 83.6921 45.5266C83.3644 46.1935 83.3312 46.8969 83.3975 47.4832C82.5985 47.2927 81.7222 47.4575 81.1331 48.0108C80.1169 48.9598 80.2273 50.473 80.312 51.6894V51.7517C80.3746 52.5688 80.3341 54.0014 79.421 54.4154C79.2516 54.4924 79.1522 54.6573 79.1485 54.8295C77.9519 55.7894 76.4717 56.4087 74.9437 56.5662C74.7633 56.5882 74.6197 56.6981 74.5534 56.8593C74.4908 57.0205 74.5203 57.2074 74.6381 57.3393L78.3422 61.5712C78.4158 61.6555 78.5152 61.7104 78.622 61.7251C79.097 61.802 79.594 61.7947 80.0985 61.7104C81.2251 61.5199 82.3997 60.9373 83.519 59.9957C84.1118 59.4974 84.6567 58.9441 85.1832 58.4092C85.4778 58.1124 85.7613 57.823 86.0522 57.5445C86.1111 57.5591 86.1737 57.5628 86.24 57.5518C86.2584 57.5518 86.2731 57.5445 86.2915 57.5408C89.0714 56.7567 91.958 53.6533 91.6598 50.6672C91.6414 50.5023 91.5383 50.3741 91.3984 50.3008L91.4021 50.3081Z" fill="#FF88BE"/>
<path d="M79.6161 55.3093C79.4357 55.3093 79.2663 55.2068 79.1853 55.0345C79.0786 54.8001 79.1853 54.5216 79.4173 54.4117C80.3304 53.9976 80.3709 52.565 80.312 51.748V51.6857C80.22 50.4692 80.1132 48.9597 81.1294 48.007C82.0462 47.1496 83.6626 47.2083 84.5868 48.1316C85.441 48.9853 85.6288 50.4179 85.0323 51.5391C84.9108 51.7699 84.6273 51.8579 84.3953 51.737C84.1633 51.616 84.075 51.3339 84.1965 51.1031C84.5978 50.3446 84.4763 49.3517 83.9167 48.7948C83.346 48.2232 82.326 48.1756 81.7738 48.6922C81.0852 49.337 81.1699 50.5498 81.2472 51.6197V51.682C81.3835 53.5103 80.868 54.7817 79.8076 55.2654C79.745 55.2947 79.6787 55.3093 79.6124 55.3093H79.6161Z" fill="black"/>
<path d="M87.5801 51.1178C87.4807 51.1178 87.3813 51.0885 87.2966 51.0226C87.0868 50.865 87.0463 50.5719 87.2046 50.3667C87.8232 49.5496 87.9815 48.3259 87.6427 47.0105C87.3924 46.0469 86.7517 45.0613 85.8791 45.0356C85.3452 45.0209 84.8076 45.3947 84.5389 45.9406C84.2222 46.5855 84.2922 47.3183 84.41 47.8166C84.4689 48.0694 84.3106 48.3222 84.0565 48.3808C83.8061 48.4394 83.5484 48.2819 83.4895 48.0291C83.3385 47.3806 83.2502 46.4206 83.692 45.5266C84.1265 44.6472 85.0286 44.072 85.9049 44.0976C87.3629 44.1379 88.2429 45.5632 88.5559 46.776C88.9682 48.3698 88.751 49.8831 87.9594 50.931C87.8673 51.0519 87.7237 51.1178 87.5838 51.1178H87.5801Z" fill="black"/>
<path d="M88.6406 54.0637C88.5007 54.0637 88.3608 54.0014 88.2687 53.8842C88.1067 53.679 88.1435 53.3859 88.3497 53.2246C90.2938 51.7151 91.2217 49.0001 90.6105 46.6221C90.3969 45.7868 90.0397 45.2005 89.55 44.8781C89.0861 44.5703 88.3203 44.541 87.9705 44.9843C87.8085 45.1895 87.5139 45.2225 87.3077 45.0649C87.1015 44.9037 87.0684 44.6106 87.2267 44.4054C87.9263 43.5187 89.2481 43.5554 90.0692 44.0977C90.7577 44.552 91.2474 45.3251 91.5199 46.3913C92.2231 49.1173 91.1591 52.2317 88.9278 53.9648C88.8431 54.0307 88.74 54.0637 88.6369 54.0637H88.6406Z" fill="black"/>
<path d="M86.1626 57.5664C85.9564 57.5664 85.7686 57.4308 85.7097 57.2257C85.6397 56.9765 85.7833 56.7164 86.0337 56.6467C88.4049 55.9799 90.9712 53.2649 90.7208 50.7697C90.6951 50.5132 90.8829 50.2824 91.1443 50.2567C91.402 50.2311 91.634 50.418 91.6597 50.6781C91.958 53.6643 89.0713 56.7677 86.2915 57.5517C86.2473 57.5627 86.2068 57.5701 86.1626 57.5701V57.5664Z" fill="black"/>
<path d="M74.9953 57.5046C74.7559 57.5046 74.5534 57.325 74.5276 57.0832C74.5019 56.8267 74.6897 56.5958 74.9474 56.5665C76.5788 56.3979 78.1586 55.709 79.396 54.6316C79.5912 54.4593 79.8895 54.4813 80.0625 54.6755C80.2356 54.8698 80.2135 55.1666 80.0183 55.3388C78.6374 56.5408 76.8734 57.3104 75.0469 57.5009C75.0285 57.5009 75.0137 57.5009 74.9953 57.5009V57.5046Z" fill="black"/>
<path d="M78.7729 61.9266C78.552 61.9266 78.3385 61.9119 78.1286 61.8753C77.8708 61.835 77.6978 61.5931 77.7383 61.3367C77.7788 61.0802 78.0218 60.9043 78.2795 60.9483C79.7413 61.1828 81.7185 60.2887 82.9151 59.2812L83.6037 58.7059C84.34 58.0904 84.7082 57.7826 85.8497 56.7457C86.0411 56.5698 86.3394 56.5845 86.5161 56.775C86.6928 56.9655 86.6781 57.2623 86.4866 57.4382C85.3305 58.4897 84.9328 58.8195 84.2112 59.424L83.5263 59.9956C82.3592 60.9776 80.4629 61.9229 78.7766 61.9229L78.7729 61.9266Z" fill="black"/>
<path d="M24.21 57.1378C24.372 60.135 27.7005 62.7657 30.5687 63.1175C30.5871 63.1175 30.6018 63.1175 30.6203 63.1175C30.6865 63.1175 30.7454 63.1028 30.8044 63.0808C31.132 63.3117 31.4597 63.5535 31.7985 63.8026C32.4023 64.2496 33.0246 64.715 33.6836 65.118C34.9318 65.8801 36.1837 66.2758 37.3251 66.2941C37.8369 66.3015 38.3303 66.2319 38.7868 66.0853C38.8899 66.0523 38.982 65.9827 39.0409 65.8911L42.0564 61.1462C42.1485 60.9997 42.1521 60.8092 42.0638 60.6589C41.9754 60.5087 41.8134 60.4208 41.633 60.4281C40.0976 60.505 38.5401 60.1167 37.211 59.3472C37.1815 59.175 37.0563 59.0285 36.8796 58.9772C35.9149 58.706 35.6572 57.2954 35.5872 56.482V56.4197C35.4804 55.2069 35.3589 53.6937 34.2065 52.9096C33.54 52.4516 32.649 52.4223 31.8905 52.7301C31.8684 52.1438 31.7248 51.4513 31.2977 50.8431C30.7344 50.0407 29.7697 49.6047 28.8897 49.7659C28.4148 49.8538 28.0282 50.081 27.7152 50.3924C27.6931 50.3485 27.6673 50.3082 27.6268 50.2715C26.7984 49.5021 25.5023 49.7366 24.7696 50.3998C24.1584 50.953 23.7939 51.7884 23.6871 52.8876C23.5546 54.203 23.8307 55.544 24.4088 56.7421C24.2836 56.8337 24.1989 56.9766 24.2063 57.1415L24.21 57.1378Z" fill="#FF88BE"/>
<path d="M36.7543 59.8968C36.7102 59.8968 36.6697 59.8894 36.6255 59.8784C35.5025 59.5633 34.8029 58.3835 34.6483 56.5589V56.4966C34.5562 55.4267 34.4531 54.2176 33.6762 53.6826C33.054 53.2576 32.0525 53.4591 31.5738 54.1077C31.1062 54.7452 31.1394 55.7455 31.6511 56.4343C31.8058 56.6431 31.7616 56.9363 31.5517 57.0901C31.3419 57.244 31.0473 57.2001 30.8927 56.9912C30.1342 55.9726 30.101 54.5254 30.8117 53.5544C31.5812 52.5028 33.1718 52.1987 34.2064 52.9095C35.3552 53.6936 35.4804 55.2069 35.5798 56.4196L35.5872 56.4819C35.6534 57.299 35.9112 58.706 36.8795 58.9771C37.1299 59.0467 37.2772 59.3069 37.2072 59.556C37.1483 59.7612 36.9605 59.8968 36.7543 59.8968Z" fill="black"/>
<path d="M28.2381 56.962C28.1202 56.962 27.9987 56.918 27.9104 56.8301C26.9678 55.9177 26.5223 54.4521 26.6843 52.8143C26.8095 51.5722 27.4612 50.026 28.8935 49.7659C29.7698 49.6047 30.7381 50.0407 31.3015 50.8431C31.8722 51.6602 31.9348 52.6201 31.8832 53.2833C31.8648 53.5398 31.6439 53.7377 31.3788 53.7157C31.1174 53.6974 30.9259 53.4702 30.9443 53.2137C30.9811 52.7007 30.9443 51.968 30.5282 51.378C30.1785 50.8797 29.5746 50.594 29.0628 50.6892C28.2049 50.8468 27.7189 51.9167 27.6195 52.9059C27.4833 54.2579 27.8294 55.4414 28.5658 56.1559C28.7535 56.3354 28.7572 56.6322 28.5731 56.8191C28.4811 56.9143 28.3596 56.962 28.2344 56.962H28.2381Z" fill="black"/>
<path d="M27.6417 60.0361C27.5643 60.0361 27.4833 60.0177 27.4134 59.9774C24.9428 58.6034 23.4148 55.6869 23.6909 52.8876C23.7977 51.7921 24.1622 50.9567 24.7734 50.4034C25.5024 49.7439 26.8022 49.5058 27.6306 50.2752C27.8221 50.4511 27.8294 50.7479 27.6527 50.9384C27.476 51.1289 27.1777 51.1399 26.9863 50.9604C26.5702 50.5756 25.8191 50.7222 25.4104 51.0959C24.9759 51.488 24.7145 52.1218 24.6298 52.9792C24.3868 55.4231 25.7234 57.9622 27.8736 59.1604C28.1019 59.2886 28.1829 59.5744 28.054 59.7979C27.9657 59.9518 27.8073 60.0397 27.6417 60.0397V60.0361Z" fill="black"/>
<path d="M30.6276 63.1209C30.6092 63.1209 30.5871 63.1209 30.5687 63.1209C27.7005 62.7692 24.372 60.1385 24.21 57.1413C24.1953 56.8812 24.3941 56.6613 24.6555 56.6467C24.9059 56.6357 25.1378 56.8299 25.1526 57.09C25.2888 59.5962 28.2381 61.8898 30.6866 62.1866C30.9443 62.2196 31.1284 62.4541 31.0953 62.7106C31.0658 62.9487 30.8633 63.1209 30.6276 63.1209Z" fill="black"/>
<path d="M41.2583 61.3738C39.5643 61.3738 37.8666 60.8864 36.4378 59.9812C36.2168 59.842 36.1542 59.5525 36.2942 59.3326C36.4341 59.1127 36.725 59.0504 36.946 59.1897C38.3306 60.0655 40.0025 60.5016 41.6376 60.4247C41.8843 60.4173 42.12 60.6115 42.131 60.8717C42.1421 61.1319 41.9432 61.3518 41.6818 61.3628C41.5418 61.3701 41.3982 61.3738 41.2583 61.3738Z" fill="black"/>
<path d="M37.8959 66.3601C36.4121 66.3601 34.792 65.7958 33.6837 65.1217L32.9179 64.6563C32.1115 64.169 31.666 63.9015 30.3663 63.0405C30.149 62.8976 30.0901 62.6045 30.2337 62.392C30.3773 62.1758 30.6719 62.1172 30.8891 62.2601C32.1741 63.1101 32.5865 63.3593 33.4076 63.8539L34.1771 64.3192C35.5137 65.1326 37.605 65.7189 39.0115 65.2609C39.2619 65.1803 39.527 65.3158 39.6043 65.5613C39.6853 65.8068 39.5491 66.0706 39.3024 66.1512C38.8642 66.2941 38.3856 66.3564 37.8922 66.3564L37.8959 66.3601Z" fill="black"/>
</svg>
