<svg width="110" height="110" viewBox="0 0 110 110" fill="none" xmlns="http://www.w3.org/2000/svg">
<path d="M28.5813 52.6194C19.5864 52.6194 16.4973 45.6162 16.1229 41.9165C15.596 37.141 16.7698 32.8017 19.5174 29.3891C22.3703 25.8456 26.7278 23.2435 31.4705 22.2513C32.5354 22.0296 33.5857 22.7129 33.8074 23.7814C34.0291 24.8499 33.3458 25.8965 32.2773 26.1182C28.4141 26.925 24.8816 29.022 22.592 31.8677C19.9716 35.124 19.7609 38.9036 20.048 41.5021C20.1315 42.2399 21.0728 48.6726 28.5776 48.6726C29.6679 48.6726 30.551 49.5557 30.551 50.646C30.551 51.7363 29.6679 52.6194 28.5776 52.6194H28.5813Z" fill="black"/>
<path d="M42.7078 18.9223C42.3953 18.6461 42.0573 18.4426 41.7266 18.25C41.5557 18.1482 41.3813 18.0465 41.2178 17.9338C41.007 17.7885 40.8035 17.6249 40.5854 17.4505C40.4 17.3015 40.2147 17.1525 40.0221 17.0144C38.9064 16.2075 37.6598 15.8659 36.5114 16.0476C35.2612 16.2439 34.1854 17.0834 33.6403 18.2464C33.2732 18.0247 32.8262 17.9011 32.3283 17.8866C31.2562 17.8611 30.2313 18.33 29.5808 19.1513C29.0829 19.7837 28.8321 20.6087 28.8539 21.4046C28.4614 21.2265 28.0217 21.1792 27.6074 21.3028C27.3639 21.3755 27.1676 21.4918 27.0186 21.6481C26.7642 21.9206 26.6443 22.3168 26.6479 22.8583C26.6552 23.5452 26.8115 24.203 26.975 24.8172C27.2076 25.7039 27.4729 26.5943 27.76 27.4593C28.0144 28.2225 28.3124 29.0111 28.9193 29.5345C29.2246 29.7961 29.5517 29.9342 29.8752 29.9342C29.9224 29.9342 29.9696 29.9342 30.0169 29.927C30.3403 29.887 30.6202 29.6907 30.791 29.4182C30.8419 29.44 30.9 29.4545 30.9582 29.4545C31.6414 30.0832 32.5645 30.443 33.4949 30.443C33.7166 30.443 33.9347 30.4212 34.1527 30.3813C35.3956 30.145 36.4823 29.2219 36.9184 28.0335C36.9366 27.979 36.9438 27.9281 36.9438 27.8736C37.747 26.0601 38.8082 24.3701 40.1093 22.8692C40.3746 22.9273 40.6472 22.9637 40.9197 22.9637C41.1523 22.9637 41.3849 22.9419 41.6139 22.8946C42.5007 22.7202 43.5001 22.0224 43.5909 20.9103C43.6491 20.2053 43.3184 19.4602 42.7006 18.9114L42.7078 18.9223Z" fill="white"/>
<path d="M87.0168 64.1366C86.439 64.1366 85.8684 63.8858 85.4795 63.3988C84.7962 62.5484 84.9307 61.3055 85.7775 60.6222C88.9866 58.0382 90.255 55.4143 89.539 52.8303C88.8049 50.1845 86.21 48.2547 85.0943 47.815C84.5891 48.0258 84.0003 48.0294 83.4697 47.7714C82.4885 47.2953 82.0778 46.1141 82.5539 45.1329C83.0046 44.2061 83.964 43.7046 85.0943 43.7882C87.5038 43.9663 91.8795 47.0518 93.2569 51.4783C94.1872 54.4657 94.0746 59.0086 88.2561 63.6932C87.8927 63.9876 87.4529 64.1293 87.0204 64.1293L87.0168 64.1366Z" fill="black"/>
<path d="M57.4194 83.6708C56.3945 83.1801 55.2679 82.9076 54.1268 82.8458C54.1558 82.7876 54.1849 82.7331 54.214 82.6713C54.4248 82.1989 54.5592 81.5229 54.3012 81.0468C53.9232 80.349 53.2036 79.9965 52.5458 79.7421C50.6487 79.008 48.5699 78.6918 46.542 78.8226C46.0187 78.8553 45.4699 78.9317 45.0083 79.2478C44.2051 79.8003 44.0234 80.8506 44.1979 81.6465C44.2815 82.0281 44.4377 82.3806 44.6267 82.7113C43.5183 83.1838 42.6424 84.136 42.279 85.2953C42.1881 85.586 42.1372 85.8841 42.1118 86.1857C42.0573 86.302 42.0537 86.4292 42.1009 86.5455C42.1082 87.4904 42.4243 88.4281 43.0349 89.1694C43.6418 89.9072 44.4595 90.3797 45.1064 90.7104C46.1022 91.2192 47.1998 91.6517 48.6717 92.1096C50.1 92.553 51.7608 92.9927 53.4762 92.9927C53.6979 92.9927 53.9196 92.9854 54.1413 92.9709C56.2601 92.8255 58.0881 91.9133 59.1602 90.4742C60.4286 88.7697 60.4286 86.3819 59.1602 84.921C58.7387 84.434 58.1681 84.0233 57.4158 83.6671L57.4194 83.6708ZM58.0263 90.4451C57.0814 91.3936 55.6822 91.9897 54.0795 92.0987C52.2769 92.2259 50.467 91.7534 48.9334 91.2773C47.5123 90.834 46.4548 90.4196 45.5099 89.9363C44.9393 89.6419 44.2197 89.2312 43.7145 88.617C43.4165 88.2572 43.213 87.8248 43.0931 87.3705C46.2331 89.6165 50.169 91.2337 53.876 91.2337C53.876 91.2337 56.3291 91.3973 58.0263 90.4451Z" fill="white"/>
<path d="M83.4845 77.1363C82.0526 75.8607 79.952 75.3519 77.8659 75.7771C76.1832 76.1187 74.5442 77.0455 73.1013 78.4556C72.8433 77.9504 72.3672 77.5361 71.8184 77.3616C70.5573 76.9546 69.2526 77.5034 68.126 78.0485C67.4464 78.3792 66.6032 78.7863 65.92 79.3859C65.135 80.0728 64.6698 80.9305 64.608 81.7955C64.5317 82.8676 65.1386 83.8888 66.0545 84.2305C66.0654 84.2341 66.0763 84.2305 66.0835 84.2341C65.7565 84.8628 65.6547 85.6115 65.811 86.3965C65.8837 86.7599 66.0145 87.1161 66.178 87.4504C66.5742 88.2536 67.2065 88.9441 67.9697 89.3657C69.9722 90.4633 72.3781 90.078 74.0099 89.6964C75.0457 89.4529 76.0378 89.1513 76.9791 88.7915C79.5885 87.7993 81.8127 86.3783 83.5099 84.6048C83.7789 84.3249 84.0842 83.9761 84.3604 83.5763C84.3749 83.5581 84.3858 83.5436 84.3967 83.5254C84.5675 83.2746 84.7274 83.0093 84.8583 82.715C85.6505 80.8978 85.0727 78.5537 83.4845 77.14V77.1363ZM73.8137 88.8351C71.4405 89.3911 69.7178 89.3148 68.3949 88.5916C68.1442 88.4535 67.9116 88.2718 67.7008 88.0646C70.9608 88.846 74.7477 88.2209 78.2039 86.9089C79.127 86.5564 80.0247 86.1566 80.8824 85.7205C78.9307 87.1342 76.5358 88.1991 73.8137 88.8387V88.8351Z" fill="white"/>
<path d="M57.4194 83.6708C56.3945 83.1801 55.2679 82.9076 54.1268 82.8458C54.1558 82.7876 54.1849 82.7331 54.214 82.6713C54.4248 82.1989 54.5592 81.5229 54.3012 81.0468C53.9232 80.349 53.2036 79.9965 52.5458 79.7421C50.6487 79.008 48.5699 78.6918 46.542 78.8226C46.0187 78.8553 45.4699 78.9317 45.0083 79.2478C44.2051 79.8003 44.0234 80.8506 44.1979 81.6465C44.2815 82.0281 44.4377 82.3806 44.6267 82.7113C43.5183 83.1838 42.6424 84.136 42.279 85.2953C42.1881 85.586 42.1372 85.8841 42.1118 86.1857C42.0573 86.302 42.0537 86.4292 42.1009 86.5455C42.1082 87.4904 42.4243 88.4281 43.0349 89.1694C43.6418 89.9072 44.4595 90.3797 45.1064 90.7104C46.1022 91.2192 47.1998 91.6517 48.6717 92.1096C50.1 92.553 51.7608 92.9927 53.4762 92.9927C53.6979 92.9927 53.9196 92.9854 54.1413 92.9709C56.2601 92.8255 58.0881 91.9133 59.1602 90.4742C60.4286 88.7697 60.4286 86.3819 59.1602 84.921C58.7387 84.434 58.1681 84.0233 57.4158 83.6671L57.4194 83.6708Z" fill="white"/>
<path d="M83.4845 77.1363C82.0526 75.8607 79.952 75.3519 77.8659 75.7771C76.1832 76.1187 74.5442 77.0455 73.1013 78.4556C72.8433 77.9504 72.3672 77.5361 71.8184 77.3616C70.5573 76.9546 69.2526 77.5034 68.126 78.0485C67.4464 78.3792 66.6032 78.7863 65.92 79.3859C65.135 80.0728 64.6698 80.9305 64.608 81.7955C64.5317 82.8676 65.1386 83.8888 66.0545 84.2305C66.0654 84.2341 66.0763 84.2305 66.0835 84.2341C65.7565 84.8628 65.6547 85.6115 65.811 86.3965C65.8837 86.7599 66.0145 87.1161 66.178 87.4504C66.5742 88.2536 67.2065 88.9441 67.9697 89.3657C69.9722 90.4633 72.3781 90.078 74.0099 89.6964C75.0457 89.4529 76.0378 89.1513 76.9791 88.7915C79.5885 87.7993 81.8127 86.3783 83.5099 84.6048C83.7789 84.3249 84.0842 83.9761 84.3604 83.5763C84.3749 83.5581 84.3858 83.5436 84.3967 83.5254C84.5675 83.2746 84.7274 83.0093 84.8583 82.715C85.6505 80.8978 85.0727 78.5537 83.4845 77.14V77.1363Z" fill="white"/>
<path d="M45.6699 83.878C45.5427 83.878 45.4155 83.8235 45.3282 83.7144C44.8449 83.1111 44.3724 82.4461 44.198 81.6538C44.0235 80.8579 44.2052 79.8076 45.0084 79.2552C45.47 78.939 46.0187 78.8627 46.5421 78.83C48.57 78.6991 50.6488 79.0153 52.5459 79.7494C53.2001 80.0002 53.9197 80.3527 54.2976 81.0541C54.5557 81.5302 54.4212 82.2062 54.2104 82.6787C53.9597 83.242 53.5781 83.6199 53.1674 83.7144C52.9275 83.769 52.6949 83.6236 52.6404 83.3874C52.5859 83.1511 52.7313 82.9149 52.9675 82.8604C53.0547 82.8386 53.251 82.675 53.4109 82.3189C53.5926 81.9155 53.589 81.5811 53.5308 81.4721C53.2873 81.0251 52.7385 80.7634 52.2334 80.5671C50.4526 79.8803 48.5046 79.5786 46.6002 79.7058C46.1387 79.7349 45.7789 79.793 45.5063 79.9784C45.0411 80.2982 44.9466 80.9742 45.0557 81.4684C45.1829 82.0499 45.5318 82.566 46.0115 83.1657C46.1641 83.3546 46.1314 83.6308 45.9424 83.7835C45.8625 83.8489 45.7643 83.8816 45.6699 83.8816V83.878Z" fill="black"/>
<path d="M53.4762 93C51.7608 93 50.0999 92.5603 48.6716 92.1169C47.1997 91.659 46.1022 91.2265 45.1064 90.7177C44.4595 90.387 43.6418 89.9109 43.0349 89.1768C42.1554 88.1083 41.8646 86.6255 42.2789 85.3026C42.6896 83.9834 43.7726 82.9258 45.1064 82.5514C45.339 82.486 45.5825 82.6205 45.6479 82.8531C45.7133 83.0857 45.5789 83.3292 45.3463 83.3946C44.3141 83.689 43.4383 84.5394 43.1184 85.5643C42.7986 86.5891 43.0312 87.7885 43.7145 88.6171C44.2196 89.2276 44.9392 89.6419 45.5098 89.9363C46.4583 90.4233 47.5123 90.834 48.9333 91.2774C50.467 91.7535 52.2768 92.2259 54.0794 92.1023C55.9438 91.9715 57.5357 91.1901 58.4551 89.9581C59.4655 88.5989 59.4836 86.6437 58.4987 85.5061C58.1571 85.1136 57.681 84.772 57.0414 84.4667C54.839 83.4164 52.1242 83.46 49.9545 84.583C49.7401 84.6957 49.4748 84.6121 49.3621 84.394C49.2495 84.1796 49.3331 83.9143 49.5511 83.8016C51.957 82.5551 54.9735 82.5042 57.4194 83.6708C58.1717 84.0306 58.7422 84.4413 59.1638 84.9246C60.4285 86.3856 60.4285 88.7697 59.1638 90.4742C58.0953 91.9134 56.2637 92.8256 54.1449 92.9709C53.9232 92.9855 53.7015 92.9928 53.4798 92.9928L53.4762 93Z" fill="black"/>
<path d="M53.8759 91.2375C49.8201 91.2375 45.4916 89.3041 42.228 86.7273C42.0391 86.5783 42.0064 86.3021 42.1554 86.1095C42.3044 85.9205 42.5806 85.8878 42.7732 86.0368C47.3706 89.6711 54.163 91.9898 58.9639 88.9842C59.1675 88.857 59.44 88.9188 59.5672 89.1223C59.6944 89.3259 59.6326 89.5984 59.4291 89.7256C57.7428 90.7796 55.8421 91.2339 53.8759 91.2339V91.2375Z" fill="black"/>
<path d="M66.2071 84.2522C66.1562 84.2522 66.1053 84.2449 66.0545 84.2231C65.1386 83.8851 64.5317 82.8603 64.608 81.7881C64.6698 80.9232 65.135 80.0691 65.92 79.3786C66.6069 78.779 67.45 78.3683 68.1296 78.0412C69.2563 77.4961 70.561 76.9473 71.8221 77.3543C72.4145 77.5469 72.9305 78.0158 73.1668 78.5791C73.3485 79.0152 73.3412 79.4731 73.1486 79.862C73.0396 80.08 72.7779 80.1672 72.5598 80.0582C72.3418 79.9492 72.2546 79.6875 72.3636 79.4695C72.4435 79.3059 72.4435 79.1206 72.3563 78.9171C72.2219 78.5936 71.8984 78.2992 71.5495 78.1902C70.601 77.8849 69.5252 78.3392 68.5076 78.8298C67.8425 79.1497 67.0902 79.5167 66.4942 80.0401C66.1417 80.349 65.5384 80.9959 65.4766 81.8536C65.4294 82.5332 65.8037 83.1982 66.3525 83.4018C66.5778 83.4854 66.6941 83.7398 66.6105 83.9651C66.5451 84.1432 66.3779 84.2522 66.1998 84.2522H66.2071Z" fill="black"/>
<path d="M71.0734 90.0817C70.034 90.0817 68.9546 89.9 67.9733 89.3621C66.8903 88.7661 66.0617 87.6322 65.8146 86.3929C65.6183 85.4044 65.8218 84.4704 66.3851 83.7617C66.5378 83.5727 66.814 83.54 67.003 83.6926C67.1919 83.8453 67.221 84.1215 67.072 84.3105C66.6686 84.812 66.5305 85.4916 66.6759 86.2221C66.8721 87.1961 67.5481 88.1265 68.3949 88.5917C69.7178 89.3149 71.4404 89.3948 73.8136 88.8352C77.5533 87.9557 80.6897 86.2839 82.8812 83.9943C83.2773 83.58 83.7679 83.0203 84.055 82.3625C84.7019 80.8833 84.2149 78.9608 82.903 77.7942C81.6927 76.7184 79.8284 76.2751 78.0403 76.6385C76.0269 77.0455 74.4642 78.303 73.5083 79.2806C73.1267 79.6731 72.647 80.4327 72.9959 80.7961C73.1631 80.9706 73.1558 81.2504 72.9814 81.4176C72.8069 81.5848 72.5307 81.5775 72.3599 81.403C71.6258 80.6362 72.091 79.4769 72.8796 78.6664C74.3733 77.1328 76.0959 76.1333 77.8658 75.7735C79.9519 75.352 82.0525 75.8571 83.4845 77.1328C85.0763 78.5465 85.6541 80.8906 84.8618 82.7078C84.5202 83.4964 83.9605 84.1324 83.5172 84.5976C81.2058 87.0107 77.9204 88.7697 74.0171 89.6856C73.1849 89.8818 72.1528 90.0781 71.077 90.0781L71.0734 90.0817Z" fill="black"/>
<path d="M70.757 88.4098C69.2379 88.4098 67.7696 88.1845 66.4249 87.6793C66.1996 87.5921 66.0833 87.3413 66.1705 87.1123C66.2541 86.887 66.5085 86.7707 66.7375 86.8579C71.9672 88.8314 79.2285 86.2183 83.7641 82.9584C83.9604 82.8166 84.2329 82.8602 84.3747 83.0601C84.5164 83.2564 84.4728 83.5326 84.2765 83.6743C80.7077 86.2401 75.4852 88.4134 70.7606 88.4134L70.757 88.4098Z" fill="black"/>
<path d="M49.4021 82.882C48.9369 82.882 48.4717 82.7185 48.0974 82.3877C47.2797 81.6645 47.2034 80.4179 47.9266 79.6002C51.5645 75.4862 48.3009 71.4449 47.9157 70.9942C47.207 70.1693 47.2942 68.9263 48.1156 68.214C48.9369 67.5017 50.1726 67.5816 50.8885 68.3957C52.9964 70.7907 55.7039 76.7619 50.8885 82.2133C50.4997 82.6567 49.9545 82.882 49.4094 82.882H49.4021Z" fill="black"/>
<path d="M68.8491 82.8894C68.115 82.8894 67.41 82.4787 67.072 81.7737L61.3807 70.0204C60.9046 69.0391 61.3153 67.858 62.2965 67.3819C63.2778 66.9058 64.4589 67.3165 64.935 68.2977L70.6263 80.051C71.1024 81.0323 70.6917 82.2134 69.7105 82.6895C69.4343 82.824 69.1399 82.8858 68.8528 82.8858L68.8491 82.8894Z" fill="black"/>
<path d="M37.1291 26.0601L32.3028 26.5652C32.3028 26.5652 27.8908 26.7033 27.4038 30.6465C27.4038 30.6465 26.6152 43.272 28.0362 51.9798C28.0362 51.9798 28.8248 61.5779 31.6305 65.3103C31.6305 65.3103 33.4076 69.0464 39.5896 69.2208C39.5896 69.2208 55.7003 71.1615 78.451 67.251C78.451 67.251 85.1235 66.3534 85.636 60.3205C85.636 60.3205 89.2303 49.265 84.4875 28.2479C84.4875 28.2479 83.6843 23.7632 77.8731 23.7632C77.8731 23.7632 56.5144 24.2284 45.8587 25.2859C45.8587 25.2859 41.6139 25.8311 37.1328 26.0564L37.1291 26.0601Z" fill="#4AD0FF"/>
<path d="M50.4015 70.133C43.6345 70.133 39.6149 69.6678 39.535 69.6569C33.4803 69.4898 31.485 65.9936 31.2524 65.5429C28.425 61.7306 27.6291 52.4122 27.5964 52.0161C26.1863 43.3919 26.9567 30.7446 26.964 30.6174C27.491 26.3217 32.2373 26.1255 32.2846 26.1255L37.0782 25.6239C37.0782 25.6239 37.0927 25.6239 37.1036 25.6239C41.5193 25.4022 45.7532 24.8607 45.7969 24.8571C56.3617 23.8068 77.6441 23.3343 77.8585 23.3307C83.9787 23.3307 84.9054 28.1279 84.9163 28.1752C89.4628 48.3273 86.3228 59.5573 86.0684 60.4077C85.5014 66.6732 78.5781 67.6799 78.5091 67.6871C67.1156 69.646 57.3212 70.133 50.4051 70.133H50.4015ZM37.1618 26.4998L32.3464 27.005C32.1501 27.0122 28.2723 27.1867 27.8399 30.7047C27.8362 30.8028 27.073 43.3556 28.4686 51.9143C28.4795 52.0452 29.2827 61.4653 31.9793 65.0523C31.9975 65.0741 32.012 65.0995 32.0229 65.1286C32.092 65.2703 33.7855 68.6248 39.5968 68.7883C39.7967 68.8101 55.9511 70.6782 78.371 66.8258C78.6435 66.7895 84.7164 65.8954 85.1925 60.2914C85.1925 60.2587 85.2034 60.226 85.2107 60.1933C85.247 60.0842 88.7069 48.9815 84.0513 28.3533C84.015 28.1679 83.2191 24.2102 77.8622 24.2102C77.6586 24.2138 56.409 24.6863 45.8913 25.733C45.8623 25.7366 41.5993 26.2817 37.1545 26.5034L37.1618 26.4998Z" fill="black"/>
<path d="M37.2019 23.269C37.2019 23.269 35.8136 23.5489 36.068 24.9917L36.0825 27.1286C36.0825 27.1286 35.9735 28.2444 38.2813 28.2444C38.2813 28.2444 41.8174 28.357 44.2488 27.6956C44.2488 27.6956 45.7679 27.4303 45.3899 25.4569L45.0847 23.945C45.0847 23.945 44.8702 22.9419 43.0458 22.9819C43.0458 22.9819 40.5818 22.8656 37.1983 23.2654L37.2019 23.269Z" fill="#4AD0FF"/>
<path d="M38.9281 28.6913C38.5465 28.6913 38.3066 28.6841 38.2703 28.6841C37.1872 28.6841 36.4131 28.4442 35.9843 27.9717C35.6608 27.6156 35.6427 27.2449 35.6463 27.125L35.6318 25.0316C35.4137 23.6869 36.395 22.9855 37.1182 22.8438C37.1291 22.8438 37.14 22.8401 37.1509 22.8365C40.5308 22.4331 42.9694 22.5458 43.0711 22.5494C45.2081 22.5094 45.5061 23.8032 45.517 23.8577L45.8223 25.3732C45.9749 26.1691 45.8768 26.8233 45.5279 27.3321C45.0809 27.979 44.4049 28.1171 44.3286 28.128C42.5042 28.6259 40.0801 28.6913 38.9281 28.6913ZM37.2745 23.7051C37.0818 23.7487 36.3332 23.9886 36.5004 24.9153C36.504 24.9407 36.5076 24.9662 36.5076 24.988L36.5222 27.125C36.5222 27.125 36.5222 27.154 36.5222 27.1722C36.5222 27.3794 36.8929 27.8046 38.2848 27.8046C38.332 27.8046 41.7991 27.9063 44.1396 27.2703C44.354 27.2267 45.2408 26.9759 44.9646 25.5404L44.6593 24.0322C44.6593 24.0322 44.4485 23.3998 43.0602 23.4216C43.0057 23.4216 40.5671 23.3126 37.2745 23.7015V23.7051Z" fill="black"/>
<path d="M61.0428 58.2817C65.4465 58.2817 69.0165 55.1462 69.0165 51.2784C69.0165 47.4106 65.4465 44.2751 61.0428 44.2751C56.6391 44.2751 53.0692 47.4106 53.0692 51.2784C53.0692 55.1462 56.6391 58.2817 61.0428 58.2817Z" fill="white"/>
<path d="M61.0428 58.7178C56.4054 58.7178 52.6294 55.3779 52.6294 51.2748C52.6294 47.1717 56.4018 43.8318 61.0428 43.8318C65.6838 43.8318 69.4561 47.1717 69.4561 51.2748C69.4561 55.3779 65.6838 58.7178 61.0428 58.7178ZM61.0428 44.7113C56.8888 44.7113 53.5089 47.6551 53.5089 51.2748C53.5089 54.8946 56.8888 57.8383 61.0428 57.8383C65.1968 57.8383 68.5766 54.8946 68.5766 51.2748C68.5766 47.6551 65.1968 44.7113 61.0428 44.7113Z" fill="black"/>
<path d="M61.0427 56.261C64.1738 56.261 66.7121 54.0302 66.7121 51.2784C66.7121 48.5266 64.1738 46.2958 61.0427 46.2958C57.9115 46.2958 55.3732 48.5266 55.3732 51.2784C55.3732 54.0302 57.9115 56.261 61.0427 56.261Z" fill="black"/>
<path d="M61.0427 56.6972C57.6737 56.6972 54.9335 54.2658 54.9335 51.2785C54.9335 48.2911 57.6737 45.8597 61.0427 45.8597C64.4117 45.8597 67.1519 48.2911 67.1519 51.2785C67.1519 54.2658 64.4117 56.6972 61.0427 56.6972ZM61.0427 46.7356C58.1571 46.7356 55.8093 48.7744 55.8093 51.2785C55.8093 53.7825 58.1571 55.8213 61.0427 55.8213C63.9283 55.8213 66.2761 53.7825 66.2761 51.2785C66.2761 48.7744 63.9283 46.7356 61.0427 46.7356Z" fill="black"/>
<path d="M47.1197 53.2737C46.9489 53.2737 46.7853 53.1719 46.7163 53.0047C46.6218 52.7794 46.7272 52.525 46.9525 52.4305C48.0537 51.9726 49.0022 50.4353 49.0095 50.4171C49.1367 50.21 49.4057 50.1446 49.6128 50.2718C49.82 50.399 49.8854 50.6679 49.7582 50.875C49.7146 50.9477 48.657 52.6704 47.2869 53.241C47.2323 53.2628 47.1742 53.2737 47.1197 53.2737Z" fill="black"/>
<path d="M69.0163 60.466C68.9291 60.466 68.8419 60.4405 68.7655 60.386C67.1846 59.2848 67.7261 57.1879 67.7479 57.097C67.8097 56.8644 68.0532 56.7227 68.2858 56.7881C68.5184 56.8499 68.6565 57.0897 68.5947 57.3223C68.5766 57.3877 68.195 58.9178 69.2634 59.6628C69.4633 59.8009 69.5106 60.0735 69.3725 60.2734C69.2889 60.3969 69.1508 60.4623 69.0127 60.4623L69.0163 60.466Z" fill="black"/>
<path d="M60.8319 61.3199C58.8658 61.3199 57.3903 60.9892 57.2594 60.9565C49.075 58.6487 48.1192 51.8635 48.1119 51.7944C48.0829 51.5546 48.25 51.3365 48.4899 51.3038C48.7298 51.2711 48.9514 51.4419 48.9805 51.6818C49.0132 51.9362 49.8927 57.9655 57.4775 60.1061C57.5211 60.117 63.9174 61.5452 67.7989 58.2816C67.9842 58.1254 68.2604 58.1508 68.4167 58.3362C68.573 58.5215 68.5475 58.7977 68.3622 58.954C66.0907 60.8656 63.1252 61.3163 60.8283 61.3163L60.8319 61.3199Z" fill="black"/>
<path d="M63.6995 49.8102C64.2856 49.8102 64.7607 49.335 64.7607 48.749C64.7607 48.1629 64.2856 47.6877 63.6995 47.6877C63.1134 47.6877 62.6383 48.1629 62.6383 48.749C62.6383 49.335 63.1134 49.8102 63.6995 49.8102Z" fill="white"/>
<path d="M63.6993 50.25C62.8707 50.25 62.1984 49.5776 62.1984 48.749C62.1984 47.9204 62.8707 47.248 63.6993 47.248C64.5279 47.248 65.2003 47.9204 65.2003 48.749C65.2003 49.5776 64.5279 50.25 63.6993 50.25ZM63.6993 48.1275C63.3577 48.1275 63.0779 48.4074 63.0779 48.749C63.0779 49.0906 63.3577 49.3705 63.6993 49.3705C64.0409 49.3705 64.3208 49.0906 64.3208 48.749C64.3208 48.4074 64.0409 48.1275 63.6993 48.1275Z" fill="black"/>
<path d="M59.0292 36.7158C58.9311 37.1083 58.8766 37.5154 58.8766 37.9333C58.8766 40.7353 61.148 43.0031 63.9464 43.0031C66.7448 43.0031 69.0162 40.7317 69.0162 37.9333C69.0162 37.6317 68.9835 37.3409 68.9363 37.0538L59.0292 36.7158Z" fill="white"/>
<path d="M63.9466 43.4465C60.9083 43.4465 58.437 40.9752 58.437 37.937C58.437 37.5045 58.4915 37.0611 58.6042 36.6141C58.6551 36.4142 58.8295 36.2761 59.0439 36.2797L68.951 36.6177C69.1582 36.625 69.3326 36.7776 69.3689 36.9812C69.4271 37.3155 69.4562 37.6281 69.4562 37.937C69.4562 40.9752 66.9849 43.4465 63.9466 43.4465ZM59.3819 37.1701C59.3383 37.4318 59.3129 37.6862 59.3129 37.937C59.3129 40.4919 61.3917 42.5707 63.9466 42.5707C66.5015 42.5707 68.5803 40.4919 68.5803 37.937C68.5803 37.788 68.573 37.639 68.5549 37.4827L59.3819 37.1701Z" fill="black"/>
<path d="M68.9364 37.4935H68.9219L59.0148 37.1555C58.884 37.1519 58.7604 37.0865 58.6805 36.9811C58.6005 36.8757 58.5714 36.7412 58.6041 36.6104C59.2147 34.1464 61.4098 32.4237 63.9465 32.4237C66.625 32.4237 68.9073 34.339 69.3689 36.9775C69.3907 37.1083 69.3544 37.2428 69.2671 37.3409C69.1835 37.4354 69.0636 37.4899 68.9364 37.4899V37.4935ZM59.6181 36.2979L68.3767 36.5959C67.7952 34.6588 66.0108 33.3032 63.9465 33.3032C61.9986 33.3032 60.2904 34.5098 59.6181 36.2979Z" fill="black"/>
<path d="M68.9546 37.1919C68.9255 37.1446 68.8965 37.0974 68.8638 37.0501L64.1101 36.8866C63.7031 37.3954 63.4559 38.0387 63.4559 38.7437C63.4559 40.3828 64.7861 41.7129 66.4251 41.7129C66.8249 41.7129 67.2065 41.633 67.5554 41.4876C68.4567 40.5718 69.0164 39.3179 69.0164 37.9296C69.0164 37.6752 68.991 37.4317 68.9546 37.1882V37.1919Z" fill="black"/>
<path d="M66.4251 42.1563C64.5461 42.1563 63.0161 40.6263 63.0161 38.7473C63.0161 37.9769 63.2814 37.2173 63.7684 36.614C63.8556 36.505 63.9828 36.4468 64.1246 36.4505L68.8782 36.614C69.0163 36.6177 69.1435 36.6903 69.2235 36.803C69.2598 36.8539 69.2925 36.9048 69.3252 36.9593C69.3543 37.0102 69.3797 37.0683 69.387 37.1265C69.4343 37.4281 69.4561 37.6825 69.4561 37.9369C69.4561 39.3906 68.8928 40.7644 67.8715 41.8038C67.8315 41.8474 67.7807 41.8801 67.7262 41.9019C67.3118 42.0727 66.8757 42.1599 66.4287 42.1599L66.4251 42.1563ZM64.3245 37.3372C64.041 37.7552 63.892 38.2385 63.892 38.7473C63.892 40.1429 65.0259 41.2804 66.4251 41.2804C66.7267 41.2804 67.0247 41.2259 67.3046 41.1205C68.1259 40.2556 68.5766 39.1289 68.5766 37.9369C68.5766 37.7952 68.5693 37.6462 68.5475 37.4826L64.3245 37.3372Z" fill="black"/>
<path d="M26.9786 24.8208C27.2112 25.7075 27.4765 26.5979 27.7636 27.4629C28.018 28.2261 28.316 29.0147 28.923 29.5381C29.2282 29.7997 29.5553 29.9378 29.8788 29.9378C29.926 29.9378 29.9733 29.9378 30.0205 29.9306C30.344 29.8906 30.6238 29.6944 30.7946 29.4218C30.8455 29.4436 30.9036 29.4581 30.9618 29.4581C31.645 30.0869 32.5681 30.4466 33.4985 30.4466C33.7202 30.4466 33.9383 30.4248 34.1563 30.3849C35.3993 30.1486 36.0607 29.5199 36.5004 28.3315C36.5186 28.277 36.5259 28.2261 36.5259 28.1716C36.5259 28.1716 35.5301 27.8845 35.7263 25.2642L26.975 24.8171L26.9786 24.8208Z" fill="white"/>
<path d="M29.8643 30.6793C29.5408 30.6793 29.2138 30.5448 28.9085 30.2795C28.3015 29.7561 28.0035 28.9675 27.7491 28.2043C27.462 27.3393 27.1967 26.4489 26.9641 25.5622C26.8042 24.948 26.6443 24.2938 26.637 23.6033C26.6334 23.0618 26.7533 22.6657 27.0077 22.3931C27.1567 22.2332 27.353 22.1169 27.5965 22.0442C28.4069 21.808 29.3191 22.2077 29.7734 22.9927C29.8934 23.2035 29.8243 23.4725 29.6135 23.5924C29.4027 23.7123 29.1338 23.6433 29.0139 23.4325C28.7595 22.9927 28.2652 22.7638 27.84 22.8873C27.7528 22.9128 27.6874 22.9455 27.651 22.9891C27.6001 23.0473 27.5129 23.1999 27.5165 23.596C27.5202 24.1848 27.6655 24.7808 27.8146 25.3405C28.0435 26.2091 28.3015 27.0813 28.585 27.9281C28.7994 28.575 29.0466 29.2401 29.4863 29.618C29.639 29.7489 29.7916 29.8143 29.9006 29.8034C29.9697 29.7961 30.0714 29.7162 30.0787 29.6108C30.1005 29.3709 30.3113 29.1928 30.5548 29.2146C30.7947 29.2364 30.9727 29.4509 30.9509 29.6944C30.9037 30.1923 30.5003 30.6138 30.0097 30.6756C29.9624 30.6829 29.9152 30.6829 29.8679 30.6829L29.8643 30.6793Z" fill="black"/>
<path d="M33.0078 24.3883C32.2773 24.3883 31.5686 23.9267 31.1834 23.189C31.0707 22.9746 31.1543 22.7093 31.3724 22.5966C31.5868 22.4839 31.8521 22.5675 31.9647 22.7819C32.201 23.2399 32.648 23.527 33.0587 23.5088C33.4802 23.487 33.8836 23.1163 34.0036 22.6475C34.0581 22.4367 34.0617 22.2041 34.0617 22.0042C34.0581 21.43 33.96 20.3942 33.3603 19.8709C33.0986 19.6419 32.7388 19.5184 32.2918 19.5075C31.5068 19.4856 30.7364 19.8345 30.2603 20.4378C29.7333 21.1065 29.5661 22.1023 29.8569 22.8619C29.9441 23.0872 29.8278 23.3416 29.6025 23.4288C29.3771 23.5161 29.1227 23.3998 29.0355 23.1744C28.6394 22.1241 28.8538 20.8049 29.5734 19.8963C30.2239 19.075 31.267 18.5989 32.3209 18.6316C32.9678 18.6498 33.5275 18.8496 33.9418 19.2131C34.5778 19.7655 34.934 20.7576 34.9449 22.0006C34.9449 22.255 34.9376 22.5603 34.8613 22.8655C34.6468 23.7051 33.9127 24.3447 33.1132 24.3883C33.0805 24.3883 33.0478 24.3883 33.0151 24.3883H33.0078Z" fill="black"/>
<path d="M33.9347 19.3549C34.3999 18.181 35.4575 17.396 36.5623 17.2215C37.6671 17.0471 38.8046 17.4287 39.7532 18.1119C40.1639 18.4063 40.5418 18.7552 40.9561 19.035C41.4359 19.3621 41.9592 19.5984 42.4026 19.9872C42.846 20.3761 43.2021 20.9794 43.1476 21.619C43.0749 22.4985 42.2754 23.0618 41.5231 23.2108C40.2184 23.4689 38.8083 22.8619 37.9688 21.6735" fill="white"/>
<path d="M40.9089 23.7124C39.6478 23.7124 38.4049 23.0582 37.6053 21.9316C37.4636 21.7353 37.5108 21.4591 37.7107 21.321C37.907 21.1793 38.1832 21.2265 38.3213 21.4264C39.0663 22.4767 40.291 23.011 41.4322 22.7856C42.0064 22.673 42.6497 22.2478 42.7042 21.5899C42.7478 21.0848 42.4207 20.6014 42.1046 20.3216C41.8538 20.0999 41.5667 19.9291 41.2614 19.7474C41.0724 19.6347 40.8871 19.5257 40.7054 19.4021C40.4619 19.2386 40.2365 19.0532 40.0148 18.8788C39.8404 18.7407 39.6696 18.5989 39.4915 18.4717C38.5611 17.803 37.5435 17.5123 36.6277 17.6576C35.6246 17.8176 34.727 18.548 34.3381 19.5184C34.2472 19.7437 33.9928 19.8528 33.7675 19.7655C33.5422 19.6747 33.4332 19.4203 33.5204 19.195C34.0255 17.923 35.1631 16.9998 36.486 16.7891C37.6308 16.6073 38.8809 16.9526 40.0003 17.7558C40.1929 17.8939 40.3783 18.0429 40.5636 18.1919C40.778 18.3663 40.9816 18.5299 41.196 18.6752C41.3632 18.7879 41.534 18.8897 41.7048 18.9914C42.0319 19.184 42.3735 19.3876 42.686 19.6638C43.3039 20.2089 43.6346 20.9576 43.5764 21.6626C43.482 22.782 42.5152 23.4652 41.5994 23.647C41.3704 23.6906 41.1378 23.716 40.9052 23.716L40.9089 23.7124Z" fill="black"/>
<path d="M32.8152 28.1753C32.6371 28.1753 32.4736 28.0663 32.4045 27.8919C32.1574 27.2413 31.8776 26.5072 31.943 25.7149C32.0157 24.8827 32.579 23.9741 33.5203 23.8505C34.1526 23.7669 34.8177 24.0759 35.2647 24.661C35.6282 25.1334 35.8026 25.7004 35.9371 26.2455C35.9952 26.4818 35.8535 26.718 35.6173 26.7761C35.3847 26.8343 35.1448 26.6925 35.0867 26.4563C34.9558 25.933 34.8213 25.5187 34.5706 25.1952C34.3198 24.8681 33.9564 24.6828 33.6402 24.7228C33.1787 24.7845 32.8625 25.3151 32.8189 25.7949C32.768 26.3873 33.0115 27.0233 33.2259 27.5866C33.3131 27.8119 33.2005 28.0663 32.9715 28.1535C32.9206 28.1717 32.8661 28.1826 32.8152 28.1826V28.1753Z" fill="black"/>
<path d="M33.4839 31.1882C32.4445 31.1882 31.4015 30.7412 30.7073 29.9598C30.5474 29.7781 30.562 29.5019 30.7437 29.342C30.9254 29.1821 31.2016 29.1966 31.3615 29.3783C32.0048 30.0979 33.0333 30.4468 33.9782 30.2687C34.9267 30.087 35.7517 29.3856 36.0861 28.4806C36.1697 28.2517 36.4241 28.1354 36.6494 28.219C36.8783 28.3026 36.9946 28.5533 36.9111 28.7823C36.4749 29.9707 35.3883 30.8938 34.1454 31.13C33.9273 31.17 33.7056 31.1918 33.4876 31.1918L33.4839 31.1882Z" fill="black"/>
<path d="M30.9508 30.1996C30.7909 30.1996 30.6383 30.1124 30.5619 29.9634C30.3112 29.4764 30.1731 28.9313 30.1622 28.3861C30.1585 28.1426 30.3511 27.9427 30.5946 27.9391C30.8309 27.9209 31.038 28.1281 31.0417 28.3716C31.0489 28.7823 31.1507 29.1966 31.3397 29.56C31.4523 29.7744 31.3687 30.0397 31.1507 30.1524C31.0853 30.1851 31.0162 30.1996 30.9508 30.1996Z" fill="black"/>
<path d="M49.4023 38.6385C49.2896 38.6385 49.1806 38.5948 49.1006 38.5185C49.0062 38.4277 48.9553 38.3005 48.9662 38.166C49.1915 35.2222 51.6774 32.9181 54.6284 32.9181C57.0452 32.9181 59.204 34.4554 59.9962 36.745C60.0398 36.8686 60.0253 37.0067 59.9563 37.1193C59.8872 37.232 59.7709 37.3083 59.6401 37.3228L49.4604 38.6348C49.4423 38.6348 49.4241 38.6385 49.4059 38.6385H49.4023ZM54.6284 33.7976C52.317 33.7976 50.3436 35.4694 49.9147 37.6935L58.9605 36.5269C58.1682 34.8733 56.4892 33.7976 54.6284 33.7976Z" fill="black"/>
<path d="M49.4021 38.1986C49.3912 38.333 49.3802 38.4639 49.3802 38.602C49.3802 41.4985 51.728 43.8463 54.6245 43.8463C57.521 43.8463 59.8688 41.4985 59.8688 38.602C59.8688 37.9987 59.7634 37.4245 59.5744 36.8866L49.3948 38.1986H49.4021Z" fill="white"/>
<path d="M54.6282 44.286C51.4955 44.286 48.9442 41.7348 48.9442 38.602C48.9442 38.4566 48.9551 38.3113 48.966 38.1659C48.9806 37.9587 49.1405 37.7916 49.3476 37.7625L59.5273 36.4505C59.7308 36.4214 59.9307 36.545 59.9997 36.7413C60.2105 37.3482 60.3159 37.9733 60.3159 38.5984C60.3159 41.7311 57.7646 44.2824 54.6319 44.2824L54.6282 44.286ZM49.8201 38.5875V38.602C49.8201 41.2514 51.9752 43.4102 54.6282 43.4102C57.2813 43.4102 59.4364 41.255 59.4364 38.602C59.4364 38.1877 59.3819 37.777 59.2729 37.37L49.8237 38.5875H49.8201Z" fill="black"/>
<path d="M59.5818 36.8866L54.0614 37.5989C54.0286 37.7952 54.0068 37.9951 54.0068 38.1986C54.0068 40.1429 55.5841 41.7166 57.5248 41.7166C58.0881 41.7166 58.6224 41.5821 59.0948 41.3459C59.5855 40.5463 59.8762 39.6087 59.8762 38.602C59.8762 37.9987 59.7708 37.4245 59.5818 36.8866Z" fill="black"/>
<path d="M57.5246 42.1563C55.3441 42.1563 53.5669 40.3792 53.5669 38.1986C53.5669 37.9842 53.5887 37.7625 53.6287 37.5226C53.6614 37.3336 53.814 37.1883 54.0066 37.1628L59.5271 36.4505C59.7306 36.4214 59.9305 36.545 59.9996 36.7413C60.2104 37.3482 60.3158 37.9733 60.3158 38.5984C60.3158 39.6451 60.0214 40.6736 59.469 41.5712C59.4254 41.6403 59.3636 41.6984 59.2909 41.7348C58.7348 42.011 58.1425 42.1527 57.5246 42.1527V42.1563ZM54.4537 37.9915C54.4464 38.0641 54.4464 38.1332 54.4464 38.1986C54.4464 39.8958 55.8274 41.2805 57.5283 41.2805C57.9644 41.2805 58.3896 41.1896 58.7894 41.0079C59.2146 40.2738 59.4399 39.4452 59.4399 38.602C59.4399 38.1877 59.3854 37.777 59.2764 37.37L54.4573 37.9915H54.4537Z" fill="black"/>
<path d="M90.6402 68.3886C91.3525 67.3274 91.1781 65.8301 90.2332 64.827C90.1241 64.7107 90.0078 64.6053 89.8915 64.5036C89.9134 64.4927 89.9352 64.4854 89.9533 64.4708C90.3131 64.2383 90.5675 63.8167 90.5966 63.3987C90.6438 62.7191 90.2622 62.1304 89.9243 61.6906C89.3101 60.8983 88.5868 60.2006 87.7691 59.6191C87.2712 59.2556 86.5952 58.8559 85.8211 58.8777C85.1306 58.8959 84.7599 59.1284 84.5709 59.4047C84.3093 59.2229 84.004 59.0848 83.6769 59.0012C83.0009 58.8268 82.245 58.8631 81.3655 59.1139C81.1365 59.1793 80.864 59.2666 80.6096 59.4156C80.0026 59.7754 79.5811 60.4586 79.512 61.2C79.4502 61.8723 79.6683 62.5883 80.1117 63.1589C80.1735 63.2388 80.2461 63.3188 80.3225 63.3915C80.0535 63.5405 79.8282 63.7622 79.6901 64.0347C79.5447 64.3182 79.4829 64.6598 79.5048 65.0487C79.552 65.9791 80.0717 66.8586 80.8313 67.3892C81.0966 67.5745 81.3873 67.7163 81.6999 67.8035C81.8416 67.8435 81.9833 67.8689 82.1251 67.8871C82.1323 68.6757 82.7647 69.5298 83.4043 69.9768C83.4879 70.0349 83.5679 70.0858 83.6478 70.1294C83.8187 70.2457 84.6909 70.809 85.6503 70.6164C86.2682 70.4929 86.8787 70.1149 87.2967 69.6025C88.5941 69.8787 89.9751 69.3844 90.6438 68.385L90.6402 68.3886Z" fill="white"/>
<path d="M89.6081 64.6925C89.4773 64.6925 89.3501 64.6707 89.2229 64.6234C88.9976 64.5398 88.8813 64.2854 88.9648 64.0601C89.0484 63.8348 89.3028 63.7185 89.5282 63.8021C89.6227 63.8348 89.7171 63.7948 89.7826 63.7548C89.9425 63.6531 90.0624 63.4568 90.0733 63.2787C90.1024 62.8426 89.8007 62.3956 89.5354 62.0503C88.9358 61.2762 88.2271 60.593 87.4312 60.026C87.0096 59.7244 86.4717 59.3791 85.883 59.3973C85.1706 59.4191 85.1743 59.6517 85.1779 59.8407C85.1816 60.0842 84.9889 60.2841 84.7491 60.2877H84.7418C84.5019 60.2877 84.3093 60.0951 84.3021 59.8589C84.2912 59.3755 84.4838 58.5614 85.8612 58.5214C86.708 58.496 87.4094 58.9321 87.9436 59.3101C88.8122 59.9279 89.5827 60.6693 90.2332 61.5125C90.593 61.9777 91.0037 62.61 90.9528 63.3369C90.9201 63.7948 90.6548 64.2382 90.2587 64.4926C90.0515 64.627 89.8262 64.6961 89.6045 64.6961L89.6081 64.6925Z" fill="black"/>
<path d="M88.1908 70.0278C87.8673 70.0278 87.5439 69.9878 87.224 69.9006C86.9914 69.8352 86.8533 69.5953 86.9151 69.3627C86.9769 69.1301 87.2204 68.992 87.453 69.0538C88.5215 69.3445 89.7317 68.9593 90.2696 68.1561C90.7965 67.3711 90.6475 66.2045 89.9243 65.4413C89.7753 65.285 89.6081 65.1397 89.4264 64.987L89.9934 64.3147C90.1824 64.4746 90.3822 64.6418 90.5603 64.8344C91.5743 65.9065 91.756 67.5056 90.9964 68.6431C90.4149 69.5154 89.321 70.0278 88.1871 70.0278H88.1908Z" fill="black"/>
<path d="M82.3105 68.1525C82.0307 68.1525 81.7508 68.1161 81.4783 68.0398C80.1881 67.6764 79.1996 66.4371 79.1305 65.096C79.1087 64.6781 79.1778 64.311 79.3304 64.0094C79.6175 63.4497 80.2244 63.0899 80.8568 63.1044C81.1003 63.1117 81.2893 63.3152 81.282 63.5551C81.2748 63.7913 81.0785 63.9803 80.8423 63.9803C80.8314 63.9803 80.8205 63.9803 80.8096 63.9803C80.5261 63.9803 80.239 64.1547 80.1081 64.4091C80.0246 64.5727 79.9882 64.7907 80.0028 65.0524C80.05 66.0119 80.7878 66.935 81.7145 67.1966C82.6412 67.4583 83.7497 67.0585 84.2948 66.2663C84.4329 66.0664 84.7055 66.0155 84.9054 66.1536C85.1053 66.2917 85.1562 66.5643 85.0181 66.7642C84.4184 67.6364 83.3645 68.1561 82.3105 68.1561V68.1525Z" fill="black"/>
<path d="M85.2469 71.0636C84.4074 71.0636 83.7024 70.6129 83.5461 70.5039C82.6302 70.0169 81.569 68.6068 82.0269 67.5419C82.1214 67.3202 82.3795 67.2185 82.6048 67.313C82.8265 67.4075 82.9319 67.6655 82.8338 67.8908C82.623 68.3815 83.3317 69.4136 83.9749 69.7443C83.9967 69.7552 84.0149 69.7661 84.0367 69.7807C84.044 69.7843 84.7817 70.3149 85.5122 70.1659C86.3845 69.9914 87.253 69.1556 87.1113 68.3015C87.0713 68.0616 87.2349 67.8363 87.4747 67.7963C87.7146 67.7564 87.9399 67.9199 87.9799 68.1598C88.2052 69.5335 86.955 70.7728 85.6903 71.0272C85.5413 71.0563 85.3959 71.0708 85.2542 71.0708L85.2469 71.0636Z" fill="black"/>
<path d="M89.7099 65.0888C89.5973 65.0888 89.481 65.0452 89.3974 64.9579L88.1399 63.6714C87.9691 63.497 87.9727 63.2208 88.1472 63.0499C88.3216 62.8791 88.5978 62.8828 88.7686 63.0572L90.0261 64.3437C90.1969 64.5182 90.1933 64.7944 90.0188 64.9652C89.9352 65.0488 89.8226 65.0888 89.7136 65.0888H89.7099Z" fill="black"/>
<path d="M81.3946 63.9876C80.7622 63.9876 80.1553 63.5806 79.781 63.0972C79.3049 62.483 79.0723 61.7198 79.1413 61.0003C79.214 60.208 79.6647 59.4738 80.3188 59.0886C80.5914 58.9287 80.8785 58.8342 81.1257 58.7652C82.0633 58.4999 82.8701 58.4599 83.5933 58.6452C84.531 58.8887 85.276 59.5465 85.5377 60.3606C85.6104 60.5896 85.4832 60.8367 85.2542 60.913C85.0252 60.9893 84.7781 60.8621 84.7018 60.6296C84.5346 60.1062 84.0113 59.6592 83.3716 59.4957C82.8047 59.3467 82.1505 59.3866 81.3655 59.6083C81.1729 59.6628 80.9512 59.7319 80.7659 59.8445C80.3516 60.088 80.0644 60.5605 80.0172 61.0802C79.97 61.5817 80.1371 62.1196 80.4788 62.5594C80.7731 62.9373 81.2856 63.2244 81.6381 63.0536C81.8561 62.9482 82.1178 63.0391 82.2268 63.2535C82.3322 63.4716 82.2414 63.7332 82.027 63.8386C81.8198 63.9404 81.609 63.984 81.4019 63.984L81.3946 63.9876Z" fill="black"/>
<path d="M67.0866 59.441C68.4677 58.736 65.0732 61.876 63.8485 62.8463C63.118 63.4242 62.2203 63.7149 61.3227 63.8857C58.5243 64.4273 55.5078 63.8712 53.1709 62.1486C50.8377 60.4259 49.2677 57.5076 49.2895 54.4948C49.2895 54.4948 51.7209 59.441 58.2008 60.7239C58.2008 60.7239 62.9763 61.5344 67.0866 59.4374V59.441Z" fill="#F19DB8"/>
<path d="M59.2293 64.5254C56.9324 64.5254 54.7082 63.824 52.9129 62.5011C50.387 60.6403 48.8316 57.5694 48.8534 54.4947C48.8534 54.2912 48.9951 54.1168 49.195 54.0695C49.3949 54.0223 49.5984 54.1204 49.6856 54.3021C49.7074 54.3494 52.1133 59.0739 58.288 60.2951C58.3207 60.2987 62.9617 61.051 66.8867 59.0485C67.043 58.9686 67.5227 58.7251 67.7735 59.1176C67.9879 59.4519 67.9225 59.7172 66.3779 61.1891C65.622 61.9123 64.6698 62.7518 64.1174 63.188C63.4269 63.7331 62.5655 64.0893 61.4026 64.3146C60.6757 64.4563 59.9452 64.5254 59.2256 64.5254H59.2293ZM49.8928 56.2065C50.3289 58.398 51.6009 60.4441 53.4326 61.796C55.595 63.3915 58.4406 63.9948 61.239 63.4569C62.2566 63.2606 63.0017 62.9554 63.5759 62.5011C64.1901 62.0177 65.1531 61.1528 65.9018 60.4295C62.1112 61.8069 58.3062 61.1891 58.1281 61.1564C53.7451 60.2878 51.1648 57.831 49.8928 56.2065Z" fill="black"/>
<path d="M69.6595 45.4163C71.5893 45.2891 73.2974 43.6064 73.4574 41.6766C73.352 42.6761 73.3701 43.7373 73.8426 44.6277C74.315 45.5181 75.3544 46.1686 76.3284 45.9142C75.2563 46.2522 74.2169 46.7537 73.3847 47.506C72.5524 48.262 71.9382 49.2941 71.8256 50.4135C71.8655 49.3777 71.9055 48.3128 71.5675 47.3316C71.2295 46.3503 70.43 45.4599 69.4015 45.3291" fill="#FFEC66"/>
<path d="M71.822 50.8533C71.822 50.8533 71.8002 50.8533 71.793 50.8533C71.5567 50.8388 71.375 50.6352 71.3859 50.399C71.4259 49.4141 71.4659 48.3929 71.1497 47.477C70.9207 46.8156 70.401 46.1106 69.7032 45.8562H69.6923C69.5869 45.8671 69.4888 45.8343 69.4089 45.7762C69.3871 45.7726 69.3652 45.7689 69.3434 45.7653C69.1036 45.7362 68.9328 45.5145 68.9618 45.2747C68.9909 45.0348 69.2126 44.864 69.4525 44.8931C69.5688 44.9076 69.6814 44.9294 69.7941 44.9621C71.4114 44.7695 72.8142 43.3776 73.0068 41.7603C73.0104 41.7167 73.0141 41.6731 73.0213 41.6331C73.0468 41.3933 73.2539 41.2188 73.4974 41.2406C73.7373 41.2624 73.9117 41.4732 73.8936 41.7131C73.8899 41.7567 73.8863 41.8003 73.879 41.8439C73.7736 42.9596 73.8863 43.781 74.2243 44.4206C74.5877 45.1075 75.4309 45.6926 76.2122 45.4855C76.4412 45.4237 76.6811 45.5581 76.7465 45.7871C76.8119 46.0161 76.6847 46.2559 76.4557 46.3286C75.3037 46.692 74.3697 47.1972 73.6719 47.8296C72.8651 48.5601 72.349 49.5195 72.2545 50.4535C72.2327 50.6789 72.0437 50.8497 71.8184 50.8497L71.822 50.8533ZM70.9171 45.5799C71.3786 45.9834 71.753 46.5394 71.9783 47.1899C72.091 47.5134 72.1636 47.8441 72.2109 48.1785C72.4544 47.8223 72.7488 47.4879 73.0868 47.1827C73.5447 46.7684 74.0862 46.4049 74.7076 46.0924C74.1661 45.798 73.7191 45.3328 73.4538 44.8349C73.2866 44.5224 73.174 44.1917 73.0977 43.8646C72.5598 44.6314 71.793 45.2456 70.9171 45.5799Z" fill="black"/>
</svg>
