<svg width="72" height="36" viewBox="0 0 72 36" fill="none" xmlns="http://www.w3.org/2000/svg">
<rect width="72" height="36" rx="18" fill="#EAEAF2"/>
<circle cx="18" cy="18" r="15" fill="white"/>
<circle cx="54" cy="18" r="15" fill="#EAEAF2"/>
<path d="M52.0189 11.4705C52.1306 11.582 52.2043 11.7259 52.2295 11.8817C52.2547 12.0375 52.2301 12.1973 52.1592 12.3383C51.6312 13.3881 51.4476 14.5777 51.6345 15.7378C51.8214 16.898 52.3692 17.9697 53.2001 18.8006C54.031 19.6315 55.1028 20.1794 56.2629 20.3662C57.4231 20.5531 58.6126 20.3695 59.6624 19.8415C59.8033 19.7705 59.9631 19.7458 60.1189 19.7708C60.2747 19.7959 60.4187 19.8694 60.5303 19.981C60.6419 20.0926 60.7155 20.2366 60.7405 20.3924C60.7655 20.5482 60.7408 20.708 60.6698 20.8489C60.1655 21.8507 59.4307 22.7185 58.5257 23.381C57.6208 24.0435 56.5716 24.4819 55.4643 24.66C54.357 24.8381 53.2232 24.751 52.1562 24.4057C51.0891 24.0604 50.1192 23.4669 49.3261 22.6738C48.5331 21.8808 47.9396 20.9109 47.5943 19.8438C47.249 18.7768 47.1618 17.643 47.34 16.5357C47.5181 15.4284 47.9565 14.3792 48.619 13.4742C49.2815 12.5693 50.1493 11.8345 51.1511 11.3302C51.2922 11.2591 51.4521 11.2344 51.6081 11.2596C51.7641 11.2848 51.9081 11.3586 52.0197 11.4705H52.0189ZM50.1159 14.0035C49.1928 15.0716 48.7082 16.4496 48.7594 17.8604C48.8106 19.2712 49.3939 20.6103 50.3921 21.6087C51.3902 22.607 52.7293 23.1906 54.1401 23.2421C55.5509 23.2936 56.9289 22.8092 57.9972 21.8863C56.9312 22.0143 55.8502 21.8984 54.8355 21.5475C53.8209 21.1966 52.8992 20.6198 52.1401 19.8607C51.3809 19.1015 50.8041 18.1798 50.4532 17.1652C50.1023 16.1506 49.9865 15.0695 50.1144 14.0035H50.1159Z" fill="#171717"/>
<path d="M18 10.125C18.2089 10.125 18.4092 10.208 18.5568 10.3557C18.7045 10.5033 18.7875 10.7036 18.7875 10.9125V11.7C18.7875 11.9089 18.7045 12.1092 18.5568 12.2568C18.4092 12.4045 18.2089 12.4875 18 12.4875C17.7911 12.4875 17.5908 12.4045 17.4432 12.2568C17.2955 12.1092 17.2125 11.9089 17.2125 11.7V10.9125C17.2125 10.7036 17.2955 10.5033 17.4432 10.3557C17.5908 10.208 17.7911 10.125 18 10.125ZM23.5684 12.4316C23.716 12.5793 23.799 12.7795 23.799 12.9884C23.799 13.1972 23.716 13.3974 23.5684 13.5451L23.0117 14.1019C22.939 14.1771 22.8521 14.2371 22.756 14.2784C22.66 14.3196 22.5566 14.3414 22.4521 14.3423C22.3475 14.3432 22.2438 14.3232 22.147 14.2836C22.0502 14.2441 21.9623 14.1856 21.8884 14.1116C21.8144 14.0377 21.756 13.9498 21.7164 13.853C21.6768 13.7562 21.6568 13.6525 21.6577 13.5479C21.6586 13.4434 21.6804 13.34 21.7216 13.244C21.7629 13.1479 21.8229 13.061 21.8981 12.9884L22.4549 12.4316C22.6026 12.284 22.8028 12.201 23.0117 12.201C23.2205 12.201 23.4207 12.284 23.5684 12.4316ZM12.4316 12.4316C12.5793 12.284 12.7795 12.201 12.9884 12.201C13.1972 12.201 13.3974 12.284 13.5451 12.4316L14.1019 12.9884C14.2453 13.1369 14.3247 13.3358 14.3229 13.5423C14.3211 13.7488 14.2383 13.9463 14.0923 14.0923C13.9463 14.2383 13.7488 14.3211 13.5423 14.3229C13.3358 14.3247 13.1369 14.2453 12.9884 14.1019L12.4316 13.5451C12.284 13.3974 12.201 13.1972 12.201 12.9884C12.201 12.7795 12.284 12.5793 12.4316 12.4316ZM18 14.85C17.1646 14.85 16.3634 15.1819 15.7726 15.7726C15.1819 16.3634 14.85 17.1646 14.85 18C14.85 18.8354 15.1819 19.6366 15.7726 20.2274C16.3634 20.8181 17.1646 21.15 18 21.15C18.8354 21.15 19.6366 20.8181 20.2274 20.2274C20.8181 19.6366 21.15 18.8354 21.15 18C21.15 17.1646 20.8181 16.3634 20.2274 15.7726C19.6366 15.1819 18.8354 14.85 18 14.85ZM13.275 18C13.275 16.7469 13.7728 15.545 14.6589 14.6589C15.545 13.7728 16.7469 13.275 18 13.275C19.2531 13.275 20.455 13.7728 21.3411 14.6589C22.2272 15.545 22.725 16.7469 22.725 18C22.725 19.2531 22.2272 20.455 21.3411 21.3411C20.455 22.2272 19.2531 22.725 18 22.725C16.7469 22.725 15.545 22.2272 14.6589 21.3411C13.7728 20.455 13.275 19.2531 13.275 18ZM10.125 18C10.125 17.7911 10.208 17.5908 10.3557 17.4432C10.5033 17.2955 10.7036 17.2125 10.9125 17.2125H11.7C11.9089 17.2125 12.1092 17.2955 12.2568 17.4432C12.4045 17.5908 12.4875 17.7911 12.4875 18C12.4875 18.2089 12.4045 18.4092 12.2568 18.5568C12.1092 18.7045 11.9089 18.7875 11.7 18.7875H10.9125C10.7036 18.7875 10.5033 18.7045 10.3557 18.5568C10.208 18.4092 10.125 18.2089 10.125 18ZM23.5125 18C23.5125 17.7911 23.5955 17.5908 23.7432 17.4432C23.8908 17.2955 24.0911 17.2125 24.3 17.2125H25.0875C25.2964 17.2125 25.4967 17.2955 25.6443 17.4432C25.792 17.5908 25.875 17.7911 25.875 18C25.875 18.2089 25.792 18.4092 25.6443 18.5568C25.4967 18.7045 25.2964 18.7875 25.0875 18.7875H24.3C24.0911 18.7875 23.8908 18.7045 23.7432 18.5568C23.5955 18.4092 23.5125 18.2089 23.5125 18ZM12.9884 21.8981C13.1369 21.7547 13.3358 21.6753 13.5423 21.6771C13.7488 21.6789 13.9463 21.7617 14.0923 21.9077C14.2383 22.0537 14.3211 22.2512 14.3229 22.4577C14.3247 22.6642 14.2453 22.8631 14.1019 23.0117L13.5451 23.5684C13.3966 23.7119 13.1977 23.7912 12.9912 23.7894C12.7847 23.7876 12.5872 23.7048 12.4412 23.5588C12.2952 23.4128 12.2124 23.2153 12.2106 23.0088C12.2088 22.8023 12.2881 22.6034 12.4316 22.4549L12.9884 21.8981ZM21.8981 23.0117C21.7547 22.8631 21.6753 22.6642 21.6771 22.4577C21.6789 22.2512 21.7617 22.0537 21.9077 21.9077C22.0537 21.7617 22.2512 21.6789 22.4577 21.6771C22.6642 21.6753 22.8631 21.7547 23.0117 21.8981L23.5684 22.4549C23.7119 22.6034 23.7912 22.8023 23.7894 23.0088C23.7876 23.2153 23.7048 23.4128 23.5588 23.5588C23.4128 23.7048 23.2153 23.7876 23.0088 23.7894C22.8023 23.7912 22.6034 23.7119 22.4549 23.5684L21.8981 23.0117ZM18 23.5125C18.2089 23.5125 18.4092 23.5955 18.5568 23.7432C18.7045 23.8908 18.7875 24.0911 18.7875 24.3V25.0875C18.7875 25.2964 18.7045 25.4967 18.5568 25.6443C18.4092 25.792 18.2089 25.875 18 25.875C17.7911 25.875 17.5908 25.792 17.4432 25.6443C17.2955 25.4967 17.2125 25.2964 17.2125 25.0875V24.3C17.2125 24.0911 17.2955 23.8908 17.4432 23.7432C17.5908 23.5955 17.7911 23.5125 18 23.5125Z" fill="black"/>
</svg>
