<svg width="97" height="110" viewBox="0 0 97 110" fill="none" xmlns="http://www.w3.org/2000/svg">
<g id="Group">
<path id="Vector" d="M75.4702 106.317C74.0264 106.437 72.2778 106.432 71.5085 105.358C71.2537 105.003 71.1138 104.534 70.9689 104.044L70.874 103.729C69.8698 100.477 67.5617 97.7044 64.5442 96.1207C61.5316 94.537 57.9396 94.2172 54.6872 95.2364C54.0977 95.4212 53.3733 95.7959 52.6439 96.2855C56.0112 87.5477 55.5216 76.0871 51.0452 67.2593L48.2525 62.708C48.1226 62.4932 47.8878 62.3733 47.633 62.3933C47.3832 62.4133 47.1684 62.5681 47.0685 62.8029L44.2258 69.6573C44.1559 69.8322 44.1609 70.027 44.2408 70.1969C48.1126 78.3902 48.2225 87.9224 44.5905 97.8343C42.697 95.2164 39.7944 93.3879 36.592 92.8533C35.6678 92.6985 34.7286 92.6535 33.8243 92.6036C32.4854 92.5336 31.2214 92.4687 30.0274 92.089C28.8584 91.7143 27.7693 90.835 27.2597 89.8458C26.9249 89.1963 26.855 88.5569 27.0548 87.9474C27.1548 87.6326 27.0149 87.2929 26.7201 87.148C26.4254 86.9981 26.0706 87.0881 25.8808 87.3578C23.9124 90.1356 24.3071 94.472 26.7951 97.4396C28.7884 99.8127 31.8509 101.411 35.9026 102.181C36.4721 102.291 37.0417 102.381 37.6162 102.47C38.9701 102.685 40.2491 102.885 41.473 103.315C43.2466 103.934 44.5755 105.008 45.185 106.287C45.1351 106.642 45.3749 106.972 45.7296 107.032C47.0435 107.252 48.1026 106.457 49.0369 105.758C49.3466 105.528 49.6364 105.308 49.9311 105.123C52.6189 103.465 56.196 104.973 58.0895 106.023C58.694 106.357 59.2935 106.717 59.893 107.077C62.0112 108.351 64.2044 109.665 66.7424 109.939C67.0821 109.974 67.4168 109.994 67.7565 109.994C70.6941 109.994 73.5018 108.665 75.805 107.581C76.0947 107.446 76.2446 107.117 76.1647 106.807C76.0847 106.497 75.79 106.297 75.4702 106.317Z" fill="#11CE11"/>
<path id="Vector_2" d="M11.7515 80.7783C10.3027 82.3969 9.94802 84.8649 10.9522 86.8083C11.6566 88.1772 12.9705 89.1564 14.4393 89.5311C15.1737 89.7159 15.9431 89.7509 16.7025 89.606C16.7325 89.601 16.7624 89.5811 16.7924 89.5711C17.2371 89.8758 17.7317 90.1156 18.2362 90.2405C18.3811 90.2755 18.526 90.3055 18.6709 90.3254C19.705 90.4703 21.0589 90.2405 21.7534 89.1564C21.9682 88.8167 22.0681 88.397 22.0481 87.9774C22.3878 87.9724 22.7326 87.9224 23.0773 87.8225C24.2014 87.5028 25.1006 86.7184 25.4803 85.7242C25.87 84.71 25.7001 83.511 25.0357 82.5118C24.3762 81.5276 23.3471 80.9231 22.2779 80.8982C21.6834 80.8832 21.1239 81.0181 20.6243 81.138C20.5843 81.148 20.5593 81.1729 20.5244 81.1879C19.1105 80.2787 18.0814 78.7699 17.7666 77.1163C17.4719 75.5825 18.4211 73.4093 19.8749 72.2802C19.9049 72.2602 19.9299 72.2352 19.9548 72.2103L29.0174 62.5132C29.2073 62.3084 29.2522 62.0036 29.1223 61.7538C28.9924 61.504 28.7227 61.3641 28.4479 61.3991C24.5111 61.9037 20.1297 62.6181 17.4719 64.0469C14.3294 65.7356 12.0013 68.2435 10.9122 71.1112C9.71821 74.2486 10.1029 77.8856 11.7665 80.7833L11.7515 80.7783Z" fill="#11CE11"/>
<path id="Vector_3" d="M46.0736 63.0578C55.7775 63.0578 63.6442 55.1911 63.6442 45.4871C63.6442 35.7831 55.7775 27.9165 46.0736 27.9165C36.3696 27.9165 28.5029 35.7831 28.5029 45.4871C28.5029 55.1911 36.3696 63.0578 46.0736 63.0578Z" fill="white"/>
<path id="Vector_4" d="M28.5431 41.3255C24.3365 41.6603 20.085 41.3755 15.9634 40.4762C11.3421 39.4671 6.64599 37.5087 3.86826 33.6768C1.09053 29.8449 1.02558 23.7999 4.73255 20.8573C6.92076 19.1237 9.89333 18.764 12.681 18.8589C21.4339 19.1537 29.9769 23.4052 35.4824 30.2146" fill="white"/>
<path id="Vector_5" d="M36.078 30.2246C31.5906 23.6866 30.6261 14.4637 33.6544 6.98705C34.244 5.52447 34.9936 4.10555 36.098 3.05228C38.7315 0.541884 43.2553 -0.141666 46.1436 1.99763C49.037 4.14238 50.4447 8.72249 51.2593 12.4335C52.3886 17.5744 51.9888 23.0972 50.1399 27.9816L50.3648 27.0156" fill="white"/>
<path id="Vector_6" d="M50.665 26.7525C50.9848 24.3195 52.1438 22.0763 53.4178 19.978C55.3062 16.8656 57.5244 13.888 60.4171 11.6798C63.3097 9.47162 66.9467 8.07277 70.5737 8.40749C74.2008 8.74222 77.7229 11.0104 79.0168 14.4126C80.091 17.2403 79.5464 20.4876 78.1725 23.1804C76.7987 25.8732 74.6654 28.0964 72.4572 30.1647C69.6695 32.7776 65.388 35.2805 61.711 36.3296" fill="white"/>
<path id="Vector_7" d="M62.9098 36.015C68.6052 33.9367 74.7102 32.9924 80.7652 33.2572C84.3973 33.4121 88.1392 34.0466 91.1517 36.0849C94.1593 38.1232 96.2526 41.8402 95.4932 45.3973C95.1385 47.0509 94.2092 48.5447 93.0602 49.7887C90.1476 52.9411 85.8811 54.5748 81.6245 55.0993C77.363 55.6289 73.0516 55.1543 68.785 54.6797L61.7158 53.8953" fill="white"/>
<path id="Vector_8" d="M28.5535 43.2941C26.3453 42.2949 23.8624 42.0951 21.4393 42.0251C17.7574 41.9202 13.9854 42.0951 10.5533 43.424C8.28511 44.2983 6.21181 45.6722 4.51819 47.4107C2.7946 49.1843 1.42572 51.4574 1.35078 53.9304C1.25586 57.0778 3.33416 60.0104 6.04694 61.5991C8.76472 63.1878 12.0171 63.6125 15.1645 63.5375C21.3994 63.3927 27.5793 61.3793 32.7051 57.8222" fill="white"/>
<path id="Vector_9" d="M30.8561 59.0161C27.4489 60.5549 24.3215 63.3676 22.2932 66.505C20.2648 69.6424 19.4705 73.6841 20.6995 77.2112C21.9334 80.7383 25.3856 83.5261 29.1226 83.4711C32.0502 83.4311 34.718 81.7775 36.9312 79.8591C41.7722 75.6625 45.2394 69.9072 46.6832 63.6673" fill="white"/>
<path id="Vector_10" d="M49.0017 62.9478C48.6869 65.186 49.9908 67.2943 51.2498 69.1677C53.5429 72.585 55.896 76.0221 58.9685 78.7649C62.036 81.5077 65.9328 83.536 70.0494 83.5959C74.1661 83.6559 78.4376 81.4377 80.0662 77.6558C82.1445 72.8248 79.5067 67.1994 75.9496 63.3225C72.3176 59.3608 66.8071 55.5989 61.7163 53.8853" fill="white"/>
<g id="Group_2">
<path id="Vector_11" d="M46.0736 63.058C55.7775 63.058 63.6442 55.1914 63.6442 45.4874C63.6442 35.7834 55.7775 27.9167 46.0736 27.9167C36.3696 27.9167 28.5029 35.7834 28.5029 45.4874C28.5029 55.1914 36.3696 63.058 46.0736 63.058Z" fill="#FFE027"/>
<path id="Vector_12" d="M46.0739 63.7224C36.0172 63.7224 27.8389 55.5441 27.8389 45.4873C27.8389 35.4305 36.0172 27.2522 46.0739 27.2522C56.1307 27.2522 64.309 35.4305 64.309 45.4873C64.309 55.5441 56.1307 63.7224 46.0739 63.7224ZM46.0739 28.5811C36.7516 28.5811 29.1678 36.1649 29.1678 45.4873C29.1678 54.8097 36.7516 62.3934 46.0739 62.3934C55.3963 62.3934 62.9801 54.8097 62.9801 45.4873C62.9801 36.1649 55.3963 28.5811 46.0739 28.5811Z" fill="black"/>
</g>
<path id="Vector_13" d="M25.1111 42.1298C21.9937 42.1298 18.8812 41.7951 15.8237 41.1306C10.0085 39.8617 5.8069 37.4886 3.33392 34.0714C0.456279 30.1047 0.166516 23.6399 4.31812 20.3426C6.28651 18.7789 9.03926 18.0695 12.7013 18.1994C21.6539 18.4992 30.3618 22.8356 36.0022 29.7999C36.232 30.0847 36.187 30.5043 35.9023 30.7341C35.6175 30.964 35.1979 30.919 34.968 30.6342C29.5725 23.9697 21.2293 19.8181 12.6613 19.5283C9.31403 19.4184 6.86104 20.0229 5.14744 21.3818C1.64531 24.1645 1.94506 29.8898 4.41304 33.2871C6.69118 36.4295 10.628 38.6327 16.1085 39.8267C20.1801 40.716 24.3467 40.9957 28.4933 40.661C28.863 40.631 29.1828 40.9058 29.2078 41.2705C29.2377 41.6352 28.963 41.96 28.5983 41.9849C27.4342 42.0799 26.2702 42.1248 25.1111 42.1248V42.1298Z" fill="black"/>
<path id="Vector_14" d="M36.2174 31.074C36.0026 31.074 35.7978 30.9741 35.6679 30.7842C31.0267 23.9798 30.0475 14.5625 33.1749 6.79384C33.8644 5.07525 34.7336 3.6714 35.7578 2.62226C38.9352 -0.635078 44.101 -0.88987 47.5132 2.04273C50.0911 4.25592 51.2002 8.53742 52.0395 12.3793C53.1935 17.6749 52.7889 23.3603 50.8954 28.3912C50.7705 28.7209 50.4158 28.8958 50.0811 28.7958C49.7464 28.6959 49.5465 28.3512 49.6265 28.0115L49.8513 27.0373C49.8862 26.8824 49.9762 26.7475 50.0911 26.6576C51.5149 22.1863 51.7497 17.2703 50.7455 12.664C49.9512 9.03201 48.917 5.00031 46.6489 3.05191C43.7663 0.573933 39.3998 0.798749 36.712 3.5515C35.8078 4.47574 35.0334 5.73471 34.4089 7.28844C31.4913 14.5475 32.4355 23.685 36.767 30.0348C36.9718 30.3396 36.8969 30.7542 36.5921 30.9591C36.4772 31.039 36.3473 31.074 36.2174 31.074Z" fill="black"/>
<path id="Vector_15" d="M61.7115 36.9841C61.4218 36.9841 61.157 36.7942 61.0721 36.4995C60.9721 36.1448 61.177 35.7801 61.5317 35.6801C65.0238 34.6859 69.2354 32.2729 72.0081 29.6701C74.1064 27.7017 76.2347 25.5184 77.5836 22.8706C79.0174 20.0629 79.3171 17.0604 78.3979 14.6423C77.2538 11.6348 74.0864 9.39164 70.5143 9.06691C67.302 8.76715 63.8598 9.88624 60.8223 12.2043C58.3893 14.0628 56.221 16.6407 53.9879 20.3227C52.8488 22.2012 51.6398 24.4493 51.325 26.8374C51.2751 27.2021 50.9503 27.4569 50.5806 27.4119C50.2159 27.3619 49.9612 27.0322 50.0061 26.6675C50.3558 24.0347 51.6398 21.6316 52.8488 19.6333C55.1669 15.8064 57.445 13.1136 60.0129 11.1502C63.3102 8.62727 67.0821 7.41826 70.6342 7.74299C74.7009 8.11769 78.318 10.7006 79.6419 14.1727C80.696 16.9405 80.3763 20.3327 78.7676 23.4801C77.3238 26.3078 75.1006 28.5959 72.9174 30.6443C70.0048 33.377 65.5734 35.9149 61.8964 36.9591C61.8364 36.9791 61.7765 36.9841 61.7115 36.9841Z" fill="black"/>
<path id="Vector_16" d="M77.6133 55.9936C74.6158 55.9936 71.6282 55.6589 68.7106 55.3391L61.6414 54.5548C61.2767 54.5148 61.0119 54.1851 61.0518 53.8204C61.0918 53.4557 61.4165 53.1959 61.7862 53.2309L68.8555 54.0152C73.0221 54.4798 77.3335 54.9594 81.5401 54.4349C86.1413 53.8653 90.0581 52.0518 92.5711 49.329C93.7801 48.0251 94.5394 46.6512 94.8442 45.2524C95.4887 42.2349 93.82 38.6927 90.7825 36.6344C88.3245 34.9708 85.1321 34.1065 80.7407 33.9167C74.8056 33.6619 68.7256 34.6011 63.1451 36.6394C62.8004 36.7643 62.4207 36.5895 62.2908 36.2448C62.1659 35.9 62.3408 35.5203 62.6855 35.3904C68.4308 33.2972 74.6957 32.333 80.7957 32.5927C85.4469 32.7926 88.8541 33.7268 91.5269 35.5353C94.4645 37.5287 97.0324 41.3905 96.1431 45.5371C95.7934 47.1758 94.9191 48.7545 93.5503 50.2383C90.8225 53.1909 86.6159 55.1493 81.7049 55.7588C80.3461 55.9286 78.9772 55.9936 77.6183 55.9986L77.6133 55.9936Z" fill="black"/>
<path id="Vector_17" d="M14.4847 64.2119C10.9276 64.2119 8.04998 63.5425 5.7119 62.1736C2.55948 60.3301 0.58609 57.0878 0.681012 53.9104C0.770939 50.9078 2.55448 48.4698 4.03827 46.946C5.79183 45.1425 7.96006 43.7087 10.3081 42.7994C14.0451 41.3556 18.0418 41.2607 21.454 41.3556C23.917 41.4256 26.5099 41.6354 28.823 42.6845C29.1577 42.8344 29.3076 43.2291 29.1527 43.5638C29.0028 43.8985 28.6082 44.0484 28.2734 43.8935C26.1752 42.9443 23.7371 42.7495 21.419 42.6845C18.1367 42.5896 14.3049 42.6795 10.7877 44.0384C8.61452 44.8777 6.61116 46.2017 4.99249 47.8703C3.67856 49.2242 2.08986 51.3724 2.01492 53.9453C1.92999 56.6431 3.64858 59.4208 6.38135 61.0195C8.64949 62.3484 11.5122 62.9529 15.1442 62.868C21.2242 62.7231 27.3242 60.7398 32.3251 57.2726C32.6249 57.0628 33.0395 57.1377 33.2494 57.4425C33.4592 57.7422 33.3843 58.1569 33.0795 58.3667C27.8688 61.9788 21.509 64.0521 15.1742 64.1969C14.9393 64.2019 14.7095 64.2069 14.4797 64.2069L14.4847 64.2119Z" fill="black"/>
<path id="Vector_18" d="M29.023 84.1356C25.1862 84.1356 21.4392 81.3329 20.0753 77.4311C18.8364 73.884 19.4558 69.6674 21.734 66.1403C23.9022 62.788 27.1296 59.9703 30.5817 58.4066C30.9165 58.2567 31.3112 58.4066 31.461 58.7364C31.6109 59.0711 31.461 59.4658 31.1313 59.6156C27.9539 61.0545 24.8564 63.7622 22.8531 66.8597C20.7948 70.0421 20.2252 73.829 21.3293 76.9864C22.5233 80.4036 25.7807 82.8766 29.1129 82.8017C31.441 82.7667 33.8541 81.6376 36.4969 79.3495C41.233 75.2428 44.6253 69.6174 46.0391 63.5124C46.124 63.1527 46.4787 62.9329 46.8384 63.0129C47.1982 63.0978 47.418 63.4525 47.338 63.8122C45.8592 70.192 42.3221 76.0672 37.3712 80.3537C34.4836 82.8566 31.7908 84.0906 29.1379 84.1306C29.103 84.1306 29.063 84.1306 29.028 84.1306L29.023 84.1356Z" fill="black"/>
<g id="Group_3">
<g id="Group_4">
<g id="Group_5">
<path id="Vector_19" d="M41.4876 49.4541C44.0205 49.4541 46.0739 46.6873 46.0739 43.2742C46.0739 39.8611 44.0205 37.0942 41.4876 37.0942C38.9547 37.0942 36.9014 39.8611 36.9014 43.2742C36.9014 46.6873 38.9547 49.4541 41.4876 49.4541Z" fill="white"/>
<path id="Vector_20" d="M41.4871 50.1185C38.5895 50.1185 36.2314 47.046 36.2314 43.2691C36.2314 39.4922 38.5895 36.4197 41.4871 36.4197C44.3848 36.4197 46.7378 39.4922 46.7378 43.2691C46.7378 47.046 44.3798 50.1185 41.4871 50.1185ZM41.4871 37.7536C39.3239 37.7536 37.5654 40.2266 37.5654 43.2691C37.5654 46.3116 39.3239 48.7846 41.4871 48.7846C43.6504 48.7846 45.4089 46.3116 45.4089 43.2691C45.4089 40.2266 43.6504 37.7536 41.4871 37.7536Z" fill="black"/>
</g>
<g id="Group_6">
<path id="Vector_21" d="M43.4305 46.3364C42.5212 46.3364 42.0316 46.0067 41.8468 45.2423L42.5162 44.6078C42.6561 44.4729 42.7311 44.2881 42.7211 44.0933C42.7111 43.8984 42.6161 43.7186 42.4663 43.5987L41.627 42.9442C41.6369 42 41.8967 41.2156 42.3713 40.721C42.6811 40.3963 43.0658 40.2114 43.4255 40.2114C44.3098 40.2114 45.1091 41.2006 45.3239 42.5595C45.3539 42.8193 45.3739 43.119 45.3789 43.4088C45.3389 45.0125 44.4646 46.3364 43.4255 46.3364H43.4305Z" fill="black"/>
<path id="Vector_22" d="M43.4304 40.8759C43.89 40.8759 44.4895 41.5454 44.6694 42.6345C44.6993 42.8843 44.7143 43.1391 44.7193 43.3939C44.6794 44.6978 44.0099 45.672 43.4304 45.672C43.0007 45.672 42.7659 45.6021 42.626 45.4222L42.9707 45.0925C43.2505 44.8277 43.4054 44.448 43.3854 44.0633C43.3654 43.6736 43.1806 43.3139 42.8758 43.0791L42.3063 42.6345C42.3563 42.01 42.5461 41.5054 42.8508 41.1857C43.0657 40.9609 43.2855 40.8809 43.4254 40.8809M43.4254 39.552C42.2963 39.552 40.8525 40.7061 40.9674 43.279L42.0565 44.1283L41.1273 45.0075C41.2971 46.4164 42.1514 47.0059 43.4254 47.0059C44.8442 47.0059 45.9933 45.4072 46.0432 43.4088C46.0432 43.0841 46.0183 42.7694 45.9833 42.4646C45.7185 40.801 44.6744 39.557 43.4254 39.557V39.552Z" fill="black"/>
</g>
</g>
<path id="Vector_23" d="M48.2019 44.1683C48.162 44.1683 48.117 44.1683 48.0721 44.1583C47.7123 44.0884 47.4775 43.7387 47.5475 43.379C48.097 40.5762 50.7848 38.468 53.4277 38.7877C54.8365 38.9576 56.3453 39.9717 56.5052 41.5804C56.5401 41.9451 56.2753 42.2699 55.9106 42.3098C55.5559 42.3498 55.2212 42.08 55.1812 41.7153C55.0913 40.8111 54.1271 40.2165 53.2678 40.1116C51.2794 39.8718 49.2711 41.4955 48.8514 43.6387C48.7915 43.9585 48.5117 44.1783 48.197 44.1783L48.2019 44.1683Z" fill="black"/>
</g>
<g id="Group_7">
<path id="Vector_24" d="M14.1246 83.4162C13.9598 83.4162 13.7949 83.3562 13.665 83.2363C10.4676 80.2088 9.32854 75.2229 10.8923 71.1112C11.9814 68.2436 14.3145 65.7356 17.4519 64.047C20.0847 62.6332 22.6676 61.8388 26.0848 61.3992C26.4495 61.3542 26.7843 61.609 26.8292 61.9737C26.8742 62.3384 26.6194 62.6731 26.2547 62.7181C23.0073 63.1328 20.5644 63.8821 18.0814 65.2161C15.2237 66.7498 13.1104 69.013 12.1312 71.5809C10.7524 75.2079 11.7566 79.5993 14.5742 82.2671C14.839 82.5219 14.854 82.9416 14.5992 83.2063C14.4693 83.3462 14.2945 83.4162 14.1146 83.4162H14.1246Z" fill="black"/>
<path id="Vector_25" d="M20.2592 82.4819C20.1393 82.4819 20.0194 82.4519 19.9095 82.3819C18.1309 81.2878 16.837 79.4094 16.4473 77.3611C16.0576 75.3177 17.1767 72.6799 19.0452 71.2261C19.335 71.0013 19.7546 71.0562 19.9794 71.341C20.2042 71.6307 20.1543 72.0504 19.8645 72.2752C18.4107 73.4093 17.4615 75.5775 17.7563 77.1113C18.076 78.7999 19.1451 80.3436 20.6089 81.2479C20.9237 81.4377 21.0186 81.8524 20.8287 82.1621C20.7038 82.367 20.484 82.4769 20.2592 82.4769V82.4819Z" fill="black"/>
<path id="Vector_26" d="M19.2301 90.3654C19.0352 90.3654 18.8454 90.3504 18.6655 90.3255C16.847 90.0707 14.9536 88.4919 15.0685 86.3937C15.0884 86.029 15.3982 85.7392 15.7679 85.7642C16.1326 85.7842 16.4174 86.0989 16.3974 86.4636C16.3274 87.7476 17.6364 88.8367 18.8504 89.0065C19.4898 89.0965 20.2942 88.9566 20.6239 88.437C20.7388 88.2571 20.7388 87.9624 20.6339 87.7276C20.3591 87.6177 20.1043 87.4778 19.8745 87.2979C19.6497 87.1281 19.5598 86.8333 19.6447 86.5635C19.7296 86.2938 19.9794 86.1089 20.2592 86.1039C20.6939 86.0939 21.1235 86.2688 21.4482 86.5885C21.8429 86.6784 22.2776 86.6634 22.7072 86.5435C23.4316 86.3387 24.0012 85.8541 24.231 85.2496C24.4658 84.6351 24.3509 83.8907 23.9212 83.2512C23.5016 82.6267 22.8721 82.2421 22.2326 82.2271C21.8179 82.2121 21.3633 82.327 20.9287 82.4319C20.574 82.5218 20.2142 82.297 20.1243 81.9423C20.0344 81.5876 20.2592 81.2279 20.6139 81.138C21.1135 81.0181 21.683 80.8782 22.2676 80.8982C23.3367 80.9281 24.3659 81.5326 25.0253 82.5118C25.6948 83.506 25.8596 84.71 25.4749 85.7242C25.0953 86.7184 24.196 87.5028 23.0719 87.8225C22.7322 87.9224 22.3825 87.9724 22.0428 87.9774C22.0627 88.397 21.9678 88.8167 21.748 89.1564C21.1735 90.0507 20.1543 90.3654 19.2301 90.3654Z" fill="black"/>
<path id="Vector_27" d="M15.7482 89.691C13.7848 89.691 11.8614 88.5719 10.9471 86.8033C9.88801 84.75 10.3276 82.0972 11.9913 80.4985C12.2561 80.2437 12.6757 80.2537 12.9305 80.5185C13.1853 80.7833 13.1753 81.2029 12.9105 81.4577C11.6765 82.6417 11.3418 84.6801 12.1262 86.1938C12.9105 87.7126 14.764 88.6168 16.4426 88.2971C16.8123 88.2322 17.1521 88.467 17.222 88.8267C17.2919 89.1864 17.0521 89.5361 16.6924 89.606C16.3777 89.666 16.058 89.696 15.7432 89.696L15.7482 89.691Z" fill="black"/>
</g>
<g id="Group_8">
<path id="Vector_28" d="M44.5601 51.0177C45.4444 51.6621 46.6434 51.847 47.6776 51.4973C48.7117 51.1475 49.556 50.2733 49.8658 49.2241C50.6102 50.3282 51.0498 51.7071 50.7601 53.011C50.4753 54.315 49.3262 55.459 47.9923 55.469C46.9981 55.474 46.0739 54.8695 45.4994 54.0602C44.9248 53.2508 44.665 52.2616 44.5352 51.2774" fill="#F19DB8"/>
<path id="Vector_29" d="M47.9726 56.1334C46.8336 56.1334 45.7045 55.504 44.9551 54.4448C44.3956 53.6555 44.0459 52.6463 43.876 51.3624C43.866 51.2674 43.876 51.1775 43.896 51.0926C43.876 50.9327 43.916 50.7678 44.0209 50.628C44.2357 50.3332 44.6554 50.2682 44.9501 50.4831C45.6545 50.9977 46.6387 51.1475 47.4631 50.8678C48.2874 50.588 48.9768 49.8686 49.2266 49.0393C49.3016 48.7945 49.5114 48.6096 49.7662 48.5696C50.026 48.5297 50.2758 48.6446 50.4206 48.8544C51.3649 50.2583 51.7146 51.782 51.4148 53.1559C51.0401 54.8445 49.5763 56.1235 48.0026 56.1384H47.9776L47.9726 56.1334ZM45.3798 52.1567C45.5346 52.7662 45.7545 53.2708 46.0442 53.6805C46.5388 54.3749 47.2732 54.8095 47.9726 54.8095H47.9876C48.9369 54.8045 49.8711 53.9502 50.1109 52.8711C50.2608 52.1967 50.1758 51.4273 49.8761 50.6679C49.3815 51.3374 48.6821 51.8619 47.8877 52.1317C47.0784 52.4065 46.1941 52.4065 45.3798 52.1617V52.1567Z" fill="black"/>
</g>
<path id="Vector_30" d="M44.4347 100.492C44.3298 100.492 44.2099 100.457 44.085 100.382C43.7753 100.193 43.6904 99.7679 43.8752 99.4531C43.8852 99.4332 43.9002 99.4182 43.9102 99.3982L44.0401 99.1984C44.075 99.1484 44.11 99.0884 44.16 99.0235C48.2466 88.682 48.2766 78.7151 44.2499 70.1971C44.095 69.8624 44.2349 69.4677 44.5646 69.3128C44.8994 69.1529 45.294 69.2978 45.4489 69.6275C49.6405 78.4953 49.6155 88.8368 45.379 99.5431C45.364 99.583 45.344 99.623 45.324 99.658C45.314 99.678 45.299 99.6929 45.289 99.7129L45.1592 99.9128C45.1242 99.9677 45.0842 100.033 45.0343 100.098C45.0293 100.113 45.0193 100.128 45.0093 100.138H45.0043C44.8694 100.312 44.6745 100.487 44.4297 100.487L44.4347 100.492Z" fill="black"/>
<path id="Vector_31" d="M50.0254 100.837C49.9055 100.837 49.7856 100.807 49.6757 100.737C49.361 100.547 49.266 100.132 49.4559 99.8227C54.7266 91.2397 54.9064 77.8157 49.8905 67.9088C49.7257 67.579 49.8555 67.1794 50.1853 67.0145C50.515 66.8446 50.9147 66.9795 51.0795 67.3093C56.2903 77.6008 56.0855 91.5694 50.5949 100.522C50.47 100.727 50.2502 100.837 50.0254 100.837Z" fill="black"/>
<path id="Vector_32" d="M45.9542 107.012C45.6844 107.012 45.4346 106.847 45.3347 106.582C44.7951 105.173 43.3962 103.984 41.4828 103.32C40.2538 102.89 38.9799 102.69 37.626 102.475C37.0514 102.386 36.4819 102.296 35.9124 102.186C31.8607 101.411 28.7982 99.8177 26.8048 97.4446C24.3169 94.477 23.9222 90.1406 25.8906 87.3628C26.0804 87.0931 26.4351 87.0031 26.7299 87.153C27.0246 87.3029 27.1645 87.6426 27.0646 87.9524C26.8648 88.5619 26.9347 89.2013 27.2694 89.8508C27.779 90.84 28.8631 91.7243 30.0372 92.094C31.2312 92.4737 32.4952 92.5386 33.8341 92.6085C34.7383 92.6535 35.6776 92.7035 36.6018 92.8583C40.2588 93.4678 43.5261 95.761 45.3397 98.9933C45.5195 99.3131 45.4046 99.7177 45.0849 99.8976C44.7651 100.077 44.3605 99.9625 44.1806 99.6428C42.5869 96.8001 39.5994 94.7018 36.382 94.1673C35.5327 94.0274 34.6734 93.9824 33.7691 93.9375C32.4052 93.8675 30.9964 93.7976 29.6375 93.3629C28.1237 92.8833 26.7649 91.7692 26.0904 90.4603C26.0804 90.4403 26.0704 90.4203 26.0604 90.4004C25.7057 92.4437 26.3252 94.8018 27.829 96.5953C29.6175 98.7285 32.4252 100.172 36.1672 100.887C36.7217 100.992 37.2813 101.082 37.8358 101.167C39.1897 101.381 40.5836 101.601 41.9225 102.071C44.2056 102.865 45.8992 104.344 46.5786 106.117C46.7085 106.462 46.5387 106.847 46.194 106.977C46.114 107.007 46.0341 107.022 45.9592 107.022L45.9542 107.012Z" fill="black"/>
<path id="Vector_33" d="M67.7612 109.999C67.4264 109.999 67.0867 109.979 66.747 109.944C64.2091 109.665 62.0158 108.351 59.8976 107.077C59.2981 106.717 58.7036 106.357 58.0991 106.023C56.2056 104.978 52.6285 103.47 49.9407 105.123C49.651 105.303 49.3562 105.523 49.0515 105.753C48.1172 106.452 47.0681 107.252 45.7442 107.027C45.3795 106.967 45.1397 106.622 45.1996 106.262C45.2596 105.903 45.5993 105.658 45.964 105.718C46.7184 105.843 47.4628 105.283 48.2521 104.694C48.5718 104.454 48.9016 104.204 49.2463 103.994C52.5086 101.981 56.6003 103.67 58.7435 104.859C59.363 105.198 59.9725 105.568 60.582 105.933C62.6753 107.187 64.6487 108.371 66.8969 108.615C68.8552 108.83 70.8536 108.266 72.6821 107.526C71.7978 107.327 70.9935 106.912 70.429 106.132C70.0443 105.593 69.8644 104.998 69.6946 104.419L69.6046 104.114C68.7004 101.197 66.6321 98.7086 63.9293 97.2947C61.2265 95.8759 58.0041 95.5861 55.0915 96.5054C53.5228 97 51.0448 98.9883 50.6651 100.347C50.5652 100.702 50.2005 100.907 49.8458 100.807C49.4911 100.707 49.2863 100.342 49.3862 99.9875C49.9357 98.0241 52.9383 95.786 54.6918 95.2364C57.9392 94.2123 61.5312 94.537 64.5488 96.1207C67.5613 97.7044 69.8694 100.477 70.8736 103.729L70.9685 104.049C71.1134 104.544 71.2533 105.008 71.5081 105.363C72.2775 106.432 74.031 106.437 75.4698 106.322C75.7896 106.302 76.0843 106.502 76.1643 106.812C76.2492 107.122 76.0943 107.446 75.8046 107.586C73.5014 108.675 70.6937 109.999 67.7561 109.999H67.7612Z" fill="black"/>
<path id="Vector_34" d="M86.4312 55.0893C87.0307 54.8195 87.5703 54.3898 88 53.8203C88.7843 52.7812 89.0791 51.4572 88.7943 50.2782C88.3147 48.2998 86.3813 46.7961 84.233 46.6312C84.1581 45.612 83.9832 44.5979 83.7185 43.6137C83.4886 42.7494 83.114 41.6652 82.2746 40.8859C81.4453 40.1165 80.0315 39.7168 78.9324 40.4363C78.0981 40.9858 77.2987 42.2348 78.2329 45.0725L78.4128 45.612C77.7034 45.0974 76.969 44.6128 76.2246 44.1632C75.5402 43.7485 74.7908 43.3938 73.9664 43.5887C73.0572 43.8035 72.3627 44.7128 72.3128 45.7469C72.2778 46.4863 72.5276 47.2407 73.0672 48.065C73.7066 49.0292 74.5659 49.8336 75.5551 50.4131C74.8157 50.8927 74.2662 51.6321 74.0614 52.4414C73.6567 54.0701 74.481 55.9336 76.0298 56.8828C76.8241 57.3674 77.7883 57.6172 78.7925 57.6172C79.1322 57.6172 79.4769 57.5872 79.8266 57.5323C80.556 59.101 81.3154 60.9245 81.3054 62.778C81.2954 64.3667 80.556 66.2851 78.9324 66.9945C78.6476 67.1194 78.5077 67.4192 78.5577 67.7139C78.4678 67.9737 78.4777 68.2635 78.6376 68.5133C78.9224 68.9479 79.1772 69.4026 79.397 69.8772C79.4469 69.9821 79.4919 70.087 79.5369 70.1869L79.5469 70.2069C79.5718 70.2669 79.5968 70.3268 79.6168 70.3868C79.7117 70.6316 79.7967 70.8764 79.8716 71.1261C80.0165 71.6058 80.0864 72.0954 80.2113 72.575C80.3112 72.9547 80.616 73.2494 80.9807 73.3593C81.1056 73.4742 81.2655 73.5442 81.4353 73.5442C81.5352 73.5442 81.6352 73.5242 81.7251 73.4742C84.8026 71.9705 88.0449 69.6174 88.7543 63.5573C88.9642 61.7738 88.8543 60.1751 88.4296 58.8062C87.91 57.1426 87.2755 55.9486 86.4412 55.0793L86.4312 55.0893Z" fill="#11CE11"/>
<path id="Vector_35" d="M78.7924 57.6223C77.7883 57.6223 76.824 57.3725 76.0297 56.8879C74.486 55.9437 73.6566 54.0752 74.0663 52.4466C74.2711 51.6372 74.8157 50.8928 75.5601 50.4182C74.5709 49.8387 73.7116 49.0394 73.0721 48.0701C72.5276 47.2508 72.2828 46.4914 72.3177 45.752C72.3677 44.7129 73.0621 43.8036 73.9714 43.5938C74.8007 43.399 75.5451 43.7587 76.2295 44.1683C76.9789 44.618 77.7083 45.1026 78.4177 45.6171L78.2379 45.0776C77.3037 42.2399 78.103 40.9909 78.9373 40.4414C80.0364 39.722 81.4503 40.1216 82.2796 40.891C83.1139 41.6654 83.4886 42.7545 83.7234 43.6138C83.9882 44.603 84.163 45.6122 84.238 46.6313C86.3812 46.7962 88.3146 48.305 88.7992 50.2783C89.084 51.4524 88.7892 52.7763 88.0049 53.8154C87.2855 54.7747 86.2513 55.3492 85.1672 55.3941C85.1572 55.3941 85.1472 55.3941 85.1372 55.3941C84.7825 55.3941 84.4878 55.1144 84.4728 54.7547C84.4578 54.39 84.7426 54.0802 85.1073 54.0602C85.7917 54.0303 86.4562 53.6506 86.9358 53.0111C87.4753 52.2967 87.6902 51.3674 87.5003 50.5881C87.1206 49.0344 85.397 47.8453 83.6385 47.9452C83.4586 47.9452 83.2838 47.8903 83.1539 47.7704C83.024 47.6505 82.944 47.4806 82.939 47.3058C82.8991 46.1767 82.7292 45.0476 82.4345 43.9535C82.2496 43.2641 81.9598 42.4048 81.3703 41.8602C80.9257 41.4456 80.1663 41.2158 79.6617 41.5505C78.8124 42.11 79.1921 43.7387 79.4969 44.6579L80.3561 47.2758C80.4511 47.5606 80.3412 47.8653 80.0964 48.0352C79.8516 48.205 79.5218 48.185 79.297 47.9952C78.118 47.006 76.849 46.1018 75.5351 45.3074C75.0905 45.0376 74.6258 44.8028 74.2661 44.8877C73.8964 44.9727 73.6566 45.4273 73.6366 45.812C73.6167 46.2566 73.7915 46.7562 74.1712 47.3357C74.9855 48.5647 76.2845 49.499 77.7133 49.8986C77.9032 49.9236 78.088 49.9686 78.2679 50.0335C78.5976 50.1484 78.7774 50.4982 78.6875 50.8329C78.5976 51.1676 78.2629 51.3774 77.9181 51.3125C77.7633 51.2825 77.6134 51.2475 77.4585 51.2076C77.1238 51.1826 76.7641 51.2575 76.4194 51.4424C75.8798 51.7321 75.4751 52.2267 75.3403 52.7663C75.0755 53.8254 75.665 55.1094 76.7091 55.7489C77.6933 56.3534 79.0622 56.4583 80.3611 56.0286C80.7109 55.9137 81.0856 56.1036 81.2005 56.4533C81.3154 56.803 81.1255 57.1777 80.7758 57.2926C80.1164 57.5074 79.4369 57.6173 78.7774 57.6173L78.7924 57.6223Z" fill="black"/>
<path id="Vector_36" d="M79.197 68.2734C78.9422 68.2734 78.6974 68.1236 78.5875 67.8738C78.4376 67.539 78.5925 67.1444 78.9322 66.9995C80.5559 66.2851 81.2953 64.3666 81.3053 62.7829C81.3153 60.8945 80.5259 59.041 79.7865 57.4523C79.6316 57.1176 79.7765 56.7229 80.1062 56.568C80.436 56.4131 80.8356 56.558 80.9905 56.8878C81.7899 58.6063 82.6442 60.6247 82.6342 62.7879C82.6192 64.8063 81.635 67.2643 79.4618 68.2185C79.3768 68.2585 79.2869 68.2734 79.197 68.2734Z" fill="black"/>
<path id="Vector_37" d="M81.4245 73.5492C81.1797 73.5492 80.9399 73.4144 80.825 73.1746C80.6651 72.8448 80.8 72.4451 81.1297 72.2853C84.0224 70.8714 86.7901 68.8181 87.4246 63.4125C87.6094 61.8138 87.5195 60.4 87.1498 59.211C86.4954 57.1127 85.7709 56.2684 85.2813 55.8188C85.0116 55.569 84.9966 55.1493 85.2414 54.8795C85.4912 54.6097 85.9108 54.5947 86.1806 54.8395C87.1398 55.7238 87.8492 56.9878 88.4188 58.8163C88.8434 60.1852 88.9533 61.7839 88.7435 63.5674C88.0341 69.6225 84.7917 71.9805 81.7143 73.4843C81.6193 73.5293 81.5194 73.5542 81.4245 73.5542V73.5492Z" fill="black"/>
<path id="Vector_38" d="M78.9569 54.5547C78.9019 54.5547 78.842 54.5547 78.787 54.5497C78.4223 54.5247 78.1425 54.205 78.1675 53.8403C78.1925 53.4706 78.5172 53.2108 78.8769 53.2208C79.3016 53.2507 79.7512 53.0509 80.036 52.7112C80.2308 52.4764 80.3108 52.2166 80.2508 51.9968C80.1859 51.752 79.9511 51.5122 79.6163 51.3623C79.1817 51.1624 78.6671 51.1525 78.3074 51.3273C77.9777 51.4922 77.578 51.3573 77.4131 51.0276C77.2483 50.6978 77.3832 50.2982 77.7129 50.1333C78.4373 49.7736 79.3516 49.7736 80.1659 50.1433C80.8703 50.463 81.3699 51.0176 81.5398 51.657C81.7046 52.2965 81.5298 52.9909 81.0602 53.5555C80.5406 54.18 79.7512 54.5497 78.9569 54.5497V54.5547Z" fill="black"/>
<path id="Vector_39" d="M82.6734 53.4258C81.7142 53.4258 80.785 53.196 80.4103 52.2767C80.0306 51.3325 80.1805 50.6181 80.3703 50.1835C80.6801 49.484 81.3246 48.9395 82.2338 48.6047C82.5785 48.4798 82.9582 48.6547 83.0881 48.9994C83.218 49.3441 83.0382 49.7238 82.6934 49.8537C82.1389 50.0586 81.7442 50.3683 81.5843 50.723C81.4544 51.0178 81.4744 51.3625 81.6393 51.7821C81.8391 52.2717 83.238 52.0869 84.0773 51.972L84.1572 51.962C84.5219 51.912 84.8567 52.1668 84.9066 52.5315C84.9566 52.8962 84.7018 53.231 84.3371 53.2809L84.2572 53.2909C83.7825 53.3559 83.223 53.4308 82.6685 53.4308L82.6734 53.4258Z" fill="black"/>
<path id="Vector_40" d="M70.209 84.2655C70.149 84.2655 70.0891 84.2655 70.0341 84.2655C66.1523 84.2105 62.0607 82.432 58.5186 79.2646C54.7017 75.8524 52.1987 72.7349 50.645 69.4576C50.3502 68.8381 50.0305 68.1936 49.7108 67.5392C49.0113 66.1253 48.2869 64.6565 47.7424 63.3026C47.6075 62.9629 47.7723 62.5732 48.1121 62.4383C48.4518 62.3035 48.8415 62.4683 48.9764 62.808C49.5009 64.117 50.2153 65.5558 50.9048 66.9497C51.2295 67.6091 51.5543 68.2586 51.849 68.8831C53.3278 71.9955 55.7258 74.9781 59.4078 78.2704C62.7101 81.223 66.492 82.8816 70.0541 82.9316C74.1508 83.0065 78.0226 80.7134 79.4514 77.3911C81.4498 72.7449 78.697 67.3094 75.4597 63.7723C71.7877 59.7655 66.3072 56.1335 61.5061 54.5148C61.1564 54.3949 60.9715 54.0202 61.0865 53.6705C61.2064 53.3258 61.581 53.136 61.9308 53.2509C66.9317 54.9345 72.627 58.7114 76.4439 62.868C79.966 66.7098 82.9286 72.68 80.6804 77.9107C79.0667 81.6626 74.7803 84.2555 70.219 84.2555L70.209 84.2655Z" fill="black"/>
</g>
</svg>
